<svg width="239" height="200" viewBox="0 0 239 200" fill="none" xmlns="http://www.w3.org/2000/svg">
    <circle cx="119.5" cy="98" r="76" fill="white" fill-opacity="0.1"/>
    <circle cx="119.5" cy="98" r="54" fill="white"/>
    <path fill-rule="evenodd" clip-rule="evenodd"
          d="M102.345 80.7361C104.095 79.0464 106.883 79.0951 108.573 80.8448L120.266 92.9534L131.959 80.8448C133.649 79.0951 136.437 79.0464 138.187 80.7361C139.936 82.4259 139.985 85.2142 138.295 86.9639L126.389 99.2938L138.295 111.624C139.985 113.373 139.936 116.162 138.187 117.851C136.437 119.541 133.649 119.492 131.959 117.743L120.266 105.634L108.573 117.743C106.883 119.492 104.095 119.541 102.345 117.851C100.595 116.162 100.547 113.373 102.236 111.624L114.143 99.2938L102.236 86.9639C100.546 85.2142 100.595 82.4259 102.345 80.7361Z"
          fill="#00112C"/>
    <path
            d="M211.513 48.3654C214.72 52.951 213.749 58.1825 211.64 59.4064C208.741 61.0907 203.52 59.1604 202.616 54.0001C200.793 43.5874 197.562 43.0734 197.596 40.896C197.65 37.4934 208.306 43.7786 211.513 48.3654ZM202.001 25.2355C204.081 27.1845 204.809 29.8282 203.627 31.1384C202.446 32.4497 198.95 32.7621 197.489 30.2898C194.746 25.6493 191.538 23.592 191.04 22.5184C190.307 20.9413 199.921 23.2854 202.001 25.2355ZM222.814 36.8372C225.062 39.2955 225.677 42.4369 224.186 43.8544C222.697 45.2718 218.602 45.3149 217.12 42.3052C214.337 36.6542 210.786 33.9685 210.301 32.6735C209.587 30.7712 220.566 34.3788 222.814 36.8372Z"
            fill="white"/>
    <path
            d="M38.343 167.648C36.0026 170.94 36.7115 174.695 38.2504 175.574C40.3665 176.783 44.1767 175.397 44.8365 171.693C46.1668 164.218 48.5248 163.849 48.4998 162.286C48.4606 159.843 40.6835 164.355 38.343 167.648ZM30.0955 159.372C28.4548 161.137 28.0061 163.392 29.0938 164.41C30.1806 165.427 33.1691 165.458 34.251 163.297C36.282 159.241 38.8735 157.313 39.228 156.383C39.7485 155.017 31.7362 157.607 30.0955 159.372Z"
            fill="white"/>
</svg>
