<svg viewBox="0 0 14 14" fill="none" xmlns="http://www.w3.org/2000/svg">
  <g clip-path="url(#clip0_856_313)">
    <path
      d="M11.6667 5.25H6.41667C5.77233 5.25 5.25 5.77233 5.25 6.41667V11.6667C5.25 12.311 5.77233 12.8333 6.41667 12.8333H11.6667C12.311 12.8333 12.8333 12.311 12.8333 11.6667V6.41667C12.8333 5.77233 12.311 5.25 11.6667 5.25Z"
      stroke="currentColor" stroke-width="1.2" stroke-linecap="round" stroke-linejoin="round"/>
    <path
      d="M2.91675 8.74999H2.33341C2.024 8.74999 1.72725 8.62707 1.50846 8.40828C1.28966 8.18949 1.16675 7.89274 1.16675 7.58332V2.33332C1.16675 2.0239 1.28966 1.72716 1.50846 1.50837C1.72725 1.28957 2.024 1.16666 2.33341 1.16666H7.58341C7.89283 1.16666 8.18958 1.28957 8.40837 1.50837C8.62716 1.72716 8.75008 2.0239 8.75008 2.33332V2.91666"
      stroke="currentColor" stroke-width="1.2" stroke-linecap="round" stroke-linejoin="round"/>
  </g>
  <defs>
    <clipPath id="clip0_856_313">
      <rect width="14" height="14" fill="white"/>
    </clipPath>
  </defs>
</svg>