<svg width="182" height="160" viewBox="0 0 182 160" fill="none" xmlns="http://www.w3.org/2000/svg">
    <path d="M50.2777 144.5C47.6977 146.401 42.6601 146.238 41.5489 141.958C37.7761 127.414 33.8689 112.904 29.9929 98.384C26.7593 86.2576 23.5209 74.1319 20.2777 62.0072C19.2769 58.2488 21.0496 55.5416 24.4984 54.5C25.048 54.368 25.9616 55.8016 25.4984 56.5C25.1912 56.9608 24.0529 55.5656 23.7337 56.036C22.5601 57.7687 22.5817 59.636 23.0857 61.556C24.0577 65.2615 25.0057 68.9744 26.0209 72.6656C27.1561 76.7839 28.2217 80.9192 29.3641 85.0352C30.0841 87.6487 30.7033 90.296 31.4017 92.9192C32.4457 96.8527 33.4897 100.786 34.5913 104.706C35.7145 108.704 36.8113 112.707 37.8001 116.742C38.6665 120.27 39.7201 123.752 40.6033 127.273C41.4289 130.52 42.5233 133.695 43.1281 137.005C43.4681 138.652 43.9747 140.26 44.6401 141.805C45.2353 143.278 44.2611 142.079 45.9819 142C46.3707 142.06 50.1769 143.934 50.2777 144.5Z" fill="#272728"/>
    <path d="M81.4984 124C81.9984 123 81.524 119.978 80.9984 120L73.9942 90.2437C71.4742 80.6261 68.9518 71.0173 66.427 61.4173C65.4238 57.5965 64.3894 53.7853 63.4174 49.9573C62.9014 47.8837 60.9238 46.0021 58.1374 46.8565C55.5382 47.6509 52.8982 48.2725 50.263 48.9829C49.8766 49.2517 49.8598 49.6717 49.8982 50.0605C50.0062 51.1909 49.447 51.6997 48.4102 51.9997C45.5782 52.8205 42.7294 53.5813 39.9046 54.4285C38.9614 54.7117 38.3878 54.4333 37.927 53.6269C37.291 52.5157 36.8998 52.3717 35.6998 52.7557C35.3998 52.8541 35.1142 52.9813 34.7998 53.0581C32.419 53.6437 30.055 54.3037 27.7006 54.9925C26.251 55.4173 24.8422 55.9789 24.2974 57.6157C23.76 58.8696 23.6685 60.2698 24.0382 61.5829C26.8494 72.1205 29.6574 82.6573 32.4622 93.1933C36.6478 108.856 40.8206 124.527 44.9806 140.207C45.2926 141.381 45.8302 142.345 46.8502 143.02C48.6766 143.67 50.179 142.873 51.6958 141.99C56.7982 139.009 61.9174 136.06 67.0294 133.096C70.9638 130.805 74.8998 128.517 78.8374 126.234C79.9726 125.579 80.8706 125.256 81.4984 124Z" fill="white"/>
    <path d="M64.8476 49.4679C63.866 45.7839 61.466 44.4135 57.7868 45.4047L24.7952 54.053C24.6673 54.0957 23.7213 54.686 23.6259 54.7814C22.0395 56.135 21.7981 58.1675 22.1245 60.2771L43.4983 141.5C44.4983 144 47.4983 146 50.4983 144.5C59.1379 139.485 67.8836 134.363 76.5323 129.298L76.5335 129.297L80.1981 127.151C82.9983 125.512 83.6681 124.59 83.4983 121.5C83.402 119.749 82.1427 120.547 80.9073 121.33C80.817 121.387 80.7268 121.444 80.6373 121.5C80.8869 122.107 81.0165 123.832 80.6373 124.362C80.174 124.966 79.5874 125.463 78.9165 125.822C74.432 128.476 69.9182 131.081 65.4043 133.686L65.4023 133.687L65.4013 133.688C62.0673 135.612 58.7332 137.536 55.4109 139.48C55.1491 139.635 54.8873 139.786 54.6255 139.938C54.1675 140.204 53.7088 140.47 53.2509 140.75L53.1372 140.82C51.5545 141.795 49.973 142.77 48.1224 142.993C47.701 143.015 47.2874 142.986 46.9357 142.619C45.8389 141.752 45.3181 140.564 44.9797 139.259C43.6406 134.083 42.2582 128.919 40.8758 123.755L40.8754 123.754C40.1494 121.042 39.4234 118.33 38.7037 115.616C37.6148 111.51 36.5169 107.403 35.419 103.296C34.3995 99.483 33.38 95.6696 32.3677 91.8563C29.7037 81.8947 27.0517 71.9291 24.4117 61.9595C24.0181 60.4379 23.9173 58.9811 24.4117 57.4883L24.4126 57.4823C25.2988 56.1983 26.5534 55.4905 28.0679 55.1055C30.8159 54.4071 33.5543 53.6631 36.2831 52.8927C37.0223 52.6863 37.3535 52.8735 37.6151 53.5935C38.0639 54.8367 38.6807 55.1031 39.9383 54.7527C40.9142 54.4757 41.8923 54.1984 42.8702 53.9211L42.8748 53.9198C44.4372 53.4767 45.9992 53.0338 47.5511 52.5927C49.7962 51.9546 50.0449 51.882 50.1535 50.0801C50.1804 49.6329 50.4926 49.2516 50.9289 49.1499L51.5516 49.0047C52.7169 48.7161 53.8726 48.3907 55.028 48.0655C56.1784 47.7415 57.3285 47.4177 58.4876 47.1303C60.3332 46.6695 61.9124 47.4375 62.7332 49.1583C62.953 49.6291 63.1235 50.1213 63.242 50.6271C63.4799 51.5932 63.7408 52.5539 64.0016 53.5141C64.1698 54.1331 64.3378 54.752 64.4996 55.3719C65.9077 60.7734 67.3317 66.1701 68.7556 71.5664L68.7566 71.5702C70.0408 76.4373 71.325 81.3041 72.5972 86.1735C72.7038 86.5818 72.8222 86.9882 72.9406 87.3949C73.3452 88.7839 73.751 90.1773 73.6916 91.6623C74.2987 91.5717 74.52 92.0509 74.7104 92.4629C74.8606 92.7882 74.9916 93.0716 75.2775 93C75.6366 92.9101 75.5977 92.6581 75.5624 92.429C75.5302 92.2205 75.501 92.031 75.7775 92C75.7775 91.0415 75.6185 90.4439 75.4933 89.9732L75.4772 89.9128C73.2884 81.5672 71.098 73.2231 68.906 64.8807C68.5134 63.3876 68.1216 61.8935 67.73 60.4002L67.7261 60.3853C66.7714 56.7449 65.8167 53.1046 64.8476 49.4679Z" fill="#414DD2"/>
    <path d="M40.8621 73.8592C40.9269 68.3824 45.2853 63.8272 50.5029 63.7792C54.9477 63.7408 58.1661 66.6088 59.0445 71.392C60.0453 76.8232 55.5861 82.6312 50.1069 83.0344C44.9781 83.4184 40.7973 79.2784 40.8621 73.8592Z" fill="#C2D3FF"/>
    <path d="M58.6368 72.8678C58.6368 77.807 54.5976 82.3478 50.1144 82.5614C42.78 82.9118 39.5544 75.3614 42.2832 69.7934C43.7904 66.7262 46.1688 64.7534 49.6272 64.3214C54.96 63.6662 58.8096 68.1422 58.6368 72.8678Z" fill="#FBFCFB"/>
    <circle cx="53.9989" cy="21.5427" r="12" transform="rotate(-18.7547 53.9989 21.5427)" fill="#312359"/>
    <circle cx="54.9458" cy="21.2212" r="12" transform="rotate(-18.7547 54.9458 21.2212)" fill="#5460F8"/>
    <circle cx="54.9458" cy="21.2212" r="9" transform="rotate(-18.7547 54.9458 21.2212)" fill="white"/>
    <path d="M54.2391 18.2237C55.1432 17.9167 55.8528 18.0267 56.2257 18.0848L56.0689 16.3857C55.5381 16.3074 54.9129 16.2985 54.0575 16.5516L53.6419 15.3276L52.3915 15.7521L52.8409 17.0758C51.5793 17.8177 51.1218 19.0424 51.5431 20.2832C52.0036 21.6394 53.1731 22.0168 54.6987 22.0521C55.7659 22.078 56.2853 22.2702 56.4648 22.7989C56.6504 23.3453 56.2591 23.8281 55.5209 24.0787C54.6921 24.3601 53.8378 24.319 53.2035 24.1835L53.3828 25.9488C53.9599 26.0663 54.8793 26.049 55.7396 25.8129L56.1887 27.1357L57.44 26.7108L56.9513 25.2717C58.3236 24.5109 58.7474 23.1867 58.3622 21.9522C57.9355 20.6956 57.0685 20.1221 55.3653 20.0557C54.1131 19.9826 53.5751 19.833 53.4234 19.3862C53.2887 18.9897 53.4094 18.5054 54.2391 18.2237Z" fill="#3F4BD9"/>
    <path d="M53.9984 90.7251L61.4984 120.725C68.6984 126.725 80.4984 122.892 85.4984 120.225C97.8984 114.625 109.332 117.225 113.498 119.225L105.998 90.7251C100.398 85.1251 89.665 87.0584 84.9984 88.7251C68.1984 96.3251 57.3317 93.2251 53.9984 90.7251Z" fill="#000977"/>
    <path d="M54.7776 89.5L62.2776 119.5C69.4776 125.5 81.2776 121.667 86.2776 119C98.6776 113.4 110.111 116 114.278 118L106.778 89.5C101.178 83.9 90.4443 85.8333 85.7776 87.5C68.9776 95.1 58.1109 92 54.7776 89.5Z" fill="#5460F8"/>
    <path d="M64.8916 96.679C64.3911 99.0855 62.8405 99.65 61.6952 99.6075C61.3844 99.5959 61.1014 99.8825 61.1822 100.183L64.4285 112.24C64.4707 112.397 64.6044 112.512 64.7645 112.54C67.7385 113.062 69.4442 115.926 69.9681 117.412C69.9888 117.47 70.0185 117.522 70.0663 117.562C71.7519 118.957 80.5901 117.465 86.9984 115C91.988 113.081 99.8318 111.929 103.551 111.544C103.79 111.52 103.951 111.29 103.913 111.053C103.478 108.294 105.138 107.533 106.422 107.477C106.701 107.465 106.929 107.21 106.864 106.938L104.33 96.3818C104.131 95.5543 103.419 94.9736 102.608 94.7177C100.74 94.1288 99.5254 92.819 98.804 91.5619C98.1159 90.3627 97.2012 89.1688 95.82 89.1063C95.3515 89.0851 94.8565 89.0923 94.3418 89.1235C87.282 89.5519 81.0758 93.8917 74.198 95.5413C70.4414 96.4424 67.427 96.4219 65.6682 96.1356C65.3096 96.0773 64.9656 96.3233 64.8916 96.679Z" fill="white"/>
    <path d="M78.7778 100.5C77.7652 102.575 77.5529 106.294 80.1674 108.798C81.4117 109.99 83.1622 110.57 84.8806 110.448C86.8153 110.309 88.8963 109.476 90.0646 107.305C91.4667 104.699 91.2138 101.299 89.2552 99.0812C88.1925 97.8778 86.5464 97.0915 84.9417 97.041C81.7011 96.939 79.5469 99.1408 78.7778 100.5Z" fill="#3F4BD9"/>
    <path d="M84.3938 101.632C85.142 101.422 85.7057 101.512 86.0018 101.56L85.9902 100.321C85.5683 100.256 85.0658 100.24 84.3604 100.412L84.1084 99.5148L83.0736 99.8054L83.346 100.776C82.2807 101.297 81.83 102.182 82.0854 103.091C82.3645 104.085 83.2802 104.377 84.5055 104.425C85.3625 104.46 85.7676 104.608 85.8764 104.995C85.9888 105.396 85.6414 105.741 85.0305 105.913C84.3445 106.105 83.6598 106.063 83.1586 105.955L83.1838 107.243C83.6403 107.337 84.3814 107.338 85.0895 107.178L85.3618 108.148L86.3973 107.857L86.1011 106.802C87.2568 106.269 87.687 105.311 87.4603 104.407C87.2017 103.486 86.5427 103.056 85.1765 102.982C84.1737 102.91 83.7509 102.794 83.6589 102.466C83.5773 102.175 83.7071 101.825 84.3938 101.632Z" fill="white"/>
    <circle cx="83.5146" cy="143.2" r="8.64" transform="rotate(-41.8401 83.5146 143.2)" fill="#000977"/>
    <circle cx="82.978" cy="143.68" r="8.64" transform="rotate(-41.8401 82.978 143.68)" fill="#5460F8"/>
    <circle cx="82.9784" cy="143.68" r="6.48" transform="rotate(-41.8401 82.9784 143.68)" fill="white"/>
    <path d="M86.2627 143.429C86.168 143.673 85.8879 144.139 85.5099 144.477C85.098 144.846 84.6035 145.074 84.0828 145.022C83.8378 144.997 83.5824 144.894 83.3105 144.706L85.3781 142.855L84.8704 142.288L82.6877 144.242L82.5733 144.115C82.4945 144.027 82.4234 143.947 82.3591 143.86L84.534 141.912L84.027 141.346L81.976 143.182C81.8486 142.923 81.7654 142.667 81.7755 142.427C81.7652 141.904 82.007 141.443 82.3942 141.096C82.7559 140.772 83.1953 140.566 83.4878 140.462L82.9032 139.347C82.4928 139.485 81.9485 139.77 81.454 140.213C80.6715 140.914 80.2837 141.807 80.2881 142.739C80.2834 143.3 80.4223 143.849 80.6916 144.333L79.9635 144.972L80.4706 145.539L81.1082 144.98C81.1803 145.061 81.2429 145.148 81.3144 145.228L81.4358 145.363L80.8066 145.914L81.3143 146.481L82.0261 145.856C82.4796 146.213 82.9507 146.409 83.416 146.481C84.4069 146.659 85.4248 146.322 86.2401 145.592C86.7672 145.12 87.1093 144.541 87.2543 144.139L86.2627 143.429Z" fill="#3F4BD9"/>
    <rect x="94.8315" y="5" width="73.8733" height="44" rx="4" transform="rotate(24.2242 94.8315 5)" fill="url(#paint0_linear_146_439)"/>
    <path d="M93.1903 8.64779C94.0967 6.63318 96.4647 5.7348 98.4793 6.64123L158.552 33.6696C160.567 34.576 161.465 36.944 160.559 38.9586L153.314 55.0607L85.9456 24.7499L93.1903 8.64779Z" fill="#5460F8"/>
    <rect x="99.8479" y="18.2227" width="12" height="7" rx="1" transform="rotate(24.2242 99.8479 18.2227)" fill="#737DFF"/>
    <ellipse cx="106.818" cy="63" rx="12.96" ry="13" fill="#14004C"/>
    <ellipse cx="105.738" cy="63" rx="12.96" ry="13" fill="#5460F8"/>
    <ellipse cx="105.738" cy="63" rx="9.72" ry="9.75" fill="white"/>
    <path d="M109.74 68.4166H101.418V66.822H103.006V64.1825H101.545V62.5324H103.006V60.9377C103.133 58.812 104.297 57.6933 106.5 57.5833C108.363 57.6203 109.55 58.6102 110.058 60.5527L108.025 61.2676C107.685 59.875 107.156 59.2151 106.437 59.288C105.674 59.325 105.271 59.8199 105.23 60.7727V62.5324H108.215V64.1824H105.23V66.8218H109.74V68.4166Z" fill="#3F4BD9"/>
    <path d="M53.4301 68.9072L48.7962 68.4318C48.791 68.431 48.7847 68.4305 48.7795 68.4297C48.7461 68.4219 48.6052 68.3944 48.4737 68.4304L48.4592 68.4351C48.3304 68.4838 48.2327 68.5868 48.209 68.6129C48.2052 68.6166 48.2018 68.6214 48.1966 68.6243L44.7143 71.7053C44.6517 71.7562 44.6322 71.8414 44.6548 71.9119L44.7237 72.1267C44.7474 72.2005 44.8258 72.2407 44.8996 72.217L45.3381 72.0763C45.3985 72.0569 45.4636 72.0792 45.4979 72.1323C45.6199 72.3239 45.8486 72.2369 45.8848 72.2228L52.7639 70.0143C52.8019 70.0058 53.0385 69.9434 53.0258 69.7156C53.0228 69.6524 53.0628 69.5963 53.1232 69.5769L53.5616 69.4362C53.6355 69.4125 53.6757 69.3342 53.652 69.2603L53.5867 69.0568C53.5845 69.0501 53.5831 69.0419 53.5821 69.0348C53.5687 68.9663 53.5083 68.9203 53.4301 68.9072ZM54.9329 74.5914L46.7999 77.2024C46.4878 77.3026 46.5926 77.6058 46.5926 77.6058L46.7139 77.9839C46.7376 78.0577 46.816 78.098 46.8898 78.0743L55.3662 75.353C55.44 75.3293 55.4802 75.251 55.4565 75.1772L55.3352 74.7991C55.3352 74.7991 55.2461 74.4909 54.9329 74.5914ZM46.2898 72.5851L47.394 76.0246L47.0462 76.1363C46.7889 76.2189 46.8314 76.4742 46.842 76.5226C46.8434 76.5271 46.8438 76.5319 46.8448 76.5353L46.8937 76.6874C46.9174 76.7612 46.9957 76.8015 47.0695 76.7778L54.481 74.3984C54.5549 74.3747 54.5951 74.2964 54.5714 74.2226L54.5226 74.0704C54.5211 74.066 54.5197 74.0615 54.5175 74.0585C54.4979 74.0129 54.3839 73.7806 54.1266 73.8632L53.7787 73.9749L52.6745 70.5353C52.6508 70.4615 52.5725 70.4212 52.4987 70.4449L51.6441 70.7193C51.5703 70.743 51.53 70.8213 51.5537 70.8951L52.6579 74.3347L51.9756 74.5537L50.8714 71.1142C50.8477 71.0404 50.7694 71.0001 50.6956 71.0238L49.8477 71.296C49.7739 71.3197 49.7336 71.398 49.7573 71.4718L50.8637 74.9181L50.31 75.0959L49.2036 71.6496C49.1799 71.5758 49.1016 71.5355 49.0278 71.5592L48.1799 71.8314C48.1061 71.8551 48.0659 71.9334 48.0896 72.0073L49.1938 75.4468L48.5115 75.6659L47.4072 72.2263C47.3835 72.1525 47.3052 72.1122 47.2314 72.1359L46.3835 72.4081C46.3064 72.4329 46.2661 72.5112 46.2898 72.5851Z" fill="#3F4BD9"/>
    <path d="M37.3626 51.5627L49.5165 48.2399L49.4753 50.6275C49.4677 51.0661 49.1751 51.4486 48.7537 51.5707L40.332 54.0105C39.529 54.2431 38.6714 53.8922 38.2619 53.1633L37.3626 51.5627Z" fill="#2B35A7"/>
    <defs>
        <linearGradient id="paint0_linear_146_439" x1="151.591" y1="27.1625" x2="89.1884" y2="27" gradientUnits="userSpaceOnUse">
            <stop stop-color="#262626"/>
            <stop offset="1" stop-color="#3B3B3C"/>
        </linearGradient>
    </defs>
</svg>
