<svg width="34" height="24" viewBox="0 0 34 24" fill="none" xmlns="http://www.w3.org/2000/svg">
  <rect width="34" height="24" rx="4" fill="#DDDBDD"/>
  <rect y="4" width="34" height="4" fill="#040404"/>
  <rect x="3" y="11" width="18" height="6" fill="white"/>
  <rect x="5" y="13" width="6" height="2" fill="#CBCBCB"/>
  <rect x="13" y="13" width="6" height="2" fill="#CBCBCB"/>
  <path d="M30.9666 17.8777L30.0992 20.5443C30.0561 20.6771 29.9733 20.7925 29.8626 20.8743C29.7518 20.9561 29.6188 21.0001 29.4823 21H25.6503C25.5472 21 25.4457 20.9749 25.354 20.9267C25.2622 20.8786 25.183 20.8088 25.1228 20.7231C25.0625 20.6375 25.023 20.5383 25.0074 20.4339C24.9919 20.3295 25.0008 20.2229 25.0333 20.1227L25.9007 17.456C25.9438 17.3232 26.0266 17.2078 26.1373 17.1259C26.2481 17.0441 26.3811 17 26.5176 17H30.35C30.453 17.0001 30.5546 17.0252 30.6463 17.0734C30.738 17.1216 30.8172 17.1914 30.8774 17.2771C30.9376 17.3628 30.9771 17.4619 30.9926 17.5664C31.0081 17.6708 30.9992 17.7775 30.9666 17.8777Z" fill="white"/>
</svg>
