<svg width="134" height="32" viewBox="0 0 134 32" fill="none" xmlns="http://www.w3.org/2000/svg">
  <path fillRule="evenodd" clipRule="evenodd"
        d="M24.2261 3H8.27982C4.25929 3 1 6.25923 1 10.2797V14.7151C1.96328 12.5123 4.16181 10.973 6.71986 10.973H20.0662C22.3636 10.973 24.2261 9.11059 24.2261 6.81318V3ZM10.2943 14.0934C9.56383 14.0934 8.97164 14.6856 8.97164 15.4161V21.0265H20.1286C20.8591 21.0265 21.4513 20.4343 21.4513 19.7038V14.0934H10.2943ZM2.32269 21.0271C1.59219 21.0271 1 21.6193 1 22.3498V29.0001H7.65045C8.38095 29.0001 8.97314 28.4079 8.97314 27.6774V21.0271H2.32269Z"
        fill="#005DF5"/>
  <g clipPath="url(#clip0_14713_26058)">
    <path
      d="M89.5187 23.5972C88.4627 23.5972 87.4874 23.3845 86.5927 22.9592C85.7127 22.5192 85.0087 21.8592 84.4807 20.9792C83.9527 20.0845 83.6887 18.9625 83.6887 17.6132V17.1732C83.6887 15.8825 83.938 14.8119 84.4367 13.9612C84.95 13.1105 85.632 12.4725 86.4827 12.0472C87.3334 11.6219 88.272 11.4092 89.2987 11.4092C91.132 11.4092 92.5254 11.8932 93.4787 12.8612C94.432 13.8292 94.9087 15.2299 94.9087 17.0632V18.2952H86.6587C86.688 18.9845 86.8347 19.5492 87.0987 19.9892C87.3774 20.4145 87.7294 20.7299 88.1547 20.9352C88.58 21.1259 89.0347 21.2212 89.5187 21.2212C90.2667 21.2212 90.8314 21.1112 91.2127 20.8912C91.594 20.6712 91.8654 20.3485 92.0267 19.9232H94.6887C94.454 21.1405 93.8747 22.0572 92.9507 22.6732C92.0267 23.2892 90.8827 23.5972 89.5187 23.5972ZM89.4087 13.7852C88.954 13.7852 88.514 13.8585 88.0887 14.0052C87.6634 14.1519 87.326 14.4159 87.0767 14.7972C86.8274 15.1639 86.688 15.6552 86.6587 16.2712H92.0927C92.078 15.6112 91.946 15.1052 91.6967 14.7532C91.462 14.3865 91.1467 14.1372 90.7507 14.0052C90.3547 13.8585 89.9074 13.7852 89.4087 13.7852Z"
      fill="#00112C"/>
    <path
      d="M75.9883 23.3332V11.6732H78.6283V13.4112C78.7896 13.0738 79.0096 12.7585 79.2883 12.4652C79.5669 12.1718 79.9116 11.9225 80.3223 11.7172C80.7329 11.5118 81.1876 11.4092 81.6863 11.4092C81.9649 11.4092 82.1996 11.4238 82.3903 11.4532C82.5956 11.4825 82.7276 11.5118 82.7863 11.5412V14.1152C82.6396 14.0565 82.4489 14.0052 82.2143 13.9612C81.9943 13.9025 81.6936 13.8732 81.3123 13.8732C80.7256 13.8732 80.2489 13.9978 79.8823 14.2472C79.5303 14.4965 79.2736 14.8265 79.1123 15.2372C78.9509 15.6332 78.8703 16.0658 78.8703 16.5352V23.3332H75.9883Z"
      fill="#00112C"/>
    <path
      d="M59.1872 23.2672C59.7738 23.5166 60.5218 23.6412 61.4312 23.6412C61.8712 23.6412 62.2378 23.6266 62.5312 23.5972C62.8392 23.5826 63.1325 23.5606 63.4112 23.5312V21.1112C62.9712 21.1552 62.5312 21.1772 62.0912 21.1772C61.4312 21.1772 60.9765 21.0379 60.7272 20.7592C60.4925 20.4659 60.3752 19.9892 60.3752 19.3292V14.2692H63.1912V11.8492H60.3752V9.20923H57.4932V11.8492V14.2692V19.7912C57.4932 20.7006 57.6252 21.4412 57.8892 22.0132C58.1678 22.5852 58.6005 23.0032 59.1872 23.2672Z"
      fill="#00112C"/>
    <path fillRule="evenodd" clipRule="evenodd"
          d="M48.0818 12.5092H45.5037V19.1092C45.5037 21.5393 47.4737 23.5092 49.9037 23.5092H51.5537C53.9838 23.5092 55.9537 21.5393 55.9537 19.1092V12.5092H53.3618V18.5492C53.3618 20.0072 52.1799 21.1892 50.7218 21.1892C49.2638 21.1892 48.0818 20.0072 48.0818 18.5492V12.5092Z"
          fill="#00112C"/>
    <path fillRule="evenodd" clipRule="evenodd"
          d="M66.7861 12.5093H64.208V19.1093C64.208 21.5393 66.178 23.5093 68.608 23.5093H70.258C72.6881 23.5093 74.658 21.5393 74.658 19.1093V12.5093H72.0661V18.5493C72.0661 20.0073 70.8842 21.1893 69.4261 21.1893C67.9681 21.1893 66.7861 20.0073 66.7861 18.5493V12.5093Z"
          fill="#00112C"/>
    <path d="M33.4258 23.5091V8.10913H43.9638V11.4091H36.7038V14.7091H43.9638V18.0091H36.7038V23.5091H33.4258Z"
          fill="#00112C"/>
    <path
      d="M125.751 27.7067C125.553 27.7067 125.355 27.6869 125.157 27.6473V25.4297C125.355 25.4693 125.553 25.4891 125.751 25.4891C126.015 25.4891 126.232 25.4231 126.404 25.2911C126.589 25.1591 126.754 24.9479 126.899 24.6575C127.057 24.3671 127.229 23.9843 127.414 23.5091L122.979 13.0151H125.909L128.76 20.2619L131.354 13.0151H134.067L130.027 23.5091C129.645 24.4991 129.275 25.2977 128.919 25.9049C128.562 26.5253 128.14 26.9807 127.651 27.2711C127.176 27.5615 126.543 27.7067 125.751 27.7067Z"
      fill="#00112C"/>
    <path
      d="M100.408 23.5097V9.64966H105.734C106.988 9.64966 108.025 9.84106 108.843 10.2239C109.661 10.5935 110.269 11.1215 110.665 11.8079C111.061 12.4811 111.259 13.2797 111.259 14.2037C111.259 15.1277 111.061 15.9329 110.665 16.6193C110.269 17.2925 109.661 17.8205 108.843 18.2033C108.025 18.5729 106.988 18.7577 105.734 18.7577H103.358V23.5097H100.408ZM103.358 16.3025H105.437C106.493 16.3025 107.233 16.1243 107.655 15.7679C108.091 15.4115 108.308 14.8901 108.308 14.2037C108.308 13.5305 108.091 13.0157 107.655 12.6593C107.233 12.2897 106.493 12.1049 105.437 12.1049H103.358V16.3025Z"
      fill="#00112C"/>
    <path fillRule="evenodd" clipRule="evenodd"
          d="M119.551 13.6092H116.843V16.0711H119.551V18.9023H122.136V13.6092H120.535H119.551Z" fill="#00112C"/>
    <path fillRule="evenodd" clipRule="evenodd"
          d="M111.673 18.7795C111.673 16.1749 113.599 14.0202 116.104 13.6618V16.1733C114.967 16.4948 114.135 17.5399 114.135 18.7795C114.135 20.2751 115.347 21.4876 116.843 21.4876C118.037 21.4876 119.051 20.7139 119.411 19.6403H121.941C121.941 19.6406 121.941 19.6409 121.941 19.6412H122.136V23.8265H119.551V23.1843C118.763 23.6696 117.836 23.9495 116.843 23.9495C113.987 23.9495 111.673 21.6348 111.673 18.7795Z"
          fill="#00112C"/>
  </g>
  <defs>
    <clipPath id="clip0_14713_26058">
      <rect width="100" height="32" fill="white" transform="translate(34)"/>
    </clipPath>
  </defs>
</svg>
