<svg width="26" height="26" viewBox="0 0 26 26" fill="none" xmlns="http://www.w3.org/2000/svg">
    <path d="M25 16V5C25 2.79086 23.2091 1 21 1H5C2.79086 1 1 2.79086 1 5V21C1 23.2091 2.79086 25 5 25H21C23.2091 25 25 23.2091 25 21V20" stroke="var(--lang-color-border,#00112C)" stroke-width="1.4" stroke-linecap="round"/>
    <path d="M12.4247 11.2173H10.831C10.7855 10.956 10.7017 10.7244 10.5795 10.5227C10.4574 10.3182 10.3054 10.1449 10.1236 10.0028C9.94176 9.8608 9.73438 9.75426 9.50142 9.68324C9.27131 9.60938 9.02273 9.57244 8.75568 9.57244C8.28125 9.57244 7.8608 9.69176 7.49432 9.9304C7.12784 10.1662 6.84091 10.5128 6.63352 10.9702C6.42614 11.4247 6.32244 11.9801 6.32244 12.6364C6.32244 13.304 6.42614 13.8665 6.63352 14.3239C6.84375 14.7784 7.13068 15.1222 7.49432 15.3551C7.8608 15.5852 8.27983 15.7003 8.75142 15.7003C9.01278 15.7003 9.2571 15.6662 9.48438 15.598C9.71449 15.527 9.92045 15.4233 10.1023 15.2869C10.2869 15.1506 10.4418 14.983 10.5668 14.7841C10.6946 14.5852 10.7827 14.358 10.831 14.1023L12.4247 14.1108C12.3651 14.5256 12.2358 14.9148 12.0369 15.2784C11.8409 15.642 11.5838 15.9631 11.2656 16.2415C10.9474 16.517 10.5753 16.733 10.1491 16.8892C9.72301 17.0426 9.25 17.1193 8.73011 17.1193C7.96307 17.1193 7.27841 16.9418 6.67614 16.5866C6.07386 16.2315 5.59943 15.7188 5.25284 15.0483C4.90625 14.3778 4.73295 13.5739 4.73295 12.6364C4.73295 11.696 4.90767 10.892 5.2571 10.2244C5.60653 9.55398 6.08239 9.04119 6.68466 8.68608C7.28693 8.33097 7.96875 8.15341 8.73011 8.15341C9.21591 8.15341 9.66761 8.22159 10.0852 8.35795C10.5028 8.49432 10.875 8.6946 11.2017 8.95881C11.5284 9.22017 11.7969 9.54119 12.0071 9.92188C12.2202 10.2997 12.3594 10.7315 12.4247 11.2173ZM21.0444 8.27273V17H19.6381L15.5259 11.0554H15.4535V17H13.8725V8.27273H15.2873L19.3952 14.2216H19.4719V8.27273H21.0444Z" fill="var(--lang-color-txt,#7A73F7)"/>
</svg>
