<svg width="26" height="26" viewBox="0 0 26 26" fill="none" xmlns="http://www.w3.org/2000/svg">
    <path d="M25 16V5C25 2.79086 23.2091 1 21 1H5C2.79086 1 1 2.79086 1 5V21C1 23.2091 2.79086 25 5 25H21C23.2091 25 25 23.2091 25 21V20" stroke="var(--lang-color-border,#00112C)" stroke-width="1.4" stroke-linecap="round"/>
    <path d="M6.269 17V8.27273H11.9451V9.59801H7.84996V11.9673H11.6511V13.2926H7.84996V15.6747H11.9792V17H6.269ZM20.7299 8.27273V17H19.3237L15.2115 11.0554H15.139V17H13.5581V8.27273H14.9728L19.0808 14.2216H19.1575V8.27273H20.7299Z" fill="var(--lang-color-txt,#7A73F7)"/>
</svg>
