<svg width="22" height="22" viewBox="0 0 32 32" fill="none" xmlns="http://www.w3.org/2000/svg">
    <rect x="0.5" y="0.5" width="31" height="31" rx="15.5" stroke="#727C8A" stroke-opacity="0.8"/>
    <path fill-rule="evenodd" clip-rule="evenodd" d="M11 16C11 17.1046 10.1046 18 9 18C7.89543 18 7 17.1046 7 16C7 14.8954 7.89543 14 9 14C10.1046 14 11 14.8954 11 16ZM17.9999 16C17.9999 17.1046 17.1045 18 15.9999 18C14.8953 18 13.9999 17.1046 13.9999 16C13.9999 14.8954 14.8953 14 15.9999 14C17.1045 14 17.9999 14.8954 17.9999 16ZM22.9996 18C24.1042 18 24.9996 17.1046 24.9996 16C24.9996 14.8954 24.1042 14 22.9996 14C21.895 14 20.9996 14.8954 20.9996 16C20.9996 17.1046 21.895 18 22.9996 18Z" fill="#727C8A"/>
</svg>
