<svg width="16" height="4" viewBox="0 0 16 4" fill="none" xmlns="http://www.w3.org/2000/svg">
    <path fill-rule="evenodd" clip-rule="evenodd" d="M3.55562 1.77781C3.55562 2.75967 2.75967 3.55562 1.77781 3.55562C0.795953 3.55562 0 2.75967 0 1.77781C0 0.795953 0.795953 0 1.77781 0C2.75967 0 3.55562 0.795953 3.55562 1.77781ZM9.77789 1.77781C9.77789 2.75967 8.98193 3.55562 8.00008 3.55562C7.01822 3.55562 6.22227 2.75967 6.22227 1.77781C6.22227 0.795953 7.01822 0 8.00008 0C8.98193 0 9.77789 0.795953 9.77789 1.77781ZM14.2221 3.55562C15.2039 3.55562 15.9999 2.75967 15.9999 1.77781C15.9999 0.795953 15.2039 0 14.2221 0C13.2402 0 12.4443 0.795953 12.4443 1.77781C12.4443 2.75967 13.2402 3.55562 14.2221 3.55562Z" fill="#00112C"/>
</svg>
