<svg width="18" height="22" viewBox="0 0 18 22" fill="none" xmlns="http://www.w3.org/2000/svg">
    <path fill-rule="evenodd" clip-rule="evenodd" d="M9.12062 1.74302C9.08076 1.7301 9.0409 1.72363 8.99895 1.72363C8.9591 1.72363 8.91714 1.7301 8.87938 1.74302L1.97809 3.8911C1.79979 3.94496 1.68022 4.11086 1.68022 4.30262V13.4702C1.68022 14.3428 1.91516 15.196 2.35777 15.9414C2.80037 16.6869 3.43387 17.2902 4.18902 17.6888L8.99895 20.2225L13.811 17.6888C14.5661 17.2902 15.1996 16.6869 15.6422 15.9414C16.0848 15.1981 16.3198 14.3428 16.3198 13.4702V4.30262C16.3198 4.11302 16.2002 3.94712 16.0219 3.8911L9.12062 1.74302ZM8.39063 0.0926452C8.58991 0.0301636 8.79338 0 8.99895 0C9.20452 0 9.41009 0.0301636 9.60937 0.0926452L16.5107 2.24072C17.3959 2.5165 18 3.35246 18 4.30262V13.4723C18 15.8962 16.6785 18.1175 14.5787 19.2228L9.57581 21.8578C9.39541 21.9526 9.19823 22 9.00105 22C8.80387 22 8.60669 21.9526 8.42629 21.8578L3.42128 19.2206C1.32152 18.1154 0 15.894 0 13.4702V4.30262C0 3.35246 0.604125 2.5165 1.48934 2.24072L8.39063 0.0926452ZM7.62071 14.1787C7.78433 14.3468 8.00039 14.4308 8.21435 14.4308C8.42831 14.4308 8.64227 14.3468 8.80799 14.1787L14.2199 8.61999C14.5472 8.28172 14.5493 7.73663 14.2199 7.40052C13.8906 7.06441 13.3599 7.06441 13.0327 7.40052L8.21435 12.3495L6.22787 10.3091C5.89853 9.97304 5.36783 9.97088 5.04059 10.3091C4.71336 10.6474 4.71336 11.1925 5.04059 11.5286L7.62071 14.1787Z" fill="white"/>
</svg>
