    <svg width="64" height="64" viewBox="-1 -1 38 38" fill="none" xmlns="http://www.w3.org/2000/svg">
      <path
        d="M11.35 25a.32.32 0 0 1-.255-.125.36.36 0 0 1-.093-.288l.731-12.12c.012-.2.163-.35.349-.35h3.064v-.05c0-.826.302-1.59.835-2.178.546-.563 1.254-.889 2.02-.889 1.567 0 2.855 1.377 2.855 3.08 0 .012-.011.025-.011.037v.013h3.076c.185 0 .336.15.348.35l.72 12.032c.011.037.011.062.011.1-.012.213-.163.388-.36.388zm.372-.751h12.547l-.673-11.368h-2.751v.902h.011a.69.69 0 0 1 .29.563c0 .388-.29.7-.65.7s-.65-.312-.65-.7a.69.69 0 0 1 .29-.563h.012v-.902h-4.306v.902h.012a.69.69 0 0 1 .29.563c0 .388-.29.7-.65.7s-.65-.312-.65-.7a.69.69 0 0 1 .29-.563h.012v-.902h-2.751zm6.28-14.485c-1.185 0-2.16 1.039-2.16 2.328v.05h4.33l-.012-.025v-.025c0-1.29-.975-2.328-2.159-2.328"
        fill="currentColor"
      />
    </svg>