<svg
    width="22"
    height="22"
    viewBox="0 0 22 22"
    fill="none"
  >
    <path
      d="M22 20.1706L18.4098 16.7702C20.124 14.988 21.1708 12.6203 21.1708 10.0251C21.1708 4.49719 16.4221 0 10.5855 0C4.74892 0 0 4.4974 0 10.0253C0 15.5533 4.7487 20.0505 10.5853 20.0505C12.6964 20.0505 14.6634 19.4599 16.3168 18.4472L20.0684 22L22 20.1706ZM2.73176 10.0253C2.73176 5.92404 6.25482 2.58741 10.5853 2.58741C14.9158 2.58741 18.4388 5.92404 18.4388 10.0253C18.4388 14.1266 14.916 17.4633 10.5855 17.4633C6.25505 17.4633 2.73176 14.1266 2.73176 10.0253Z"
      fill="currentColor"
    />
  </svg>