<svg xmlns="http://www.w3.org/2000/svg" width="40" height="40" class="logo-content" viewBox="0 0 40 40">
    <g transform="translate(-5 -5) scale(1.25)">
        <g clip-path="url(#b)">
            <path fill-rule="evenodd" clip-rule="evenodd"
                  d="M19.78 8.267h9.02a2.93 2.93 0 0 1 2.933 2.918v17.63a2.917 2.917 0 0 1-2.918 2.918h-17.63a2.9 2.9 0 0 1-2.918-2.918v-8.991z"
                  fill="#00A0E9"/>
            <path fill-rule="evenodd" clip-rule="evenodd" d="M8.267 11.2A2.94 2.94 0 0 1 11.2 8.267h8.624L8.267 19.839z"
                  fill="#fff"/>
            <path fill-rule="evenodd" clip-rule="evenodd"
                  d="M13.693 12.901a.115.115 0 0 0 .162 0l.308-.308a.115.115 0 0 0 0-.16l-1.056-1.057 2.009.205c.015 0 .059 0 .088-.044l.381-.38c.074-.074.015-.177-.058-.177l-2.127-.176-.117-1.921c0-.103-.118-.132-.176-.074l-.352.352c-.03.03-.03.074-.03.103l.118 1.848-.939-.939a.115.115 0 0 0-.161 0l-.308.308a.115.115 0 0 0 0 .162zM11.2 15.424c.03.03.103.03.132 0l.323-.323a.093.093 0 0 0 0-.132l-.954-.953 1.13-1.13.953.954c.03.03.088.044.132 0l.323-.323c.029-.029.029-.102 0-.132l-2.303-2.288c-.03-.029-.103-.029-.132 0l-.308.323a.093.093 0 0 0 0 .132l.91.91-1.115 1.129-.924-.91a.093.093 0 0 0-.132 0l-.323.323c-.03.03-.03.103 0 .132z"
                  fill="#00A0E9"/>
            <path fill-rule="evenodd" clip-rule="evenodd"
                  d="M15.38 26.16c-3.315 0-4.312-2.596-2.64-3.99.543-.483 1.54-.718 2.053-.762 2.01-.205 3.828.543 5.999 1.599-1.496 1.921-3.461 3.153-5.412 3.153m8.595-4.15c.748-1.306 1.349-2.817 1.76-4.46h-4.239v-1.525h5.163v-.836h-5.163v-2.522h-2.083c-.381 0-.381.352-.381.337v2.185h-5.207v.836h5.236v1.511H14.75v.85h8.346a14.6 14.6 0 0 1-1.218 2.905c-2.698-.866-5.588-1.599-7.421-1.13-1.173.264-1.907.778-2.347 1.306-2.053 2.449-.601 6.13 3.696 6.13 2.523 0 4.958-1.393 6.835-3.696 2.816 1.35 9.079 3.872 9.079 3.887v-3.27c0-.015-1.394-.294-4.459-1.32-.88-.294-2.024-.72-3.285-1.189"
                  fill="#fff"/>
        </g>
        <defs>
            <clipPath id="b">
                <path fill="#fff" d="M4 4h32v32H4z"/>
            </clipPath>
        </defs>
    </g>
</svg>
