<svg data-name="Alipay+" width="90" height="40" xmlns="http://www.w3.org/2000/svg" viewBox="0 0 100 40">
    <g transform="translate(2 8.706)scale(.70588)">
        <g fill="#BAB9C1">
            <path d="M25.119.762V26.02h5.467V.762zM0 26.02h5.052l1.385-4.773h8.684l1.314 4.773h6.47l-7.37-24.395H8.201zm7.578-8.755 3.253-11.246h.14l3.08 11.246zm44.53 8.996c4.878 0 9.275-3.6 9.275-10.001 0-5.743-3.184-9.17-7.128-9.17-2.007 0-3.564.761-5.328 2.214V7.472H43.46v24.43h5.467v-6.054a11.8 11.8 0 0 0 3.185.415zm22.25-.244h5.467l-.658-4.637v-7.75c0-4.222-2.49-6.54-6.885-6.54-2.802 0-4.74.483-8.27 1.556l.97 4.255c3.217-1.453 4.637-2.076 6.126-2.076 1.8 0 2.594 1.281 2.594 3.253v.14c-6.262 1.176-8.2 1.834-9.41 3.044-.9.899-1.281 2.18-1.281 3.668 0 3.564 2.769 5.467 5.363 5.467 1.936 0 3.496-.726 5.604-2.318l.38 1.936zM34.322 7.475V26.02h5.468V7.475zm64.322.035.035-.035h-5.156l-3.252 11.278h-.172L86.363 7.475h-6.126l7.371 18.614-3.08 5.674v.14h4.809zm-46.47 3.84c2.043 0 3.668 1.625 3.668 5.085 0 4.43-2.387 6.401-5.052 6.401-.623 0-1.21-.068-1.868-.276V12.524c1.141-.795 2.075-1.177 3.252-1.177zm16.124 9.03c0-.518.103-1.037.519-1.452.658-.658 1.936-1.142 4.877-1.832v4.43c-1.453.794-2.283 1.105-3.252 1.105-1.314 0-2.147-.866-2.147-2.25zM33.907 3.01c0 1.8 1.314 3.009 3.149 3.009s3.149-1.21 3.149-3.01S38.89 0 37.055 0s-3.148 1.245-3.148 3.01m99.108 10.167h-9.427V3.75a2.985 2.985 0 0 0-2.985-2.985h-3.201v12.412a6.186 6.186 0 0 0 6.186 6.185H136v-3.2a2.985 2.985 0 0 0-2.985-2.985m-28.025 3.2a2.986 2.986 0 0 0 2.985 2.985h6.418v-6.185h-9.405v3.2zm12.412 6.019v6.39a2.986 2.986 0 0 0 2.985 2.986h3.201v-9.378h-6.186z"/>
        </g>
        <defs>
            <clipPath id="b">
                <path fill="#000" d="M0 0h136v31.903H0z"/>
            </clipPath>
        </defs>
    </g>
</svg>
