<svg xmlns="http://www.w3.org/2000/svg" width="40" height="40" class="logo-content" viewBox="180 0 40 40">
    <g class="sub-svg-wrapper">
        <path d="M210.981 19.78a7.83 7.83 0 0 0-6.64-3.937 7.88 7.88 0 0 0-3.912-6.625 6.8 6.8 0 0 0-3.621-.983 8.44 8.44 0 0 0-4.163 1.163c-2.422 1.287-3.275 3.912-3.48 4.687a7.5 7.5 0 0 0-.22 1.61v8.7q0 .636.144 1.253.124.555.337 1.083a7.7 7.7 0 0 0 1.579 2.368l.131.131a6.3 6.3 0 0 0 1.937 1.378q.678.3 1.4.476.592.141 1.203.154h8.835a7.5 7.5 0 0 0 1.588-.22c.774-.203 3.401-1.054 4.681-3.468 2.493-4.412.214-7.754.2-7.77"
              fill="#fff"/>
        <path d="M208.243 21.421c-.644-1.252-1.76-2.046-3.323-2.358-.119-.025-.251-.038-.38-.053l-.171-.019a4 4 0 0 0-.494-.026h-.134l-2.527-.004.004-2.515a4 4 0 0 0-.025-.63l-.02-.174a4 4 0 0 0-.052-.38c-.315-1.562-1.109-2.68-2.359-3.322a4.6 4.6 0 0 0-1.85-.51h-.14a5 5 0 0 0-.647.041c-4.111.555-4.064 4.505-4.06 4.674v7.329c0 1.471.401 2.636 1.194 3.462.816.78 1.979 1.18 3.449 1.18h7.366c.417 0 4.105-.112 4.637-4.06q.053-.389.041-.782a4.6 4.6 0 0 0-.51-1.853"
              fill="#EA0029"/>
        <path d="M210.369 5h-20.737a4.45 4.45 0 0 0-4.45 4.45v21.1a4.45 4.45 0 0 0 4.45 4.45h20.737a4.45 4.45 0 0 0 4.45-4.45V9.45a4.45 4.45 0 0 0-4.45-4.45m.412 22.55c-1.281 2.41-3.907 3.262-4.681 3.467a7.5 7.5 0 0 1-1.587.22h-8.838a5.8 5.8 0 0 1-1.204-.155 9 9 0 0 1-1.397-.475 6.4 6.4 0 0 1-1.938-1.376l-.13-.131a7.8 7.8 0 0 1-1.58-2.369 7.5 7.5 0 0 1-.337-1.084 5.5 5.5 0 0 1-.143-1.25v-8.703c.015-.543.09-1.083.22-1.609.204-.775 1.056-3.402 3.479-4.69a8.44 8.44 0 0 1 4.162-1.162 6.8 6.8 0 0 1 3.62.986 7.88 7.88 0 0 1 3.913 6.624 7.83 7.83 0 0 1 6.64 3.937c.012.016 2.292 3.358-.199 7.769"
              fill="#EA0029"/>
    </g>
</svg>
