<svg xmlns="http://www.w3.org/2000/svg" width="40" height="40" class="logo-content" viewBox="0 0 40 40">
    <g transform="translate(0 0) scale(1)" class="sub-svg-wrapper">
        <g clip-path="url(#b)">
            <path d="M11.459 18.91c.035-.034.095-.01.109.035.006.026-.007.051-.021.072a.4.4 0 0 1 .166.053c.014.008.028.02.045.02a.3.3 0 0 1 .148.056.13.13 0 0 1 .043.151.2.2 0 0 1-.143.111c-.034.004-.024.049-.028.074a1.4 1.4 0 0 0-.4-.025c-.052.004-.103.018-.154.02l-.003-.058c-.03-.014-.063-.016-.09-.035-.045-.026-.087-.073-.085-.13a.13.13 0 0 1 .058-.114.3.3 0 0 1 .142-.05c.014 0 .026-.01.038-.018a.4.4 0 0 1 .174-.056c-.03-.027-.034-.082.001-.106m-.155.264c-.021.038-.02.093.012.126a.2.2 0 0 0 .14.067c.003-.039-.02-.074-.019-.113-.006-.055.008-.107.022-.159a.19.19 0 0 0-.155.079m.235-.077a.3.3 0 0 1-.008.273c.066-.006.141-.033.174-.1a.11.11 0 0 0-.017-.109.18.18 0 0 0-.15-.064m-.422.126c-.007.034-.008.075.019.1.031.036.08.04.124.044l.002-.025c-.034-.022-.064-.055-.067-.098-.004-.033.012-.062.023-.092-.04.006-.087.027-.101.071m.668-.07c.016.036.033.078.017.119-.016.046-.06.067-.098.09.054.003.116.006.158-.036.029-.024.032-.067.024-.101-.014-.045-.06-.067-.1-.073m.232.332c.14.024.264.127.316.261a.4.4 0 0 1 .035.146h.005c-.013-.143.12-.289.263-.265a.46.46 0 0 0-.175.27 5 5 0 0 0-.137.726c-.022.175-.044.36.017.53a.5.5 0 0 1 .2-.212q.014-.006.031-.008a1.1 1.1 0 0 0-.147.338c.056-.068.116-.142.203-.169-.034.063-.073.123-.097.191-.018.049-.04.098-.043.15a.42.42 0 0 1 .21-.193c-.058.103-.114.21-.138.327.037.068.082.132.114.203.023.051.043.108.03.165a.3.3 0 0 1-.054.15.26.26 0 0 1-.236.106.42.42 0 0 1-.351-.271c-.032-.006-.055.022-.072.045a.58.58 0 0 0-.084.415c.013.071.067.148.145.144.026-.035.046-.074.07-.11a.5.5 0 0 1 .02.204.6.6 0 0 1-.095.249c-.046.077-.103.153-.115.246-.01.052-.01.107-.03.158-.02-.02-.041-.05-.073-.037-.038.014-.06.054-.075.09-.029.065-.038.139-.082.196-.01.012-.02.028-.038.03q-.07.01-.139.023l-.02.084-.036-.024a.5.5 0 0 1-.004-.276l.003-.02c-.012.017-.025.035-.03.055-.003.028 0 .056 0 .084h-.009c.015.015.001.041.002.06-.02.002-.044-.002-.063.012-.025.012-.028.042-.04.065-.008-.01-.019-.018-.02-.032a.5.5 0 0 1 .016-.273l.003-.034-.018.01c-.018.063-.016.132-.041.193-.028-.012-.032-.062-.069-.045q-.016.025-.03.051c-.017-.005-.013-.025-.016-.038-.002-.035-.011-.074.01-.105.028-.048.053-.099.09-.14a.1.1 0 0 0 .02-.032c-.03.006-.043.038-.063.057-.014.012-.022.036-.04.039-.01-.021-.012-.044-.015-.067q-.03-.01-.061-.008c-.007-.026.01-.053.031-.065.025-.007.056-.003.076-.024.022-.02.04-.053.074-.051.059 0 .1.048.15.073a.14.14 0 0 0 .134 0 .4.4 0 0 0 .117-.106c.064-.08.112-.17.16-.26l.015-.037q-.039-.005-.077-.006c-.012.022-.024.046-.043.063-.021.021-.052.026-.079.036-.003-.044.006-.087-.002-.13-.01-.093-.075-.167-.1-.255-.037-.124-.032-.255-.029-.383 0-.066.016-.133.006-.199-.125-.128-.234-.286-.403-.359a.3.3 0 0 0-.173-.018.1.1 0 0 0-.072.072c-.013.054.037.097.081.112-.01.03-.03.061-.061.071a.2.2 0 0 1-.13.015q-.03-.012-.057-.026a.25.25 0 0 0-.072.123c-.007.058.002.115.002.172 0 .046-.02.09-.051.123l-.01-.001-.008-.056a.2.2 0 0 1-.102-.036c-.033.053-.06.125-.127.142-.023-.003-.04-.02-.061-.027-.026.01-.042.039-.065.055-.016-.06 0-.121 0-.182q.002-.015.013-.025.043-.045.085-.092c0-.01-.006-.03-.02-.022-.033.03-.062.063-.096.091-.01.014-.024-.001-.034-.006-.002-.02-.008-.051-.034-.05-.013.008-.024.02-.039.025-.007-.064.029-.123.063-.175.011-.02.036-.02.055-.025q.045.011.088.019v-.024c-.042-.014-.085-.016-.127-.027q.004-.042.002-.083c-.017-.01-.037-.011-.056-.018l.02-.048c.05-.012.1-.036.153-.031.039.014.06.055.085.086.024 0 .044-.014.061-.03.072-.063.127-.142.182-.22.013-.022.034-.043.035-.07a.45.45 0 0 1-.164-.15c-.016-.027-.033-.054-.036-.086a.44.44 0 0 0 .217-.17c.085-.11.15-.236.244-.34a.5.5 0 0 1 .231-.152c.07-.02.145-.022.21-.057.064-.035.093-.114.093-.185-.035-.001-.075.007-.097.038-.023.029-.023.067-.028.101-.082-.078-.1-.21-.061-.314.01.023.022.046.047.054.028.01.075.009.08-.028.016-.072.013-.156-.038-.213-.012-.014-.03-.036-.051-.022-.042.018-.05.068-.077.1a.34.34 0 0 1-.066-.215c0-.011.004-.026.016-.03.027-.012.056-.019.083-.03-.034-.017-.076-.004-.112-.014.005-.016.006-.041.028-.045a1.2 1.2 0 0 1 .447-.052.4.4 0 0 1 .287.159c.099.132.123.304.131.465h-.08c.01.076.03.153.015.23-.004.093-.018.186-.012.28-.002.012.009.037-.012.036l-.015-.014.018-.003c.004-.054 0-.108 0-.162-.002.052.003.104-.002.156-.023.012-.036-.017-.05-.03-.014.015-.01.036-.013.055a.64.64 0 0 1-.21.389c-.004.01.006.016.012.023q.097.093.19.188c.107.11.224.22.286.364.052.102.107.204.181.29.033.036.072.08.125.073.041.005.067-.037.082-.07.016-.06-.017-.115-.042-.166-.076-.14-.173-.267-.25-.406a1.04 1.04 0 0 1-.155-.472c.004-.121.027-.24.048-.36.022-.125.045-.25.058-.378 0-.084.015-.168.003-.251a.58.58 0 0 0-.168-.411m-.635.099v.105a.2.2 0 0 0 .05-.016c.049-.023.1-.039.148-.065.003-.016-.015-.014-.024-.018-.057-.013-.116-.006-.174-.006"
                  fill="#fff"/>
            <path d="M10.921 19.928c.012-.031.028-.066.06-.078-.012.036-.027.075-.014.113.016.024.048.021.073.018.062-.011.12-.038.177-.061a.14.14 0 0 1 .108.005.24.24 0 0 0-.097.034c-.058.038-.103.099-.17.123-.04.015-.09.016-.121-.016-.034-.038-.032-.094-.016-.138m-.476.077c.035.012.06.046.074.08.025.104-.02.21-.002.315.027.126.168.181.199.306-.003.016-.015.029-.023.043-.043.064-.08.136-.139.186-.068-.083-.13-.172-.199-.254l-.012-.002c-.025.028-.039.063-.062.09-.016.012-.037.009-.055.01-.035-.004-.08-.003-.102-.037.045-.038.085-.092.082-.154.008-.098-.046-.184-.097-.26-.018-.032-.043-.057-.066-.084.048-.016.103-.038.152-.015l.08.094h.018l-.002-.042c-.023-.026-.037-.06-.056-.088-.032-.048-.013-.108-.023-.161a.3.3 0 0 1 .15.087c.036.038.018.102.057.139a1 1 0 0 0-.008-.119c0-.047.037-.085.034-.134m.716 1.661c.068-.015.13.03.181.07a.4.4 0 0 0-.004.092l.004-.082c.008.03-.006.063.008.093.024.053.083.078.11.128.002.049-.004.097-.009.146-.035-.023-.08-.05-.122-.028-.037.015-.047.057-.058.091a.4.4 0 0 0 .051.23 1 1 0 0 0 .192.258c-.041.056-.1.104-.171.108-.077.003-.158.003-.228.04-.04.028-.065.075-.112.092q-.008-.03-.011-.06-.013-.029-.034-.05c-.044 0-.082.03-.105.067-.025.039-.069.08-.118.064a.1.1 0 0 0-.062-.006l-.022.07c-.043-.033-.043-.094-.032-.142.006-.05.026-.095.03-.144h-.02c-.015.044-.018.093-.046.13l-.053-.058c-.022.012-.04.029-.064.034-.005-.06.028-.114.062-.161a.2.2 0 0 0 .05-.116c-.039.035-.069.078-.105.115a.3.3 0 0 0-.033-.095l-.058-.002a.14.14 0 0 1 .063-.084c.049-.028.108-.022.16-.01v-.03l-.104-.03c.005-.024.02-.046.015-.071q-.012-.026-.027-.05a.2.2 0 0 1 .155.046c.06.053.094.132.167.17.04.022.088.02.132.02.057 0 .114.002.17-.007.013-.014-.009-.03-.016-.04a.54.54 0 0 1-.14-.34l-.007-.051a.14.14 0 0 1-.081-.043.23.23 0 0 1-.047-.124c.078.004.145-.047.192-.106.043-.05.082-.111.147-.134"
                  fill="#fff"/>
            <path d="M9.46 13.606a.5.5 0 0 1 .273.032.45.45 0 0 1 .277.316.4.4 0 0 1-.096.329c-.021.026-.049.046-.073.07.423.039.854.133 1.214.36.036.02.067.05.105.068.345.037.698.103.999.278.136.082.26.189.34.323a.74.74 0 0 1 .109.418.63.63 0 0 1-.079.323c-.073.143-.19.264-.322.36a1.5 1.5 0 0 1-.418.204c-.039.013-.08.02-.116.036.143.015.288.032.422.084.011.027.014.056.02.085q.049.256.101.513a21 21 0 0 0-2.152-.162c-.167-.01-.334-.006-.502-.007-.124 0-.248-.003-.372.006-.266.001-.532.02-.798.03-.201.017-.403.03-.604.048q-.447.04-.891.102h-.043c.048-.202.083-.407.125-.611.05-.023.106-.03.159-.044.098-.021.197-.03.296-.045a1.5 1.5 0 0 1-.575-.257.94.94 0 0 1-.363-.504c-.023-.078-.015-.16-.016-.24a.76.76 0 0 1 .232-.496c.175-.174.412-.277.652-.344.184-.05.374-.08.564-.1q.026-.014.05-.032a2.3 2.3 0 0 1 .812-.33q.226-.045.456-.066a.44.44 0 0 1-.158-.23.36.36 0 0 1 .041-.299.5.5 0 0 1 .33-.218m-.927 1.37a.95.95 0 0 0-.35.41.7.7 0 0 0-.054.254c0 .2.092.392.234.535.14.145.322.246.514.314q.219.074.45.09c-.135-.196-.182-.433-.21-.663a3 3 0 0 1-.008-.497c.021-.242.066-.49.19-.705a1.6 1.6 0 0 0-.766.261m1.256-.262c.103.178.15.38.176.58.004.057.016.113.014.17 0 .136.004.272-.003.408-.014.11-.027.222-.056.331-.034.132-.08.262-.16.375.138-.005.274-.035.405-.075.191-.06.373-.154.518-.288a.85.85 0 0 0 .248-.384.65.65 0 0 0 .005-.35.87.87 0 0 0-.307-.45 1.6 1.6 0 0 0-.84-.317m-2.426.485a.72.72 0 0 0-.358.322.64.64 0 0 0 .189.794c.157.122.356.186.554.216.173.022.35.027.522 0a2 2 0 0 1-.318-.16.95.95 0 0 1-.395-.457.84.84 0 0 1 .155-.812 1.2 1.2 0 0 0-.35.097m4.013-.097a.9.9 0 0 1 .2.556.74.74 0 0 1-.15.45c-.05.07-.115.127-.178.185a1.8 1.8 0 0 1-.427.238c.05.015.103.007.153.015.115.01.23 0 .343-.012.17-.026.34-.069.485-.156a.7.7 0 0 0 .314-.364.65.65 0 0 0 .009-.379.62.62 0 0 0-.25-.35 1.1 1.1 0 0 0-.5-.183m-1.797 2.592c.053 0 .113-.002.169-.001.186.004.372-.002.558.01a23 23 0 0 1 2.914.258c.188.958.356 1.92.53 2.882q.143.822.288 1.642c.02.112.05.224.047.339 0 .059.002.118-.003.177a1.06 1.06 0 0 1-.178.466 1.7 1.7 0 0 1-.392.38c-.268.189-.544.369-.818.551q-1.34.884-2.689 1.76l-.367.236c-.027.018-.054-.008-.076-.021q-.956-.602-1.907-1.211c-.596-.383-1.192-.764-1.781-1.156-.133-.09-.27-.178-.39-.285a1.4 1.4 0 0 1-.275-.315 1 1 0 0 1-.141-.547c-.007-.139.029-.274.054-.41q.428-2.229.862-4.458c.034-.01.069-.012.103-.018q.29-.048.583-.087h.003l-.004.029q-.224 1.17-.434 2.343l-.446 2.504a.53.53 0 0 0 .1.42c.114.142.271.243.423.344q.264.174.53.343.909.576 1.82 1.146l.913.572q.005-.023.007-.047v-7.43c-.002-.138.003-.275-.003-.412zm2.02 1.119c-.038.022-.033.075-.002.1a.5.5 0 0 0-.182.054c-.013.007-.025.017-.04.017a.34.34 0 0 0-.149.047c-.037.024-.064.065-.06.108-.003.054.04.098.087.123.03.018.064.02.095.033l.003.055c.055-.001.108-.015.162-.019.14-.008.281-.005.419.024.005-.024-.006-.066.03-.07.063-.012.125-.047.15-.105.022-.051 0-.112-.046-.144a.33.33 0 0 0-.155-.052c-.017 0-.031-.012-.046-.02a.5.5 0 0 0-.175-.05c.016-.02.029-.043.022-.068-.014-.043-.078-.066-.114-.033m.584.568a.55.55 0 0 1 .176.406c.013.082-.004.165-.003.248-.014.126-.037.25-.061.374-.021.117-.046.235-.05.355a1 1 0 0 0 .163.466c.08.137.181.263.261.4.027.051.06.106.044.165-.015.033-.042.073-.086.069-.055.006-.096-.037-.13-.071a1.5 1.5 0 0 1-.19-.287c-.065-.144-.188-.251-.3-.36a9 9 0 0 0-.199-.186c-.006-.006-.017-.012-.012-.023a.62.62 0 0 0 .22-.384c.003-.018-.002-.04.013-.053.015.012.028.04.053.029.005-.051 0-.103.002-.154 0 .053.004.107 0 .16l-.019.003.016.013c.021.001.01-.023.012-.035-.006-.093.008-.185.013-.277.015-.076-.007-.151-.016-.226h.084c-.01-.16-.034-.33-.138-.46a.44.44 0 0 0-.3-.157 1.4 1.4 0 0 0-.47.052c-.022.003-.023.028-.029.044.039.01.082-.003.118.013-.028.012-.059.018-.087.03-.013.004-.016.018-.017.03 0 .075.02.152.07.211.028-.03.036-.08.08-.098.021-.013.04.009.054.023.053.056.056.139.04.21-.006.036-.056.037-.085.028-.026-.008-.04-.032-.049-.054a.28.28 0 0 0 .065.31c.005-.034.005-.072.029-.1.023-.03.064-.038.101-.037 0 .07-.03.147-.097.183-.069.033-.147.035-.22.056a.5.5 0 0 0-.243.15c-.097.103-.166.226-.255.335a.45.45 0 0 1-.227.168c.002.032.02.059.037.085a.46.46 0 0 0 .172.148c-.002.027-.023.048-.037.07a1.2 1.2 0 0 1-.19.217.1.1 0 0 1-.065.03c-.026-.032-.048-.072-.089-.085-.055-.005-.107.019-.16.03l-.02.047c.018.007.04.008.058.018q.002.041-.002.082c.043.011.09.013.132.027l.001.023q-.047-.006-.092-.018c-.02.004-.046.005-.058.025-.036.05-.074.109-.066.173q.021-.011.041-.025c.027-.001.033.03.035.049.01.005.025.02.036.006q.05-.043.1-.09c.015-.007.02.011.022.022q-.044.046-.09.091c-.006.007-.014.014-.012.024 0 .06-.018.121-.001.18.024-.016.04-.044.068-.054.022.008.04.024.064.027.07-.017.098-.089.133-.141.032.021.07.03.107.036l.01.055.009.001a.17.17 0 0 0 .053-.121c0-.057-.009-.113-.002-.17a.25.25 0 0 1 .075-.122q.03.014.061.026a.2.2 0 0 0 .136-.015c.032-.01.054-.041.064-.07-.047-.015-.099-.057-.085-.11a.1.1 0 0 1 .075-.072.3.3 0 0 1 .182.018c.177.073.29.228.422.355.01.064-.007.13-.006.196-.004.127-.01.256.03.378.026.088.093.16.105.252.008.042-.001.086.002.129.028-.01.06-.015.083-.036q.029-.027.045-.062.04 0 .08.006l-.015.036c-.05.089-.1.179-.168.258a.4.4 0 0 1-.123.104.16.16 0 0 1-.14 0c-.052-.025-.096-.071-.158-.073-.035-.001-.053.032-.077.051-.02.021-.053.017-.08.024-.022.012-.039.038-.032.064q.033-.002.064.008.003.034.016.066c.019-.003.027-.027.041-.038.022-.02.035-.051.066-.056a.1.1 0 0 1-.02.03c-.039.041-.065.091-.095.139-.022.03-.013.07-.01.104.004.013-.001.032.016.037q.015-.026.032-.05c.04-.017.043.033.072.044.027-.06.025-.128.044-.19l.019-.01-.004.034a.47.47 0 0 0-.017.27c.002.013.013.021.022.03.012-.022.015-.052.042-.064.019-.013.043-.01.066-.01-.002-.02.013-.046-.003-.062l.01.002c0-.028-.003-.056 0-.083.005-.02.018-.038.03-.055l-.002.02a.47.47 0 0 0 .004.272l.038.024.021-.083q.073-.013.146-.023c.018-.001.03-.017.04-.03.045-.056.055-.129.085-.192.016-.036.039-.076.08-.09.033-.012.055.017.075.037.021-.05.022-.104.032-.156.013-.091.072-.167.12-.243a.6.6 0 0 0 .1-.246.44.44 0 0 0-.02-.201c-.027.035-.047.074-.074.108-.082.004-.138-.072-.152-.142a.54.54 0 0 1 .087-.41c.019-.022.043-.05.076-.044a.44.44 0 0 0 .368.267.275.275 0 0 0 .304-.253c.014-.055-.007-.112-.031-.162-.034-.07-.081-.134-.12-.201.025-.115.084-.221.145-.322a.43.43 0 0 0-.22.19c.003-.052.026-.1.045-.148.025-.067.066-.127.102-.189-.091.027-.155.1-.213.167a1 1 0 0 1 .154-.334q-.017.002-.034.008a.5.5 0 0 0-.208.209c-.065-.168-.041-.35-.018-.523q.045-.364.144-.718a.45.45 0 0 1 .183-.265c-.15-.024-.29.12-.276.26l-.005.002a.44.44 0 0 0-.367-.403m-1.149.437c-.017.044-.018.1.017.137.032.032.085.03.127.016.07-.024.117-.084.178-.121a.3.3 0 0 1 .101-.035.15.15 0 0 0-.112-.004c-.061.022-.121.05-.186.06-.026.003-.06.006-.077-.017-.013-.038.002-.076.015-.112-.034.012-.05.046-.062.076m-.498.077c.002.048-.036.086-.036.132q.01.06.008.117c-.04-.036-.022-.1-.06-.137a.34.34 0 0 0-.157-.086c.01.053-.01.112.024.16.02.028.035.06.058.087l.003.04-.02.001q-.04-.048-.082-.093c-.052-.023-.11 0-.16.015.024.026.05.051.07.082.053.076.109.161.101.257.003.062-.039.115-.086.153.024.033.07.032.107.035.019 0 .04.003.057-.008.025-.028.04-.062.065-.09l.013.002c.073.082.138.169.209.251.062-.05.1-.12.145-.184.009-.014.022-.026.024-.042-.032-.123-.18-.178-.209-.302-.018-.104.029-.208.003-.311-.015-.034-.04-.067-.077-.079m.75 1.64c-.068.023-.11.083-.154.133-.05.058-.12.108-.202.104a.2.2 0 0 0 .05.123.15.15 0 0 0 .085.042l.007.051a.52.52 0 0 0 .147.335c.007.01.03.026.016.04-.058.008-.118.006-.177.007-.047 0-.097.002-.14-.02-.075-.037-.112-.116-.174-.168a.2.2 0 0 0-.162-.045q.015.023.028.049c.005.024-.01.047-.016.07l.11.03v.03c-.056-.013-.118-.018-.169.009a.14.14 0 0 0-.066.083l.062.002a.3.3 0 0 1 .034.094c.038-.037.07-.08.11-.114-.002.043-.027.08-.053.115-.035.046-.07.1-.065.16.025-.006.045-.023.067-.035q.027.03.056.057c.03-.037.033-.085.048-.128h.022c-.005.049-.025.094-.032.142-.012.048-.012.108.033.14l.023-.068a.14.14 0 0 1 .065.005c.052.016.098-.025.124-.063a.14.14 0 0 1 .11-.067c.013.016.029.03.035.05q.004.03.012.06c.05-.018.076-.064.118-.091.073-.037.158-.037.238-.04.075-.003.137-.051.18-.106a1 1 0 0 1-.201-.254c-.036-.07-.069-.149-.054-.228.012-.033.022-.076.06-.09.044-.022.092.005.129.027a1 1 0 0 0 .01-.144c-.029-.05-.091-.073-.117-.126-.014-.03.001-.062-.008-.092q-.003.04-.004.081a.3.3 0 0 1 .005-.09c-.053-.041-.119-.084-.19-.07"
                  fill="#DAB42D"/>
            <path d="M11.436 19.063a.2.2 0 0 1 .162-.075c-.014.05-.03.1-.023.15 0 .038.023.071.02.108a.23.23 0 0 1-.147-.064c-.032-.03-.034-.083-.012-.12m.246-.073a.2.2 0 0 1 .156.061c.028.027.032.07.018.104-.034.062-.113.088-.183.094a.27.27 0 0 0 .009-.26m-.443.12c.015-.042.064-.062.106-.067-.01.027-.028.055-.024.086.003.04.036.073.07.093l-.002.024c-.045-.003-.096-.008-.13-.042-.027-.024-.026-.062-.02-.094m.701-.068c.043.006.09.027.106.07.009.032.005.073-.025.095-.045.04-.11.037-.166.035.04-.022.085-.043.102-.087.018-.038 0-.077-.017-.113m-4.14.06h.3v.256c.078.001.154-.002.23.001a.1.1 0 0 0 .008-.03v-.21h.284q.003.307 0 .616H7.26v-.616h.285v.156c.001.028-.003.057.007.084.08-.003.16 0 .24-.001.015-.084.001-.17.008-.256m3.717.38c.061 0 .123-.007.183.006.009.004.028.002.025.018-.05.026-.104.042-.155.065a.2.2 0 0 1-.053.016zm-4.032.356h.914c.017.072.018.146.031.218l.266 2.045c.005.057.02.114.02.172l-1.548-.001c.008-.113.031-.225.041-.338q.137-1.04.272-2.083zm.24.708c-.003.048-.008.097.005.144h.424c.012-.047.006-.097.006-.145l-.011-.01a18 18 0 0 0-.416 0zm.004.475.001.147h.429c.004-.049 0-.098.003-.146a.1.1 0 0 0-.04-.008H7.77a.1.1 0 0 0-.04.007m-.007.48c.003.05-.007.1.008.148h.424c.014-.048.003-.098.007-.147a.1.1 0 0 0-.039-.008H7.77q-.024.001-.047.008m-.73.884H8.89V23h-.505c-.004-.053.004-.107-.008-.16h-.87q-.002.08-.001.16h-.514z"
                  fill="#DAB42D"/>
            <path d="M16.219 16.334h2.989c.596-.004 1.194.019 1.782.12.44.077.88.196 1.264.422.183.11.351.245.486.408.12.146.214.313.276.49.082.231.112.478.108.722-.004.204-.035.41-.107.602-.076.21-.203.402-.364.561-.284.277-.656.45-1.036.565-.092.029-.186.048-.278.075.428.079.856.203 1.225.435.177.112.337.252.462.419.115.15.199.32.255.499.07.227.094.465.089.7a2.3 2.3 0 0 1-.138.769 1.77 1.77 0 0 1-.639.825c-.337.24-.74.38-1.146.465a6 6 0 0 1-.955.114c-.237.014-.474.008-.71.009h-1.918c-.549-.002-1.098.003-1.646-.002q.002-4.099 0-8.198m2.265 1.475v1.821h.515c.3-.003.6.014.897-.03.22-.032.446-.087.628-.216a.72.72 0 0 0 .294-.463.9.9 0 0 0-.081-.62.86.86 0 0 0-.438-.353c-.254-.101-.532-.13-.805-.139zm0 3.254q-.002.976 0 1.953l.83-.001a3.7 3.7 0 0 0 .913-.085c.2-.05.403-.135.54-.292a.88.88 0 0 0 .203-.559.9.9 0 0 0-.142-.56.94.94 0 0 0-.483-.33c-.301-.1-.623-.12-.939-.126zm5.865-4.728h3.668c.395-.005.792.008 1.184.067.329.05.654.13.96.261.274.117.532.277.745.482.203.193.363.426.472.68.1.231.16.478.189.727.036.315.03.635-.022.948a2.5 2.5 0 0 1-.21.673 2.36 2.36 0 0 1-1.037 1.047 3.2 3.2 0 0 1-.773.284 5 5 0 0 1-1.105.12h-1.713v2.813l-.004.097q-1.176-.002-2.353 0c-.004-.47 0-.941-.002-1.412zm2.398 1.561v2.125h.971a3 3 0 0 0 .616-.045 1.4 1.4 0 0 0 .482-.175.8.8 0 0 0 .271-.267c.088-.14.13-.301.143-.462a1.3 1.3 0 0 0-.07-.576.8.8 0 0 0-.343-.395 1.5 1.5 0 0 0-.487-.164 3.6 3.6 0 0 0-.67-.04zm5.832-1.56c.784-.004 1.569 0 2.353-.002v7.569q-.001.315.001.628c-.784.005-1.57.001-2.354.002z"
                  fill="#A42A25"/>
        </g>
        <defs>
            <clipPath id="b">
                <path fill="#fff" d="M4 4h32v32H4z"/>
            </clipPath>
        </defs>
    </g>
</svg>
