<svg xmlns="http://www.w3.org/2000/svg" width="40" height="40" viewBox="0 0 40 40">
    <g transform="translate(-5 -5)scale(1.25)">
        <circle cx="20" cy="16.15" r="7.5" fill="#F5F7FE"/>
        <g transform="translate(20, 20) scale(0.85) translate(-20, -20)">
            <path fill-rule="evenodd" clip-rule="evenodd"
                  d="M9.565 15.538C9.565 9.755 14.237 5.067 20 5.067s10.435 4.688 10.435 10.471S25.763 26.01 20 26.01 9.565 21.32 9.565 15.538m7.67-2.349q-.353.053-.705.054-.472.002-.94-.11a4.3 4.3 0 0 1-1.367-.617c-.055-.036-.156-.073-.194-.048-.049.034-.076.127-.077.197-.006.398-.003.797-.003 1.195v1.47l-.001 3.16c0 .215.074.392.257.507a4.3 4.3 0 0 0 2.524.655c.708-.03 1.392-.188 2.06-.405.744-.242 1.482-.504 2.225-.753.65-.219 1.31-.397 1.993-.462.999-.094 1.94.087 2.801.621.2.123.284.074.284-.155V15.33q-.001-1.33.001-2.657a.66.66 0 0 0-.316-.578c-1.128-.766-2.358-.862-3.632-.505-.743.208-1.467.488-2.191.757-.89.333-1.769.7-2.719.841"
                  fill="#108EE9"/>
            <path fill-rule="evenodd" clip-rule="evenodd"
                  d="M15.22 32.284c.024-1.062.875-1.916 1.924-1.916 1.05 0 1.901.854 1.924 1.916h.003v2.649h-.963v-.98h-1.927v.98h-.963v-2.649zm.96.039a.97.97 0 0 1 .964-.975.97.97 0 0 1 .963.975h.001v.65h-1.927zm10.404-.039c.023-1.062.875-1.916 1.924-1.916s1.901.854 1.924 1.916h.003v2.649h-.964v-.98h-1.926v.98h-.964v-2.649zm.96.039v.65h1.927v-.65a.97.97 0 0 0-.963-.975c-.53 0-.96.436-.963.975m-6.63-.039c.023-1.062.874-1.916 1.923-1.916 1.05 0 1.902.854 1.926 1.916h.002v2.648h-.963v-2.61a.973.973 0 0 0-.965-.974c-.53 0-.96.436-.963.975v2.61h-.963v-2.649zm-9.756-1.915.018-.001.017.001h.073l-.013.002c1.202.043 2.165 1.045 2.165 2.28s-.966 2.239-2.171 2.277l.019.006H9.565v-4.565h1.593m-.633.98v.181h.003v2.238h-.003v.181h.732a1.293 1.293 0 0 0 1.198-1.299c0-.693-.532-1.257-1.203-1.298z"
                  fill="#108EE9"/>
        </g>
    </g>
</svg>
