<svg xmlns="http://www.w3.org/2000/svg" width="40" height="40" class="logo-content" viewBox="0 0 40 40">
    <g transform="translate(0 -2)" class="sub-svg-wrapper">
        <g clip-path="url(#b)">
            <path fill-rule="evenodd" clip-rule="evenodd"
                  d="M21.188 27.36c.26-.024.525-.021.78.04.247.057.485.162.687.317.21.162.386.382.452.642.01-.058.006-.118.007-.176v-.513a.25.25 0 0 1 .253-.242h.724a.25.25 0 0 1 .234.253v4.62c-.001.042 0 .086-.018.124a.26.26 0 0 1-.24.16h-.7a.254.254 0 0 1-.253-.236c-.002-.15.003-.3-.003-.45-.06.05-.113.11-.171.162a2.4 2.4 0 0 1-.636.425c-.45.206-.97.229-1.446.106a2.3 2.3 0 0 1-1.124-.682 2.7 2.7 0 0 1-.645-1.317 3.2 3.2 0 0 1 .096-1.587 2.5 2.5 0 0 1 .698-1.075c.36-.323.825-.521 1.305-.572m.525 1.052-.149.005a1.33 1.33 0 0 0-1.02.595c-.4.603-.37 1.45.054 2.034.126.17.287.315.476.41.426.22.968.183 1.366-.081.324-.207.544-.555.625-.928a2.1 2.1 0 0 0 .012-.831 1.6 1.6 0 0 0-.276-.644 1.4 1.4 0 0 0-1.237-.555z"
                  fill="#002CB9"/>
            <path fill-rule="evenodd" clip-rule="evenodd"
                  d="M23.273 14.51a.9.9 0 0 0-.517-.325c-.117-.027-.238-.017-.357-.018q-1.47-.002-2.94.003a.9.9 0 0 0-.518.17.9.9 0 0 0-.352.546.89.89 0 0 0 .686 1.052c.138.03.278.02.417.022q.922-.006 1.845-.002-.018.08-.05.159a3.1 3.1 0 0 1-1.093 1.451 3.09 3.09 0 0 1-4.116-.427 3.1 3.1 0 0 1-.693-1.244 3.1 3.1 0 0 1 .637-2.863 3.1 3.1 0 0 1 3.996-.604.9.9 0 0 0 .7.108.92.92 0 0 0 .522-.366.86.86 0 0 0 .15-.487.88.88 0 0 0-.285-.668c-.074-.07-.163-.12-.249-.172a4.85 4.85 0 0 0-2.543-.674 5 5 0 0 0-1.677.303c-.453.166-.88.403-1.262.698a4.85 4.85 0 0 0-1.624 2.261 5 5 0 0 0-.007 3.207 4.92 4.92 0 0 0 2.715 2.92 4.89 4.89 0 0 0 5.03-.734 4.9 4.9 0 0 0 1.283-1.634c.323-.658.49-1.391.49-2.124a.9.9 0 0 0-.188-.559"
                  fill="#007DFE"/>
            <path fill-rule="evenodd" clip-rule="evenodd"
                  d="M29.211 30.611a1.26 1.26 0 0 0-.379-.518 2.2 2.2 0 0 0-.603-.343c-.234-.093-.476-.16-.718-.227-.237-.066-.478-.128-.704-.229-.148-.067-.309-.167-.356-.334a.4.4 0 0 1 .093-.377c.128-.128.312-.172.486-.19.174-.016.352-.01.519.043a.7.7 0 0 1 .389.287c.044.065.067.14.088.216a.26.26 0 0 0 .126.154c.082.03.17.018.256.021.198.003.396-.003.594.003a.257.257 0 0 0 .22-.281 1.64 1.64 0 0 0-.546-1.027 1.8 1.8 0 0 0-.669-.358 2.6 2.6 0 0 0-.754-.104c-.475-.008-.962.098-1.364.359a1.6 1.6 0 0 0-.43.412 1.3 1.3 0 0 0-.232.742c-.006.24.044.486.164.695.103.182.255.332.428.447.152.106.321.184.494.251.279.11.571.182.86.26.214.06.43.117.63.212.106.055.216.12.275.227a.34.34 0 0 1 .031.258.44.44 0 0 1-.211.278c-.182.109-.4.14-.61.136a1.1 1.1 0 0 1-.48-.102.75.75 0 0 1-.373-.362c-.031-.06-.036-.134-.083-.185a.26.26 0 0 0-.208-.092l-.735.001a.25.25 0 0 0-.243.216c-.008.088.02.174.044.258.047.154.12.3.21.432.233.339.585.583.97.72a2.83 2.83 0 0 0 1.51.098c.267-.058.532-.154.758-.312.15-.1.284-.224.388-.371a1.39 1.39 0 0 0 .165-1.314m-10.884.291-.587-.335a.26.26 0 0 0-.273 0c-.054.032-.084.088-.118.138-.3.427-.8.688-1.312.753-.142.018-.286.015-.429.013a2.2 2.2 0 0 1-.824-.188 2 2 0 0 1-.877-.78 2.1 2.1 0 0 1-.284-.803 2.6 2.6 0 0 1 .05-1.002 2.02 2.02 0 0 1 1.026-1.295 2.3 2.3 0 0 1 1.085-.232c.32.003.64.076.925.225.252.132.476.318.641.55.029.04.053.086.093.116a.26.26 0 0 0 .284.023l.597-.347a.26.26 0 0 0 .092-.356 3.13 3.13 0 0 0-1.825-1.278 3.5 3.5 0 0 0-1.106-.097 3.5 3.5 0 0 0-1.07.237 3.2 3.2 0 0 0-.936.591 3.3 3.3 0 0 0-.675.843c-.303.54-.427 1.171-.402 1.788.012.349.072.696.188 1.024.155.44.41.843.738 1.175.281.29.617.53.987.693a3.6 3.6 0 0 0 1.62.284c.491-.025.98-.16 1.41-.4.389-.214.735-.511.994-.873.047-.069.108-.135.113-.222a.25.25 0 0 0-.125-.245m-6.894-2.078c-.082-.036-.172-.027-.259-.028h-2.45a.32.32 0 0 0-.312.297v.467a.313.313 0 0 0 .335.325h1.767a1.7 1.7 0 0 1-.452.919 2.2 2.2 0 0 1-.774.522c-.296.12-.616.198-.937.177a2.2 2.2 0 0 1-1.28-.464 2.1 2.1 0 0 1-.581-.703c-.195-.38-.252-.82-.215-1.243a2.1 2.1 0 0 1 .793-1.481c.312-.248.7-.393 1.097-.429a2.4 2.4 0 0 1 .8.049c.442.105.855.358 1.126.73.093.12.28.151.41.073q.235-.133.467-.268a.3.3 0 0 0 .125-.12.31.31 0 0 0-.012-.34 3.1 3.1 0 0 0-1.155-.969A3.4 3.4 0 0 0 8.363 26c-.289.004-.578.04-.857.113a3.2 3.2 0 0 0-1.221.622c-.298.247-.56.542-.76.874a3.1 3.1 0 0 0-.407 1.098c-.07.416-.068.843.004 1.259.067.374.2.737.395 1.063.275.456.658.848 1.112 1.128.46.284.995.44 1.533.477.287.024.579.014.863-.042a3.7 3.7 0 0 0 .733-.225 3.4 3.4 0 0 0 1.117-.749c.34-.358.565-.812.7-1.284.055-.198.097-.402.103-.61.005-.179.019-.358.017-.537a.41.41 0 0 0-.262-.363m23.5.873a3 3 0 0 0-.03-.484c-.058-.43-.23-.855-.527-1.175a1.9 1.9 0 0 0-1.105-.575c-.537-.087-1.112-.005-1.581.28-.102.06-.191.138-.285.21-.005-.635 0-1.27-.003-1.905 0-.062.007-.127-.022-.184a.25.25 0 0 0-.23-.148h-.7a.25.25 0 0 0-.238.175c-.015.05-.013.104-.013.157v6.277a.255.255 0 0 0 .25.26h.713a.25.25 0 0 0 .24-.249q.002-1.282 0-2.566c.005-.324.076-.66.27-.925a1.02 1.02 0 0 1 .549-.384c.25-.072.522-.065.768.02.191.068.36.195.48.36.152.208.23.463.257.718.024.26.014.522.016.783v2.007c0 .127.119.235.243.236h.7a.26.26 0 0 0 .23-.156c.016-.065.013-.132.013-.197v-2.136c.003-.133-.006-.266.005-.4M23.273 14.51a.9.9 0 0 0-.517-.325c-.117-.027-.238-.017-.357-.018q-1.47-.002-2.94.003a.9.9 0 0 0-.518.17.9.9 0 0 0-.352.546.89.89 0 0 0 .686 1.052c.138.03.278.02.417.022q.922-.006 1.845-.002-.018.08-.05.159a3.1 3.1 0 0 1-1.093 1.451 3.09 3.09 0 0 1-4.116-.427 3.1 3.1 0 0 1-.693-1.244 3.1 3.1 0 0 1 .637-2.863 3.1 3.1 0 0 1 3.996-.604.9.9 0 0 0 .7.108.92.92 0 0 0 .522-.366.86.86 0 0 0 .15-.487.88.88 0 0 0-.285-.668c-.074-.07-.163-.12-.249-.172a4.85 4.85 0 0 0-2.543-.674 5 5 0 0 0-1.677.303c-.453.166-.88.403-1.262.698a4.85 4.85 0 0 0-1.624 2.261 5 5 0 0 0-.007 3.207 4.9 4.9 0 0 0 2.715 2.92 4.89 4.89 0 0 0 5.03-.734 4.9 4.9 0 0 0 1.283-1.634c.323-.658.49-1.391.49-2.124a.9.9 0 0 0-.188-.559"
                  fill="#002CB9"/>
            <path fill-rule="evenodd" clip-rule="evenodd"
                  d="M23.594 20.207a.91.91 0 0 0-.728-.611.88.88 0 0 0-.63.152c-.161.12-.321.242-.494.346a5.9 5.9 0 0 1-2.178.834 6 6 0 0 1-1.32.076 6 6 0 0 1-1.522-.283 5.9 5.9 0 0 1-2.196-1.292 6 6 0 0 1-1.33-1.797 5.95 5.95 0 0 1-.575-2.82 5.9 5.9 0 0 1 .537-2.241c.093-.191.185-.383.299-.564a5.6 5.6 0 0 1 .758-1.004c.066-.081.146-.15.218-.225a6 6 0 0 1 1.934-1.252 6 6 0 0 1 4.533.053 6 6 0 0 1 1.18.674c.101.07.194.158.31.204a.9.9 0 0 0 .587.045.88.88 0 0 0 .654-.86.88.88 0 0 0-.191-.55 1.3 1.3 0 0 0-.241-.214 7.67 7.67 0 0 0-4.926-1.54 7.63 7.63 0 0 0-3.881 1.216c-.16.098-.31.212-.462.322a7 7 0 0 0-.793.688 7.7 7.7 0 0 0-1.645 2.378 7.7 7.7 0 0 0-.646 2.823 7.5 7.5 0 0 0 .139 1.776 7.73 7.73 0 0 0 3.228 4.904c.373.26.773.478 1.186.668a7.7 7.7 0 0 0 3.231.672q.67-.002 1.328-.123a7.6 7.6 0 0 0 3.3-1.46.9.9 0 0 0 .291-.34.9.9 0 0 0 .045-.655"
                  fill="#007CFF"/>
            <path fill-rule="evenodd" clip-rule="evenodd"
                  d="M26.238 14.111a7.7 7.7 0 0 0-.624-2.234.895.895 0 0 0-.947-.55.88.88 0 0 0-.666.466.9.9 0 0 0-.069.657c.03.1.08.192.12.288a5.98 5.98 0 0 1-.048 4.75c-.025.062-.056.122-.074.186a.9.9 0 0 0 .06.646.89.89 0 0 0 1.585.006 7.7 7.7 0 0 0 .645-2.178 8 8 0 0 0 .018-2.037"
                  fill="#6FBBF8"/>
            <path fill-rule="evenodd" clip-rule="evenodd"
                  d="M29.064 13.633a10.5 10.5 0 0 0-1.051-3.374.885.885 0 0 0-1.61.085.9.9 0 0 0 .038.741q.066.128.127.258c.124.275.242.553.338.839a8.9 8.9 0 0 1 .403 4.04 8.7 8.7 0 0 1-.885 2.847.9.9 0 0 0-.031.698.887.887 0 0 0 1.495.278c.082-.095.14-.209.193-.322a10.5 10.5 0 0 0 1.075-4.41 10.5 10.5 0 0 0-.092-1.68"
                  fill="#6FBBF8"/>
        </g>
        <defs>
            <clipPath id="b">
                <path fill="#fff" d="M4 4h32v32H4z"/>
            </clipPath>
        </defs>
    </g>
</svg>
