<svg width="40" height="40" class="logo-content" xmlns="http://www.w3.org/2000/svg" viewBox="180 0 40 40">
    <g transform="translate(175 -5)scale(1.25)" class="sub-svg-wrapper">
        <path d="M8 11.333A3.333 3.333 0 0 1 11.333 8h17.334A3.333 3.333 0 0 1 32 11.333v17.334A3.333 3.333 0 0 1 28.667 32H11.333A3.333 3.333 0 0 1 8 28.667z"
              fill="#FFEB00"/>
        <path fill-rule="evenodd" clip-rule="evenodd"
              d="M12.555 17c-1.733 0-3.139 1.11-3.139 2.48 0 .822.508 1.549 1.287 2l-.37 1.38a.148.148 0 0 0 .226.162l1.604-1.082q.194.019.392.02c1.734 0 3.14-1.11 3.14-2.48S14.288 17 12.554 17m5.92 1.186V20.9c.066.008.232.025.39.025.863 0 1.195-.606 1.195-1.56 0-.837-.225-1.343-.913-1.343-.224 0-.472.066-.672.165m0 3.56v1.687h-1.211v-6.26h.854l.15.4a1.72 1.72 0 0 1 1.276-.531c1.188 0 1.751.887 1.743 2.323 0 1.5-.871 2.463-2.116 2.463-.24 0-.422-.017-.696-.083m5.947-1.206v-.83h-.555q-.936 0-.938.672c0 .34.174.506.531.506.332 0 .755-.166.962-.348m-.688-1.601h.689v-.15c0-.498-.282-.73-.772-.73-.373 0-.854.108-1.244.299l-.332-.814c.431-.298 1.096-.505 1.684-.505 1.161 0 1.792.614 1.792 1.783v2.88h-.855l-.124-.383c-.49.357-.938.507-1.344.507-.888 0-1.385-.531-1.385-1.428 0-.954.663-1.46 1.891-1.46m5.43 2.375c-.423 1.128-.93 1.95-1.667 2.406l-.747-.689a4.2 4.2 0 0 0 1.004-1.227l-1.61-4.39 1.204-.323 1.028 3.56 1.02-3.577 1.188.333z"/>
    </g>
</svg>
