<svg width="64" height="104" viewBox="0 0 64 104" xmlns="http://www.w3.org/2000/svg">
    <g fill="none" transform="scale(0.8) translate(12 31)">
        <path d="M39.208 67.924c-6.192-6.965-10.192-11.397-11.412-12.663-1.08-1.127-1.42-1.714-1.436-2.517 0-.34.016-.464.108-.649.124-.262-.03-.108 4.263-4.586 1.806-1.884 3.52-3.676 3.798-3.969 1.437-1.513 1.575-1.637 1.915-1.822.85-.448 1.59-.479 2.332-.108.417.216.03-.201 5.096 5.358 2.038 2.24 5.544 6.1 7.799 8.57 4.385 4.819 7.937 8.741 8.647 9.544.68.772.896 1.313.88 2.317 0 .942-.262 1.575-.803 1.976-.478.355.34.325-10.145.325h-9.482z"
              fill="#48BBE5"/>
        <path d="M1.405 69.22c-.139-.03-.324-.107-.432-.138-.294-.124-.68-.525-.834-.85L0 67.94V47.277L21.604 23.65 43.208.023l9.343-.015c9.188-.016 9.342-.016 9.667.077.71.216 1.312.726 1.606 1.328.123.247.154.401.17.741.03.525-.047.865-.31 1.42-.277.588-.555.943-1.574 2.024-2.502 2.64-9.914 10.717-33.958 36.923C10.763 61.484 5.096 67.646 4.37 68.387c-.324.324-.756.571-1.328.757-.432.139-1.266.185-1.637.077"
              fill="#F37D31"/>
        <path d="M1.683 35.572c-.617-.17-1.112-.587-1.42-1.205l-.186-.386-.015-16.26C.046-.518.015 1.15.432.702c.263-.294.572-.464 1.05-.587.31-.077.85-.093 7.32-.093s7.011 0 7.304.093c.433.123.68.262.942.525.263.262.402.54.526.973.061.262.077 1.343.077 9.342v9.05l-1.915 2.115C8.725 29.934 4.509 34.52 3.922 35c-.648.54-1.528.771-2.239.57"
              fill="#48BBE5"/>
    </g>
</svg>
