<svg xmlns="http://www.w3.org/2000/svg" width="40" height="40" class="logo-content" viewBox="180 0 40 40">
    <g transform="translate(175 -5)scale(1.25)" class="sub-svg-wrapper">
        <path d="M32 28.581A3.42 3.42 0 0 1 28.581 32H11.42A3.42 3.42 0 0 1 8 28.581V11.42A3.42 3.42 0 0 1 11.42 8h17.16A3.42 3.42 0 0 1 32 11.42z"
              fill="#FF8300"/>
        <path d="M19.048 12.622H15.01a.22.22 0 0 0-.21.174l-2.613 14.823a.145.145 0 0 0 .147.178h4.039a.22.22 0 0 0 .208-.178l2.614-14.823a.144.144 0 0 0-.083-.162.14.14 0 0 0-.064-.012m3.382-.392-2.074 11.755c.482.122.978.183 1.476.183h.133l2.039-11.56a6 6 0 0 0-1.575-.379m-4.444 10.54a6 6 0 0 0 1.667.99l2.035-11.556a6 6 0 0 0-1.898.356zm4.942 1.299a6 6 0 0 0 1.528-.5l1.682-9.535a6 6 0 0 0-1.264-.999z"
              fill="#fff"/>
        <path d="M19.198 12.81a5.985 5.985 0 0 0-1.679 9.523zm7.864 2.467-1.309 7.426a5.98 5.98 0 0 0 1.31-7.426"
              fill="#fff"/>
    </g>
</svg>
