<svg width="60" height="80" viewBox="0 0 60 80" xmlns="http://www.w3.org/2000/svg">
    <circle cx="30" cy="40" r="28" fill="#FFF"/>
    <path transform="translate(0 10)" d="M59.803 29.9c0 5.94-1.777 11.78-5.033 16.73s-7.993 8.812-13.42 11.09a29.43 29.43 0 0 1-17.269 1.682 30.1 30.1 0 0 1-15.295-8.217C4.642 47.027 1.78 41.582.596 35.839a29.7 29.7 0 0 1 1.677-17.325c2.27-5.446 6.118-10.198 11.052-13.465S24.081 0 30.002 0s15.591 3.168 21.216 8.811A30.1 30.1 0 0 1 60 30.097zM34.837 15.84v15.148l-10.46-15.147h-8.585v28.315h9.079V29.008l10.46 15.148h8.584V15.94h-9.078z"
          fill="#00DE5A"/>
</svg>
