<svg xmlns="http://www.w3.org/2000/svg" width="40" height="40" class="logo-content" viewBox="0 0 40 40">
    <g>
        <g clip-path="url(#b)">
            <path d="M12.213 15.061a1.384 1.384 0 0 1-1.386-1.386c0-.768.618-1.387 1.386-1.387s1.387.619 1.387 1.387-.619 1.386-1.387 1.386m.022-4.17c-1.6 0-2.848 1.237-2.848 2.816 0 1.525 1.184 2.773 2.634 2.773.49 0 .8-.096 1.216-.405l.352-.256v.501h1.45v-2.507c-.01-1.696-1.183-2.922-2.804-2.922m6.432 4.181a1.386 1.386 0 0 1-1.387-1.397c0-.768.63-1.387 1.387-1.387.768 0 1.386.619 1.386 1.387s-.618 1.397-1.386 1.397m.18-4.192c-.426 0-.8.117-1.204.363l-.363.224V8.693h-1.44v4.8c0 1.707 1.173 2.955 2.795 2.955 1.589 0 2.837-1.237 2.837-2.816 0-1.493-1.205-2.752-2.624-2.752m6.145 4.192a1.386 1.386 0 0 1-1.387-1.397 1.393 1.393 0 0 1 2.784 0 1.41 1.41 0 0 1-1.397 1.397m.181-4.192c-.426 0-.8.117-1.205.363l-.363.224V8.693h-1.44v4.8c0 1.707 1.174 2.955 2.795 2.955 1.59 0 2.837-1.237 2.837-2.816.01-1.493-1.194-2.752-2.624-2.752m3.434.16h1.419v5.28h-1.419zm5.237 1.323v-1.259h-1.45V8.779h-1.419v5.504c0 .885.16 1.322.64 1.674.405.299.747.374 1.632.374h.597v-1.259h-.448c-.768 0-.992-.213-.992-.939v-1.781zM8.917 10.848c-1.642 0-2.805 1.248-2.805 2.965v2.496h1.43v-2.325c0-1.056.511-1.685 1.375-1.685h.086v-1.451zm25.6 20.448H5.472a.405.405 0 0 1-.405-.405V20.213c0-.224.181-.405.405-.405h29.056c.224 0 .405.181.405.405v10.688a.42.42 0 0 1-.416.395"
                  fill="#08BF5B"/>
            <path d="M25.387 24.853c0 .864-.704 1.568-1.6 1.568h-.683v1.259c0 .085-.064.15-.15.15h-.693c-.085 0-.16-.065-.16-.15v-4.245c0-.086.075-.15.16-.15h1.536c.896 0 1.59.704 1.59 1.568m-1.035.011c0-.32-.224-.555-.523-.555h-.693v1.11h.693c.299 0 .523-.235.523-.555m4.725-.192v3.083a.084.084 0 0 1-.085.085h-.81a.084.084 0 0 1-.086-.085v-.214c-.213.246-.533.395-.97.395-.854 0-1.558-.747-1.558-1.717s.704-1.718 1.557-1.718c.438 0 .758.15.97.395v-.224c0-.043.033-.085.086-.085h.81c.044 0 .086.032.086.085m-1.024 1.547c0-.47-.31-.758-.736-.758s-.736.288-.736.758c0 .469.31.757.736.757.427 0 .736-.299.736-.757m3.99-1.547-.704 1.813-.747-1.813c-.021-.053-.064-.085-.117-.085H29.6c-.053 0-.096.053-.075.106l1.29 3.158-.48 1.194a.08.08 0 0 0 .076.107h.832a.14.14 0 0 0 .128-.085l1.738-4.384c.022-.054-.021-.107-.074-.107h-.864q-.096.016-.128.096M10.368 27.68c0 .085-.064.16-.16.16H7.467a.12.12 0 0 1-.107-.053.14.14 0 0 1-.043-.107v-4.245c0-.086.075-.16.16-.16h.726c.085 0 .16.074.16.16v3.36h1.856c.085 0 .16.064.16.16v.725zm1.632 0c0 .085-.064.16-.16.16h-.725a.164.164 0 0 1-.16-.16v-4.235c0-.085.074-.16.16-.16h.725c.085 0 .16.075.16.16zm4.661 0c0 .085-.064.16-.16.16h-.714c-.011 0-.022 0-.043-.01 0 0-.01 0-.01-.011l-.033-.022c-.01-.01-.032-.021-.042-.042l-1.942-2.71v2.624c0 .086-.064.16-.16.16h-.714a.157.157 0 0 1-.16-.16v-4.245c0-.085.074-.16.16-.16h.746l.032.01.043.022s.01 0 .01.01l.011.011.01.011s.012.01.012.021l1.92 2.678v-2.592c0-.086.074-.16.16-.16h.725c.085 0 .16.074.16.16v4.245zm3.744-3.51c0 .086-.064.16-.16.16H18.38v.726h1.866c.086 0 .16.075.16.16v.725c0 .086-.064.16-.16.16H18.38v.715h1.866c.086 0 .16.075.16.16v.725c0 .086-.064.16-.16.16h-2.752a.14.14 0 0 1-.106-.042l-.011-.011a.14.14 0 0 1-.043-.107v-4.245c0-.043.01-.075.043-.107a.14.14 0 0 1 .107-.042h2.752c.085 0 .16.074.16.16v.704z"
                  fill="#fff"/>
        </g>
        <defs>
            <clipPath id="b">
                <path fill="#fff" d="M4 4h32v32H4z"/>
            </clipPath>
        </defs>
    </g>
</svg>
