<?xml version="1.0" encoding="UTF-8"?>
<svg width="48px" height="64px" viewBox="0 0 48 64" version="1.1" xmlns="http://www.w3.org/2000/svg" xmlns:xlink="http://www.w3.org/1999/xlink">
    <defs>
        <polygon id="tinaba-path-1" points="0 0.0749396825 48.2021696 0.0749396825 48.2021696 46.215873 0 46.215873"></polygon>
    </defs>
    <g transform="translate(0, 8)" stroke="none" stroke-width="1" fill="none" fill-rule="evenodd">
        <g transform="translate(-33.000000, -62.000000)">
            <g transform="translate(33.000000, 62.000000)">
                <g transform="translate(0.000000, 0.109187)">
                    <mask id="mask-2" fill="white">
                        <use xlink:href="#tinaba-path-1"></use>
                    </mask>
                    <g id="Clip-40"></g>
                    <path d="M-1.8596882e-05,23.1401035 L-1.8596882e-05,39.4099321 C-1.8596882e-05,43.169621 3.18209388,46.2160019 7.1088255,46.2160019 C11.0355571,46.2160019 14.2189714,43.169621 14.2189714,39.4099321 L14.2189714,29.9222368 C14.2189714,29.1890432 14.8408511,28.5959702 15.6066707,28.5959702 C16.3697008,28.5959702 16.9915805,29.1890432 16.9915805,29.9222368 L16.9915805,39.4099321 C16.9915805,43.169621 20.173693,46.2160019 24.1004246,46.2160019 C28.0269703,46.2160019 31.2105705,43.169621 31.2105705,39.4099321 L31.2105705,24.4717098 C31.2105705,23.7398051 31.8324502,23.1454432 32.596968,23.1454432 C33.3627876,23.1454432 33.9831796,23.7398051 33.9831796,24.4717098 L33.9831796,39.4099321 C33.9831796,43.169621 37.1665939,46.2160019 41.0920237,46.2160019 C45.0200571,46.2160019 48.2021696,43.169621 48.2021696,39.4099321 L48.2021696,23.1401035 C48.199566,10.4001733 37.4094692,0.0748844444 24.1004246,0.0748844444 C10.7926818,0.0748844444 0.00258496659,10.4001733 -1.8596882e-05,23.1401035" id="Fill-39" fill="#FF5E00" mask="url(#mask-2)"></path>
                </g>
            </g>
        </g>
    </g>
</svg>
