<svg xmlns="http://www.w3.org/2000/svg" width="40" height="40" class="logo-content" viewBox="180 0 40 40">
    <g transform="translate(175 -5)scale(1.25)" class="sub-svg-wrapper">
        <g clip-path="url(#b)">
            <path fill-rule="evenodd" clip-rule="evenodd"
                  d="M27.163 8.009H12.906a4.87 4.87 0 0 0-4.864 4.863v14.257a4.87 4.87 0 0 0 4.864 4.862h14.257a4.87 4.87 0 0 0 4.862-4.862V12.872a4.87 4.87 0 0 0-4.862-4.863"
                  fill="#295DAA"/>
            <path fill-rule="evenodd" clip-rule="evenodd"
                  d="M17.37 17.8h-1.208c-.354 0-.814.251-.946.585l.121-.64h-1.476l-.656 3.679h1.478l.409-2.329h1.59l-.294 1.67c-.09.516.26.641.434.641h.773l.504-2.86c-.042-.41-.319-.745-.728-.745m-4.575-.056-.278 1.579 1.124-1.579zm1.754-5.762H9.602l-.214 1.22h1.726l-.691 3.927h1.489l.695-3.928h1.726z"
                  fill="#fff"/>
            <path fill-rule="evenodd" clip-rule="evenodd"
                  d="m15.573 15.924.216-1.229h-1.325l-.216 1.23zm-2.088 1.206c-.41 0-.686-.335-.614-.746l.38-2.15c.071-.41.467-.746.875-.746h2.425c.41 0 .687.336.612.745l-.378 2.151c-.073.41-.467.746-.876.746zm9.755-1.206.217-1.229h1.92l.213-1.206h-2.47c-.41 0-.806.335-.877.744l-.38 2.151c-.072.41.204.745.615.745h2.401l.212-1.205zm-3.018 0h-1.625l.428-2.435h-1.294l-.51 2.895c-.072.41.204.745.614.745h1.262c.41 0 .745-.243 1.01-.559 0 0 .144.422.352.516.209.096.84.073.84.073l.648-3.67H20.65zm9.334-2.417h-1.208c-.355 0-.698.251-.831.584l.348-1.978h-1.362l-.884 5.016h1.363l.41-2.328h1.476l-.293 1.67c-.092.515.26.642.43.642h.66l.505-2.861c.071-.41-.204-.745-.614-.745m-4.854 9.14c-.55 0-.923-.453-.827-1.003l.511-2.891c.096-.553.628-1.004 1.18-1.004h3.085c.55 0 .923.451.826 1.004l-.51 2.891c-.098.55-.629 1.003-1.18 1.003zm2.873-1.351.389-2.195h-2.186l-.389 2.195zm-5.864 0h-2.188l.387-2.195h3.547l.234-1.352h-3.99c-.553 0-1.083.451-1.18 1.004l-.51 2.89c-.097.551.273 1.004.825 1.004h3.086c.552 0 1.083-.453 1.18-1.003l.312-1.775H21.96z"
                  fill="#fff"/>
            <path fill-rule="evenodd" clip-rule="evenodd"
                  d="m19.177 24.425-1.928 3.972h-1.222l-.145-2.404-1.168 2.404h-1.23l-.235-3.972h.87l.153 3.115 1.499-3.115h.884l.152 3.115 1.5-3.115zm3.64 3.972h-.85l.843-3.972h.85zm1.395 0h-.849l.843-3.972h.849zm5.872 0H29.4q-.476 0-.663-.093-.186-.094-.186-.377 0-.159.048-.373l.663-3.13h.85l-.214.988h.822l-.159.719h-.808l-.242 1.133a1.5 1.5 0 0 0-.034.228q0 .117.079.152.08.034.321.034h.36zM12.72 25.502q-.186-.096-.663-.096H10.84q-.525 0-.798.196-.273.197-.37.653l-.269 1.292a3 3 0 0 0-.041.21q-.014.095-.014.17a.5.5 0 0 0 .041.224.33.33 0 0 0 .138.142.7.7 0 0 0 .263.076q.166.02.415.02h2.065l.152-.71h-1.74q-.244 0-.322-.039-.08-.038-.08-.155 0-.084.028-.221v-.002h.36v.002h1.975l.214-1.009q.048-.22.049-.38 0-.276-.187-.373m-.746 1.043H10.46a1 1 0 0 1 .066-.22.3.3 0 0 1 .097-.129q.059-.045.151-.058.094-.014.232-.014h.677q.331 0 .332.207 0 .02-.042.214m9.873-.898a.32.32 0 0 0-.145-.141.8.8 0 0 0-.262-.073 3 3 0 0 0-.404-.02h-2.059l-.152.718h1.74q.244 0 .322.035.08.034.08.151 0 .056-.035.228h-1.347q-.297 0-.494.031a.8.8 0 0 0-.328.121.6.6 0 0 0-.208.256 2.3 2.3 0 0 0-.138.435l-.034.166a1.7 1.7 0 0 0-.049.373q0 .145.045.235a.32.32 0 0 0 .145.142.8.8 0 0 0 .263.072q.162.02.404.02h2.197l.456-2.14q.048-.215.048-.374a.5.5 0 0 0-.045-.235m-2.435 2.031q-.187 0-.187-.159a.25.25 0 0 1 .077-.176.27.27 0 0 1 .2-.08h.919v-.001h.358l-.089.416zm8.829-2.176q-.186-.096-.663-.096H26.36q-.525 0-.798.196-.273.197-.37.653l-.27 1.292a3 3 0 0 0-.04.21q-.014.095-.014.17a.5.5 0 0 0 .041.224.33.33 0 0 0 .138.142.7.7 0 0 0 .263.076q.165.02.414.02h2.066l.152-.71h-1.741q-.242 0-.321-.039-.08-.038-.08-.155 0-.084.028-.221v-.002h.36v.002h1.975l.214-1.009q.048-.22.049-.38 0-.276-.187-.373m-.746 1.043H25.98q.027-.138.066-.22a.3.3 0 0 1 .096-.129q.06-.045.152-.058.093-.014.232-.014h.677q.33 0 .331.207 0 .02-.041.214"
                  fill="#FDDB00"/>
            <path fill-rule="evenodd" clip-rule="evenodd"
                  d="M33.743 8.09h-.354v1.042h-.086V8.09h-.354v-.081h.794zm1.19 1.042h-.085v-.998l-.415.69h-.014l-.416-.69v.998h-.085V8.009h.107l.4.664.4-.664h.108z"
                  fill="#295DAA"/>
        </g>
        <defs>
            <clipPath id="b">
                <path fill="#fff" d="M4 4h32v32H4z"/>
            </clipPath>
        </defs>
    </g>
</svg>
