<svg width="32" height="22" viewBox="0 0 180 120" xmlns="http://www.w3.org/2000/svg">
    <rect width="180" height="120" rx="10.9" fill="white"/>
    <path transform="translate(46 22)" d="M79.7643 15.6592L54.4661 1.46639C47.0405 -2.69964 37.7579 2.50634 37.7579 10.8443V12.3003C37.7579 13.616 38.4816 14.8331 39.6523 15.4875L44.4288 18.1669C45.832 18.9563 47.5813 17.9712 47.5813 16.3995V12.7776C47.5813 10.9669 49.5952 9.83513 51.2064 10.7403L73.1184 23.0368C74.7296 23.9419 74.7296 26.2053 73.1184 27.1051L51.2064 39.4011C49.5952 40.3067 47.5813 39.1749 47.5813 37.3637V35.4368C47.5813 27.0987 38.2992 21.8864 30.8672 26.0587L5.56932 40.2512C-1.85644 44.4176 -1.85644 54.8416 5.56932 59.0075L30.8672 73.2005C38.2928 77.3664 47.5813 72.1605 47.5813 63.8224V62.3664C47.5813 61.0507 46.8576 59.8395 45.6875 59.1792L40.9109 56.4933C39.5077 55.704 37.7579 56.6891 37.7579 58.2613V61.8827C37.7579 63.6939 35.7445 64.8256 34.1333 63.92L12.221 51.624C10.61 50.7184 10.61 48.4549 12.221 47.5493L34.1333 35.2533C35.7445 34.3477 37.7579 35.4795 37.7579 37.2907V39.2176C37.7579 47.5557 47.0405 52.768 54.4661 48.5957L79.7643 34.4032C87.1899 30.2491 87.1899 19.8251 79.7643 15.6592Z" fill="black"/>
</svg>
