<svg width="32" height="22" viewBox="6 6 32 22" fill="none" xmlns="http://www.w3.org/2000/svg">
<g filter="url(#filter0_d_1_238)">
<rect x="6" y="6" width="32" height="22" rx="2" fill="white"/>
</g>
<path d="M18.5238 13.7557C18.5238 14.2073 18.8538 14.5114 19.3142 14.5114C19.7746 14.5114 20.1046 14.2073 20.1046 13.7557C20.1046 13.3128 19.7746 13 19.3142 13C18.8538 13 18.5238 13.3128 18.5238 13.7557Z" fill="#1677FF"/>
<path d="M16.3146 19.5349H17.6889V13.1852H16.3146V19.5349Z" fill="black"/>
<path d="M11.9049 17.3255L12.7225 14.4986H12.7574L13.5315 17.3255H11.9049ZM13.9056 13.3939H12.0615L10 19.5262H11.27L11.6179 18.3258H13.8012L14.1316 19.5262H15.7583L13.9056 13.3939Z" fill="black"/>
<path d="M18.6282 19.5328H20.0027V14.8699H18.6282V19.5328Z" fill="black"/>
<path d="M34.3631 14.8686L34.3717 14.86H33.0757L32.2581 17.6955H32.2146L31.2752 14.86H29.7355L31.5884 19.5396L30.8142 20.9661V21.0009H32.0233L34.3631 14.8686Z" fill="black"/>
<path d="M22.5512 18.722C22.3947 18.722 22.2467 18.7046 22.0816 18.6524V16.1299C22.3686 15.9299 22.6034 15.8342 22.8991 15.8342C23.4124 15.8342 23.8212 16.243 23.8212 17.1128C23.8212 18.2262 23.221 18.722 22.5512 18.722ZM23.4211 14.7643C22.9166 14.7643 22.5251 14.9557 22.0816 15.321V14.86H20.7071V21.0009H22.0816V19.4787C22.3425 19.5483 22.586 19.5831 22.8818 19.5831C24.1082 19.5831 25.2129 18.6785 25.2129 17.0694C25.2129 15.6254 24.4126 14.7643 23.4211 14.7643Z" fill="black"/>
<path d="M28.0926 18.3932C27.7272 18.5934 27.5183 18.6717 27.2749 18.6717C26.9442 18.6717 26.7354 18.4542 26.7354 18.1062C26.7354 17.9756 26.7615 17.8451 26.8658 17.7408C27.0312 17.5754 27.3532 17.4536 28.0926 17.2796V18.3932ZM29.4673 18.3584V16.4096C29.4673 15.3481 28.8409 14.7652 27.736 14.7652C27.0312 14.7652 26.544 14.8869 25.6565 15.1566L25.9 16.2269C26.7092 15.8614 27.066 15.7048 27.4401 15.7048C27.8926 15.7048 28.0926 16.0267 28.0926 16.5226V16.5574C26.5178 16.8533 26.0306 17.0186 25.7261 17.3231C25.4999 17.5493 25.4042 17.8712 25.4042 18.2453C25.4042 19.1415 26.1003 19.6201 26.7529 19.6201C27.24 19.6201 27.6315 19.4373 28.1623 19.037L28.258 19.5243H29.6327L29.4673 18.3584Z" fill="black"/>
<defs>
<filter id="filter0_d_1_238" x="0" y="0" width="44" height="34" filterUnits="userSpaceOnUse" color-interpolation-filters="sRGB">
<feFlood flood-opacity="0" result="BackgroundImageFix"/>
<feColorMatrix in="SourceAlpha" type="matrix" values="0 0 0 0 0 0 0 0 0 0 0 0 0 0 0 0 0 0 127 0" result="hardAlpha"/>
<feOffset/>
<feGaussianBlur stdDeviation="3"/>
<feComposite in2="hardAlpha" operator="out"/>
<feColorMatrix type="matrix" values="0 0 0 0 0.401815 0 0 0 0 0.569466 0 0 0 0 0.904769 0 0 0 0.12 0"/>
<feBlend mode="normal" in2="BackgroundImageFix" result="effect1_dropShadow_1_238"/>
<feBlend mode="normal" in="SourceGraphic" in2="effect1_dropShadow_1_238" result="shape"/>
</filter>
</defs>
</svg>
