<svg width="32" height="22" viewBox="0 0 32 22" fill="none" xmlns="http://www.w3.org/2000/svg">
<rect width="32" height="22" rx="2" fill="#016FD0"/>
<path d="M6.19718 16.9997V11.8047H11.5037L12.0731 12.574L12.6612 11.8047H31.9227V16.6414C31.9227 16.6414 31.419 16.9945 30.8364 16.9997H20.1709L19.529 16.1808V16.9997H17.4256V15.6018C17.4256 15.6018 17.1382 15.7969 16.517 15.7969H15.8011V16.9997H12.6162L12.0477 16.2139L11.4704 16.9997H6.19718Z" fill="white"/>
<path d="M0 7.8918L1.19665 5H3.26613L3.94524 6.61987V5H6.5178L6.92207 6.17079L7.31401 5H18.8621V5.5886C18.8621 5.5886 19.4692 5 20.4669 5L24.2138 5.01357L24.8812 6.61224V5H27.0341L27.6266 5.91831V5H29.7992V10.195H27.6266L27.0587 9.27373V10.195H23.8957L23.5776 9.37609H22.7273L22.4144 10.195H20.2694C19.4109 10.195 18.8621 9.61843 18.8621 9.61843V10.195H15.6279L14.986 9.37609V10.195H2.95955L2.64168 9.37609H1.79407L1.47845 10.195H0V7.8918Z" fill="white"/>
<path d="M1.61987 5.64844L0.00640869 9.53696H1.05686L1.35456 8.7583H3.08526L3.38142 9.53696H4.45501L2.84308 5.64844H1.61987ZM2.21682 6.55341L2.74436 7.91408H1.68774L2.21682 6.55341Z" fill="#016FD0"/>
<path d="M4.56674 9.53696V5.64844L6.05949 5.65419L6.92772 8.16126L7.77516 5.64844H9.25597V9.53696H8.31812V6.67173L7.32399 9.53696H6.50149L5.50459 6.67173V9.53696H4.56674Z" fill="#016FD0"/>
<path d="M9.90227 9.53696V5.64844H12.9626V6.51824H10.85V7.18338H12.9132V8.00202H10.85V8.69275H12.9626V9.53696H9.90227Z" fill="#016FD0"/>
<path d="M13.5045 5.64844V9.53696H14.4423V8.15551H14.8372L15.9617 9.53696H17.1078L15.8738 8.10435C16.3802 8.06005 16.9026 7.60949 16.9026 6.90997C16.9026 6.09169 16.283 5.64844 15.5915 5.64844H13.5045ZM14.4423 6.51824H15.5144C15.7715 6.51824 15.9586 6.72676 15.9586 6.92756C15.9586 7.18589 15.7162 7.33688 15.5283 7.33688H14.4423V6.51824Z" fill="#016FD0"/>
<path d="M18.2443 9.53696H17.2867V5.64844H18.2443V9.53696Z" fill="#016FD0"/>
<path d="M20.5153 9.53696H20.3086C19.3085 9.53696 18.7013 8.72025 18.7013 7.60869C18.7013 6.46967 19.3017 5.64844 20.5647 5.64844H21.6012V6.5694H20.5268C20.0141 6.5694 19.6515 6.98413 19.6515 7.61828C19.6515 8.37134 20.0661 8.68763 20.6634 8.68763H20.9102L20.5153 9.53696Z" fill="#016FD0"/>
<path d="M22.5568 5.64844L20.9433 9.53696H21.9937L22.2915 8.7583H24.0221L24.3183 9.53696H25.3919L23.78 5.64844H22.5568ZM23.1537 6.55341L23.6813 7.91408H22.6246L23.1537 6.55341Z" fill="#016FD0"/>
<path d="M25.5027 9.53696V5.64844H26.6951L28.2175 8.09156V5.64844H29.1554V9.53696H28.0016L26.4405 7.02989V9.53696H25.5027Z" fill="#016FD0"/>
<path d="M6.83908 16.326V12.4375H9.89942V13.3073H7.7868V13.9724H9.85006V14.7911H7.7868V15.4818H9.89942V16.326H6.83908Z" fill="#016FD0"/>
<path d="M21.839 16.326V12.4375H24.8993V13.3073H22.7867V13.9724H24.8401V14.7911H22.7867V15.4818H24.8993V16.326H21.839Z" fill="#016FD0"/>
<path d="M10.021 16.326L11.511 14.4057L9.98549 12.4375H11.1671L12.0756 13.6543L12.9872 12.4375H14.1225L12.617 14.3818L14.1098 16.326H12.9284L12.0463 15.1284L11.1856 16.326H10.021Z" fill="#016FD0"/>
<path d="M14.2202 12.4492V16.3377H15.1828V15.1098H16.17C17.0053 15.1098 17.6384 14.6504 17.6384 13.7571C17.6384 13.0171 17.1418 12.4492 16.2918 12.4492H14.2202ZM15.1828 13.3286H16.2224C16.4923 13.3286 16.6852 13.5001 16.6852 13.7763C16.6852 14.0358 16.4932 14.224 16.2193 14.224H15.1828V13.3286Z" fill="#016FD0"/>
<path d="M18.0469 12.4375V16.326H18.9848V14.9446H19.3797L20.5042 16.326H21.6502L20.4162 14.8934C20.9227 14.8491 21.4451 14.3986 21.4451 13.699C21.4451 12.8808 20.8255 12.4375 20.134 12.4375H18.0469ZM18.9848 13.3073H20.0568C20.314 13.3073 20.5011 13.5158 20.5011 13.7166C20.5011 13.975 20.2587 14.1259 20.0707 14.1259H18.9848V13.3073Z" fill="#016FD0"/>
<path d="M25.3349 16.326V15.4818H27.2118C27.4895 15.4818 27.6098 15.3262 27.6098 15.1556C27.6098 14.9922 27.4899 14.8269 27.2118 14.8269H26.3636C25.6264 14.8269 25.2158 14.3613 25.2158 13.6623C25.2158 13.0388 25.5918 12.4375 26.6873 12.4375H28.5137L28.1188 13.3124H26.5393C26.2373 13.3124 26.1444 13.4766 26.1444 13.6335C26.1444 13.7947 26.2592 13.9724 26.4899 13.9724H27.3784C28.2002 13.9724 28.5569 14.4557 28.5569 15.0885C28.5569 15.7688 28.1595 16.326 27.3336 16.326H25.3349Z" fill="#016FD0"/>
<path d="M28.778 16.326V15.4818H30.6549C30.9326 15.4818 31.0529 15.3262 31.0529 15.1556C31.0529 14.9922 30.933 14.8269 30.6549 14.8269H29.8068C29.0695 14.8269 28.6589 14.3613 28.6589 13.6623C28.6589 13.0388 29.0349 12.4375 30.1305 12.4375H31.9568L31.5619 13.3124H29.9824C29.6805 13.3124 29.5875 13.4766 29.5875 13.6335C29.5875 13.7947 29.7024 13.9724 29.933 13.9724H30.8215C31.6434 13.9724 32 14.4557 32 15.0885C32 15.7688 31.6026 16.326 30.7768 16.326H28.778Z" fill="#016FD0"/>
</svg>
