<svg width="32" height="22" viewBox="6 6 32 22" fill="none" xmlns="http://www.w3.org/2000/svg">
    <rect x="6" y="6" width="32" height="22" rx="2" fill="white"/>
    <path d="M35 14.1628H33.6475L32.8647 17.4651L32.755 17.9183C32.6794 17.9389 32.6039 17.9595 32.5284 17.9733C32.3911 18.0007 32.2469 18.0144 32.096 18.0144C31.9243 18.0144 31.787 17.987 31.684 17.9389C31.5878 17.8909 31.5123 17.8223 31.4711 17.7261C31.4299 17.6368 31.4162 17.527 31.423 17.4034C31.4299 17.2799 31.4573 17.1425 31.4917 17.0053L31.9036 15.2888L32.1713 14.1492H30.7913L30.1666 16.7855C30.091 17.1012 30.0499 17.4034 30.0361 17.6918C30.0224 17.9801 30.0705 18.2273 30.1666 18.4538C30.2627 18.6735 30.4343 18.8451 30.6678 18.9755C30.9012 19.106 31.2376 19.1677 31.6634 19.1677C31.9586 19.1677 32.2195 19.1404 32.4392 19.0922C32.4461 19.0922 32.4598 19.0854 32.4667 19.0854C32.4049 19.36 32.2813 19.5796 32.089 19.7514C31.8899 19.923 31.6015 20.0123 31.217 20.0123C31.0522 20.0123 30.9012 20.0054 30.7639 19.9849L30.4961 21.104C30.6747 21.1246 30.8738 21.1383 31.0934 21.1383C31.5054 21.1383 31.8624 21.0903 32.1713 21.0009C32.4803 20.9048 32.7413 20.7676 32.9677 20.5753C33.1874 20.383 33.3728 20.1427 33.5238 19.8613C33.6748 19.573 33.7915 19.2364 33.8808 18.8383L34.8145 14.9112L35 14.1628ZM29.3359 16.9845C29.2535 17.3278 29.226 17.6779 29.2603 18.0212C29.2947 18.3714 29.432 18.9 29.5625 19.1677H28.258C28.1001 18.9001 28.107 18.7696 28.0727 18.6873C27.901 18.8246 27.7157 18.9413 27.5098 19.0306C27.3038 19.1198 27.0772 19.1679 26.8163 19.1679C26.5142 19.1679 26.2533 19.1129 26.0405 19.01C25.8277 18.9071 25.6492 18.7629 25.5118 18.5843C25.3744 18.4057 25.2784 18.1998 25.2165 17.9595C25.1547 17.7192 25.1273 17.4651 25.1273 17.1906C25.1273 16.7717 25.2028 16.3804 25.3471 16.0097C25.498 15.639 25.704 15.3162 25.965 15.0416C26.2259 14.767 26.8644 14.156 27.9079 14.156H30.002L29.3359 16.9845ZM28.3816 15.3025C27.75 15.3025 27.6332 15.3025 27.3724 15.433C27.1871 15.5291 27.0359 15.6733 26.9055 15.838C26.7751 16.0028 26.6652 16.195 26.5897 16.4147C26.5142 16.6344 26.473 16.861 26.473 17.0944C26.473 17.3828 26.5211 17.6162 26.6172 17.7878C26.7132 17.9595 26.8918 18.0418 27.1527 18.0418C27.2901 18.0418 27.4204 18.0144 27.5304 17.9595C27.6401 17.9045 27.7637 17.8154 27.8873 17.6849C27.9011 17.5339 27.9217 17.3759 27.9491 17.2113C27.9765 17.0464 28.0109 16.8885 28.0384 16.7512L28.3816 15.3025ZM24.7566 16.1469C24.7566 16.5932 24.681 16.9982 24.5368 17.369C24.3927 17.7397 24.1867 18.0556 23.9258 18.3234C23.6648 18.5912 23.356 18.7971 22.9921 18.9482C22.6282 19.0991 22.2369 19.1746 21.8112 19.1746C21.6052 19.1746 21.3992 19.1541 21.1864 19.1197L20.7745 20.7743H19.4219L20.9941 14.1696H22.7998C23.1432 14.1696 23.4383 14.2246 23.6786 14.3274C23.9257 14.4304 24.1248 14.5746 24.2896 14.7532C24.4475 14.9317 24.5642 15.1445 24.6397 15.3848C24.7223 15.6183 24.7566 15.8723 24.7566 16.1469ZM21.4404 18.0212C21.5433 18.0486 21.6739 18.0556 21.8249 18.0556C22.0652 18.0556 22.2781 18.0143 22.4771 17.925C22.6693 17.8358 22.841 17.7122 22.9783 17.5544C23.1157 17.3965 23.2186 17.2042 23.301 16.9845C23.3765 16.7647 23.4177 16.5176 23.4177 16.2499C23.4177 15.9889 23.3628 15.7624 23.2461 15.5838C23.1293 15.3986 22.9303 15.3024 22.642 15.3024H22.1064L21.4404 18.0212ZM18.5981 18.0212C18.4264 18.0212 18.2892 17.9938 18.1862 17.9457C18.09 17.8977 18.0145 17.829 17.9733 17.7328C17.9321 17.6436 17.9184 17.5338 17.9253 17.4102C17.9321 17.2866 17.9595 17.1492 17.9939 17.012L18.4058 15.2956H19.9437L20.2252 14.1559H18.6804L19.0374 12.7141L17.5955 12.9406L16.6824 16.7991C16.6069 17.1148 16.5657 17.417 16.552 17.7053C16.5382 17.9936 16.5863 18.2409 16.6824 18.4674C16.7785 18.6871 16.9502 18.8587 17.1836 18.9892C17.417 19.1196 17.7535 19.1814 18.1791 19.1814C18.4744 19.1814 18.7352 19.154 18.955 19.1059C18.9756 19.0989 19.0099 19.0921 19.0304 19.0853L19.312 17.9112C19.2158 17.9455 19.1197 17.9662 19.0304 17.9798C18.8933 18.0075 18.7491 18.0212 18.5981 18.0212ZM15.1585 14.1628L13.9638 19.1746H15.3163L16.5041 14.1628H15.1585ZM16.6483 13.5861L16.8542 12.7141H15.5017L15.2957 13.5861H16.6483ZM12.165 14.1696C12.4534 14.1696 12.7074 14.2246 12.9202 14.3274C13.1331 14.4304 13.3047 14.5677 13.4489 14.7463C13.5862 14.9248 13.6892 15.1308 13.7578 15.3642C13.8264 15.5976 13.8608 15.8517 13.8608 16.1263C13.8608 16.5451 13.7852 16.9365 13.6273 17.314C13.4694 17.6848 13.2634 18.0143 12.9957 18.2889C12.728 18.5635 12.4121 18.7833 12.0483 18.9412C11.6844 19.099 11.293 19.1814 10.8674 19.1814C10.8125 19.1814 10.7164 19.1814 10.5791 19.1746C10.4418 19.1746 10.2839 19.1608 10.1122 19.1334C9.93371 19.106 9.74833 19.0716 9.55609 19.0236C9.36425 18.9769 9.17785 18.9102 9 18.8245L10.5722 12.2198L11.9797 12L11.4235 14.3411C11.5471 14.2862 11.6569 14.245 11.7805 14.2176C11.8972 14.1834 12.0277 14.1696 12.165 14.1696ZM10.9841 18.0556C11.1969 18.0556 11.3961 18.0075 11.5814 17.8977C11.7693 17.7936 11.9349 17.6536 12.0689 17.4857C12.2062 17.314 12.316 17.1149 12.3916 16.902C12.4671 16.6823 12.5083 16.4559 12.5083 16.2225C12.5083 15.9341 12.4602 15.7076 12.3641 15.5428C12.268 15.378 12.0689 15.3025 11.808 15.3025C11.7256 15.3025 11.6363 15.3094 11.499 15.3437C11.3617 15.3711 11.245 15.4399 11.1352 15.5359L10.5447 18.0281C10.7232 18.0556 10.7781 18.0624 10.8262 18.0624C10.8606 18.0556 10.9155 18.0556 10.9841 18.0556Z"
          fill="#002855"/>
</svg>
