<svg width="32" height="22" viewBox="0 0 32 22" fill="none" xmlns="http://www.w3.org/2000/svg">
    <rect width="32" height="32" rx="2" fill="url(#paint0_linear_1_58)"/>
    <path d="M15.1944 6.46875H13.5061V15.9276H15.1944V6.46875Z" fill="white"/>
    <path d="M18.327 9.66016H16.6387V15.9254H18.327V9.66016Z" fill="white"/>
    <path d="M25.8941 15.9276L23.3571 12.6119L25.6907 9.66239H23.6972L21.4597 12.5241V6.46875H19.7713V15.9276H21.4597V12.7112L23.6972 15.9276H25.8941Z"
          fill="white"/>
    <path d="M9.2034 9.5916C8.67461 9.59078 8.15393 9.72165 7.68836 9.9724V6.46875H6V12.795C5.99984 13.4288 6.18765 14.0484 6.53967 14.5755C6.89169 15.1025 7.39211 15.5134 7.97764 15.756C8.56317 15.9986 9.2075 16.0621 9.82913 15.9385C10.4508 15.8149 11.0218 15.5097 11.4699 15.0615C11.9181 14.6134 12.2233 14.0424 12.3469 13.4207C12.4705 12.7991 12.407 12.1548 12.1644 11.5692C11.9218 10.9837 11.5109 10.4833 10.9839 10.1313C10.4568 9.77925 9.83721 9.59144 9.2034 9.5916ZM9.2034 14.3109C8.9036 14.3109 8.61052 14.222 8.36124 14.0554C8.11196 13.8888 7.91766 13.6521 7.80293 13.3751C7.6882 13.0981 7.65818 12.7933 7.71667 12.4993C7.77516 12.2052 7.91953 11.9351 8.13153 11.7231C8.34353 11.5111 8.61363 11.3668 8.90767 11.3083C9.20172 11.2498 9.50651 11.2798 9.7835 11.3945C10.0605 11.5093 10.2972 11.7036 10.4638 11.9528C10.6304 12.2021 10.7193 12.4952 10.7193 12.795C10.7193 13.197 10.5596 13.5826 10.2753 13.8669C9.991 14.1512 9.60544 14.3109 9.2034 14.3109Z"
          fill="white"/>
    <path d="M10.8521 9.01101C11.6836 9.01101 12.3576 8.33698 12.3576 7.50551C12.3576 6.67404 11.6836 6 10.8521 6C10.0206 6 9.34659 6.67404 9.34659 7.50551C9.34659 8.33698 10.0206 9.01101 10.8521 9.01101Z"
          fill="url(#paint1_radial_1_58)"/>
    <defs>
        <linearGradient id="paint0_linear_1_58" x1="16" y1="22" x2="16" y2="0" gradientUnits="userSpaceOnUse">
            <stop stop-color="#262626"/>
            <stop offset="1"/>
        </linearGradient>
        <radialGradient id="paint1_radial_1_58" cx="0" cy="0" r="1" gradientUnits="userSpaceOnUse"
                        gradientTransform="translate(9.62734 5.91862) scale(4.93562)">
            <stop stop-color="#FF0000"/>
            <stop offset="0.49" stop-color="#E83E49"/>
            <stop offset="1" stop-color="#FF00FF"/>
        </radialGradient>
    </defs>
</svg>
