<svg width="32" height="22" viewBox="0 0 96 64" fill="none" xmlns="http://www.w3.org/2000/svg">
    <rect width="96" height="64" rx="5.81" fill="#00112C"/>
    <g transform="translate(8.5 16.5)">
        <path d="M68.6332 14.0017H62.0858V2.32227H68.6332V14.0017Z" fill="#FF5F00"/>
        <path d="M62.5049 8.16152C62.5049 5.79227 63.6225 3.6818 65.3629 2.32177C64.0902 1.32725 62.484 0.733643 60.7383 0.733643C56.6057 0.733643 53.2557 4.05917 53.2557 8.16152C53.2557 12.2638 56.6057 15.5893 60.7383 15.5893C62.484 15.5893 64.0902 14.9957 65.3629 14.0012C63.6225 12.6412 62.5049 10.5307 62.5049 8.16152Z" fill="#EB001B"/>
        <path d="M77.4636 8.16152C77.4636 12.2638 74.1136 15.5893 69.981 15.5893C68.2353 15.5893 66.6291 14.9957 65.356 14.0012C67.0968 12.6412 68.2144 10.5307 68.2144 8.16152C68.2144 5.79227 67.0968 3.6818 65.356 2.32177C66.6291 1.32725 68.2353 0.733643 69.981 0.733643C74.1136 0.733643 77.4636 4.05917 77.4636 8.16152Z" fill="#F79E1B"/>
        <path d="M15.6154 14.3878L17.8512 1.26821H21.4273L19.1899 14.3878H15.6154ZM32.1094 1.55103C31.401 1.28523 30.2907 1 28.9044 1C25.3709 1 22.8818 2.77935 22.8607 5.32961C22.8406 7.21485 24.6376 8.26651 25.9939 8.89407C27.386 9.53712 27.8538 9.94721 27.8473 10.5215C27.8385 11.4008 26.7357 11.8026 25.7079 11.8026C24.2766 11.8026 23.5162 11.6038 22.3417 11.1139L21.8809 10.9055L21.379 13.8425C22.2143 14.2087 23.7589 14.5259 25.3625 14.5423C29.1216 14.5423 31.5617 12.7834 31.5896 10.06C31.603 8.56756 30.6503 7.43179 28.5871 6.4954C27.3372 5.88855 26.5717 5.48349 26.5798 4.86899C26.5798 4.32366 27.2278 3.74046 28.6277 3.74046C29.7971 3.72237 30.6443 3.97737 31.3043 4.2431L31.6247 4.39457L32.1094 1.55103ZM41.3118 1.26801H38.5485C37.6924 1.26801 37.0518 1.5017 36.6759 2.35599L31.365 14.3792H35.1202C35.1202 14.3792 35.7341 12.7625 35.8729 12.4076C36.2834 12.4076 39.9313 12.4132 40.4529 12.4132C40.5598 12.8725 40.8878 14.3792 40.8878 14.3792H44.2062L41.3118 1.26761V1.26801ZM36.9276 9.73985C37.2232 8.98394 38.3524 6.07238 38.3524 6.07238C38.3312 6.10737 38.6458 5.31279 38.8265 4.8202L39.0681 5.95141C39.0681 5.95141 39.7529 9.08313 39.896 9.73985H36.9276ZM12.5795 1.26801L9.07847 10.215L8.70538 8.39679C8.05362 6.30092 6.02294 4.03019 3.75281 2.89335L6.95404 14.367L10.7377 14.3627L16.3675 1.26787H12.5795" fill="white"/>
        <path d="M5.81202 1.26589H0.0456399L0 1.53886C4.48612 2.62483 7.45452 5.24922 8.687 8.40225L7.43308 2.37324C7.21661 1.54255 6.58884 1.29464 5.81216 1.26562" fill="#F2AE14"/>
        <path d="M27.504 28.6374C27.408 28.6374 27.33 28.6154 27.27 28.5714C27.214 28.5274 27.18 28.4694 27.168 28.3974C27.156 28.3214 27.17 28.2374 27.21 28.1454L28.794 24.6354C28.846 24.5194 28.908 24.4374 28.98 24.3894C29.056 24.3374 29.142 24.3114 29.238 24.3114C29.33 24.3114 29.412 24.3374 29.484 24.3894C29.56 24.4374 29.624 24.5194 29.676 24.6354L31.266 28.1454C31.31 28.2374 31.326 28.3214 31.314 28.3974C31.302 28.4734 31.268 28.5334 31.212 28.5774C31.156 28.6174 31.082 28.6374 30.99 28.6374C30.878 28.6374 30.79 28.6114 30.726 28.5594C30.666 28.5034 30.612 28.4194 30.564 28.3074L30.174 27.4014L30.498 27.6114H27.966L28.29 27.4014L27.906 28.3074C27.854 28.4234 27.8 28.5074 27.744 28.5594C27.688 28.6114 27.608 28.6374 27.504 28.6374ZM29.226 25.1934L28.386 27.1914L28.23 26.9994H30.234L30.084 27.1914L29.238 25.1934H29.226ZM32.5628 28.6374C32.4388 28.6374 32.3408 28.6034 32.2688 28.5354C32.2008 28.4634 32.1668 28.3614 32.1668 28.2294V24.7674C32.1668 24.6354 32.2008 24.5354 32.2688 24.4674C32.3408 24.3954 32.4428 24.3594 32.5748 24.3594H34.6688C34.7728 24.3594 34.8508 24.3854 34.9028 24.4374C34.9548 24.4894 34.9808 24.5634 34.9808 24.6594C34.9808 24.7594 34.9548 24.8374 34.9028 24.8934C34.8508 24.9454 34.7728 24.9714 34.6688 24.9714H32.9348V26.1654H34.5428C34.6428 26.1654 34.7188 26.1914 34.7708 26.2434C34.8268 26.2954 34.8548 26.3694 34.8548 26.4654C34.8548 26.5654 34.8268 26.6434 34.7708 26.6994C34.7188 26.7514 34.6428 26.7774 34.5428 26.7774H32.9348V28.2294C32.9348 28.5014 32.8108 28.6374 32.5628 28.6374ZM36.16 28.6374C36.036 28.6374 35.94 28.6034 35.872 28.5354C35.808 28.4634 35.776 28.3654 35.776 28.2414V24.7494C35.776 24.6214 35.81 24.5254 35.878 24.4614C35.946 24.3934 36.042 24.3594 36.166 24.3594H37.612C38.076 24.3594 38.434 24.4714 38.686 24.6954C38.938 24.9154 39.064 25.2254 39.064 25.6254C39.064 25.8854 39.006 26.1094 38.89 26.2974C38.778 26.4854 38.614 26.6294 38.398 26.7294C38.182 26.8294 37.92 26.8794 37.612 26.8794L37.666 26.7894H37.864C38.028 26.7894 38.17 26.8294 38.29 26.9094C38.414 26.9894 38.522 27.1154 38.614 27.2874L39.064 28.1214C39.112 28.2054 39.134 28.2874 39.13 28.3674C39.126 28.4474 39.096 28.5134 39.04 28.5654C38.984 28.6134 38.902 28.6374 38.794 28.6374C38.686 28.6374 38.598 28.6154 38.53 28.5714C38.462 28.5234 38.402 28.4514 38.35 28.3554L37.744 27.2394C37.672 27.1034 37.586 27.0134 37.486 26.9694C37.39 26.9214 37.266 26.8974 37.114 26.8974H36.544V28.2414C36.544 28.3654 36.512 28.4634 36.448 28.5354C36.384 28.6034 36.288 28.6374 36.16 28.6374ZM36.544 26.3274H37.48C37.756 26.3274 37.964 26.2714 38.104 26.1594C38.248 26.0434 38.32 25.8714 38.32 25.6434C38.32 25.4194 38.248 25.2514 38.104 25.1394C37.964 25.0234 37.756 24.9654 37.48 24.9654H36.544V26.3274ZM40.5133 28.6374C40.3893 28.6374 40.2933 28.6034 40.2253 28.5354C40.1613 28.4634 40.1293 28.3654 40.1293 28.2414V24.7074C40.1293 24.5794 40.1613 24.4814 40.2253 24.4134C40.2933 24.3454 40.3893 24.3114 40.5133 24.3114C40.6373 24.3114 40.7313 24.3454 40.7953 24.4134C40.8633 24.4814 40.8973 24.5794 40.8973 24.7074V28.2414C40.8973 28.3654 40.8653 28.4634 40.8013 28.5354C40.7373 28.6034 40.6413 28.6374 40.5133 28.6374ZM44.0306 28.6494C43.5906 28.6494 43.2126 28.5614 42.8966 28.3854C42.5846 28.2054 42.3446 27.9534 42.1766 27.6294C42.0086 27.3014 41.9246 26.9154 41.9246 26.4714C41.9246 26.1394 41.9726 25.8414 42.0686 25.5774C42.1646 25.3094 42.3026 25.0814 42.4826 24.8934C42.6626 24.7014 42.8826 24.5554 43.1426 24.4554C43.4066 24.3514 43.7026 24.2994 44.0306 24.2994C44.2506 24.2994 44.4666 24.3274 44.6786 24.3834C44.8906 24.4394 45.0766 24.5194 45.2366 24.6234C45.3206 24.6754 45.3766 24.7394 45.4046 24.8154C45.4326 24.8874 45.4386 24.9594 45.4226 25.0314C45.4066 25.0994 45.3726 25.1574 45.3206 25.2054C45.2726 25.2534 45.2106 25.2814 45.1346 25.2894C45.0626 25.2934 44.9826 25.2674 44.8946 25.2114C44.7706 25.1314 44.6366 25.0734 44.4926 25.0374C44.3486 25.0014 44.2026 24.9834 44.0546 24.9834C43.7706 24.9834 43.5306 25.0414 43.3346 25.1574C43.1386 25.2734 42.9906 25.4414 42.8906 25.6614C42.7906 25.8814 42.7406 26.1514 42.7406 26.4714C42.7406 26.7874 42.7906 27.0574 42.8906 27.2814C42.9906 27.5054 43.1386 27.6754 43.3346 27.7914C43.5306 27.9074 43.7706 27.9654 44.0546 27.9654C44.2066 27.9654 44.3566 27.9474 44.5046 27.9114C44.6526 27.8714 44.7926 27.8114 44.9246 27.7314C45.0126 27.6794 45.0906 27.6574 45.1586 27.6654C45.2306 27.6694 45.2906 27.6934 45.3386 27.7374C45.3866 27.7814 45.4186 27.8374 45.4346 27.9054C45.4506 27.9694 45.4466 28.0374 45.4226 28.1094C45.3986 28.1774 45.3506 28.2374 45.2786 28.2894C45.1186 28.4054 44.9266 28.4954 44.7026 28.5594C44.4826 28.6194 44.2586 28.6494 44.0306 28.6494ZM46.3349 28.6374C46.2389 28.6374 46.1609 28.6154 46.1009 28.5714C46.0449 28.5274 46.0109 28.4694 45.9989 28.3974C45.9869 28.3214 46.0009 28.2374 46.0409 28.1454L47.6249 24.6354C47.6769 24.5194 47.7389 24.4374 47.8109 24.3894C47.8869 24.3374 47.9729 24.3114 48.0689 24.3114C48.1609 24.3114 48.2429 24.3374 48.3149 24.3894C48.3909 24.4374 48.4549 24.5194 48.5069 24.6354L50.0969 28.1454C50.1409 28.2374 50.1569 28.3214 50.1449 28.3974C50.1329 28.4734 50.0989 28.5334 50.0429 28.5774C49.9869 28.6174 49.9129 28.6374 49.8209 28.6374C49.7089 28.6374 49.6209 28.6114 49.5569 28.5594C49.4969 28.5034 49.4429 28.4194 49.3949 28.3074L49.0049 27.4014L49.3289 27.6114H46.7969L47.1209 27.4014L46.7369 28.3074C46.6849 28.4234 46.6309 28.5074 46.5749 28.5594C46.5189 28.6114 46.4389 28.6374 46.3349 28.6374ZM48.0569 25.1934L47.2169 27.1914L47.0609 26.9994H49.0649L48.9149 27.1914L48.0689 25.1934H48.0569Z" fill="white"/>
    </g>
</svg>
