<svg width="32" height="22" viewBox="0 0 122 84" xmlns="http://www.w3.org/2000/svg">
    <rect width="122" height="84" rx="6.54" fill="white"/>
    <path d="M85.331 4.643l-7.345 15.152h-3.043l2.744-5.66-4.31-9.492H76.5l2.771 6.358 3.025-6.358h3.034zM57.382 10.023c0-1.74-1.313-3.08-2.925-3.08-1.612 0-2.925 1.296-2.925 3.08 0 1.766 1.313 3.079 2.925 3.079 1.612 0 2.925-1.34 2.925-3.08zm-8.522 9.772V4.643h2.645v1.395c.797-.987 1.983-1.594 3.396-1.594 2.907 0 5.19 2.39 5.19 5.551s-2.328 5.57-5.254 5.57c-1.358 0-2.472-.534-3.25-1.44v5.66H48.86v.01zM69.636 10.023c0-1.812-1.313-3.08-2.925-3.08-1.612 0-2.926 1.296-2.926 3.08 0 1.766 1.314 3.079 2.926 3.079s2.925-1.277 2.925-3.08zm.018 5.38v-1.396c-.797.97-1.983 1.567-3.396 1.567-2.953 0-5.19-2.363-5.19-5.551 0-3.161 2.328-5.57 5.253-5.57 1.377 0 2.536.607 3.333 1.549V4.643h2.645v10.76h-2.645zM44.087 5.694s.67-1.25 2.328-1.25c.706 0 1.16.244 1.16.244v2.744s-.997-.615-1.912-.489c-.914.127-1.494.96-1.494 2.083v6.376h-2.735V4.643h2.644v1.05h.01zM105.871 4.036l-3.133-1.793-3.18-1.82c-2.1-1.205-4.727.308-4.727 2.735v.407c0 .227.118.435.317.544l1.477.842a.612.612 0 00.914-.534v-.97c0-.48.516-.778.933-.543l2.898 1.667 2.889 1.657a.62.62 0 010 1.078l-2.889 1.657-2.898 1.666a.624.624 0 01-.933-.543v-.48c0-2.427-2.626-3.949-4.727-2.735l-3.18 1.82-3.133 1.793c-2.11 1.214-2.11 4.266 0 5.48l3.134 1.793 3.179 1.82c2.1 1.205 4.727-.308 4.727-2.735v-.407a.613.613 0 00-.317-.544l-1.476-.842a.612.612 0 00-.915.534v.97c0 .48-.516.778-.933.543L91 15.429l-2.889-1.657a.621.621 0 010-1.078l2.89-1.657 2.897-1.666a.624.624 0 01.933.543v.48c0 2.427 2.627 3.949 4.728 2.735l3.179-1.82 3.133-1.794c2.11-1.222 2.11-4.265 0-5.479zM11.03 11.39c-.579 2.473-2.707 4.175-5.46 4.175-3.18 0-5.57-2.39-5.57-5.551s2.427-5.57 5.615-5.57c2.69 0 4.791 1.702 5.398 4.13H8.214c-.498-.97-1.485-1.612-2.58-1.612-1.595 0-2.926 1.313-2.926 3.052s1.331 3.052 2.925 3.052a2.82 2.82 0 002.6-1.676h2.798zM12.29 15.393V.214h2.708v15.18H12.29zM19.073 10.73c.19 1.593 1.331 2.49 2.771 2.49 1.142 0 2.02-.535 2.536-1.395h2.772c-.643 2.282-2.69 3.74-5.38 3.74-3.251 0-5.524-2.282-5.524-5.524s2.409-5.588 5.587-5.588c3.206 0 5.525 2.364 5.525 5.588 0 .235-.018.47-.063.688h-8.224zm5.398-1.685c-.19-1.395-1.331-2.237-2.663-2.237-1.331 0-2.427.815-2.708 2.237h5.37zM37.032 15.393v-1.395c-.797.97-1.974 1.567-3.396 1.567-2.943 0-5.18-2.364-5.18-5.551 0-3.161 2.318-5.57 5.244-5.57 1.376 0 2.535.598 3.332 1.548V4.634h2.645v10.75h-2.645v.01zm-.027-5.38c0-1.802-1.313-3.079-2.925-3.079-1.612 0-2.925 1.286-2.925 3.08 0 1.766 1.313 3.079 2.925 3.079 1.612 0 2.925-1.268 2.925-3.08z"
          fill="#000000" transform="translate(7 32)"></path>
</svg>
