<svg width="33" height="22" xmlns="http://www.w3.org/2000/svg" version="1.0" viewBox="0 0 615 390" xml:space="preserve">
    <rect width="615" height="390" rx="40.909" fill="#e2261d"/>
    <path transform="translate(7.5, -30)" d="M207.9 98h-28.2c-4.9 0-6 1.1-6.1 5.8V119c0 4.4 1.2 5.5 5.4 5.6l35.4.5c6.5.1 12.9 0 19.3.1 8.4.1 15.9 3 22.6 8.1 15.4 11.9 16.7 35.4 3.7 49.2-7.1 7.7-17.1 12.1-27.6 11.9-17.6.1-35.1 0-52.7-.1-5 0-6.1 1.2-6.1 6.2v15.2c.1 4.6 1.5 6 6.1 6 16 0 31.9.1 47.8 0 4.3 0 8.6-.3 12.8-.8 15.4-1.5 29.6-9.1 39.3-21.3 15.2-17.9 18.7-42.9 9.1-64.3-10.1-24.6-30.1-36.5-56.4-37.5-8-.1-16.2.1-24.4.2m156.5-.1c35.2 0 63.8 27.7 63.8 62s-28.6 62-63.9 62-63.8-27.7-63.8-61.9 28.6-62.1 63.9-62.1m0 99.2c19.7 0 35.8-16.7 35.8-37.2s-16-37.2-35.9-37.2c-19.7 0-35.9 16.7-35.9 37.2.1 20.6 16.2 37.2 36 37.2m-161 83.2c-1.2-1.5-.8-3.1-.8-4.6v-42.2c-.3-2.8-1.3-3.8-3.8-4.4-.9-.2-1.9-.4-2.8-.4h-16.5c-4.4.1-5.8 1.5-5.8 5.8v112.3c0 4.3 1.2 5.5 5.4 5.6h15.7c6.8 0 7.8-.8 7.8-7.9v-25c0-2.8.6-5.3 2.7-7.3 2.9-3 5.8-6 8.9-8.8 2.3-2.2 4-2 6.1.5 2 2.4 3.8 4.9 5.7 7.3l28.3 37.1c2 2.5 4.5 4.1 7.8 4.1l24.2-.1c1.3 0 2.8.1 3.6-2-.6-1-1.3-2.5-2.3-3.7l-34-43.6-13.7-17.9c-2.3-3-2.2-4.6.4-7.4.4-.4.7-.8 1.1-1.2l24.6-24.4 18.8-18.7c1-1.1 2.8-1.9 2-4.1-.6-.1-1.2-.4-1.8-.5-8-.1-15.8-.3-23.8-.3-4.6 0-8.3 1.8-11.6 5.2-14 14.7-28.2 29-42.5 43.5-1 1.3-1.8 2.8-3.7 3.1m97.3-16.4v11.7c.2 8.1-.5 16 .8 24 4.9 31.9 33.5 54.8 65.8 52.6 33.9-.9 60.8-28.9 60.6-62.8.2-18 0-35.9 0-53.9v-2.4c-.3-2.7-1.4-4.1-4.1-4.1-6.5-.1-12.8-.1-19.3 0-2.7.1-3.8 1.5-3.9 4.1v4.1c-.2 18.1-.3 36.2-.6 54.4-.1 7.8-2.8 15.4-7.5 21.6-11.5 15.4-33.3 18.6-48.8 7.1-9.9-7.4-15.5-19.1-15.2-31.4-.1-18 .1-35.9.3-53.9 0-5-1.2-6.1-6.2-6.2h-16c-4.8.1-5.8 1.2-5.8 6.1v29z"
          fill="#fff"/>
</svg>
