<svg width="32" height="22" viewBox="6 6 32 22" fill="none" xmlns="http://www.w3.org/2000/svg">
    <rect x="6" y="6" width="32" height="22" rx="2" fill="white"/>
    <path d="M31.0724 17.2783H28.9305C28.6922 17.2783 28.4984 17.0886 28.4984 16.851C28.4984 16.6135 28.6923 16.4044 28.9305 16.4044H32.1913V14.7964H28.9305C27.7924 14.7964 26.8664 15.724 26.8664 16.8588C26.8664 17.9937 27.7924 18.9212 28.9305 18.9212H31.0433C31.2815 18.9212 31.4753 19.1102 31.4753 19.3477C31.4753 19.5852 31.2815 19.7602 31.0433 19.7602H26.5127C26.128 20.4942 25.754 21.1234 24.9948 21.438H31.0724C32.1913 21.4219 33.1067 20.4753 33.1067 19.3504C33.1067 18.2257 32.1913 17.2944 31.0724 17.2783Z"
          fill="#71706F"/>
    <path d="M22.8657 14.7964C21.0508 14.7964 19.5726 16.2829 19.5726 18.1095V18.1794V25.0011H21.2157V21.4365H22.8623C24.6772 21.4365 26.1502 19.9302 26.1502 18.1037C26.1502 16.2771 24.6807 14.7964 22.8657 14.7964ZM22.8657 19.759H21.2157V18.1037C21.2157 17.1787 21.9524 16.4261 22.8657 16.4261C23.779 16.4261 24.522 17.1787 24.522 18.1037C24.522 19.0287 23.779 19.759 22.8657 19.759Z"
          fill="#71706F"/>
    <path d="M14.3781 21.432C12.8241 21.432 11.5177 20.3251 11.1641 18.879C11.1641 18.879 11.062 18.4008 11.062 18.086C11.062 17.7711 11.1587 17.2881 11.1587 17.2881C11.5148 15.8455 12.8196 14.7713 14.3711 14.7713C16.1958 14.7713 17.693 16.2541 17.693 18.0781V18.8803H12.8452C13.1315 19.4395 13.7105 19.7541 14.3781 19.7541H18.7361L18.7421 15.024C18.7421 14.3187 18.1649 13.7418 17.4594 13.7418H11.2827C10.5772 13.7418 10 14.3013 10 15.0065V21.181C10 21.8862 10.5772 22.4807 11.2827 22.4807H17.4594C18.0926 22.4807 18.6207 22.0263 18.7227 21.432H14.3781Z"
          fill="#C8036F"/>
    <path d="M14.3693 16.3275C13.7042 16.3275 13.1258 16.7345 12.8383 17.2588H15.9003C15.6129 16.7345 15.0345 16.3275 14.3693 16.3275Z"
          fill="#C8036F"/>
    <path d="M17.1686 11.7286C17.1686 10.2216 15.9158 9 14.3704 9C12.8505 9 11.6145 10.1817 11.5739 11.6541C11.5732 11.6603 11.5737 11.6664 11.5737 11.6728V12.4928C11.5737 12.5909 11.6536 12.6878 11.7542 12.6878H12.7837C12.8843 12.6878 12.9724 12.5909 12.9724 12.4928V11.7286C12.9724 10.9761 13.5994 10.3638 14.3712 10.3638C15.1429 10.3638 15.7699 10.9761 15.7699 11.7286V12.4928C15.7699 12.5909 15.8515 12.6878 15.9521 12.6878H16.9816C17.0822 12.6878 17.1686 12.5909 17.1686 12.4928V11.7286Z"
          fill="#C8036F"/>
</svg>
