<svg width="32" height="22" viewBox="6 6 32 22" fill="none" xmlns="http://www.w3.org/2000/svg">
<g filter="url(#filter0_d_1_68)">
<rect x="6" y="6" width="32" height="22" rx="2" fill="white"/>
</g>
<path d="M17.1817 13.8846C17.1817 13.9908 17.1817 14.1821 17.2029 14.2459C17.2667 14.2884 17.6705 14.4797 17.798 14.5222C17.8193 14.4797 17.9043 14.3521 17.9468 14.2459C18.1593 13.8633 18.1806 13.8208 18.2231 13.7996C18.2443 13.7996 18.2656 13.7783 18.2868 13.7783C18.3293 13.7783 18.4143 13.7996 18.4781 13.7996C18.5206 13.7996 18.5418 13.8208 18.5631 13.8208C18.6056 13.7783 18.7119 13.6296 18.7544 13.5658C18.7119 13.5446 18.6481 13.4808 18.6056 13.4383C18.4993 13.3533 18.4568 13.332 18.4568 13.3108C18.4568 13.3108 18.4356 13.2683 18.4356 13.247C18.4143 13.1833 18.3506 13.0345 18.3081 12.992C18.2443 13.0345 18.0955 13.1833 18.0743 13.247C18.0743 13.247 18.0743 13.3108 18.0743 13.332C18.0743 13.417 18.0743 13.4808 18.0318 13.502C18.0105 13.5233 17.9893 13.5233 17.6705 13.5446C17.5005 13.5658 17.2242 13.5658 17.1392 13.5871C17.1392 13.6296 17.1604 13.6721 17.1817 13.6933C17.1817 13.7146 17.1817 13.7358 17.1817 13.8846Z" fill="#4E55A1"/>
<path d="M17.5218 11.4413C17.2243 11.4413 17.0968 11.4626 17.0755 11.4626C17.0543 11.4838 17.0543 11.6538 17.0755 11.6963C17.118 11.6963 17.3731 11.7176 17.6494 11.7176C17.9044 11.7176 18.0106 11.7176 18.0532 11.6963C18.0744 11.6538 18.0744 11.5051 18.0532 11.4413C17.9894 11.4413 17.7769 11.4413 17.5218 11.4413Z" fill="#4E55A1"/>
<path d="M19.9871 14.9094C20.0084 14.8881 20.0296 14.8456 20.0509 14.8243C19.9021 14.8668 19.7321 14.9519 19.5621 15.1006L19.4558 15.1856V15.0581C19.4346 14.6543 19.5833 14.4631 19.7959 14.3568C19.5196 14.1655 19.1795 13.9743 18.9245 13.8255C18.882 13.8042 18.8395 13.783 18.797 13.7617C18.7332 13.8467 18.627 13.953 18.6057 13.953H18.5845C18.5632 13.953 18.5207 13.953 18.457 13.9318C18.3932 13.9318 18.3294 13.9105 18.2869 13.9105C18.2444 13.9743 18.1382 14.1655 18.0532 14.293C18.0107 14.378 17.9894 14.4206 17.9469 14.4631C18.4145 14.8456 18.967 15.2919 19.222 15.4832C19.6896 15.2706 19.8596 15.0581 19.9871 14.9094Z" fill="#4E55A1"/>
<path d="M18.4784 10.0429C18.4359 10.0854 18.3721 10.1917 18.3721 10.2979C18.3721 10.4042 18.3934 10.4892 18.4571 10.5742L18.4784 10.5954V10.6167C18.4784 10.6805 18.4784 10.7867 18.4784 10.9142C18.4784 11.063 18.4784 11.2118 18.4784 11.2968V11.318L18.4571 11.3393C18.4359 11.3605 18.4146 11.4243 18.4146 11.488H18.7759C18.7759 11.4243 18.7547 11.403 18.7334 11.3605L18.7122 11.318V11.2968C18.7122 11.2543 18.7122 11.1693 18.7122 11.0842C18.7122 10.8292 18.7122 10.6592 18.7122 10.6167C18.7122 10.5742 18.7334 10.5529 18.7547 10.5317C18.7972 10.4892 18.8184 10.4467 18.8184 10.3192C18.8184 10.1492 18.7334 10.0854 18.7334 10.0854L18.7122 10.0641V10.0216V9.08654L18.7547 9.06529C18.7547 9.06529 18.7759 9.02279 18.7759 8.98028H18.4146C18.4146 9.02279 18.4359 9.06529 18.4571 9.06529L18.4996 9.08654V9.12905V10.0429H18.4784Z" fill="#4E55A1"/>
<path d="M19.562 11.9281C19.4557 12.0132 19.3919 12.1194 19.3919 12.2469C19.3919 12.4807 19.6257 12.7357 20.072 12.7357C20.1995 12.7357 20.327 12.7145 20.4333 12.6932C20.5608 12.672 20.6883 12.6507 20.8584 12.6507C21.1771 12.6507 21.5384 12.7357 22.006 12.927C22.006 12.8845 22.006 12.842 22.0272 12.8207C21.751 12.587 21.1346 12.4595 20.157 12.4595H20.0933C19.9232 12.4595 19.8595 12.3957 19.8382 12.3319C19.7532 12.1832 19.8807 11.9281 19.9658 11.8006C19.7957 11.8006 19.6682 11.8431 19.562 11.9281Z" fill="#4E55A1"/>
<path d="M19.477 10.657L19.5195 10.6358C19.5408 10.6358 19.9021 10.6145 20.4759 10.5933C20.5396 10.4658 20.5821 10.3595 20.6034 10.3383C20.6034 10.3383 20.6034 10.317 20.5821 10.317C20.5609 10.2957 20.5396 10.2532 20.5609 10.1895C20.5609 10.1682 20.6034 10.0832 20.6671 9.99822C20.0296 9.99822 19.6045 9.99822 19.562 9.99822C19.4558 9.99822 19.3282 9.93446 19.2007 9.89196C19.0945 9.84945 18.9882 9.8282 18.9457 9.8282C18.9032 9.87071 18.8819 9.91321 18.8607 9.97697V9.99822C18.9032 10.0407 18.9882 10.1257 18.9882 10.317C18.9882 10.487 18.9244 10.572 18.8819 10.6145L18.8607 10.6358C18.9032 10.7208 18.9457 10.7845 18.9669 10.8058C19.0095 10.8058 19.137 10.7633 19.477 10.657Z" fill="#4E55A1"/>
<path d="M23.6637 10.5295C25.4701 10.487 27.1916 10.4445 27.2341 10.4445C27.2978 10.4445 27.6166 10.2957 27.7654 10.232C27.6166 10.147 27.2978 10.0195 27.2341 10.0195C27.1703 10.0195 25.7677 10.0195 24.1525 10.0195C23.9825 10.1682 23.8124 10.3595 23.6637 10.5295Z" fill="#4E55A1"/>
<path d="M17.9467 10.5475V9.80369C17.9467 9.76119 17.9255 9.71869 17.8617 9.71869C17.8405 9.71869 17.798 9.76119 17.7767 9.80369V9.82495V10.5475C17.7767 10.5475 17.7767 10.5688 17.7555 10.59V10.675C17.883 10.6538 17.9255 10.5688 17.9467 10.5475Z" fill="#4E55A1"/>
<path d="M18.1805 12.9314C18.1168 12.6126 18.0105 12.1875 17.968 11.8475C17.9043 11.8475 17.798 11.8475 17.6492 11.8475C17.5642 11.8475 17.4155 11.8475 17.2667 11.8475V13.4414C17.3517 13.4414 17.4792 13.4202 17.6705 13.4202C17.7768 13.4202 17.883 13.3989 17.9468 13.3989C17.9468 13.3777 17.9468 13.3564 17.9468 13.3352C17.9468 13.2714 17.9468 13.2077 17.968 13.1651C17.968 13.1651 18.0743 13.0376 18.1805 12.9314Z" fill="#4E55A1"/>
<path d="M26.8728 10.8666C26.5115 10.8879 25.9802 11.0791 25.6189 11.4617C25.3426 11.7592 25.2151 12.1205 25.2363 12.5455C25.3001 13.5656 26.3202 14.0332 26.4902 14.1182C26.554 14.0969 26.6815 14.0332 26.7665 13.9694C25.8314 13.4806 25.5764 12.9493 25.5339 12.588C25.4914 12.2055 25.6401 11.823 25.9589 11.5467L26.0014 11.5254L26.0439 11.5467C26.1289 11.5679 26.1927 11.6104 26.1715 11.7167C26.4265 11.6317 26.2777 11.3129 26.2777 11.3129L26.4477 11.3767C26.5965 11.4404 26.7028 11.5042 26.724 11.6104C26.894 11.5892 26.8728 11.3767 26.7453 11.2492C26.8303 11.2492 26.9153 11.2704 26.9153 11.2704C27.1066 11.3129 27.2341 11.4404 27.2553 11.5892C27.4466 11.6317 27.3616 11.2492 27.3616 11.2492L27.5741 11.3767C28.0204 11.6529 28.2329 12.0355 28.2117 12.418C28.1904 13.0131 27.6379 13.6507 26.7878 14.0969L26.7028 14.1395C25.8952 14.5432 25.5976 14.7133 25.5764 15.2021C25.5764 15.2658 25.5976 15.3083 25.6189 15.3721C25.6826 15.4996 25.7677 15.6696 25.6826 16.0734C25.7252 16.0947 25.7677 16.0734 25.7677 16.0734C25.8102 16.0309 25.7889 15.8609 25.7889 15.7121C25.7677 15.5846 25.7677 15.4783 25.7889 15.3721L25.8102 15.2233L25.8952 15.3296C26.0652 15.5421 26.1289 15.7759 26.0652 16.0734C26.2777 15.9884 26.2565 15.7334 26.214 15.4571C26.1927 15.3721 26.1927 15.2871 26.1927 15.2446L26.214 15.0533L26.3202 15.2021C26.5327 15.5421 26.5115 15.7121 26.4477 15.9459C26.4477 15.9884 26.4265 16.0522 26.4052 16.0947C26.5965 16.0096 26.5965 15.7334 26.5965 15.4571C26.5965 15.3296 26.5965 15.2658 26.6178 15.2446C26.639 15.2021 26.6815 15.1808 26.724 15.1383C26.6815 15.0745 26.6603 14.9683 26.6815 14.862C26.7453 14.692 26.8515 14.522 27.0003 14.3732L27.3403 14.0544C27.4041 14.0119 27.4679 13.9482 27.5104 13.9057C27.9992 13.5019 28.488 13.0768 28.488 12.3968C28.488 11.4829 27.5104 10.8241 26.8728 10.8241V10.8666Z" fill="#4E55A1"/>
<path d="M21.6874 9.93395L22.3462 10.274C22.5588 10.189 22.835 10.0827 22.9626 10.2315C23.0263 10.3165 23.0476 10.4227 22.9626 10.5928L23.2813 10.7628C23.3239 10.7203 23.3664 10.6565 23.4301 10.5928C23.7914 10.189 24.1952 9.76393 24.429 9.59391C24.3227 9.53016 24.0889 9.4664 23.9827 9.55141L23.9402 9.57266L23.8977 9.55141C23.8552 9.50891 23.7702 9.48765 23.6851 9.48765C23.5576 9.48765 23.4726 9.53016 23.4301 9.55141C23.5151 9.65767 23.6001 9.76393 23.5789 9.87019C23.5576 9.93395 23.4939 9.99771 23.3876 10.019C23.3664 10.019 23.3451 10.019 23.3239 10.019C23.2813 10.019 23.2601 9.99771 23.2388 9.97645C23.1963 9.93395 23.2176 9.89144 23.2176 9.84894C23.2176 9.78518 23.2176 9.74268 23.1751 9.70017C23.1326 9.65767 23.0688 9.67892 23.0051 9.72143C22.9626 9.74268 22.9201 9.76393 22.8776 9.76393C22.835 9.76393 22.7713 9.74268 22.75 9.65767C22.7288 9.59391 22.7288 9.53016 22.7713 9.48765C22.835 9.40264 22.9626 9.36014 23.0476 9.36014C23.0901 9.36014 23.1326 9.36014 23.1751 9.38139C23.1751 9.36014 23.1963 9.33889 23.1751 9.29638C23.1751 9.21137 23.1326 9.12637 23.0901 9.08386L23.0476 9.06261L23.0688 9.0201C23.0901 8.9776 23.0901 8.76508 23.0263 8.68007C23.0051 8.65882 22.9838 8.63757 22.9413 8.63757C22.8988 8.63757 22.7925 8.65882 22.6438 8.76508L22.6013 8.78633L22.5588 8.74383C22.5588 8.74383 22.5375 8.74383 22.5163 8.74383C22.495 8.74383 22.3037 8.74383 22.24 8.9351C22.3462 8.99885 22.4525 9.10511 22.4525 9.23263C22.4525 9.27513 22.4313 9.38139 22.2825 9.4239C22.1125 9.4664 22.07 9.33889 22.0487 9.27513C22.0275 9.21137 22.0275 9.19012 21.985 9.16887C21.9424 9.14762 21.9424 9.14762 21.8999 9.19012C21.8787 9.21137 21.8362 9.23263 21.7937 9.23263C21.7299 9.23263 21.6874 9.19012 21.6449 9.14762C21.5812 9.06261 21.5812 8.9776 21.6024 8.95635C21.6449 8.87134 21.7512 8.82884 21.8362 8.82884C21.8574 8.82884 21.8999 8.82884 21.9212 8.85009C21.9424 8.82884 21.9424 8.76508 21.9424 8.72257C21.9424 8.65882 21.8999 8.57381 21.7512 8.5313L21.7087 8.51005V8.42504C21.7087 8.29753 21.7299 8.10626 21.4749 8C21.4749 8.27628 21.3686 8.68007 21.2624 9.04136C21.1986 9.29638 21.1136 9.59391 21.1349 9.67892L21.6874 9.93395Z" fill="#4E55A1"/>
<path d="M21.304 10.6146C21.2828 10.5935 21.2616 10.5723 21.2404 10.5511C21.1981 10.5088 21.1769 10.4876 21.1346 10.4452C21.1134 10.5088 21.1134 10.6146 21.1134 10.657C21.1769 10.6358 21.2404 10.6358 21.304 10.6146Z" fill="#4E55A1"/>
<path d="M18.8607 24.3433C18.7119 24.1096 18.8819 23.727 19.0307 23.4083C19.0732 23.3232 19.1157 23.2382 19.1369 23.1745C19.2007 23.0257 19.2007 22.8982 19.1582 22.8344C19.1157 22.7707 19.0094 22.7494 18.9457 22.7494C18.8607 22.7494 18.7969 22.8557 18.7969 22.9407C18.7969 23.0257 18.8394 23.132 18.9457 23.1532H19.0307L19.0094 23.2382C18.7969 23.8545 18.5631 24.0246 18.4356 24.0671C18.5419 24.2796 18.3719 24.7259 18.1806 25.1509C18.1593 25.1934 18.1381 25.2359 18.1381 25.2572C18.1381 25.2784 18.1381 25.2784 18.1168 25.2997C18.0956 25.3847 18.0318 25.5122 18.0743 25.6185C18.0956 25.661 18.1381 25.6822 18.2018 25.7035C18.2869 25.7247 18.3294 25.7035 18.3931 25.6397C18.4144 25.5972 18.4356 25.5335 18.4356 25.491C18.4356 25.4485 18.4356 25.3422 18.3294 25.3422H18.2443L18.2656 25.2572C18.4144 24.5771 18.6694 24.4071 18.8607 24.3433Z" fill="#4E55A1"/>
<path d="M25.4914 24.3433C25.4701 24.3433 25.4701 24.3646 25.4488 24.3646C25.4276 24.4283 25.4063 24.4921 25.3851 24.5771C25.3638 24.6409 25.3851 24.7046 25.4063 24.7259L25.3213 24.8321C25.2576 24.7684 25.1726 24.6621 25.1301 24.5346C24.3862 24.8321 23.5999 24.9809 22.771 24.9809C20.9433 24.9809 19.4344 24.2583 18.9456 24.0033C18.9244 24.1308 18.9244 24.2583 19.0094 24.3433L19.0944 24.4283L18.9669 24.4708C18.8606 24.4921 18.7543 24.5346 18.6268 24.7046C19.7957 25.5335 21.3684 26.001 22.9198 26.001C24.3012 26.001 25.5339 25.6397 26.3202 25.0234C25.9377 24.8109 25.7251 24.6196 25.4914 24.3433Z" fill="#4E55A1"/>
<path d="M24.0462 17.9449C24.025 17.9662 24.0037 17.9874 23.9825 18.0299C24.1737 18.0724 24.3225 18.2 24.45 18.3487C24.4075 18.2637 24.28 18.1149 24.0462 17.9449Z" fill="#4E55A1"/>
<path d="M28.2341 15.6317C28.3403 15.5042 28.4253 15.4404 28.5104 15.4404C28.5954 15.4404 28.6591 15.5042 28.7016 15.5467L28.7229 15.568C28.7442 15.5042 28.7442 15.4192 28.7016 15.2917C28.7016 15.2492 28.6166 15.2279 28.5104 15.2279C28.4041 15.2279 28.2978 15.2492 28.2128 15.2917L28.1278 15.3129L28.1065 15.2279C28.0853 15.1429 27.7027 14.6966 27.3414 14.2927C27.2776 14.3565 27.2139 14.4203 27.1501 14.484C27.7665 15.0154 28.0003 15.6742 27.8302 16.2268C27.6389 16.7794 27.1076 17.1408 26.3637 17.1833C26.3424 17.1833 26.3212 17.1833 26.2787 17.1833C25.3647 17.1833 24.4296 16.1418 23.6857 15.3129C23.5794 15.1854 23.4519 15.0579 23.3456 14.9516C23.2181 14.9516 23.0905 14.8666 22.9418 14.6966C22.9418 14.7178 22.9418 14.7603 22.963 14.7816C22.9843 14.9729 23.0055 15.1429 23.1968 15.2704L23.3243 15.3554L23.1756 15.3767C23.0905 15.3979 23.0268 15.3979 22.963 15.3979C22.5167 15.3979 22.4317 15.0366 22.3892 14.7816C22.3892 14.8028 22.3679 14.8241 22.3679 14.8453C22.3041 15.0366 22.2616 15.1854 22.4954 15.3554L22.623 15.4617L22.3892 15.483C22.3254 15.483 22.2616 15.5042 22.1766 15.5042C21.9853 15.5042 21.8578 15.4617 21.7728 15.3342C21.6878 15.2279 21.6665 15.0791 21.6665 14.8878C21.6028 15.0579 21.5815 15.1854 21.7303 15.3979L21.8153 15.5042L21.6878 15.483C21.454 15.4617 21.3052 15.3979 21.2202 15.2704C21.1139 15.1004 21.1777 14.8878 21.2202 14.6966C21.2202 14.654 21.2414 14.6328 21.2414 14.6115C21.1989 14.654 21.1777 14.6966 21.1352 14.7391C21.0076 14.8878 20.8801 15.0154 21.0289 15.2492L21.1352 15.4192L20.9651 15.3554C20.7101 15.2704 20.5826 15.1641 20.54 15.0366C20.4975 14.8878 20.5613 14.7603 20.6463 14.6328C20.6463 14.6115 20.6676 14.5903 20.6676 14.569C20.5826 14.6115 20.5188 14.654 20.4338 14.6753C20.4125 14.6966 20.3913 14.6966 20.3913 14.7178L20.37 14.7391H20.3488C20.2212 14.7603 20.1575 14.8241 20.0725 14.9516C19.8387 15.2279 19.4561 15.6955 17.6282 16.2056C17.5857 16.2056 17.5432 16.2056 17.5007 16.2056C16.9481 16.2056 16.6293 15.6955 16.4805 15.4404C16.4592 15.3979 16.438 15.3767 16.4167 15.3554C16.4167 15.3554 16.4167 15.3554 16.3955 15.3767C16.3742 15.3979 16.353 15.4404 16.2892 15.4404C16.268 15.4404 16.2467 15.4404 16.2254 15.4192C16.1617 15.3767 16.0767 15.3554 15.9704 15.3554C15.7791 15.3554 15.6091 15.4617 15.5241 15.5467C15.6516 15.5467 15.9491 15.5892 16.0129 15.6955L16.0342 15.7167L16.0129 15.738C15.9917 15.7805 15.9491 15.8018 15.9279 15.8018C15.9279 15.8018 15.9279 15.823 15.9066 15.8655C15.9066 15.9718 16.1617 16.0781 16.4167 16.1843C16.5018 16.2268 16.5655 16.2481 16.6505 16.2906L16.6293 16.4181C16.0554 16.3756 15.8641 16.2481 15.7579 16.1631C15.6941 16.1206 15.6728 16.0993 15.6303 16.0993C15.5878 16.0993 15.5666 16.0993 15.5666 16.0993C15.5666 16.1631 15.5453 16.2268 15.4178 16.2481C15.1627 16.2906 15.0565 16.4606 15.0352 16.5457C14.9927 16.6307 14.9927 16.7157 15.014 16.7794C15.1202 16.6732 15.2903 16.5457 15.3753 16.5457C15.3965 16.5457 15.4178 16.5457 15.439 16.5669C15.4816 16.5882 15.4816 16.6307 15.4816 16.6732C15.4816 16.7157 15.5028 16.7794 15.5878 16.822C15.6091 16.8432 15.6728 16.8645 15.8641 16.8645C15.9917 16.8645 16.1404 16.8645 16.268 16.8432C16.4167 16.8432 16.523 16.822 16.5868 16.8432L16.8206 16.8857L16.608 16.9707C16.5868 16.992 16.523 16.992 16.4167 17.0345C16.2467 17.077 15.9491 17.162 15.8854 17.2258C15.9279 17.2895 15.9279 17.3533 15.8641 17.4171C15.7153 17.5446 15.6516 17.6934 15.6941 17.8421C15.7153 17.9484 15.8004 18.0334 15.8429 18.0972C15.8641 17.9484 15.9279 17.7571 15.9917 17.6721C16.0342 17.6296 16.0554 17.6084 16.0979 17.6084H16.1192C16.1829 17.6296 16.2254 17.6509 16.268 17.6721C16.3105 17.6934 16.353 17.7146 16.3955 17.7146C16.3955 17.7146 16.3955 17.7146 16.3955 17.6934C16.4167 17.5658 16.523 17.4171 17.1606 17.247L17.2244 17.2258L17.2456 17.2895C17.2882 17.3958 17.3307 17.5021 17.4157 17.5658L17.4582 17.5871L17.4369 17.6296C17.4157 17.6934 17.3732 17.7359 17.3519 17.7784C17.3519 17.7784 17.3519 17.7996 17.3307 17.7996C17.4582 17.7996 17.4794 17.7359 17.522 17.6721C17.5432 17.6296 17.5645 17.5871 17.607 17.5871C17.6495 17.5658 17.692 17.5658 17.7345 17.5658C17.7558 17.5658 17.777 17.5658 17.777 17.5658V17.5446C17.7557 17.4808 17.7132 17.3321 17.862 17.2258C18.0533 17.077 18.3084 17.0557 18.4784 17.0557C18.5209 17.0557 18.5422 16.9707 18.5634 16.907C18.5847 16.8007 18.6272 16.6944 18.7122 16.6094L18.7759 16.5669L18.8185 16.6307C18.8822 16.7369 18.861 16.8645 18.8185 16.9707C18.7972 17.0557 18.776 17.1408 18.7972 17.2045C18.8185 17.247 18.8397 17.247 18.861 17.247C18.9035 17.247 18.9672 17.2258 19.031 17.162C18.9247 16.9282 19.0735 16.7582 19.201 16.5882C19.2648 16.5244 19.3286 16.4394 19.3711 16.3544L19.4348 16.2481L19.4986 16.3544C19.5624 16.4606 19.4986 16.5882 19.4136 16.7369C19.3286 16.8857 19.286 17.0132 19.3498 17.0557C19.4136 17.0983 19.5198 17.077 19.5836 17.0132C19.4986 16.822 19.6049 16.6732 19.7111 16.5457C19.7961 16.4394 19.8812 16.3119 19.9024 16.1631L19.9237 15.9718L20.0087 16.1418C20.0937 16.2906 20.0087 16.4394 19.9449 16.5882C19.9024 16.6944 19.8387 16.7794 19.8599 16.8432C19.8812 16.8857 19.9237 16.9282 20.0299 16.9495C20.0299 16.9495 20.0512 16.9495 20.0725 16.9495C20.115 16.9495 20.1362 16.9282 20.1787 16.8857C20.0725 16.6732 20.1787 16.5244 20.285 16.3756C20.37 16.2694 20.4338 16.1631 20.4763 16.0143L20.5188 15.8018L20.6038 16.0143C20.6676 16.1843 20.6038 16.3119 20.54 16.4394C20.455 16.6094 20.3913 16.7157 20.6251 16.8645H20.6463C20.7101 16.8645 20.7738 16.8432 20.7951 16.822C20.7951 16.8007 20.7738 16.7369 20.7738 16.6944C20.7526 16.6307 20.7526 16.5669 20.7313 16.5031C20.7101 16.4181 20.7951 16.3119 20.8589 16.2056C20.9226 16.0993 21.0076 15.9931 21.0289 15.8868L21.0927 15.653L21.1564 15.8655C21.1777 15.9505 21.1352 16.0781 21.0714 16.2268C21.0289 16.3119 21.0076 16.4181 21.0076 16.4819C21.0076 16.6094 21.0714 16.7157 21.1564 16.7369H21.1777C21.2202 16.7369 21.2627 16.7157 21.3052 16.6732C21.3052 16.6519 21.3052 16.5669 21.2839 16.5031C21.2839 16.4181 21.2627 16.3544 21.2627 16.2906C21.2627 16.1206 21.3264 16.0781 21.369 16.0143C21.4115 15.9718 21.4327 15.9505 21.454 15.8655L21.4965 15.738L21.5815 15.8443C21.624 15.908 21.6028 15.9505 21.5815 16.0143C21.5602 16.0781 21.539 16.1631 21.539 16.3119C21.5602 16.5244 21.5602 16.5669 21.5815 16.6307C21.6453 16.6944 21.7515 16.7582 22.6655 17.0345C24.2383 17.5021 24.5996 18.0759 24.6846 18.2247C24.7484 18.3522 24.7696 18.501 24.8334 18.6923C24.8546 18.7773 24.8759 18.8836 24.9184 19.0111C24.9397 19.0961 24.9822 19.2024 25.0247 19.3087C25.1309 19.6487 25.2585 19.9888 25.1522 20.2013C25.0247 20.4351 24.8546 20.4564 24.7271 20.4776C24.7909 20.5627 24.8546 20.6052 24.9184 20.6052C24.9609 20.6052 25.0247 20.5839 25.0459 20.5414L25.1947 20.3501L25.1522 20.5839C25.1309 20.6902 25.1522 20.7752 25.1947 20.839C25.2585 20.924 25.3647 20.924 25.4072 20.924H25.4285C25.4073 20.9027 25.386 20.8602 25.386 20.8177C25.3222 20.6052 25.386 20.2651 25.4498 20.1801C25.4923 20.1376 25.5348 20.1163 25.5985 20.1163C25.7048 20.1163 25.8536 20.1588 26.2999 20.3076C26.5762 20.3926 26.7888 20.6052 26.895 20.9027C27.1076 21.4553 27.0013 22.1992 26.895 22.4117C26.8525 22.518 26.7463 22.5605 26.5975 22.5605C26.4275 22.5605 26.1937 22.4755 26.0236 22.4117C25.9386 22.3692 25.8323 22.348 25.8111 22.348C25.7898 22.348 25.7898 22.348 25.7898 22.348C25.7898 22.3905 25.7686 22.433 25.7261 22.4755L25.7048 22.4968H25.6836C25.4285 22.5605 25.2585 22.6668 25.216 22.8368C25.1947 22.9006 25.1947 22.9856 25.216 23.0281C25.301 22.9218 25.4923 22.7943 25.5773 22.7943H25.5985L25.6198 22.8156C25.641 22.8368 25.641 22.8581 25.641 22.8793C25.641 22.9218 25.6836 23.0069 25.7261 23.0281C25.7261 23.0281 25.7473 23.0281 25.8536 23.0281C25.9174 23.0281 26.0024 23.0281 26.0661 23.0281C26.1511 23.0281 26.2149 23.0281 26.2787 23.0281C26.3424 23.0281 26.3849 23.0281 26.4062 23.0281L26.555 23.0706L26.4275 23.1556C26.3637 23.1981 26.2574 23.2194 26.0661 23.2407C25.8961 23.2619 25.7261 23.3044 25.641 23.3469C25.5985 23.3682 25.5773 23.3894 25.5773 23.3894C25.5985 23.4319 25.5985 23.4744 25.5348 23.5595L25.5135 23.5807C25.2797 23.772 25.2372 23.9845 25.2372 24.1333C25.2372 24.2183 25.2585 24.3034 25.2797 24.3671C25.301 24.3034 25.3222 24.2396 25.3222 24.1971C25.3435 24.1333 25.4498 23.8995 25.556 23.8995C25.5773 23.8995 25.5985 23.8995 25.6198 23.9208C25.641 23.9208 25.641 23.942 25.6623 23.9633C25.7048 24.0058 25.7898 24.0696 25.8323 24.0696C25.8961 23.9845 26.4275 23.602 26.6612 23.4532L26.7463 23.5595C26.6612 23.6657 26.4062 24.0271 26.4062 24.1333V24.1546C26.4487 24.1758 26.47 24.1971 26.47 24.2608C26.5337 24.7709 26.7888 24.9197 26.9588 24.941C26.8525 24.7709 26.7675 24.4946 26.7888 24.3884C26.81 24.3246 26.8525 24.3034 26.895 24.3034H26.9163C26.9376 24.3034 26.9588 24.3034 26.9801 24.3246C27.0013 24.3246 27.0226 24.3459 27.0438 24.3459C27.0651 24.3459 27.0651 24.3459 27.1288 24.2821C27.0013 24.0483 27.1076 23.7933 27.1926 23.6445C27.2564 23.517 27.4051 23.3044 27.5114 23.3044H27.5327L27.5539 23.3257C27.5752 23.3469 27.5964 23.3682 27.6177 23.3894C27.6602 23.4319 27.7027 23.4957 27.7452 23.4957H27.7877L27.8302 23.517C27.894 23.5807 27.894 23.6232 27.9152 23.7082C27.9152 23.7508 27.9365 23.8145 27.9578 23.8995C28.0428 23.8358 28.0428 23.6232 28.064 23.517C28.064 23.4532 28.064 23.4319 28.0853 23.3894C28.1065 23.3257 28.149 23.2832 28.2128 23.2407C28.2341 23.2194 28.2766 23.1981 28.2766 23.1769C28.0215 22.9218 28.0428 22.7093 28.064 22.5393C28.064 22.4755 28.0853 22.4118 28.064 22.348C28.0215 22.263 28.0215 22.2417 27.9578 22.1992C27.894 22.1567 27.8302 22.0929 27.7027 21.9442L27.7877 21.8591C28.0853 22.1567 28.2341 22.2205 28.2978 22.2205C28.3191 22.2205 28.3403 22.2205 28.3616 22.1992C28.3828 22.1567 28.4041 22.0929 28.4041 22.0292C28.4041 22.0292 28.4041 22.0292 28.3828 22.0292C28.149 22.0292 27.9365 21.7104 27.7877 21.4978C27.7452 21.4341 27.724 21.3916 27.6814 21.3491L27.7877 21.264C28.0853 21.5828 28.2553 21.6254 28.3403 21.6254C28.3828 21.6254 28.4253 21.6041 28.4466 21.5616C28.4679 21.5191 28.4679 21.4553 28.4679 21.4341C28.2341 21.3703 27.7027 20.9452 27.6602 20.839L27.7665 20.7539C28.064 21.0302 28.2766 21.0728 28.3616 21.0728C28.4466 21.0728 28.5104 21.0515 28.5316 20.9877C28.5529 20.9452 28.5316 20.8815 28.5104 20.839C28.0428 20.8177 27.9152 20.6052 27.809 20.4351C27.7877 20.4139 27.7877 20.3926 27.7665 20.3714L27.8727 20.2864C28.0215 20.4351 28.1703 20.4564 28.2553 20.4564C28.3828 20.4564 28.4678 20.3926 28.5316 20.3289C28.1278 20.2013 28.0215 19.9888 27.9152 19.7975C27.8515 19.6912 27.7877 19.5637 27.6814 19.4787C27.5752 19.4362 27.4902 19.4362 27.4264 19.4362C27.3626 19.4362 27.3201 19.4574 27.2989 19.4574C27.2351 19.4787 27.1501 19.4787 27.0438 19.4149C26.8738 19.2874 26.5762 19.0536 26.2787 18.8623C26.2574 18.8411 26.2149 18.8411 26.1937 18.8198L26.2574 18.7136C26.2787 18.7348 26.3212 18.7561 26.3424 18.7561C26.4912 18.8411 26.5975 18.8623 26.64 18.8623C26.7038 18.8623 26.725 18.8411 26.7463 18.8198C26.7675 18.7773 26.7675 18.7136 26.7463 18.6498C26.5975 18.7348 26.4275 18.6923 26.2787 18.5435C26.2149 18.4798 26.1511 18.3735 26.1511 18.3097L26.1724 18.2035L26.2574 18.2672C26.4487 18.3947 26.5975 18.416 26.6612 18.331C26.6825 18.3097 26.7038 18.2672 26.6825 18.2247C26.6612 18.2247 26.64 18.2247 26.6187 18.2247H26.5337C26.4487 18.2247 26.2362 18.2247 26.1937 17.9272L26.1724 17.8209L26.2787 17.8634C26.4912 17.9272 26.6187 17.9272 26.6612 17.8634C26.6825 17.8209 26.6612 17.7571 26.64 17.7359C26.64 17.7359 26.64 17.7359 26.6187 17.7359H26.5975C26.4912 17.7359 26.3424 17.7359 26.1937 17.5658L26.0874 17.4383H26.2362C27.2564 17.5021 27.6602 17.0983 27.9152 16.8645C27.9578 16.822 28.0003 16.7794 28.0428 16.7582C28.0853 16.7157 28.149 16.6944 28.1915 16.6944C28.3191 16.6944 28.3828 16.8007 28.4253 16.8857C28.4466 16.8645 28.4678 16.822 28.5104 16.8007C28.5529 16.7369 28.6166 16.6732 28.6166 16.6519C28.6166 16.6307 28.5529 16.5882 28.5316 16.5669C28.5104 16.5457 28.4679 16.5244 28.4466 16.5031C28.4253 16.4819 28.4253 16.4819 28.4041 16.4819C28.3403 16.4394 28.2553 16.3969 28.3191 16.2056C28.3616 16.1206 28.4253 16.0781 28.5104 16.0781C28.5954 16.0781 28.6591 16.1206 28.7229 16.1631C28.7867 16.1206 28.8079 16.0993 28.7867 15.8868C28.7867 15.8018 28.7442 15.8018 28.6804 15.8018C28.6379 15.8018 28.5741 15.823 28.5316 15.823C28.4891 15.8443 28.4466 15.8443 28.4253 15.8443C28.3828 15.8443 28.3403 15.823 28.3403 15.8018C28.2978 15.738 28.3191 15.653 28.3191 15.568L28.2341 15.6317Z" fill="#4E55A1"/>
<path d="M18.2869 24.4496C18.3294 24.2583 18.3294 24.1308 18.2656 24.0883L18.1806 24.0246L18.2869 23.9821C18.2869 23.9821 18.3081 23.9821 18.3294 23.9608C18.3719 23.9396 18.4781 23.9183 18.5631 23.7908C18.3081 23.6633 18.0743 23.557 17.8831 23.4508C17.8831 23.5145 17.8831 23.5995 17.8831 23.6845V23.8333L17.7768 23.727C17.6068 23.5783 17.5005 23.4083 17.458 23.2595C17.1817 23.132 16.948 23.047 16.7567 22.9832C16.7142 22.962 16.6717 22.962 16.6717 22.9195V22.8769L16.6929 22.8344C16.7142 22.8132 16.7354 22.7919 16.7567 22.7494C16.5654 22.8557 16.3954 22.8557 16.2891 22.8557C16.2679 22.8557 16.2254 22.8557 16.2041 22.8557C16.1829 22.8769 16.1191 23.0682 16.0766 23.2382L16.0554 23.2595C15.9491 23.4083 15.9066 23.5358 15.9491 23.5995C15.9703 23.6633 16.0554 23.6845 16.1829 23.7058C16.2254 23.387 16.3316 23.3232 16.4379 23.3232C16.4804 23.3232 16.5017 23.3232 16.5442 23.3445C17.458 23.7058 17.6705 23.8971 18.0531 24.2158C18.1381 24.3008 18.2018 24.3646 18.2869 24.4496Z" fill="#4E55A1"/>
<path d="M17.0117 10.6586V9.89353C17.0117 9.89353 16.9904 9.80853 16.9266 9.80853C16.8629 9.80853 16.8629 9.87228 16.8629 9.89353V10.8074C16.9266 10.7649 16.9691 10.7011 17.0117 10.6586Z" fill="#4E55A1"/>
<path d="M17.0543 11.1238C17.0755 11.1664 17.1181 11.2514 17.1606 11.3151C17.2456 11.3151 17.3518 11.3151 17.5218 11.3151C17.7344 11.3151 17.8831 11.3151 17.9681 11.3364C17.9681 11.3364 17.9681 11.3151 17.9894 11.3151C18.0532 11.2514 18.2019 11.0388 18.2869 10.8688C18.3082 10.8263 18.3294 10.7838 18.3507 10.7626C18.3507 10.7201 18.3507 10.6776 18.3507 10.6563C18.2869 10.55 18.2444 10.4438 18.2444 10.3163C18.2444 10.1888 18.2869 10.0612 18.3507 9.99748V9.84872C18.2444 9.76371 18.0957 9.65745 18.0107 9.59369C18.0107 9.61494 18.0107 9.63619 18.0107 9.65745C18.0319 9.69995 18.0532 9.74245 18.0532 9.80621V10.465C18.0957 10.4438 18.1169 10.4013 18.1382 10.38L18.1807 10.4225L18.2232 10.465C18.1382 10.5288 18.0319 10.635 17.9044 10.7201C17.7344 10.8901 17.5644 11.0601 17.5218 11.1238L17.4581 11.0813L17.3943 11.0388C17.4156 10.9963 17.5006 10.8901 17.6069 10.8051V10.7626C17.5431 10.8051 17.4793 10.8688 17.3943 10.8688L17.3093 10.8901V10.8051C17.3093 10.7838 17.3093 10.7626 17.3093 10.7201C17.2456 10.7838 17.1606 10.8688 17.0968 10.9113L17.0118 10.9538V10.8476C17.0118 10.8263 17.0118 10.8051 17.0118 10.7838L16.9905 10.8051C17.0118 10.9751 17.033 11.0813 17.0543 11.1238Z" fill="#4E55A1"/>
<path d="M17.3304 10.5927V9.8701C17.3304 9.80634 17.3091 9.78509 17.2454 9.78509C17.2029 9.78509 17.1604 9.84884 17.1391 9.89135C17.1391 9.97636 17.1604 10.5077 17.1604 10.7627C17.2241 10.7202 17.2879 10.6352 17.3304 10.5927Z" fill="#4E55A1"/>
<path d="M16.7355 10.6569V10.0406C16.6292 9.9768 16.523 9.95555 16.4592 9.9768C16.3955 9.99806 16.3317 10.0406 16.3105 10.1043C16.2679 10.2106 16.2679 10.3806 16.353 10.4869C16.4167 10.6144 16.5655 10.6569 16.7355 10.6569Z" fill="#4E55A1"/>
<path d="M18.5419 21.6197C18.3293 21.6197 17.9681 21.6197 17.713 21.2584L17.6918 21.2797C17.6493 21.3222 17.5643 21.3859 17.4155 21.4072C17.2667 21.4072 16.9692 21.6197 16.8842 21.8322C16.8629 21.896 16.8417 21.9385 16.8629 22.0022C16.9692 21.8535 17.0755 21.7685 17.3305 21.7472C17.3942 21.7472 17.4155 21.7685 17.4155 21.7897C17.458 21.8322 17.4367 21.896 17.4155 21.9385C17.4155 21.9597 17.3942 22.0448 17.4155 22.0448C17.458 22.066 17.7555 22.1085 18.1168 22.1085C18.3506 22.1085 18.5631 22.0873 18.6906 22.066L18.7119 22.1935C18.6269 22.2148 18.5419 22.236 18.4569 22.2573C18.2443 22.321 17.9043 22.3848 17.8618 22.4485V22.4698C17.883 22.491 17.9468 22.5336 17.9043 22.6186C17.9043 22.6398 17.883 22.6611 17.8405 22.7036C17.7555 22.7886 17.5855 22.9799 17.6068 23.1924C17.6068 23.2986 17.6705 23.4261 17.7768 23.5537C17.7768 23.5324 17.7768 23.4899 17.7768 23.4686C17.7555 23.2136 17.7555 23.1074 18.0106 23.0011C18.0318 23.0011 18.0531 23.0011 18.0743 23.0011C18.1593 23.0011 18.2018 23.0649 18.2231 23.1074C18.2231 23.1074 18.2231 23.1074 18.2231 23.1286C18.2231 23.1286 18.2231 23.1286 18.2443 23.1074C18.2656 23.0861 18.3081 23.0436 18.3718 23.0011C18.5631 22.8098 18.9032 22.4698 19.2857 22.4485C19.4982 22.4485 19.4982 22.5973 19.4982 22.6611C19.4982 22.6823 19.4982 22.7036 19.5195 22.7248C19.5407 22.7461 19.562 22.7461 19.6045 22.7673C19.647 22.7673 19.7107 22.7886 19.732 22.8736C19.7533 22.9373 19.6682 23.0861 19.5832 23.1924C19.6682 23.1924 19.8383 23.1286 19.9658 22.9373C20.0083 22.8311 20.0933 22.8311 20.1358 22.8098H20.157C20.157 22.7886 20.1358 22.7886 20.1358 22.7886C20.0933 22.7673 20.0295 22.7036 20.072 22.5973C20.0933 22.5123 20.2208 22.406 20.3483 22.321C20.4333 22.2573 20.5183 22.1935 20.5396 22.151C20.6033 22.0448 20.6246 21.981 20.6246 21.8322H20.7521C20.7521 21.8747 20.7521 21.9172 20.7734 21.9385C20.7734 22.0448 20.7946 22.2148 20.8371 22.236C20.8796 22.2573 20.9434 22.2148 20.9859 22.1723C20.9859 22.1723 20.9859 22.151 20.9646 22.151C20.9221 22.0448 20.8159 21.811 21.1134 21.641L21.2409 21.556L21.1984 21.7047C21.1559 21.8322 21.1347 22.0022 21.2622 22.066H21.2834C21.3684 22.066 21.3684 22.0448 21.3897 22.0235C21.2409 21.6835 21.4322 21.5134 21.5597 21.4497L21.7297 21.3647L21.6447 21.5347C21.6447 21.556 21.6235 21.5772 21.6235 21.5985C21.581 21.6622 21.5385 21.7472 21.5597 21.7897C21.5597 21.8322 21.6022 21.8535 21.6447 21.8747C21.7297 21.896 21.7722 21.896 21.7935 21.8322C21.751 21.7685 21.751 21.6622 21.7722 21.556C21.7935 21.4284 21.8785 21.3222 21.9635 21.2797L22.1123 21.2159L22.0698 21.3647C22.0485 21.4497 22.0273 21.6197 22.091 21.7047C22.1123 21.726 22.1335 21.7472 22.1548 21.7472C22.176 21.7472 22.3035 21.726 22.3035 21.7047C22.3035 21.7047 22.3035 21.7047 22.3035 21.6835C22.3035 21.6622 22.3248 21.6622 22.3248 21.641C22.3035 21.5347 22.2823 21.4497 22.346 21.3222C22.4098 21.2159 22.6648 20.9609 22.8986 20.8546C22.8136 20.7484 22.8136 20.6846 22.8561 20.5996C22.8774 20.5571 22.8774 20.5358 22.8986 20.4721C22.8986 20.4083 22.8774 20.3658 22.8561 20.3446C22.8136 20.2808 22.7498 20.2171 22.7923 20.0683C22.8561 19.8133 23.1749 19.622 24.6838 18.9844C24.6838 18.9632 24.6626 18.9207 24.6626 18.8994C24.6413 18.8569 24.6413 18.8144 24.6413 18.7932C24.4713 18.5381 24.195 18.2194 23.8762 18.1981L23.6637 18.1131L23.7912 18.0068C23.8762 17.9431 23.8975 17.9006 23.94 17.8581C23.8975 17.8368 23.855 17.8156 23.8125 17.7731C23.4087 17.8156 22.176 18.4106 21.921 18.6657C21.8572 18.7294 21.7722 18.7719 21.6872 18.7719C21.5172 18.7719 21.3897 18.6444 21.3047 18.5381C21.2834 18.5169 21.2622 18.4531 21.2409 18.4106C21.1347 18.4319 21.0709 18.4956 21.0709 18.5169C21.0922 18.5806 21.2409 18.7932 21.3047 18.7932L21.4109 18.8357L21.3259 18.8994C21.1984 19.0057 20.9434 19.367 20.9434 19.4307C20.9434 19.4732 20.9859 19.537 21.0284 19.5582C21.2409 19.2395 21.5172 19.0269 21.6447 18.9632L21.7085 19.0694C21.3897 19.3032 21.3472 19.4095 21.3472 19.4307C21.3472 19.4732 21.3684 19.5157 21.3897 19.5582C21.4109 19.6008 21.4534 19.6645 21.4534 19.7283C21.4534 19.877 21.0922 20.9184 19.5832 21.2584C19.5407 21.2584 19.4982 21.2797 19.4345 21.2797C19.0094 21.2797 18.7544 20.9184 18.6056 20.7059C18.5844 20.6634 18.5419 20.6209 18.5206 20.5996C18.4569 20.5358 18.4356 20.5358 18.4356 20.5358C18.4356 20.5358 18.4356 20.5358 18.4144 20.5358C18.3931 20.5358 18.3718 20.5571 18.3506 20.5571C18.3081 20.5571 18.2868 20.5571 18.2656 20.5358C18.2018 20.5146 18.1168 20.4933 18.0106 20.4933C17.8618 20.4933 17.7555 20.5571 17.6493 20.6634C17.6705 20.6634 17.6705 20.6634 17.6918 20.6634C17.8405 20.6634 17.9468 20.7059 18.0106 20.8121C18.0531 20.8546 18.0318 20.9184 17.9681 20.9821L17.9468 21.0034C17.9681 21.0672 18.3718 21.4284 18.5631 21.4497V21.5772L18.5419 21.6197Z" fill="#4E55A1"/>
<path d="M17.6492 10.5922V9.82713C17.6279 9.78463 17.6067 9.74212 17.5429 9.74212C17.4792 9.74212 17.4579 9.84838 17.4579 9.84838C17.4579 9.84838 17.4579 10.4434 17.4579 10.7835C17.5642 10.7197 17.6067 10.6347 17.6492 10.5922Z" fill="#4E55A1"/>
<path d="M23.6851 13.0575C23.6638 13.0575 23.6638 13.0575 23.6851 13.0575C23.3025 13.0575 22.8137 12.5687 22.8137 12.5687L22.8988 12.4624C23.09 12.5899 23.5151 12.7387 23.6001 12.7387C23.6213 12.7387 23.6213 12.7387 23.6213 12.7387C23.6426 12.7174 23.6638 12.6749 23.6426 12.5262C23.3451 12.5474 23.005 12.2499 22.835 12.1011L22.7712 12.0586L22.8562 11.9523L22.8775 11.9736C23.005 12.0799 23.4088 12.2074 23.5363 12.2074H23.5576C23.6213 12.1861 23.6426 12.1011 23.6426 12.0374C23.6213 12.0374 23.5788 12.0374 23.5576 12.0374C23.2813 12.0374 22.9413 11.7611 22.7075 11.5486L22.7925 11.4423C22.9413 11.5698 23.09 11.6336 23.2388 11.6336C23.4088 11.6336 23.5363 11.5486 23.5576 11.5273C23.5576 11.5273 23.5576 11.4848 23.5151 11.3998C23.4088 11.4848 23.26 11.4848 23.09 11.3785C22.9625 11.336 22.7925 11.1873 22.7075 11.1023C22.6862 11.081 22.665 11.0598 22.665 11.0598L22.75 10.9747L22.7712 10.996C22.835 11.0385 22.9838 11.1873 23.1325 11.251H23.1538C23.1963 11.2085 23.1963 11.0173 23.1538 10.8472L22.8775 10.6985C22.835 10.7622 22.8137 10.826 22.7712 10.8897L22.665 10.826C22.92 10.4222 22.8775 10.3159 22.8562 10.2947C22.7712 10.2097 22.4099 10.3159 22.1762 10.4647L22.1124 10.3584C22.1124 10.3584 22.1337 10.3372 22.1762 10.3159L21.6024 10.0184L21.0498 9.74212C20.9648 9.78463 20.7098 10.1247 20.6885 10.2097C20.6885 10.2097 20.6885 10.2309 20.7098 10.2522C20.731 10.2734 20.731 10.3159 20.731 10.3584C20.731 10.3797 20.731 10.4222 20.306 11.2085C20.391 11.3148 20.4972 11.3998 20.5397 11.421C20.5397 11.421 20.561 11.421 20.6885 11.3573C20.7735 11.3148 20.8585 11.2723 20.8585 11.2723L20.9223 11.3998C20.9223 11.3998 20.8373 11.4423 20.7523 11.4848C20.6247 11.5486 20.6035 11.5911 20.6035 11.5911C20.5822 11.6336 20.6247 11.8248 20.6673 11.8886C20.731 11.8673 20.7948 11.8673 20.8798 11.9311C20.9648 11.9949 20.986 12.0799 21.0073 12.1436C21.0073 12.1649 21.0285 12.1861 21.0285 12.2074C21.0498 12.1861 21.0498 12.1436 21.071 12.1224C21.1348 11.9523 21.2198 11.6761 21.6024 11.6761C22.1762 11.6761 22.2187 12.3986 22.2187 12.6324C22.2187 13.4188 21.8999 13.5888 21.6236 13.5888C21.1348 13.5888 21.071 13.1425 21.0498 12.9937C21.0498 12.9725 21.0498 12.9512 21.0498 12.9512C21.0498 12.9512 21.0498 12.9512 21.0498 12.93C20.986 13.015 20.9223 13.0575 20.8585 13.1C20.7948 13.1212 20.7523 13.1637 20.7098 13.2275C20.6885 13.27 20.6885 13.3337 20.6673 13.3975C20.646 13.5888 20.6035 13.8438 20.2422 13.8438C20.1997 13.8438 20.1359 13.8438 20.0722 13.8225C20.0722 13.9501 20.0934 14.0351 20.1572 14.0988C20.1997 14.1413 20.2422 14.1413 20.2847 14.1413C20.4335 14.1413 20.6035 14.0351 20.6885 13.9713L20.8798 13.8013L20.7948 14.0351C20.731 14.2476 20.4972 14.2901 20.2635 14.3538C19.9447 14.4389 19.6471 14.5026 19.6259 14.9277C19.8809 14.7364 20.1147 14.6939 20.306 14.6514C20.5185 14.6089 20.7098 14.5664 20.8585 14.3326L20.986 14.3751C20.9648 14.5239 20.8798 14.6514 20.816 14.7576C20.7523 14.8852 20.6885 14.9702 20.7098 15.0552C20.731 15.1189 20.7948 15.1614 20.9223 15.2252C20.8585 14.9914 21.0073 14.8426 21.1136 14.7151C21.2198 14.5876 21.3261 14.4814 21.2836 14.3326L21.2411 14.1626L21.3898 14.2688C21.5599 14.3964 21.4961 14.6089 21.4323 14.8001C21.3898 14.9702 21.3261 15.1402 21.4111 15.2677C21.4536 15.3314 21.5386 15.374 21.6449 15.3952C21.4961 15.1189 21.6024 14.9277 21.7086 14.6939C21.7511 14.6089 21.7936 14.5239 21.8361 14.3964L21.9636 14.4389C21.8361 14.8639 21.8361 15.1402 21.9424 15.2889C22.0062 15.3527 22.0912 15.3952 22.2399 15.3952C22.2824 15.3952 22.3249 15.3952 22.3462 15.3952C22.1974 15.2039 22.2399 15.0127 22.2824 14.8639C22.3037 14.7576 22.3462 14.6726 22.3249 14.5876L22.2824 14.4601L22.4099 14.5026C22.5162 14.5451 22.5375 14.6726 22.5587 14.8001C22.6012 15.0552 22.665 15.3314 23.0688 15.3102C22.9413 15.1614 22.92 15.0127 22.8988 14.8426C22.8775 14.6939 22.8562 14.5451 22.7712 14.3964L22.8775 14.3326C23.1538 14.8001 23.3238 14.8639 23.4088 14.8639C23.5363 14.8639 23.6001 14.7151 23.6426 14.5876C23.4513 14.6089 23.3663 14.4389 23.26 14.2263C23.1963 14.0776 23.1113 13.9288 22.9838 13.78C22.9625 13.7588 22.92 13.7163 22.8775 13.695L22.9625 13.5888C23.005 13.6313 23.0263 13.6525 23.0688 13.695C23.3025 13.9076 23.4301 13.9501 23.5151 13.9501C23.5576 13.9501 23.5788 13.9288 23.6001 13.9076C23.6426 13.865 23.6638 13.7588 23.6638 13.6738C23.3025 13.6313 22.8775 13.1637 22.8137 13.0575L22.7287 12.9512H22.8562C22.9625 12.9512 23.1113 13.015 23.3238 13.1212C23.4513 13.185 23.6213 13.27 23.6851 13.27C23.6851 13.2487 23.7063 13.185 23.6851 13.0575ZM21.0923 10.8047L21.0498 10.826L21.0285 10.8047C20.9435 10.7197 20.9648 10.4859 21.0073 10.4009C20.986 10.4009 20.9648 10.3797 20.9223 10.3797L20.9435 10.2522C21.1348 10.2947 21.2411 10.4009 21.3261 10.4859C21.3898 10.5497 21.4323 10.6135 21.4961 10.6135V10.741C21.3473 10.741 21.2623 10.7622 21.0923 10.8047ZM22.5375 10.6985C22.5587 10.656 22.5587 10.6135 22.5375 10.6135C22.5162 10.5922 22.4525 10.5922 22.3887 10.6347L22.3249 10.5285C22.4312 10.4647 22.5587 10.4434 22.6225 10.5072C22.6862 10.571 22.7075 10.656 22.665 10.7622L22.5375 10.6985Z" fill="#4E55A1"/>
<defs>
<filter id="filter0_d_1_68" x="0" y="0" width="44" height="34" filterUnits="userSpaceOnUse" color-interpolation-filters="sRGB">
<feFlood flood-opacity="0" result="BackgroundImageFix"/>
<feColorMatrix in="SourceAlpha" type="matrix" values="0 0 0 0 0 0 0 0 0 0 0 0 0 0 0 0 0 0 127 0" result="hardAlpha"/>
<feOffset/>
<feGaussianBlur stdDeviation="3"/>
<feComposite in2="hardAlpha" operator="out"/>
<feColorMatrix type="matrix" values="0 0 0 0 0.401815 0 0 0 0 0.569466 0 0 0 0 0.904769 0 0 0 0.12 0"/>
<feBlend mode="normal" in2="BackgroundImageFix" result="effect1_dropShadow_1_68"/>
<feBlend mode="normal" in="SourceGraphic" in2="effect1_dropShadow_1_68" result="shape"/>
</filter>
</defs>
</svg>
