<svg width="32" height="22" viewBox="6 6 32 22" fill="none" xmlns="http://www.w3.org/2000/svg">
    <rect x="6" y="6" width="32" height="22" rx="2" fill="white"/>
    <path d="M21.0806 20.3583L19.3326 17.9928C19.0726 17.6419 18.6267 17.1789 18.6267 16.7244C18.6267 16.27 19.0705 15.7964 19.3326 15.4434L21.0806 13.0758C21.1495 12.9793 21.2305 12.8919 21.3215 12.8158V10.0847C21.3215 7.89467 20.4042 7.33659 19.2861 8.85861L15.5197 13.9595C14.9596 14.7162 14 15.714 14 16.7139C14 17.7138 14.9617 18.7094 15.5197 19.462L19.284 24.567C20.4021 26.0827 21.3194 25.5352 21.3194 23.3431V20.6183C21.2273 20.5433 21.1462 20.4558 21.0785 20.3583"
          fill="#0286C8"/>
    <path d="M28.4804 13.9546L24.7118 8.85583C23.5937 7.34016 22.6785 7.89189 22.6785 10.0819V12.8046C22.7694 12.8834 22.8497 12.9737 22.9174 13.0731L24.6674 15.4385C24.9274 15.7916 25.3734 16.2566 25.3734 16.7196C25.3734 17.1825 24.9274 17.6476 24.6674 17.9879L22.9174 20.3555C22.849 20.4525 22.7688 20.5406 22.6785 20.6176V23.3403C22.6785 25.5345 23.5937 26.0884 24.7118 24.5643L28.4804 19.4697C29.0405 18.7066 30 17.7068 30 16.709C30 15.7112 29.0405 14.7135 28.4804 13.9609"
          fill="#242B57"/>
</svg>
