<svg width="32" height="22" viewBox="0 0 32 22" fill="none" xmlns="http://www.w3.org/2000/svg">
<rect width="32" height="22" rx="2" fill="#000268"/>
<path fill-rule="evenodd" clip-rule="evenodd" d="M2 3.57687V18.4231C2 19.2938 2.67294 20 3.50303 20H17.2291V2H3.50303C2.67294 2 2 2.70617 2 3.57687ZM20.7756 10.9558C20.7756 11.519 20.5115 11.9061 20.0743 11.9061C19.688 11.9061 19.366 11.519 19.366 11.0033C19.366 10.4738 19.6492 10.0802 20.0743 10.0802C20.5251 10.0802 20.7756 10.4875 20.7756 10.9558ZM18.2083 14.1861H19.366V12.2653H19.379C19.5982 12.6862 20.0361 12.8422 20.4413 12.8422C21.4383 12.8422 21.9723 11.9737 21.9723 10.9285C21.9723 10.0737 21.4642 9.14335 20.5374 9.14335C20.0102 9.14335 19.5212 9.36755 19.289 9.86316H19.2761V9.22541H18.2083V14.1861ZM23.5535 11.641C23.5535 11.302 23.862 11.1735 24.255 11.1735C24.4286 11.1735 24.5961 11.1863 24.744 11.1936C24.744 11.6074 24.4674 12.0283 24.0296 12.0283C23.7593 12.0283 23.5535 11.886 23.5535 11.641ZM25.8888 12.7609C25.8376 12.483 25.8247 12.2042 25.8247 11.9263V10.6096C25.8247 9.53065 25.0851 9.14335 24.2292 9.14335C23.734 9.14335 23.3029 9.21808 22.891 9.39482L22.9107 10.2232C23.2313 10.0328 23.6052 9.95805 23.9784 9.95805C24.3959 9.95805 24.7371 10.0874 24.744 10.5693C24.5961 10.542 24.3898 10.5213 24.2033 10.5213C23.5861 10.5213 22.4729 10.6506 22.4729 11.7294C22.4729 12.4966 23.0645 12.8422 23.7272 12.8422C24.2033 12.8422 24.5253 12.6461 24.789 12.2042H24.8019C24.8019 12.3881 24.8208 12.5705 24.8278 12.7609H25.8888ZM26.4098 14.1861C26.648 14.2407 26.8858 14.2682 27.1302 14.2682C28.192 14.2682 28.4425 13.406 28.7707 12.5168L30 9.22541H28.8415L28.1531 11.5327H28.1402L27.4196 9.22541H26.1719L27.5292 12.8422C27.4455 13.1545 27.2269 13.3313 26.9435 13.3313C26.7822 13.3313 26.6412 13.3105 26.4866 13.2566L26.4098 14.1861Z" fill="white"/>
<path fill-rule="evenodd" clip-rule="evenodd" d="M4.82832 10.6527C4.82832 10.1958 5.05379 9.81586 5.48485 9.81586C6.00589 9.81586 6.22441 10.234 6.22441 10.6071C6.22441 11.122 5.89623 11.4693 5.48485 11.4693C5.13757 11.4693 4.82832 11.1737 4.82832 10.6527ZM7.34406 9.00547H6.29526V9.61007H6.28309C6.03792 9.19812 5.63871 8.92767 5.14375 8.92767C4.10169 8.92767 3.63184 9.67474 3.63184 10.6718C3.63184 11.6627 4.20459 12.3573 5.12387 12.3573C5.58775 12.3573 5.97384 12.1768 6.25027 11.7845H6.26321V11.965C6.26321 12.621 5.90299 12.9362 5.23429 12.9362C4.75148 12.9362 4.45517 12.8333 4.10169 12.6598L4.04379 13.5736C4.31347 13.6704 4.77041 13.7862 5.32425 13.7862C6.67536 13.7862 7.34406 13.342 7.34406 11.965V9.00547ZM9.30132 7.60938H8.14307V8.45858H9.30132V7.60938ZM8.14365 12.3573H9.30132V9.00547H8.14365V12.3573ZM12.5259 8.96648C12.4101 8.94755 12.2684 8.92767 12.1337 8.92767C11.6318 8.92767 11.3424 9.19812 11.1428 9.62301H11.1298V9.00547H10.0749V12.3573H11.2327V10.9423C11.2327 10.2857 11.5356 9.89347 12.0758 9.89347C12.2113 9.89347 12.3393 9.89347 12.468 9.9315L12.5259 8.96648ZM14.5199 11.6239C13.9859 11.6239 13.7674 11.1799 13.7674 10.6847C13.7674 10.1828 13.9859 9.73884 14.5199 9.73884C15.0544 9.73884 15.2731 10.1828 15.2731 10.6847C15.2731 11.1799 15.0544 11.6239 14.5199 11.6239ZM14.5199 12.4343C15.6266 12.4343 16.4696 11.7915 16.4696 10.6847C16.4696 9.57128 15.6266 8.92767 14.5199 8.92767C13.4134 8.92767 12.5709 9.57128 12.5709 10.6847C12.5709 11.7915 13.4134 12.4343 14.5199 12.4343Z" fill="#FF0007"/>
</svg>
