<svg width="32" height="22" viewBox="0 0 32 22" fill="none" xmlns="http://www.w3.org/2000/svg">
<rect width="32" height="22" rx="2" fill="#02AFD9"/>
<path fill-rule="evenodd" clip-rule="evenodd" d="M9.09681 13.5363C9.22589 15.3865 10.3876 16.8064 12.539 16.9355C14.6043 17.0215 16.6266 17.0215 18.6919 16.9355C20.5851 16.8064 22.005 15.3865 22.1341 13.5363C22.2202 12.5897 22.2632 11.6431 22.2202 10.6965C21.7469 8.11485 19.5955 8.02879 19.4234 8.02879H19.3804H12.1518C11.8936 8.02879 11.6785 7.81366 11.6785 7.55549C11.6785 7.29733 11.8936 7.12522 12.1518 7.12522H19.4234C19.3373 5.40413 17.4441 5.05991 16.5405 5.01688H16.0672C14.9055 4.97385 13.7007 5.01688 12.539 5.10293C10.3446 5.27504 9.22589 6.60889 9.09681 8.5021C8.96773 10.1802 8.96773 11.8582 9.09681 13.5363ZM19.9827 12.5467V13.1921C19.9827 13.4072 19.8106 13.5793 19.5525 13.5793C19.3373 13.5793 19.1652 13.4072 19.1652 13.1921V12.5467C18.9501 12.4176 18.821 12.2455 18.821 11.9873C18.821 11.6431 19.1652 11.3419 19.5525 11.3419C19.9397 11.3419 20.2839 11.6431 20.2839 11.9873C20.2839 12.2455 20.1548 12.4176 19.9827 12.5467Z" fill="#FEFEFE"/>
</svg>
