<svg width="32" height="22" viewBox="0 0 32 22" fill="none" xmlns="http://www.w3.org/2000/svg">
<rect width="32" height="22" rx="2" fill="#18265C"/>
<path fill-rule="evenodd" clip-rule="evenodd" d="M17.5364 10.3869C16.3402 10.7159 15.1439 10.8056 14.4561 10.8056V10.2374C16.8187 10.2374 19.271 9.28037 19.271 7.0972C19.271 6.02056 18.2542 4.97383 17.2075 4.97383H13.828V15.8598C13.828 16.3383 14.2168 16.7271 14.6654 16.7271H17.357C18.5832 16.7271 19.9888 15.4411 19.9888 13.8561C19.9888 12.3009 18.1047 10.5963 17.5364 10.3869ZM10 16.9065H10.7178C11.286 16.9065 11.7645 16.4579 11.7645 15.8598V6.14019C11.7645 6.11028 11.7645 6.05047 11.7645 6.02056C11.7645 5.45234 11.286 4.97383 10.7178 4.97383H10.628H10V4.52523H18.0748C19.8393 4.52523 20.7364 5.63178 20.7364 7.0972C20.7364 8.56262 19.9888 9.45981 18.7028 9.99813C19.2411 10.1776 21.6636 11.7925 21.6636 13.8561C21.6636 16.2785 19.0617 17.385 17.7458 17.385H10V16.9065ZM15.5028 9.72897V5.42243H17.028V9.42991C16.5495 9.60935 15.8916 9.69907 15.5028 9.72897ZM15.5028 16.3981V11.1645C16.0112 11.1346 16.4897 11.0748 17.028 10.985V16.3981H15.5028ZM15.5028 17.8037V17.6542H17.028V17.8037C17.028 18.1626 17.2673 18.4617 17.5963 18.5514H18.4037V19H14.1271V18.5514H14.9346C15.2636 18.4617 15.5028 18.1626 15.5028 17.8037ZM17.7458 3.4486C17.357 3.4486 17.028 3.77757 17.028 4.19626H15.5028C15.5028 3.77757 15.1738 3.4486 14.7551 3.4486H14.1271V3H18.4037V3.4486H17.7458Z" fill="white"/>
</svg>
