<svg width="32" height="22" viewBox="6 6 32 22" fill="none" xmlns="http://www.w3.org/2000/svg">
<g filter="url(#filter0_d_1_403)">
<rect x="6" y="6" width="32" height="22" rx="2" fill="white"/>
</g>
<path fill-rule="evenodd" clip-rule="evenodd" d="M27.0526 17.2539H27.0659H27.0916H27.1173H27.143H27.1688H27.1945H27.2202H27.246H27.2717H27.2974H27.3231H27.3489H27.3746H27.4003H27.426H27.4518H27.4775H27.5032H27.5289H27.5547H27.5804H27.6061H27.6318H27.6576H27.6833H27.709H27.7348H27.7604H27.7862H27.8119H27.8376H27.8634H27.8891H27.9148H27.9406H27.9662H27.992H28.0177H28.0434H28.0691H28.0949H28.1206H28.1463H28.172H28.1978H28.2235H28.2492H28.275H28.3007H28.3264H28.3521H28.3779H28.4036H28.4293H28.455H28.4808H28.5065H28.5322H28.5579H28.5837H28.6051L28.6094 17.254C28.6173 17.2542 28.626 17.2546 28.6351 17.255C28.6434 17.2555 28.652 17.2561 28.6608 17.2567C28.6693 17.2573 28.6779 17.258 28.6866 17.2588C28.6952 17.2596 28.7038 17.2605 28.7123 17.2614C28.7211 17.2624 28.7298 17.2634 28.738 17.2645C28.7472 17.2657 28.7559 17.267 28.7638 17.2684C28.7694 17.2693 28.7746 17.2703 28.7793 17.2713L28.7895 17.2736C28.7981 17.2755 28.8066 17.2777 28.8152 17.2801C28.8238 17.2824 28.8324 17.2849 28.8409 17.2876C28.8496 17.2903 28.8581 17.2932 28.8666 17.2963C28.8753 17.2994 28.8839 17.3027 28.8923 17.3062C28.901 17.3097 28.9096 17.3134 28.9181 17.3172C28.9267 17.3211 28.9353 17.3252 28.9438 17.3295C28.9525 17.3339 28.961 17.3384 28.9695 17.3432C28.9782 17.348 28.9868 17.3531 28.9952 17.3583C29.0039 17.3637 29.0126 17.3693 29.021 17.375C29.0297 17.3809 29.0383 17.387 29.0467 17.3933C29.0554 17.3998 29.064 17.4066 29.0724 17.4136C29.0812 17.4208 29.0897 17.4282 29.0981 17.4359C29.1069 17.4439 29.1155 17.4521 29.1239 17.4606C29.1327 17.4695 29.1413 17.4787 29.1496 17.4881C29.1584 17.4981 29.167 17.5084 29.1753 17.5189C29.1843 17.5303 29.1929 17.542 29.201 17.5539C29.2101 17.567 29.2186 17.5805 29.2268 17.5943C29.236 17.6099 29.2445 17.6259 29.2525 17.6424C29.2619 17.6619 29.2706 17.682 29.2782 17.7026C29.2886 17.7304 29.2972 17.7592 29.304 17.7889C29.3158 17.8404 29.3221 17.8947 29.3221 17.9513C29.3221 18.0082 29.3158 18.0627 29.304 18.1144C29.2972 18.1442 29.2886 18.1731 29.2782 18.2009C29.2706 18.2216 29.2619 18.2417 29.2525 18.2613C29.2445 18.2778 29.236 18.2938 29.2268 18.3094C29.2186 18.3233 29.2101 18.3367 29.201 18.3498C29.1929 18.3618 29.1842 18.3735 29.1753 18.3848C29.167 18.3954 29.1584 18.4056 29.1496 18.4156C29.1413 18.425 29.1327 18.4342 29.1239 18.4432C29.1155 18.4516 29.1069 18.4598 29.0981 18.4678C29.0897 18.4754 29.0812 18.4828 29.0724 18.49C29.064 18.497 29.0554 18.5037 29.0467 18.5102C29.0383 18.5165 29.0297 18.5226 29.021 18.5285C29.0126 18.5342 29.0039 18.5397 28.9952 18.5451C28.9868 18.5503 28.9782 18.5553 28.9695 18.5601C28.961 18.5648 28.9525 18.5694 28.9438 18.5737C28.9353 18.578 28.9267 18.5821 28.9181 18.5859C28.9096 18.5898 28.901 18.5934 28.8923 18.5969C28.8839 18.6003 28.8753 18.6036 28.8666 18.6067C28.8581 18.6097 28.8496 18.6125 28.8409 18.6152C28.8324 18.6179 28.8238 18.6203 28.8152 18.6227C28.8066 18.625 28.7981 18.6271 28.7895 18.6291L28.7793 18.6313C28.7746 18.6324 28.7694 18.6335 28.7638 18.6344C28.7559 18.6358 28.7472 18.6371 28.738 18.6384C28.7298 18.6395 28.7211 18.6406 28.7123 18.6415C28.7038 18.6424 28.6952 18.6433 28.6866 18.644C28.6779 18.6448 28.6693 18.6455 28.6608 18.6461C28.652 18.6467 28.6434 18.6473 28.6351 18.6477C28.626 18.6482 28.6173 18.6485 28.6094 18.6487L28.5956 18.6489H28.5837H28.5579H28.5322H28.5065H28.4808H28.455H28.4293H28.4036H28.3779H28.3521H28.3264H28.3007H28.275H28.2492H28.2235H28.1978H28.172H28.1463H28.1206H28.0949H28.0691H28.0434H28.0177H27.992H27.9662H27.9406H27.9148H27.8891H27.8634H27.8376H27.8119H27.7862H27.7604H27.7348H27.709H27.6833H27.6576H27.6318H27.6061H27.5804H27.5547H27.5289H27.5032H27.4775H27.4518H27.426H27.4003H27.3746H27.3489H27.3231H27.2974H27.2717H27.246H27.2202H27.1945H27.1688H27.143H27.1173H27.0916H27.0659H27.0526V17.2539ZM29.124 15.6751C29.1343 15.7219 29.1399 15.7715 29.1399 15.8237C29.1399 15.8759 29.1343 15.9254 29.124 15.9722C29.1173 16.0023 29.1087 16.0312 29.0983 16.0589C29.0906 16.0791 29.082 16.0987 29.0725 16.1176C29.0645 16.1334 29.056 16.1488 29.0468 16.1637C29.0387 16.1768 29.0301 16.1896 29.0211 16.202C29.0128 16.2133 29.0042 16.2242 28.9953 16.2349C28.987 16.2448 28.9785 16.2544 28.9696 16.2637C28.9613 16.2725 28.9527 16.2809 28.9439 16.2892C28.9355 16.297 28.927 16.3046 28.9182 16.3119C28.9098 16.319 28.9012 16.3257 28.8924 16.3323C28.884 16.3387 28.8755 16.3448 28.8667 16.3507C28.8583 16.3564 28.8497 16.3619 28.841 16.3672C28.8325 16.3724 28.8239 16.3773 28.8153 16.3821C28.8068 16.3868 28.7982 16.3913 28.7895 16.3955C28.7811 16.3997 28.7725 16.4037 28.7638 16.4075C28.7553 16.4113 28.7468 16.4149 28.7381 16.4182C28.7296 16.4215 28.721 16.4247 28.7124 16.4277C28.7039 16.4306 28.6953 16.4334 28.6867 16.436C28.6782 16.4385 28.6696 16.4409 28.661 16.4432C28.6524 16.4453 28.6439 16.4474 28.6352 16.4493C28.6267 16.4511 28.6181 16.4528 28.6095 16.4543L28.6032 16.4554C28.5983 16.4563 28.5916 16.4573 28.5838 16.4582C28.5762 16.4592 28.5674 16.4601 28.5581 16.4611C28.5499 16.462 28.5412 16.4627 28.5323 16.4635C28.5239 16.4642 28.5152 16.4648 28.5066 16.4653C28.498 16.4659 28.4893 16.4663 28.4809 16.4667C28.472 16.467 28.4633 16.4673 28.4551 16.4673L28.4511 16.4674H28.4294H28.4037H28.378H28.3522H28.3265H28.3008H28.2751H28.2494H28.2236H28.1979H28.1722H28.1464H28.1208H28.095H28.0693H28.0436H28.0179H27.9921H27.9664H27.9407H27.9149H27.8892H27.8635H27.8378H27.812H27.7863H27.7606H27.7349H27.7091H27.6834H27.6577H27.632H27.6062H27.5806H27.5548H27.5291H27.5034H27.4777H27.4519H27.4262H27.4005H27.3747H27.349H27.3233H27.2976H27.2718H27.2461H27.2204H27.1947H27.1689H27.1432H27.1175H27.0918H27.066H27.0526V15.1801H27.066H27.0918H27.1175H27.1432H27.1689H27.1947H27.2204H27.2461H27.2718H27.2976H27.3233H27.349H27.3747H27.4005H27.4262H27.4519H27.4777H27.5034H27.5291H27.5548H27.5806H27.6062H27.632H27.6577H27.6834H27.7091H27.7349H27.7606H27.7863H27.812H27.8378H27.8635H27.8892H27.9149H27.9407H27.9664H27.9921H28.0179H28.0436H28.0693H28.095H28.1208H28.1464H28.1722H28.1979H28.2236H28.2494H28.2751H28.3008H28.3265H28.3522H28.378H28.4037H28.4294H28.4551H28.466L28.4809 15.1805C28.4893 15.1809 28.498 15.1814 28.5066 15.1819C28.5152 15.1825 28.5239 15.1831 28.5323 15.1838C28.5412 15.1845 28.5499 15.1853 28.5581 15.1861C28.5674 15.187 28.5762 15.1879 28.5838 15.1888C28.5916 15.1897 28.5983 15.1905 28.6032 15.1912L28.6095 15.1923C28.6181 15.1939 28.6267 15.1956 28.6352 15.1975C28.6439 15.1993 28.6524 15.2014 28.661 15.2037C28.6696 15.2059 28.6782 15.2083 28.6867 15.2109C28.6953 15.2135 28.7039 15.2163 28.7124 15.2192C28.721 15.2222 28.7296 15.2254 28.7381 15.2287C28.7468 15.2322 28.7553 15.2358 28.7638 15.2395C28.7725 15.2434 28.7811 15.2474 28.7895 15.2515C28.7982 15.2558 28.8068 15.2603 28.8153 15.2649C28.8239 15.2697 28.8325 15.2747 28.841 15.2798C28.8497 15.2852 28.8583 15.2907 28.8667 15.2964C28.8755 15.3023 28.884 15.3085 28.8924 15.3149C28.9012 15.3214 28.9098 15.3282 28.9182 15.3352C28.927 15.3426 28.9355 15.3502 28.9439 15.358C28.9527 15.3663 28.9613 15.3747 28.9696 15.3835C28.9785 15.3928 28.987 15.4024 28.9953 15.4123C29.0042 15.423 29.0128 15.4339 29.0211 15.4452C29.0301 15.4576 29.0387 15.4704 29.0468 15.4835C29.056 15.4984 29.0645 15.5138 29.0725 15.5296C29.082 15.5485 29.0906 15.5681 29.0983 15.5883C29.1087 15.6161 29.1173 15.645 29.124 15.6751ZM32.3142 9H32.3247V22.2208C32.3247 22.2998 32.321 22.378 32.3142 22.4552C32.3082 22.5232 32.2996 22.5904 32.2885 22.6568C32.281 22.7014 32.2724 22.7456 32.2628 22.7894C32.2549 22.825 32.2463 22.8605 32.237 22.8956C32.229 22.9259 32.2204 22.9559 32.2113 22.9857C32.2031 23.0127 32.1946 23.0396 32.1856 23.0662C32.1773 23.0904 32.1687 23.1143 32.1599 23.1382C32.1515 23.1604 32.143 23.1824 32.1341 23.2043C32.1258 23.2249 32.1172 23.2453 32.1084 23.2657C32.1 23.2849 32.0914 23.304 32.0827 23.3231C32.0743 23.3412 32.0657 23.3592 32.0569 23.377C32.0485 23.3942 32.04 23.4113 32.0312 23.4282C32.0228 23.4444 32.0142 23.4606 32.0055 23.4766C31.9971 23.492 31.9885 23.5073 31.9798 23.5225C31.9713 23.5372 31.9627 23.5519 31.954 23.5664C31.9456 23.5806 31.937 23.5946 31.9283 23.6087C31.9198 23.6223 31.9113 23.6359 31.9025 23.6494C31.8941 23.6624 31.8854 23.6753 31.8768 23.6882C31.8683 23.7007 31.8598 23.7131 31.8511 23.7255C31.8426 23.7377 31.834 23.7498 31.8254 23.7618C31.8169 23.7735 31.8083 23.7852 31.7996 23.7968C31.7912 23.8081 31.7825 23.8192 31.7739 23.8304C31.7654 23.8414 31.7569 23.8523 31.7482 23.8632C31.7397 23.8738 31.7311 23.8844 31.7224 23.8948C31.7139 23.9051 31.7054 23.9153 31.6967 23.9254C31.6881 23.9354 31.6797 23.9455 31.671 23.9554C31.6625 23.9651 31.6539 23.9746 31.6453 23.9841C31.6367 23.9936 31.6282 24.0029 31.6195 24.0123C31.611 24.0215 31.6024 24.0306 31.5938 24.0396C31.5853 24.0485 31.5767 24.0573 31.5681 24.0661C31.5595 24.0748 31.551 24.0836 31.5423 24.0921C31.5338 24.1005 31.5252 24.1087 31.5166 24.117C31.5081 24.1253 31.4995 24.1335 31.4909 24.1416C31.4823 24.1496 31.4738 24.1575 31.4651 24.1654C31.4566 24.1732 31.448 24.1809 31.4394 24.1886C31.4309 24.1962 31.4223 24.2038 31.4137 24.2113C31.4052 24.2186 31.3966 24.226 31.388 24.2333C31.3794 24.2405 31.3709 24.2477 31.3622 24.2548C31.3538 24.2619 31.3451 24.2688 31.3365 24.2757C31.3279 24.2826 31.3194 24.2895 31.3108 24.2963C31.3023 24.3029 31.2936 24.3095 31.285 24.316C31.2765 24.3226 31.2679 24.3291 31.2593 24.3356C31.2508 24.3419 31.2422 24.3481 31.2336 24.3544C31.225 24.3606 31.2165 24.3669 31.2079 24.373C31.1993 24.3791 31.1907 24.385 31.1821 24.3909C31.1736 24.3969 31.165 24.4028 31.1564 24.4086C31.1478 24.4144 31.1393 24.42 31.1307 24.4256C31.1221 24.4313 31.1136 24.437 31.105 24.4425C31.0964 24.4479 31.0878 24.4533 31.0792 24.4587C31.0707 24.464 31.0621 24.4694 31.0535 24.4746C31.0449 24.4798 31.0364 24.485 31.0278 24.4901L31.002 24.5052C30.9935 24.5101 30.9849 24.5151 30.9763 24.52C30.9678 24.5248 30.9592 24.5295 30.9505 24.5342C30.942 24.539 30.9335 24.5437 30.9248 24.5483C30.9163 24.5529 30.9077 24.5573 30.8991 24.5618C30.8905 24.5663 30.882 24.5709 30.8734 24.5753C30.8648 24.5796 30.8562 24.5838 30.8476 24.588C30.8391 24.5922 30.8305 24.5966 30.8219 24.6007C30.8134 24.6048 30.8048 24.6088 30.7962 24.6128L30.7705 24.6247L30.7447 24.6363C30.7362 24.6401 30.7276 24.6438 30.719 24.6475C30.7104 24.6512 30.7019 24.6549 30.6933 24.6586C30.6848 24.6621 30.6761 24.6655 30.6676 24.669C30.659 24.6724 30.6505 24.676 30.6418 24.6794C30.6333 24.6827 30.6247 24.686 30.6161 24.6892C30.6075 24.6925 30.599 24.6957 30.5904 24.6989L30.5647 24.7084C30.5561 24.7114 30.5474 24.7144 30.5389 24.7173C30.5303 24.7203 30.5218 24.7234 30.5132 24.7263C30.5046 24.7292 30.496 24.7318 30.4874 24.7346L30.4617 24.7429C30.4532 24.7456 30.4446 24.7481 30.436 24.7508L30.4102 24.7583C30.4017 24.7608 30.3931 24.7634 30.3845 24.7658C30.376 24.7682 30.3674 24.7704 30.3588 24.7727C30.3502 24.775 30.3417 24.7774 30.3331 24.7796L30.3073 24.786L30.2816 24.7923L30.2559 24.7983C30.2474 24.8003 30.2387 24.802 30.2302 24.8039C30.2216 24.8058 30.213 24.8077 30.2044 24.8095L30.1787 24.8145L30.153 24.8195C30.1444 24.821 30.1358 24.8227 30.1272 24.8243C30.1187 24.8257 30.1101 24.8271 30.1015 24.8285L30.0758 24.8327L30.0501 24.8366L30.0243 24.8401C30.0157 24.8413 30.0072 24.8426 29.9986 24.8437C29.99 24.8448 29.9814 24.8456 29.9729 24.8466C29.9643 24.8476 29.9557 24.8486 29.9471 24.8496C29.9385 24.8504 29.93 24.8514 29.9214 24.8522C29.9129 24.853 29.9042 24.8537 29.8957 24.8545C29.8871 24.8552 29.8785 24.8561 29.8699 24.8567C29.8614 24.8574 29.8528 24.8579 29.8442 24.8585L29.8185 24.8601C29.8099 24.8606 29.8013 24.8612 29.7928 24.8616C29.7842 24.8621 29.7756 24.8623 29.767 24.8626L29.7413 24.8636L29.7156 24.8643C29.707 24.8645 29.6984 24.8645 29.6898 24.8646L29.6641 24.8649L29.6588 24.865H29.6384H29.6127H29.5869H29.5612H29.5354H29.5098H29.484H29.4583H29.4325H29.4068H29.3811H29.3553H29.3296H29.3039H29.2782H29.2524H29.2267H29.201H29.1753H29.1495H29.1238H29.0981H29.0724H29.0466H29.0209H28.9951H28.9695H28.9437H28.9179H28.8922H28.8665H28.8408H28.815H28.7893H28.7636H28.7379H28.7121H28.6864H28.6607H28.635H28.6092H28.5835H28.5578H28.532H28.5063H28.4805H28.4549H28.4291H28.4034H28.3776H28.3519H28.3262H28.3005H28.2747H28.249H28.2233H28.1976H28.1718H28.1461H28.1204H28.0947H28.0689H28.0432H28.0175H27.9917H27.966H27.9402H27.9145H27.8888H27.8631H27.8373H27.8116H27.7859H27.7602H27.7344H27.7087H27.683H27.6572H27.6315H27.6058H27.5801H27.5543H27.5286H27.5029H27.4771H27.4514H27.4257H27.4H27.3742H27.3485H27.3228H27.297H27.2713H27.2456H27.2198H27.1941H27.1684H27.1427H27.1169H27.0912H27.0655H27.0398H27.014H26.9883H26.9626H26.9368H26.9111H26.8853H26.8596H26.8339H26.8082H26.7824H26.7567H26.731H26.7053H26.6795H26.6538H26.6281H26.6024H26.5766H26.5509H26.5252H26.4995H26.4737H26.448H26.4222H26.3965H26.3708H26.345H26.3193H26.2936H26.2679H26.2421H26.2164H26.1907H26.165H26.1392H26.1135H26.0878H26.0621H26.0363H26.0106H25.9849H25.9591H25.9334H25.9076H25.8819H25.8562H25.8305H25.8047H25.7492V19.4744H25.8047H25.8305H25.8562H25.8819H25.9076H25.9334H25.9591H25.9849H26.0106H26.0363H26.0621H26.0878H26.1135H26.1392H26.165H26.1907H26.2164H26.2421H26.2679H26.2936H26.3193H26.345H26.3708H26.3965H26.4222H26.448H26.4737H26.4995H26.5252H26.5509H26.5766H26.6024H26.6281H26.6538H26.6795H26.7053H26.731H26.7567H26.7824H26.8082H26.8339H26.8596H26.8853H26.9111H26.9368H26.9626H26.9883H27.014H27.0398H27.0655H27.0912H27.1169H27.1427H27.1684H27.1941H27.2198H27.2456H27.2713H27.297H27.3228H27.3485H27.3742H27.4H27.4257H27.4514H27.4771H27.5029H27.5286H27.5543H27.5801H27.6058H27.6315H27.6572H27.683H27.7087H27.7344H27.7602H27.7859H27.8116H27.8373H27.8631H27.8888H27.9145H27.9402H27.966H27.9917H28.0175H28.0432H28.0689H28.0947H28.1204H28.1461H28.1718H28.1976H28.2233H28.249H28.2747H28.3005H28.3262H28.3519H28.3776H28.4034H28.4291H28.4549H28.4805H28.5063H28.532H28.5578H28.5835H28.6092H28.635H28.6607H28.6864H28.7121H28.7379H28.7636H28.7893H28.815H28.8408H28.8665H28.8922H28.9179H28.9437H28.9695H28.9951H29.0209H29.0466H29.0724H29.0981H29.1238H29.1495H29.1753H29.201H29.2267H29.2524H29.2782H29.3039H29.3296H29.3553H29.3811H29.4068H29.4325H29.4583H29.484H29.5098H29.5354H29.5612H29.5869H29.6127H29.6384H29.6641H29.6898H29.7156H29.7413H29.767H29.7928H29.8185H29.8442H29.8699H29.8836L29.8957 19.4743L29.9214 19.4741L29.9471 19.4735C29.9557 19.4734 29.9643 19.4732 29.9729 19.4729C29.9815 19.4726 29.99 19.4722 29.9986 19.4718L30.0243 19.4706L30.0501 19.4691L30.0758 19.4673L30.1015 19.4654L30.1272 19.463C30.1358 19.4622 30.1444 19.4614 30.153 19.4605C30.1616 19.4596 30.1701 19.4586 30.1787 19.4576L30.2044 19.4545C30.213 19.4534 30.2216 19.4524 30.2302 19.4512C30.2388 19.45 30.2473 19.4487 30.2559 19.4474C30.2645 19.4462 30.2731 19.4448 30.2816 19.4435L30.3073 19.4392L30.3331 19.4346C30.3416 19.433 30.3503 19.4315 30.3588 19.4298C30.3674 19.4281 30.376 19.4263 30.3845 19.4245L30.4102 19.419C30.4189 19.4171 30.4274 19.4152 30.436 19.4132C30.4446 19.4112 30.4532 19.4091 30.4617 19.4069C30.4703 19.4048 30.4789 19.4027 30.4874 19.4004C30.496 19.3982 30.5046 19.396 30.5132 19.3936C30.5218 19.3913 30.5304 19.3888 30.5389 19.3863C30.5475 19.3838 30.5561 19.3813 30.5647 19.3787L30.5904 19.3707C30.599 19.368 30.6075 19.3651 30.6161 19.3623C30.6247 19.3595 30.6333 19.3566 30.6418 19.3536C30.6505 19.3506 30.659 19.3476 30.6676 19.3444C30.6762 19.3413 30.6847 19.338 30.6933 19.3348C30.7019 19.3314 30.7105 19.3281 30.719 19.3247C30.7276 19.3212 30.7362 19.3178 30.7447 19.3143C30.7534 19.3107 30.7619 19.307 30.7705 19.3033C30.7791 19.2995 30.7877 19.2957 30.7962 19.2918C30.8048 19.2879 30.8134 19.2839 30.8219 19.2798C30.8305 19.2757 30.8391 19.2716 30.8476 19.2674C30.8563 19.2631 30.8648 19.2588 30.8734 19.2544C30.882 19.2499 30.8906 19.2453 30.8991 19.2407C30.9078 19.236 30.9164 19.2313 30.9248 19.2265C30.9335 19.2216 30.9421 19.2167 30.9505 19.2117C30.9592 19.2066 30.9678 19.2015 30.9763 19.1963C30.985 19.1909 30.9935 19.1855 31.002 19.18C31.0107 19.1744 31.0193 19.1688 31.0278 19.1631C31.0364 19.1572 31.045 19.1513 31.0535 19.1453C31.0621 19.1392 31.0707 19.133 31.0792 19.1268C31.0879 19.1204 31.0965 19.1139 31.105 19.1073C31.1136 19.1006 31.1222 19.0938 31.1307 19.087C31.1394 19.0799 31.1479 19.0728 31.1564 19.0656C31.1651 19.0582 31.1737 19.0506 31.1821 19.0431C31.1908 19.0352 31.1994 19.0273 31.2079 19.0193C31.2166 19.0111 31.2251 19.0027 31.2336 18.9943C31.2423 18.9855 31.2509 18.9767 31.2593 18.9677C31.2681 18.9584 31.2766 18.949 31.285 18.9395C31.2938 18.9297 31.3024 18.9196 31.3108 18.9095C31.3196 18.899 31.3281 18.8883 31.3365 18.8774C31.3453 18.8661 31.3539 18.8547 31.3622 18.8431C31.3711 18.8308 31.3796 18.8182 31.388 18.8056C31.3968 18.7922 31.4054 18.7786 31.4137 18.7648C31.4226 18.7501 31.4312 18.735 31.4394 18.7199C31.4484 18.7034 31.457 18.6867 31.4651 18.6697C31.4743 18.6507 31.4828 18.6314 31.4909 18.6118C31.5001 18.5894 31.5087 18.5667 31.5166 18.5435C31.5263 18.515 31.5348 18.486 31.5423 18.4564C31.5533 18.4131 31.5619 18.3687 31.5681 18.3233C31.5755 18.268 31.5794 18.2113 31.5794 18.1531C31.5794 18.0963 31.5756 18.0412 31.5681 17.9877C31.5619 17.9436 31.5533 17.9008 31.5423 17.859C31.5348 17.8306 31.5263 17.8027 31.5166 17.7754C31.5087 17.7529 31.5001 17.7308 31.4909 17.709C31.4828 17.6903 31.4743 17.6717 31.4651 17.6535C31.457 17.6371 31.4484 17.6209 31.4394 17.6049C31.4312 17.5903 31.4226 17.5758 31.4137 17.5615C31.4054 17.5482 31.3968 17.5351 31.388 17.5222C31.3796 17.5101 31.3711 17.4979 31.3622 17.4861C31.3539 17.4749 31.3453 17.4639 31.3365 17.4529C31.3281 17.4425 31.3196 17.4322 31.3108 17.422C31.3024 17.4122 31.2938 17.4025 31.285 17.393C31.2766 17.3838 31.2681 17.3748 31.2593 17.3658C31.2509 17.3572 31.2423 17.3487 31.2336 17.3403C31.2251 17.3321 31.2166 17.324 31.2079 17.3161C31.1994 17.3084 31.1908 17.3008 31.1821 17.2932C31.1737 17.2858 31.1651 17.2786 31.1564 17.2715C31.1479 17.2645 31.1394 17.2576 31.1307 17.2508C31.1222 17.2441 31.1136 17.2376 31.105 17.2311C31.0964 17.2247 31.0879 17.2185 31.0792 17.2123C31.0707 17.2063 31.0621 17.2003 31.0535 17.1944C31.045 17.1886 31.0364 17.1828 31.0278 17.1772C31.0193 17.1716 31.0107 17.1662 31.002 17.1608C30.9935 17.1555 30.985 17.1503 30.9763 17.1451C30.9678 17.1401 30.9592 17.135 30.9505 17.1301C30.9421 17.1253 30.9335 17.1205 30.9248 17.1158C30.9164 17.1111 30.9078 17.1065 30.8991 17.1021C30.8906 17.0976 30.882 17.0932 30.8734 17.0888C30.8648 17.0846 30.8563 17.0803 30.8476 17.0762C30.8391 17.072 30.8305 17.068 30.8219 17.064C30.8134 17.06 30.8048 17.0562 30.7962 17.0524C30.7877 17.0486 30.7791 17.0449 30.7705 17.0413C30.7619 17.0377 30.7534 17.0341 30.7447 17.0306C30.7362 17.0271 30.7276 17.0236 30.719 17.0203C30.7105 17.017 30.7019 17.0137 30.6933 17.0105C30.6848 17.0073 30.6761 17.0042 30.6676 17.0011C30.659 16.9981 30.6505 16.9951 30.6418 16.9922C30.6333 16.9893 30.6247 16.9864 30.6161 16.9835C30.6075 16.9807 30.599 16.978 30.5904 16.9753C30.5819 16.9727 30.5732 16.97 30.5647 16.9675L30.5389 16.96C30.5304 16.9576 30.5218 16.9551 30.5132 16.9528C30.5046 16.9505 30.496 16.9483 30.4874 16.9461C30.4789 16.9439 30.4703 16.9418 30.4617 16.9397C30.4532 16.9376 30.4446 16.9355 30.436 16.9335C30.4274 16.9315 30.4189 16.9296 30.4102 16.9277C30.4017 16.9258 30.3931 16.924 30.3845 16.9222C30.376 16.9205 30.3674 16.9187 30.3588 16.9171L30.3331 16.9121L30.3073 16.9076C30.2988 16.9061 30.2902 16.9047 30.2816 16.9032L30.2559 16.8992C30.2474 16.8979 30.2387 16.8967 30.2302 16.8955L30.2044 16.8921L30.1787 16.8889L30.153 16.886L30.1272 16.8833L30.1015 16.8809L30.0758 16.8788L30.052 16.877L30.052 16.8464L30.0758 16.8427L30.1015 16.8385C30.1101 16.837 30.1187 16.8356 30.1272 16.834L30.153 16.8291C30.1616 16.8274 30.1702 16.8257 30.1787 16.8239L30.2044 16.8184C30.213 16.8164 30.2216 16.8145 30.2302 16.8125C30.2388 16.8104 30.2474 16.8082 30.2559 16.8061C30.2645 16.8039 30.2731 16.8016 30.2816 16.7993C30.2902 16.7969 30.2988 16.7946 30.3073 16.7922C30.316 16.7897 30.3245 16.7872 30.3331 16.7846C30.3417 16.7821 30.3503 16.7794 30.3588 16.7767C30.3674 16.7739 30.376 16.7712 30.3845 16.7683C30.3932 16.7654 30.4017 16.7624 30.4102 16.7594C30.4189 16.7564 30.4274 16.7532 30.436 16.7501C30.4446 16.7469 30.4532 16.7436 30.4617 16.7403C30.4704 16.7369 30.479 16.7335 30.4874 16.73C30.4961 16.7264 30.5047 16.7228 30.5132 16.7192C30.5218 16.7154 30.5304 16.7116 30.5389 16.7077C30.5476 16.7038 30.5561 16.6998 30.5647 16.6957C30.5733 16.6916 30.5819 16.6874 30.5904 16.6832C30.599 16.6788 30.6076 16.6744 30.6161 16.6699C30.6247 16.6654 30.6334 16.6608 30.6418 16.6561C30.6505 16.6513 30.659 16.6465 30.6676 16.6416C30.6762 16.6366 30.6848 16.6314 30.6933 16.6263C30.702 16.6211 30.7105 16.6157 30.719 16.6103C30.7277 16.6048 30.7363 16.5991 30.7447 16.5934C30.7534 16.5876 30.762 16.5817 30.7705 16.5757C30.7791 16.5696 30.7877 16.5634 30.7962 16.5571C30.8049 16.5507 30.8134 16.5442 30.8219 16.5375C30.8306 16.5307 30.8392 16.5238 30.8476 16.5169C30.8563 16.5097 30.8649 16.5024 30.8734 16.4951C30.8821 16.4874 30.8907 16.4796 30.8991 16.4719C30.9078 16.4638 30.9164 16.4557 30.9248 16.4474C30.9336 16.4388 30.9421 16.4302 30.9505 16.4215C30.9593 16.4124 30.9679 16.4031 30.9763 16.3938C30.9851 16.3841 30.9936 16.3742 31.002 16.3642C31.0108 16.3537 31.0194 16.3432 31.0278 16.3325C31.0366 16.3212 31.0452 16.3098 31.0535 16.2983C31.0623 16.286 31.0709 16.2736 31.0792 16.2611C31.0881 16.2477 31.0967 16.2342 31.105 16.2205C31.1139 16.2057 31.1224 16.1907 31.1307 16.1756C31.1397 16.1589 31.1483 16.142 31.1564 16.1249C31.1655 16.1057 31.1741 16.0862 31.1821 16.0666C31.1915 16.0436 31.2001 16.0204 31.2079 15.9969C31.2176 15.9673 31.2263 15.9372 31.2336 15.9067C31.2454 15.8573 31.254 15.8068 31.2593 15.7555C31.2635 15.7151 31.2657 15.674 31.2657 15.6326C31.2657 15.5888 31.2635 15.5461 31.2593 15.5046C31.254 15.4514 31.2454 15.4 31.2336 15.3504C31.2262 15.3194 31.2176 15.2892 31.2079 15.2596C31.2 15.236 31.1914 15.2129 31.1821 15.1902C31.1741 15.1706 31.1655 15.1513 31.1564 15.1325C31.1482 15.1157 31.1396 15.0991 31.1307 15.0828C31.1224 15.0679 31.1139 15.0532 31.105 15.0388C31.0967 15.0253 31.0881 15.012 31.0792 14.999C31.0709 14.9868 31.0623 14.9748 31.0535 14.9629C31.0452 14.9517 31.0366 14.9407 31.0278 14.9298C31.0194 14.9194 31.0108 14.9091 31.002 14.899C30.9936 14.8893 30.9851 14.8799 30.9763 14.8705C30.9679 14.8615 30.9593 14.8526 30.9505 14.8438C30.9421 14.8353 30.9336 14.827 30.9248 14.8188C30.9164 14.8108 30.9078 14.803 30.8991 14.7952C30.8907 14.7877 30.8821 14.7803 30.8734 14.773C30.8649 14.7658 30.8563 14.7588 30.8476 14.7519C30.8392 14.7452 30.8306 14.7385 30.8219 14.7319C30.8134 14.7256 30.8049 14.7193 30.7962 14.7131C30.7877 14.707 30.7791 14.7011 30.7705 14.6952C30.7619 14.6894 30.7534 14.6838 30.7447 14.6781C30.7363 14.6726 30.7276 14.6672 30.719 14.6619C30.7105 14.6567 30.7019 14.6515 30.6933 14.6465C30.6848 14.6414 30.6762 14.6366 30.6676 14.6317C30.659 14.627 30.6505 14.6223 30.6418 14.6176C30.6333 14.6131 30.6247 14.6087 30.6161 14.6042C30.6076 14.5999 30.599 14.5956 30.5904 14.5914C30.5819 14.5873 30.5733 14.5832 30.5647 14.5791C30.5561 14.5752 30.5475 14.5713 30.5389 14.5675C30.5304 14.5637 30.5218 14.5601 30.5132 14.5564C30.5047 14.5528 30.496 14.5493 30.4874 14.5458C30.479 14.5424 30.4703 14.539 30.4617 14.5356C30.4532 14.5324 30.4446 14.5291 30.436 14.526C30.4274 14.5228 30.4189 14.5197 30.4102 14.5167C30.4017 14.5137 30.3931 14.5108 30.3845 14.508C30.376 14.5051 30.3674 14.5024 30.3588 14.4996C30.3503 14.4969 30.3417 14.4942 30.3331 14.4917C30.3245 14.4891 30.316 14.4865 30.3073 14.484C30.2988 14.4816 30.2902 14.4792 30.2816 14.4769C30.2731 14.4746 30.2645 14.4723 30.2559 14.4702L30.2302 14.4637C30.2216 14.4615 30.2131 14.4595 30.2044 14.4575C30.1959 14.4555 30.1873 14.4536 30.1787 14.4517L30.153 14.4463C30.1444 14.4446 30.1359 14.4428 30.1272 14.4411C30.1187 14.4395 30.1101 14.438 30.1015 14.4364L30.0758 14.4319C30.0672 14.4305 30.0587 14.429 30.0501 14.4277L30.0243 14.4238L29.9986 14.4202L29.9729 14.4168L29.9471 14.4138L29.9214 14.4111L29.8957 14.4085L29.8699 14.4062L29.8442 14.4043L29.8185 14.4025L29.7928 14.401L29.7825 14.4004L29.767 14.3995L29.7413 14.398L29.7156 14.3966L29.6898 14.3952L29.6641 14.394L29.6384 14.3929L29.6127 14.392L29.5869 14.3912L29.5612 14.3906L29.5354 14.3903L29.5213 14.3902H29.5098H29.484H29.4583H29.4325H29.4068H29.3811H29.3553H29.3296H29.3039H29.2782H29.2524H29.2267H29.201H29.1753H29.1495H29.1238H29.0981H29.0724H29.0466H29.0209H28.9951H28.9695H28.9437H28.9179H28.8922H28.8665H28.8408H28.815H28.7893H28.7636H28.7379H28.7121H28.6864H28.6607H28.635H28.6092H28.5835H28.5578H28.532H28.5063H28.4805H28.4549H28.4291H28.4034H28.3776H28.3519H28.3262H28.3005H28.2747H28.249H28.2233H28.1976H28.1718H28.1461H28.1204H28.0947H28.0689H28.0432H28.0175H27.9917H27.966H27.9402H27.9145H27.8888H27.8631H27.8373H27.8116H27.7859H27.7602H27.7344H27.7087H27.683H27.6572H27.6315H27.6058H27.5801H27.5543H27.5286H27.5029H27.4771H27.4514H27.4257H27.4H27.3742H27.3485H27.3228H27.297H27.2713H27.2456H27.2198H27.1941H27.1684H27.1427H27.1169H27.0912H27.0655H27.0398H27.014H26.9883H26.9626H26.9368H26.9111H26.8853H26.8596H26.8339H26.8082H26.7824H26.7567H26.731H26.7053H26.6795H26.6538H26.6281H26.6024H26.5766H26.5509H26.5252H26.4995H26.4737H26.448H26.4222H26.3965H26.3708H26.345H26.3193H26.2936H26.2679H26.2421H26.2164H26.1907H26.165H26.1392H26.1135H26.0878H26.0621H26.0363H26.0106H25.9849H25.9591H25.9334H25.9076H25.8819H25.8562H25.8305H25.8047H25.7492V11.6444C25.7492 11.4597 25.7684 11.2794 25.8047 11.1053C25.8125 11.0681 25.8211 11.0311 25.8305 10.9945C25.8385 10.9631 25.8471 10.932 25.8562 10.9011C25.8643 10.8735 25.8729 10.846 25.8819 10.8188C25.8902 10.7939 25.8987 10.7692 25.9076 10.7447C25.9159 10.7219 25.9245 10.6993 25.9334 10.6768C25.9417 10.6558 25.9503 10.6349 25.9591 10.6142C25.9675 10.5947 25.976 10.5752 25.9849 10.5559C25.9932 10.5376 26.0018 10.5194 26.0106 10.5012C26.019 10.484 26.0276 10.4668 26.0363 10.4497C26.0447 10.4333 26.0533 10.417 26.0621 10.4008C26.0705 10.3852 26.079 10.3697 26.0878 10.3542C26.0962 10.3392 26.1048 10.3244 26.1135 10.3096C26.122 10.2953 26.1305 10.281 26.1392 10.2668C26.1477 10.2531 26.1563 10.2395 26.165 10.2259C26.1734 10.2128 26.182 10.1998 26.1907 10.1868C26.1991 10.1741 26.2077 10.1615 26.2164 10.1489C26.2249 10.1366 26.2334 10.1244 26.2421 10.1122C26.2506 10.1004 26.2592 10.0888 26.2679 10.0772C26.2763 10.0658 26.285 10.0545 26.2936 10.0432C26.3022 10.0321 26.3106 10.0209 26.3193 10.01C26.3278 9.99932 26.3365 9.98883 26.345 9.97829C26.3536 9.96791 26.3621 9.9576 26.3708 9.94736C26.3793 9.93725 26.3879 9.92714 26.3965 9.91716C26.405 9.90743 26.4136 9.89787 26.4222 9.88826C26.4308 9.87875 26.4393 9.86921 26.448 9.85981C26.4565 9.85061 26.4651 9.8415 26.4737 9.8324C26.4822 9.82343 26.4908 9.81453 26.4995 9.80567C26.508 9.79693 26.5165 9.78819 26.5252 9.77956C26.5336 9.77108 26.5423 9.76272 26.5509 9.75437C26.5594 9.74605 26.5679 9.73766 26.5766 9.72947C26.5851 9.72145 26.5937 9.71363 26.6024 9.70572C26.6109 9.69785 26.6195 9.68996 26.6281 9.6822C26.6366 9.67456 26.6452 9.66707 26.6538 9.65956C26.6623 9.65209 26.6709 9.64463 26.6795 9.63726C26.6881 9.63001 26.6966 9.62286 26.7053 9.61571C26.7138 9.60863 26.7224 9.60156 26.731 9.59458C26.7395 9.58766 26.7481 9.58083 26.7567 9.57404L26.7824 9.55397L26.8082 9.53443C26.8167 9.52801 26.8253 9.52164 26.8339 9.51534C26.8425 9.5091 26.851 9.50288 26.8596 9.49673L26.8853 9.4786C26.8939 9.47265 26.9025 9.46676 26.9111 9.46092L26.9368 9.44363L26.9626 9.42682C26.9711 9.4213 26.9797 9.4158 26.9883 9.41038L27.014 9.39443C27.0226 9.38917 27.0311 9.3839 27.0398 9.37874C27.0483 9.37362 27.0569 9.36865 27.0655 9.36364C27.0741 9.35862 27.0826 9.35357 27.0912 9.34866C27.0997 9.34382 27.1084 9.33914 27.1169 9.33438C27.1255 9.32962 27.134 9.32478 27.1427 9.32013C27.1512 9.31553 27.1598 9.31109 27.1684 9.30659C27.177 9.30208 27.1855 9.29756 27.1941 9.29313C27.2026 9.28876 27.2113 9.2845 27.2198 9.28023C27.2284 9.27598 27.237 9.27171 27.2456 9.26754L27.2713 9.25521C27.2799 9.25117 27.2884 9.24724 27.297 9.24328C27.3056 9.23934 27.3141 9.23534 27.3228 9.23149C27.3313 9.22769 27.3399 9.22405 27.3485 9.22033C27.3571 9.2166 27.3656 9.21282 27.3742 9.20918C27.3827 9.20558 27.3914 9.20216 27.4 9.19864C27.4085 9.19515 27.4171 9.19162 27.4257 9.18822L27.4514 9.17817L27.4771 9.16846C27.4857 9.16524 27.4943 9.16199 27.5029 9.15888C27.5114 9.15579 27.52 9.15289 27.5286 9.14989C27.5372 9.14689 27.5457 9.14382 27.5543 9.1409C27.5629 9.138 27.5715 9.13527 27.5801 9.13246L27.6058 9.12419C27.6144 9.12148 27.6229 9.11875 27.6315 9.11613C27.64 9.11353 27.6487 9.11107 27.6572 9.10855C27.6658 9.10602 27.6743 9.1034 27.683 9.10096C27.6915 9.09855 27.7001 9.09631 27.7087 9.09398C27.7173 9.09165 27.7258 9.0893 27.7344 9.08707L27.7602 9.08047C27.7687 9.07833 27.7773 9.0763 27.7859 9.07425C27.7945 9.07219 27.803 9.07 27.8116 9.06802C27.8201 9.06608 27.8288 9.06431 27.8373 9.06242L27.8631 9.05686L27.8888 9.05159C27.8974 9.0499 27.9059 9.04831 27.9145 9.04671C27.9231 9.04508 27.9317 9.04334 27.9402 9.0418C27.9488 9.04026 27.9574 9.03894 27.966 9.0375L27.9917 9.03327C28.0003 9.03192 28.0088 9.03052 28.0175 9.02925C28.026 9.02799 28.0346 9.02686 28.0432 9.02568C28.0518 9.0245 28.0603 9.0232 28.0689 9.02211C28.0774 9.02101 28.0861 9.02003 28.0947 9.01902L28.1204 9.0161C28.129 9.01517 28.1375 9.01413 28.1461 9.01328C28.1546 9.01244 28.1633 9.01178 28.1718 9.01102L28.1976 9.00876L28.2233 9.00683C28.2319 9.00622 28.2404 9.00573 28.249 9.00521C28.2576 9.0047 28.2661 9.00404 28.2747 9.00359C28.2833 9.00315 28.2919 9.0029 28.3005 9.00254L28.3262 9.00158C28.3348 9.00131 28.3433 9.00095 28.3519 9.00076C28.3605 9.00057 28.3691 9.00055 28.3776 9.00042C28.3862 9.0003 28.3948 9.00015 28.4034 9.0001L28.4099 9.00002H28.4291H28.4549H28.4805H28.5063H28.532H28.5578H28.5835H28.6092H28.635H28.6607H28.6864H28.7121H28.7379H28.7636H28.7893H28.815H28.8408H28.8665H28.8922H28.9179H28.9437H28.9695H28.9951H29.0209H29.0466H29.0724H29.0981H29.1238H29.1495H29.1753H29.201H29.2267H29.2524H29.2782H29.3039H29.3296H29.3553H29.3811H29.4068H29.4325H29.4583H29.484H29.5098H29.5354H29.5612H29.5869H29.6127H29.6384H29.6641H29.6898H29.7156H29.7413H29.767H29.7928H29.8185H29.8442H29.8699H29.8957H29.9214H29.9471H29.9729H29.9986H30.0243H30.0501H30.0758H30.1015H30.1272H30.153H30.1787H30.2044H30.2302H30.2559H30.2816H30.3073H30.3331H30.3588H30.3845H30.4102H30.436H30.4617H30.4874H30.5132H30.5389H30.5647H30.5904H30.6161H30.6418H30.6676H30.6933H30.719H30.7447H30.7705H30.7962H30.8219H30.8476H30.8734H30.8991H30.9248H30.9505H30.9763H31.002H31.0278H31.0535H31.0792H31.105H31.1307H31.1564H31.1821H31.2079H31.2336H31.2593H31.285H31.3108H31.3365H31.3622H31.388H31.4137H31.4394H31.4651H31.4909H31.5166H31.5423H31.5681H31.5938H31.6195H31.6453H31.671H31.6967H31.7224H31.7482H31.7739H31.7996H31.8254H31.8511H31.8768H31.9025H31.9283H31.954H31.9798H32.0055H32.0312H32.0569H32.0827H32.1084H32.1341H32.1599H32.1856H32.2113H32.237H32.2628H32.2885L32.3142 9Z" fill="#54B230"/>
<path fill-rule="evenodd" clip-rule="evenodd" d="M11 18.1746V11.6444C11 11.4602 11.019 11.2804 11.0552 11.1068C11.0629 11.0695 11.0715 11.0326 11.0809 10.9959C11.0888 10.9645 11.0974 10.9333 11.1065 10.9024C11.1147 10.8748 11.1232 10.8474 11.1322 10.8202C11.1404 10.7953 11.149 10.7705 11.1579 10.746C11.1662 10.7232 11.1747 10.7006 11.1836 10.6782C11.1919 10.6572 11.2005 10.6363 11.2093 10.6155C11.2176 10.596 11.2262 10.5766 11.235 10.5573C11.2433 10.5389 11.2519 10.5207 11.2606 10.5026C11.269 10.4853 11.2776 10.4682 11.2863 10.4511C11.2947 10.4347 11.3033 10.4184 11.312 10.4022C11.3204 10.3865 11.329 10.371 11.3377 10.3556C11.3461 10.3406 11.3547 10.3257 11.3634 10.311C11.3718 10.2966 11.3803 10.2823 11.389 10.2682C11.3975 10.2545 11.4061 10.2409 11.4147 10.2273C11.4231 10.2142 11.4318 10.2012 11.4404 10.1882C11.4489 10.1755 11.4574 10.1629 11.4661 10.1503C11.4746 10.138 11.4831 10.1257 11.4918 10.1136C11.5002 10.1018 11.5089 10.0902 11.5175 10.0786C11.526 10.0672 11.5345 10.0559 11.5432 10.0446C11.5517 10.0335 11.5601 10.0223 11.5688 10.0114C11.5773 10.0007 11.5859 9.99026 11.5945 9.97975C11.603 9.96936 11.6115 9.95902 11.6202 9.94876C11.6287 9.93867 11.6372 9.9286 11.6459 9.91864C11.6544 9.90889 11.663 9.89931 11.6716 9.88968C11.6801 9.88014 11.6886 9.87062 11.6972 9.86123C11.7057 9.85203 11.7143 9.84296 11.7229 9.83388C11.7314 9.82489 11.74 9.81598 11.7486 9.80712C11.7572 9.79839 11.7657 9.78965 11.7743 9.78102C11.7828 9.77254 11.7914 9.76418 11.8 9.75583C11.8085 9.74752 11.817 9.73914 11.8256 9.73095C11.8341 9.72294 11.8428 9.71511 11.8514 9.7072C11.8599 9.69931 11.8684 9.69139 11.877 9.68363C11.8855 9.67602 11.8941 9.66855 11.9027 9.66104C11.9113 9.65357 11.9198 9.64609 11.9284 9.63873C11.9369 9.63147 11.9455 9.62434 11.9541 9.61719C11.9626 9.61011 11.9712 9.60302 11.9798 9.59604C11.9883 9.58914 11.9969 9.58231 12.0055 9.5755C12.014 9.56875 12.0225 9.56207 12.0311 9.55543C12.0397 9.54885 12.0482 9.54236 12.0569 9.53588C12.0654 9.52947 12.0739 9.52309 12.0825 9.51678L12.1082 9.49821C12.1167 9.49209 12.1252 9.48603 12.1339 9.48002C12.1424 9.47407 12.151 9.46819 12.1595 9.46235C12.1681 9.45654 12.1766 9.45076 12.1852 9.44505C12.1937 9.43941 12.2023 9.43384 12.2109 9.42828C12.2195 9.42276 12.228 9.41719 12.2366 9.41176C12.2451 9.40638 12.2537 9.40114 12.2623 9.39585C12.2709 9.39058 12.2794 9.38526 12.288 9.38009C12.2965 9.37499 12.3051 9.37004 12.3136 9.36503C12.3222 9.36002 12.3307 9.35492 12.3394 9.34999C12.3478 9.34515 12.3565 9.34052 12.365 9.33576C12.3736 9.331 12.3821 9.32617 12.3907 9.3215C12.3992 9.31689 12.4078 9.31245 12.4164 9.30794C12.4249 9.30343 12.4335 9.29891 12.442 9.29449C12.4506 9.29011 12.4592 9.28581 12.4678 9.28152L12.4934 9.26887C12.502 9.2647 12.5105 9.26054 12.5191 9.25648C12.5277 9.25244 12.5362 9.24852 12.5448 9.24457C12.5534 9.24061 12.5619 9.23657 12.5705 9.23272C12.579 9.22889 12.5876 9.2253 12.5962 9.22157C12.6047 9.21785 12.6133 9.21406 12.6219 9.21043C12.6304 9.20683 12.6389 9.20336 12.6475 9.19985L12.6732 9.18944L12.6989 9.17933L12.7246 9.16965C12.7332 9.16643 12.7416 9.16311 12.7503 9.15998C12.7588 9.15689 12.7674 9.15401 12.776 9.15101C12.7845 9.14801 12.793 9.14496 12.8017 9.14204L12.8273 9.13351L12.853 9.12525C12.8616 9.12254 12.8701 9.11977 12.8787 9.11714C12.8872 9.11454 12.8958 9.11207 12.9044 9.10955C12.9129 9.10701 12.9214 9.10443 12.9301 9.10198C12.9386 9.09955 12.9472 9.09728 12.9557 9.09493L12.9814 9.08802C12.99 9.08578 12.9985 9.08349 13.0071 9.08133C13.0156 9.07917 13.0242 9.07721 13.0328 9.07514C13.0413 9.07306 13.0499 9.0709 13.0585 9.06892C13.067 9.06695 13.0756 9.06511 13.0842 9.06322L13.1098 9.05768C13.1184 9.05587 13.1269 9.05403 13.1355 9.05231C13.144 9.05062 13.1527 9.04905 13.1612 9.04742C13.1698 9.04579 13.1783 9.0441 13.1869 9.04256C13.1954 9.04101 13.204 9.03962 13.2126 9.03816L13.2382 9.03393C13.2468 9.03258 13.2553 9.03112 13.2639 9.02982C13.2725 9.02853 13.2811 9.02746 13.2896 9.02625C13.2982 9.02507 13.3067 9.0238 13.3153 9.02267L13.341 9.01948L13.3667 9.01658C13.3752 9.01563 13.3838 9.01453 13.3923 9.01367C13.4009 9.0128 13.4095 9.01216 13.418 9.01138L13.4437 9.00914C13.4523 9.00842 13.4608 9.00772 13.4694 9.00711C13.478 9.00649 13.4866 9.00601 13.4951 9.00548C13.5036 9.00495 13.5122 9.00434 13.5208 9.00387C13.5293 9.0034 13.5379 9.00309 13.5465 9.00271L13.5721 9.00174C13.5807 9.00144 13.5892 9.00099 13.5978 9.00078C13.6063 9.00057 13.615 9.00059 13.6235 9.00046C13.6321 9.00034 13.6406 9.00019 13.6492 9.00015L13.6749 9H13.7006H13.7262H13.7519H13.7776H13.8033H13.829H13.8546H13.8803H13.906H13.9317H13.9574H13.9831H14.0087H14.0345H14.0601H14.0858H14.1115H14.1371H14.1629H14.1885H14.2142H14.2399H14.2656H14.2913H14.317H14.3426H14.3683H14.394H14.4197H14.4454H14.4711H14.4968H14.5224H14.5481H14.5738H14.5994H14.6252H14.6508H14.6765H14.7022H14.7279H14.7536H14.7793H14.8049H14.8306H14.8563H14.882H14.9077H14.9333H14.959H14.9847H15.0104H15.0361H15.0618H15.0874H15.1132H15.1388H15.1645H15.1902H15.2159H15.2416H15.2672H15.2929H15.3186H15.3443H15.37H15.3957H15.4213H15.447H15.4727H15.4984H15.5241H15.5497H15.5754H15.6011H15.6268H15.6525H15.6782H15.7038H15.7296H15.7552H15.7809H15.8066H15.8323H15.858H15.8836H15.9093H15.935H15.9607H15.9864H16.012H16.0378H16.0634H16.0891H16.1148H16.1405H16.1662H16.1919H16.2175H16.2432H16.2689H16.2945H16.3203H16.3459H16.3716H16.3973H16.423H16.4487H16.4744H16.5H16.5257H16.5514H16.5771H16.6028H16.6284H16.6541H16.6798H16.7055H16.7312H16.7569H16.7826H16.8083H16.8339H16.8596H16.8853H16.911H16.9367H16.9623H16.988H17.0137H17.0394H17.0651H17.0908H17.1164H17.1421H17.1678H17.1935H17.2192H17.2448H17.2705H17.2962H17.3219H17.3476H17.3733H17.3989H17.4247H17.4503H17.476H17.5017H17.5274H17.5531H17.5749V22.2208C17.5749 22.3359 17.5674 22.4491 17.5531 22.5602C17.5462 22.6138 17.5374 22.6668 17.5274 22.7192C17.5197 22.7591 17.5112 22.7987 17.5017 22.8379C17.4937 22.871 17.4852 22.9038 17.476 22.9364C17.4679 22.965 17.4593 22.9933 17.4503 23.0215C17.4421 23.047 17.4336 23.0723 17.4247 23.0975C17.4164 23.1208 17.4078 23.1439 17.3989 23.1669C17.3907 23.1884 17.3821 23.2097 17.3733 23.2309C17.3649 23.2509 17.3564 23.2707 17.3476 23.2904C17.3392 23.3091 17.3306 23.3277 17.3219 23.3462C17.3136 23.3638 17.305 23.3813 17.2962 23.3987C17.2878 23.4154 17.2793 23.432 17.2705 23.4485C17.2622 23.4644 17.2536 23.4802 17.2448 23.4959C17.2364 23.5111 17.2279 23.5262 17.2192 23.5412C17.2108 23.5556 17.2022 23.5701 17.1935 23.5844C17.1851 23.5982 17.1765 23.6119 17.1678 23.6256C17.1594 23.6389 17.1508 23.6522 17.1421 23.6653C17.1336 23.6782 17.1252 23.6911 17.1164 23.7038C17.108 23.7161 17.0994 23.7284 17.0908 23.7405C17.0823 23.7524 17.0737 23.7642 17.0651 23.776C17.0566 23.7876 17.048 23.7991 17.0394 23.8106C17.0309 23.8217 17.0224 23.8328 17.0137 23.8438C17.0052 23.8546 16.9966 23.8652 16.988 23.8759C16.9795 23.8864 16.971 23.8969 16.9623 23.9073C16.9539 23.9174 16.9452 23.9275 16.9367 23.9374C16.9281 23.9473 16.9196 23.9571 16.911 23.9668C16.9024 23.9764 16.894 23.9861 16.8853 23.9955C16.8769 24.0048 16.8682 24.0139 16.8596 24.023C16.8511 24.0321 16.8426 24.0412 16.8339 24.0501C16.8255 24.0589 16.8168 24.0676 16.8083 24.0762C16.7997 24.0848 16.7912 24.0933 16.7826 24.1018C16.7741 24.1102 16.7655 24.1185 16.7569 24.1267C16.7484 24.1348 16.7398 24.1428 16.7312 24.1508C16.7227 24.1587 16.7141 24.1667 16.7055 24.1745C16.697 24.1821 16.6884 24.1897 16.6798 24.1973C16.6713 24.2048 16.6628 24.2125 16.6541 24.2198C16.6457 24.2272 16.637 24.2342 16.6284 24.2414C16.6199 24.2486 16.6114 24.2558 16.6028 24.2629C16.5943 24.2698 16.5857 24.2766 16.5771 24.2834C16.5685 24.2902 16.5601 24.2971 16.5514 24.3038C16.5429 24.3104 16.5343 24.3168 16.5257 24.3233C16.5172 24.3298 16.5087 24.3363 16.5 24.3427C16.4916 24.349 16.4829 24.3551 16.4744 24.3613C16.4658 24.3674 16.4573 24.3736 16.4487 24.3797C16.4402 24.3857 16.4316 24.3916 16.423 24.3974C16.4144 24.4033 16.4059 24.4092 16.3973 24.415C16.3888 24.4207 16.3802 24.4262 16.3716 24.4318C16.363 24.4373 16.3546 24.4431 16.3459 24.4485C16.3374 24.4539 16.3288 24.4591 16.3203 24.4644C16.3117 24.4697 16.3032 24.4751 16.2945 24.4803C16.2861 24.4855 16.2775 24.4905 16.2689 24.4955C16.2604 24.5005 16.2518 24.5056 16.2432 24.5106C16.2347 24.5154 16.2261 24.5203 16.2175 24.5251C16.209 24.5298 16.2004 24.5346 16.1919 24.5393C16.1833 24.5439 16.1748 24.5485 16.1662 24.5531L16.1405 24.5665C16.1319 24.5709 16.1234 24.5754 16.1148 24.5797C16.1063 24.584 16.0977 24.5882 16.0891 24.5924C16.0805 24.5966 16.072 24.6009 16.0634 24.605C16.0549 24.6091 16.0463 24.6129 16.0378 24.6169C16.0292 24.6209 16.0207 24.6249 16.012 24.6288C16.0035 24.6327 15.995 24.6363 15.9864 24.6401L15.9607 24.6512L15.935 24.662C15.9265 24.6656 15.9179 24.669 15.9093 24.6725C15.9008 24.6759 15.8922 24.6794 15.8836 24.6828C15.8751 24.6861 15.8665 24.6892 15.858 24.6925C15.8494 24.6957 15.8409 24.699 15.8323 24.7021C15.8237 24.7053 15.8151 24.7083 15.8066 24.7113L15.7809 24.7203L15.7552 24.729C15.7467 24.7319 15.7381 24.7345 15.7296 24.7373C15.721 24.74 15.7125 24.7429 15.7038 24.7456C15.6954 24.7482 15.6867 24.7506 15.6782 24.7532L15.6525 24.7607L15.6268 24.768C15.6183 24.7704 15.6097 24.7727 15.6011 24.7749C15.5926 24.7772 15.584 24.7796 15.5754 24.7818C15.5669 24.784 15.5583 24.7859 15.5497 24.788C15.5412 24.7901 15.5326 24.7922 15.5241 24.7942L15.4984 24.8001L15.4727 24.8056C15.4641 24.8075 15.4556 24.8095 15.447 24.8112C15.4385 24.813 15.4299 24.8144 15.4213 24.8161C15.4128 24.8177 15.4042 24.8194 15.3957 24.8209L15.37 24.8255C15.3615 24.8271 15.3529 24.8284 15.3443 24.8298C15.3357 24.8312 15.3272 24.8327 15.3186 24.834C15.3101 24.8353 15.3015 24.8364 15.2929 24.8377L15.2672 24.8412C15.2587 24.8423 15.2501 24.8435 15.2416 24.8446C15.233 24.8456 15.2244 24.8465 15.2159 24.8475C15.2073 24.8485 15.1987 24.8495 15.1902 24.8504C15.1817 24.8513 15.1731 24.8521 15.1645 24.8528L15.1388 24.8551C15.1303 24.8558 15.1217 24.8567 15.1132 24.8574C15.1046 24.858 15.096 24.8584 15.0874 24.859L15.0618 24.8606L15.0361 24.862C15.0276 24.8623 15.0189 24.8626 15.0104 24.8629C15.0018 24.8632 14.9933 24.8637 14.9847 24.8639C14.9762 24.8641 14.9676 24.8642 14.959 24.8644L14.9333 24.8647C14.9254 24.8647 14.9175 24.865 14.9095 24.865H14.882H14.8563H14.8306H14.8049H14.7793H14.7536H14.7279H14.7022H14.6765H14.6508H14.6252H14.5994H14.5738H14.5481H14.5224H14.4968H14.4711H14.4454H14.4197H14.394H14.3683H14.3426H14.317H14.2913H14.2656H14.2399H14.2142H14.1885H14.1629H14.1371H14.1115H14.0858H14.0601H14.0345H14.0087H13.9831H13.9574H13.9317H13.906H13.8803H13.8546H13.829H13.8033H13.7776H13.7519H13.7262H13.7006H13.6749H13.6492H13.6235H13.5978H13.5721H13.5465H13.5208H13.4951H13.4694H13.4437H13.418H13.3923H13.3667H13.341H13.3153H13.2896H13.2639H13.2382H13.2126H13.1869H13.1612H13.1355H13.1098H13.0842H13.0585H13.0328H13.0071H12.9814H12.9557H12.9301H12.9044H12.8787H12.853H12.8273H12.8017H12.776H12.7503H12.7246H12.6989H12.6732H12.6475H12.6219H12.5962H12.5705H12.5448H12.5191H12.4934H12.4678H12.442H12.4164H12.3907H12.365H12.3394H12.3136H12.288H12.2623H12.2366H12.2109H12.1852H12.1595H12.1339H12.1082H12.0825H12.0569H12.0311H12.0055H11.9798H11.9541H11.9284H11.9027H11.877H11.8514H11.8256H11.8H11.7743H11.7486H11.7229H11.6972H11.6716H11.6459H11.6202H11.5945H11.5688H11.5432H11.5175H11.4918H11.4661H11.4404H11.4147H11.389H11.3634H11.3377H11.312H11.2863H11.2606H11.235H11.2093H11.1836H11.1579H11.1322H11.1065H11.0809H11.0552H11V19.2926C11 19.2926 11.019 19.2977 11.0552 19.3068L11.0809 19.3132L11.1065 19.3194L11.1322 19.3255L11.1579 19.3315L11.1836 19.3374L11.2093 19.3432L11.235 19.349L11.2606 19.3547L11.2863 19.3603L11.312 19.3658L11.3377 19.3712L11.3634 19.3766L11.389 19.3819L11.4147 19.3871L11.4404 19.3923L11.4661 19.3974L11.4918 19.4024L11.5175 19.4074L11.5432 19.4123L11.5688 19.4171L11.5945 19.4219L11.6202 19.4266L11.6459 19.4312L11.6716 19.4358L11.6972 19.4404L11.7229 19.4448L11.7486 19.4493L11.7743 19.4536L11.8 19.4579L11.8256 19.4622L11.8514 19.4663L11.877 19.4705L11.9027 19.4745L11.9284 19.4785L11.9541 19.4825L11.9798 19.4864L12.0055 19.4902L12.0311 19.494L12.0569 19.4977L12.0825 19.5014L12.1082 19.505L12.1339 19.5086L12.1595 19.5121L12.1852 19.5156L12.2109 19.519L12.2366 19.5223L12.2623 19.5256L12.288 19.5288L12.3136 19.532L12.3394 19.5351L12.365 19.5382L12.3907 19.5412L12.4164 19.5441L12.442 19.547L12.4678 19.5499L12.4934 19.5527L12.5191 19.5554L12.5448 19.5581L12.5705 19.5607L12.5962 19.5634L12.6219 19.5658L12.6475 19.5683L12.6732 19.5707L12.6989 19.5731L12.7246 19.5754L12.7503 19.5776L12.776 19.5798L12.8017 19.582L12.8273 19.584L12.853 19.5861L12.8787 19.588L12.9044 19.59L12.9301 19.5918L12.9557 19.5936L12.9814 19.5954L13.0071 19.597L13.0328 19.5987L13.0585 19.6003L13.0842 19.6018L13.1098 19.6033L13.1355 19.6047L13.1612 19.606L13.1869 19.6073L13.2126 19.6085L13.2382 19.6097L13.2639 19.6108L13.2896 19.6119L13.3153 19.613L13.341 19.6138L13.3667 19.6147L13.3923 19.6156L13.418 19.6163L13.4437 19.6171L13.4694 19.6177L13.4951 19.6183L13.5208 19.6189L13.5465 19.6193L13.5721 19.6197L13.5978 19.6201L13.6235 19.6203L13.6492 19.6206L13.6749 19.6208L13.7006 19.6209L13.7262 19.621L13.7519 19.6209L13.7776 19.6208L13.8033 19.6206L13.829 19.6204L13.8546 19.6203L13.8803 19.6198L13.906 19.6194L13.9317 19.6189L13.9574 19.6185L13.9831 19.6178L14.0087 19.617L14.0345 19.6162L14.0601 19.6155L14.0858 19.6146L14.1115 19.6135L14.1371 19.6124L14.1629 19.6112L14.1885 19.6101L14.2142 19.6087L14.2399 19.6072L14.2656 19.6058L14.2913 19.6043L14.317 19.6026L14.3426 19.6007L14.3683 19.5989L14.394 19.5971L14.4197 19.595L14.4454 19.5929L14.4711 19.5906L14.4968 19.5884L14.5224 19.586L14.5481 19.5834L14.5738 19.5808L14.5994 19.5782L14.6252 19.5754L14.6508 19.5724L14.6765 19.5694L14.7022 19.5664L14.7279 19.5631L14.7536 19.5597L14.7793 19.5563L14.8049 19.5528C14.8136 19.5516 14.822 19.5503 14.8306 19.549L14.8563 19.5452L14.882 19.5414L14.9077 19.5373C14.9163 19.5359 14.9248 19.5344 14.9333 19.533L14.959 19.5287C14.9675 19.5273 14.9763 19.5259 14.9847 19.5244C14.9934 19.5229 15.0018 19.5213 15.0104 19.5197L15.0361 19.515L15.0618 19.5102L15.0874 19.5052C15.0961 19.5035 15.1046 19.5017 15.1132 19.5L15.1388 19.4947L15.1645 19.4894C15.1732 19.4876 15.1816 19.4855 15.1902 19.4837L15.2159 19.4779C15.2244 19.476 15.2331 19.4741 15.2416 19.4722C15.2503 19.4701 15.2587 19.468 15.2672 19.4659L15.2929 19.4596C15.3014 19.4576 15.3102 19.4555 15.3186 19.4534C15.3273 19.4512 15.3357 19.4489 15.3443 19.4467L15.37 19.4399C15.3785 19.4376 15.3872 19.4354 15.3957 19.4331C15.4043 19.4307 15.4128 19.4283 15.4213 19.4259L15.447 19.4185C15.4556 19.416 15.4643 19.4136 15.4727 19.4111L15.4984 19.4033L15.5241 19.3953C15.5326 19.3926 15.5413 19.39 15.5497 19.3873L15.5754 19.3788L15.6011 19.3702C15.6097 19.3673 15.6184 19.3645 15.6268 19.3615C15.6355 19.3585 15.6439 19.3554 15.6525 19.3523L15.6782 19.343C15.6867 19.3399 15.6954 19.3367 15.7038 19.3336C15.7125 19.3303 15.721 19.3269 15.7296 19.3236C15.7381 19.3203 15.7468 19.317 15.7552 19.3136L15.7809 19.3033L15.8066 19.2926C15.8151 19.289 15.8238 19.2855 15.8323 19.2819C15.841 19.2781 15.8494 19.2742 15.858 19.2704L15.8836 19.259L15.9093 19.2471C15.9179 19.2431 15.9265 19.239 15.935 19.2349C15.9436 19.2307 15.9522 19.2267 15.9607 19.2225C15.9694 19.2182 15.9778 19.2137 15.9864 19.2094C15.995 19.2051 16.0036 19.2007 16.012 19.1963C16.0207 19.1918 16.0292 19.1871 16.0378 19.1826C16.0464 19.1779 16.0549 19.1733 16.0634 19.1686C16.0721 19.1638 16.0806 19.159 16.0891 19.1541C16.0977 19.1492 16.1063 19.1442 16.1148 19.1392C16.1234 19.1341 16.132 19.129 16.1405 19.1239C16.1491 19.1186 16.1576 19.1133 16.1662 19.108C16.1748 19.1026 16.1834 19.0973 16.1919 19.0919C16.2005 19.0863 16.209 19.0805 16.2175 19.0749C16.2261 19.0692 16.2348 19.0635 16.2432 19.0577C16.2519 19.0517 16.2604 19.0456 16.2689 19.0396C16.2775 19.0335 16.2861 19.0274 16.2945 19.0212C16.3033 19.0149 16.3118 19.0084 16.3203 19.0019C16.3289 18.9954 16.3375 18.9888 16.3459 18.9822C16.3546 18.9754 16.3632 18.9685 16.3716 18.9617C16.3803 18.9546 16.3888 18.9475 16.3973 18.9404C16.4059 18.933 16.4146 18.9258 16.423 18.9185C16.4317 18.9108 16.4402 18.9031 16.4487 18.8954C16.4573 18.8875 16.4659 18.8797 16.4744 18.8718C16.4831 18.8636 16.4916 18.8553 16.5 18.8469C16.5087 18.8384 16.5173 18.8298 16.5257 18.8211C16.5344 18.8122 16.543 18.8034 16.5514 18.7945C16.5602 18.7851 16.5686 18.7756 16.5771 18.7661C16.5858 18.7564 16.5944 18.7466 16.6028 18.7367C16.6115 18.7265 16.6201 18.7163 16.6284 18.706C16.6372 18.6952 16.6458 18.6845 16.6541 18.6737C16.6629 18.6623 16.6714 18.6509 16.6798 18.6394C16.6886 18.6274 16.6971 18.6153 16.7055 18.6032C16.7143 18.5905 16.7228 18.5778 16.7312 18.5649C16.74 18.5515 16.7485 18.5379 16.7569 18.5243C16.7657 18.5098 16.7742 18.4953 16.7826 18.4807C16.7914 18.4652 16.8 18.4496 16.8083 18.4339C16.8171 18.417 16.8257 18.4001 16.8339 18.383C16.8428 18.3646 16.8514 18.3461 16.8596 18.3275C16.8686 18.3072 16.8771 18.2868 16.8853 18.2662C16.8943 18.2435 16.9029 18.2206 16.911 18.1976C16.9202 18.1714 16.9286 18.1449 16.9367 18.1183C16.946 18.0871 16.9545 18.0556 16.9623 18.0238C16.972 17.9843 16.9806 17.9444 16.988 17.9041C16.999 17.844 17.0075 17.7831 17.0137 17.7212C17.0223 17.635 17.0265 17.5473 17.0265 17.4582V14.3902H16.988H16.9623H16.9367H16.911H16.8853H16.8596H16.8339H16.8083H16.7826H16.7569H16.7312H16.7055H16.6798H16.6541H16.6284H16.6028H16.5771H16.5514H16.5257H16.5H16.4744H16.4487H16.423H16.3973H16.3716H16.3459H16.3203H16.2945H16.2689H16.2432H16.2175H16.1919H16.1662H16.1405H16.1148H16.0891H16.0634H16.0378H16.012H15.9864H15.9607H15.935H15.9093H15.8836H15.858H15.8323H15.8066H15.7809H15.7552H15.7296H15.7038H15.6782H15.6525H15.6268H15.6011H15.5754H15.5497H15.5241H15.4984H15.4727H15.447H15.4213H15.3957H15.37H15.3443H15.3186H15.2929H15.2672H15.2416H15.2159H15.1902H15.1645H15.1388H15.1132H15.0874H15.0618H15.0361H15.0104H14.9847H14.959H14.9333H14.9077H14.882H14.8563H14.8306H14.8049H14.7793H14.7536L14.7341 17.4582C14.7341 17.5062 14.732 17.5534 14.7279 17.5998C14.7226 17.6589 14.714 17.7164 14.7022 17.7724C14.6949 17.8069 14.6863 17.8409 14.6765 17.8742C14.6687 17.9007 14.6602 17.9268 14.6508 17.9524C14.6429 17.9743 14.6342 17.9958 14.6252 18.0169C14.617 18.0359 14.6085 18.0545 14.5994 18.0728C14.5913 18.0895 14.5827 18.1061 14.5738 18.1223C14.5655 18.1372 14.557 18.1519 14.5481 18.1664C14.5398 18.18 14.5313 18.1935 14.5224 18.2068C14.5141 18.2192 14.5055 18.2315 14.4968 18.2436C14.4884 18.2551 14.4799 18.2666 14.4711 18.2778C14.4627 18.2885 14.4541 18.2989 14.4454 18.3093C14.437 18.3192 14.4284 18.3289 14.4197 18.3386C14.4113 18.3479 14.4028 18.3571 14.394 18.3661C14.3856 18.3749 14.377 18.3835 14.3683 18.392C14.3599 18.4002 14.3514 18.4083 14.3426 18.4162C14.3342 18.4239 14.3256 18.4315 14.317 18.439C14.3085 18.4463 14.3 18.4534 14.2913 18.4605C14.2828 18.4673 14.2742 18.4741 14.2656 18.4807C14.2571 18.4872 14.2486 18.4936 14.2399 18.4999C14.2314 18.506 14.2229 18.5121 14.2142 18.518C14.2057 18.5238 14.1972 18.5296 14.1885 18.5352C14.1801 18.5407 14.1715 18.5461 14.1629 18.5514C14.1544 18.5567 14.1458 18.5617 14.1371 18.5668C14.1287 18.5717 14.1202 18.5765 14.1115 18.5813C14.103 18.586 14.0944 18.5905 14.0858 18.5951C14.0773 18.5995 14.0688 18.6038 14.0601 18.6081C14.0517 18.6123 14.0431 18.6164 14.0345 18.6205C14.0259 18.6245 14.0174 18.6284 14.0087 18.6322C14.0003 18.636 13.9917 18.6397 13.9831 18.6433C13.9746 18.6469 13.966 18.6503 13.9574 18.6538C13.9489 18.6571 13.9403 18.6604 13.9317 18.6636C13.9232 18.6668 13.9147 18.6699 13.906 18.6729C13.8975 18.6759 13.8889 18.6789 13.8803 18.6818C13.8718 18.6846 13.8633 18.6874 13.8546 18.69C13.8462 18.6927 13.8376 18.6952 13.829 18.6977C13.8204 18.7002 13.8119 18.7027 13.8033 18.705C13.7948 18.7074 13.7862 18.7097 13.7776 18.7119C13.7691 18.7141 13.7605 18.7161 13.7519 18.7182C13.7434 18.7202 13.7349 18.7222 13.7262 18.7241C13.7177 18.726 13.7092 18.7278 13.7006 18.7296C13.692 18.7314 13.6835 18.7331 13.6749 18.7347C13.6664 18.7363 13.6578 18.7378 13.6492 18.7393C13.6406 18.7408 13.6321 18.7423 13.6235 18.7437L13.5978 18.7476C13.5893 18.7488 13.5807 18.7499 13.5721 18.751C13.5636 18.7521 13.5551 18.7532 13.5465 18.7542L13.5208 18.7571C13.5123 18.7579 13.5037 18.7587 13.4951 18.7595C13.4866 18.7602 13.478 18.761 13.4694 18.7617C13.4609 18.7624 13.4523 18.7629 13.4437 18.7634C13.4352 18.764 13.4266 18.7645 13.418 18.7649C13.4095 18.7654 13.401 18.7658 13.3923 18.7661C13.3839 18.7665 13.3752 18.7667 13.3667 18.7669L13.341 18.7675C13.3325 18.7677 13.3239 18.7677 13.3153 18.7678L13.2896 18.7678L13.2639 18.7677L13.2382 18.7673L13.2126 18.7667L13.1869 18.7661L13.1612 18.7653L13.1355 18.7642L13.1098 18.763L13.0842 18.7618L13.0585 18.7602L13.0328 18.7585L13.0071 18.7568L12.9814 18.7548L12.9557 18.7526L12.9301 18.7503L12.9044 18.7479L12.8787 18.7453L12.853 18.7425L12.8273 18.7396L12.8017 18.7366L12.776 18.7333L12.7503 18.73L12.7246 18.7264L12.6989 18.7227L12.6732 18.7189L12.6475 18.7149L12.6219 18.7108L12.5962 18.7065L12.5705 18.7021L12.5448 18.6975L12.5191 18.6928L12.4934 18.6879L12.4678 18.6829L12.442 18.6777L12.4164 18.6724L12.3907 18.667L12.365 18.6614L12.3394 18.6556L12.3136 18.6497L12.288 18.6437L12.2623 18.6375L12.2366 18.6313L12.2109 18.6248L12.1852 18.6182L12.1595 18.6114L12.1339 18.6046L12.1082 18.5976L12.0825 18.5905L12.0569 18.5832L12.0311 18.5758L12.0055 18.5683L11.9798 18.5606L11.9541 18.5528L11.9284 18.5449L11.9027 18.5368L11.877 18.5286L11.8514 18.5203L11.8256 18.5118L11.8 18.5032L11.7743 18.4944L11.7486 18.4856L11.7229 18.4766L11.6972 18.4675L11.6716 18.4583L11.6459 18.4489L11.6202 18.4395L11.5945 18.4299L11.5688 18.4202L11.5432 18.4103L11.5175 18.4004L11.4918 18.3903L11.4661 18.3801L11.4404 18.3697L11.4147 18.3593L11.389 18.3487L11.3634 18.338L11.3377 18.3272L11.312 18.3163L11.2863 18.3053L11.2606 18.2941L11.235 18.2828L11.2093 18.2715L11.1836 18.26L11.1579 18.2484L11.1322 18.2366L11.1065 18.2248L11.0809 18.2129L11.0552 18.2009C11.0368 18.1922 11.0184 18.1834 11 18.1746Z" fill="#006CB9"/>
<path fill-rule="evenodd" clip-rule="evenodd" d="M18.4299 15.0606C18.4112 15.0756 18.3928 15.0908 18.3748 15.1061V11.6444C18.3748 11.4603 18.3938 11.2806 18.4299 11.1071C18.4377 11.0698 18.4463 11.0329 18.4556 10.9962C18.4636 10.9648 18.4722 10.9336 18.4813 10.9026C18.4894 10.875 18.498 10.8476 18.507 10.8204C18.5152 10.7955 18.5237 10.7707 18.5326 10.7462C18.5409 10.7235 18.5495 10.7008 18.5584 10.6784C18.5667 10.6574 18.5752 10.6365 18.584 10.6158C18.5923 10.5962 18.6009 10.5768 18.6097 10.5575C18.6181 10.5392 18.6266 10.521 18.6354 10.5029C18.6437 10.4856 18.6524 10.4684 18.6611 10.4513C18.6695 10.4349 18.678 10.4186 18.6868 10.4024C18.6952 10.3868 18.7038 10.3712 18.7125 10.3558C18.7209 10.3408 18.7294 10.326 18.7381 10.3112C18.7466 10.2968 18.7551 10.2826 18.7638 10.2684C18.7723 10.2547 18.7808 10.2411 18.7895 10.2276C18.7979 10.2144 18.8065 10.2014 18.8152 10.1884C18.8237 10.1757 18.8322 10.1631 18.8409 10.1506C18.8494 10.1382 18.8579 10.1259 18.8665 10.1138C18.875 10.102 18.8836 10.0905 18.8923 10.0789C18.9007 10.0674 18.9092 10.0561 18.9179 10.0448C18.9265 10.0337 18.9349 10.0226 18.9436 10.0116C18.952 10.001 18.9607 9.9905 18.9693 9.97998C18.9778 9.9696 18.9863 9.95925 18.995 9.94901C19.0035 9.9389 19.012 9.92884 19.0207 9.91887C19.0291 9.90915 19.0378 9.89954 19.0463 9.88993C19.0549 9.88041 19.0634 9.87086 19.072 9.86144C19.0805 9.85224 19.0891 9.84315 19.0977 9.83407C19.1062 9.8251 19.1147 9.8162 19.1234 9.80733C19.1319 9.7986 19.1405 9.78986 19.1491 9.78123C19.1576 9.77277 19.1661 9.76442 19.1748 9.75606C19.1833 9.74775 19.1918 9.73937 19.2004 9.73116C19.2089 9.72315 19.2175 9.71532 19.2261 9.70741C19.2346 9.69952 19.2431 9.69161 19.2518 9.68385C19.2603 9.67623 19.2689 9.66874 19.2775 9.66123C19.286 9.65374 19.2945 9.64628 19.3032 9.63891C19.3117 9.63166 19.3203 9.62453 19.3288 9.61738C19.3374 9.6103 19.3459 9.60321 19.3546 9.59621C19.363 9.58931 19.3716 9.58248 19.3802 9.57569C19.3888 9.56895 19.3973 9.56224 19.4059 9.5556C19.4144 9.54904 19.423 9.54255 19.4316 9.53607C19.4401 9.52966 19.4487 9.52328 19.4573 9.51697C19.4658 9.51071 19.4744 9.50453 19.483 9.49838C19.4915 9.49229 19.5 9.4862 19.5087 9.48019C19.5172 9.47424 19.5258 9.46838 19.5343 9.46252C19.5428 9.45671 19.5514 9.45091 19.56 9.4452C19.5685 9.43955 19.5771 9.43399 19.5857 9.42843C19.5942 9.42288 19.6028 9.41734 19.6114 9.41191C19.6199 9.40653 19.6285 9.40129 19.6371 9.396C19.6456 9.39073 19.6542 9.3854 19.6627 9.38024C19.6713 9.37512 19.6799 9.37017 19.6885 9.36516C19.697 9.36015 19.7055 9.35503 19.7141 9.35012C19.7226 9.34527 19.7313 9.34062 19.7398 9.33586C19.7484 9.33111 19.7569 9.3263 19.7655 9.32165C19.774 9.31703 19.7826 9.31259 19.7912 9.30807C19.7997 9.30356 19.8083 9.29904 19.8169 9.29461L19.8426 9.28165L19.8682 9.26898C19.8768 9.26483 19.8853 9.26064 19.8939 9.25658C19.9025 9.25254 19.911 9.24863 19.9196 9.24467C19.9282 9.24074 19.9367 9.23668 19.9453 9.23283C19.9538 9.229 19.9624 9.2254 19.971 9.22168C19.9795 9.21796 19.9881 9.21417 19.9966 9.21053C20.0052 9.20694 20.0138 9.20345 20.0224 9.19993L20.048 9.18953C20.0566 9.18612 20.0651 9.18272 20.0737 9.1794C20.0822 9.1761 20.0909 9.17292 20.0994 9.16971C20.108 9.16649 20.1165 9.16317 20.1251 9.16004C20.1336 9.15695 20.1422 9.15407 20.1508 9.15107C20.1594 9.14807 20.1679 9.14502 20.1764 9.1421C20.185 9.13918 20.1936 9.13639 20.2021 9.13358L20.2278 9.12531C20.2364 9.1226 20.2449 9.11983 20.2535 9.11718C20.262 9.11458 20.2707 9.11213 20.2792 9.10961C20.2878 9.10707 20.2963 9.10447 20.3049 9.10202C20.3134 9.09958 20.322 9.09732 20.3306 9.09497L20.3563 9.08806C20.3648 9.08581 20.3734 9.08353 20.3819 9.08137C20.3905 9.07924 20.3991 9.07723 20.4076 9.07516C20.4162 9.07308 20.4247 9.07093 20.4333 9.06894C20.4419 9.06697 20.4504 9.06513 20.459 9.06325L20.4847 9.05771C20.4932 9.0559 20.5018 9.05405 20.5103 9.05233C20.5189 9.05062 20.5275 9.04908 20.5361 9.04744C20.5446 9.04582 20.5531 9.0441 20.5617 9.04256L20.5874 9.03816L20.6131 9.03395C20.6217 9.03258 20.6302 9.03112 20.6388 9.02982C20.6473 9.02853 20.6559 9.02746 20.6645 9.02625C20.673 9.02507 20.6816 9.02382 20.6902 9.02269L20.7158 9.0195L20.7415 9.01658C20.7501 9.01563 20.7586 9.01453 20.7672 9.01367C20.7757 9.0128 20.7843 9.01216 20.7929 9.01138L20.8186 9.00914C20.8271 9.00842 20.8357 9.00772 20.8442 9.00711C20.8528 9.00649 20.8614 9.00601 20.8699 9.00548C20.8785 9.00495 20.887 9.00434 20.8956 9.00387C20.9042 9.0034 20.9127 9.00309 20.9213 9.00271L20.947 9.00174C20.9556 9.00144 20.9641 9.00099 20.9727 9.00078C20.9812 9.00057 20.9898 9.00059 20.9984 9.00046C21.007 9.00034 21.0155 9.00019 21.0241 9.00015L21.0354 9H21.0497H21.0755H21.1011H21.1268H21.1525H21.1781H21.2039H21.2295H21.2552H21.2809H21.3066H21.3323H21.3579H21.3836H21.4093H21.435H21.4607H21.4864H21.512H21.5378H21.5634H21.5891H21.6148H21.6405H21.6662H21.6918H21.7176H21.7432H21.7689H21.7946H21.8203H21.846H21.8717H21.8973H21.9231H21.9487H21.9744H22.0001H22.0257H22.0515H22.0771H22.1028H22.1285H22.1542H22.1799H22.2056H22.2312H22.2569H22.2826H22.3083H22.334H22.3596H22.3854H22.411H22.4367H22.4624H22.4881H22.5138H22.5394H22.5651H22.5908H22.6165H22.6422H22.6679H22.6935H22.7193H22.7449H22.7706H22.7963H22.822H22.8477H22.8733H22.899H22.9247H22.9504H22.9761H23.0018H23.0275H23.0532H23.0788H23.1045H23.1302H23.1559H23.1816H23.2072H23.233H23.2586H23.2843H23.31H23.3357H23.3614H23.3871H23.4127H23.4385H23.4641H23.4898H23.5155H23.5411H23.5669H23.5925H23.6182H23.6439H23.6696H23.6953H23.721H23.7466H23.7723H23.798H23.8237H23.8494H23.875H23.9008H23.9264H23.9521H23.9778H24.0034H24.0292H24.0548H24.0805H24.1062H24.1319H24.1576H24.1833H24.2089H24.2347H24.2603H24.286H24.3117H24.3374H24.3631H24.3887H24.4144H24.4401H24.4658H24.4915H24.5172H24.5429H24.5686H24.5942H24.6199H24.6456H24.6713H24.697H24.7226H24.7484H24.774H24.7997H24.8254H24.8511H24.8768H24.9025H24.9281H24.9499V22.2208C24.9499 22.3358 24.9425 22.449 24.9281 22.5601C24.9212 22.6136 24.9126 22.6665 24.9025 22.719C24.8948 22.7588 24.8862 22.7985 24.8768 22.8378C24.8688 22.8708 24.8603 22.9036 24.8511 22.9363C24.843 22.9648 24.8344 22.9932 24.8254 23.0213C24.8172 23.0469 24.8086 23.0721 24.7997 23.0973C24.7915 23.1206 24.7829 23.1438 24.774 23.1668C24.7657 23.1882 24.7572 23.2095 24.7484 23.2307C24.74 23.2507 24.7314 23.2705 24.7226 23.2902C24.7143 23.309 24.7058 23.3275 24.697 23.346C24.6886 23.3636 24.68 23.3811 24.6713 23.3986C24.6629 23.4153 24.6543 23.4319 24.6456 23.4484C24.6372 23.4643 24.6286 23.4801 24.6199 23.4958C24.6115 23.511 24.603 23.5261 24.5942 23.5411C24.5858 23.5555 24.5772 23.5699 24.5686 23.5842C24.5601 23.598 24.5515 23.6117 24.5429 23.6254C24.5344 23.6387 24.5258 23.652 24.5172 23.6652C24.5087 23.6781 24.5002 23.6909 24.4915 23.7037C24.483 23.716 24.4744 23.7282 24.4658 23.7404C24.4573 23.7523 24.4488 23.7641 24.4401 23.7759C24.4316 23.7875 24.4231 23.799 24.4144 23.8105C24.4059 23.8216 24.3974 23.8326 24.3887 23.8437C24.3803 23.8544 24.3717 23.8651 24.3631 23.8757C24.3545 23.8863 24.3461 23.8968 24.3374 23.9071C24.3289 23.9173 24.3203 23.9273 24.3117 23.9373C24.3032 23.9472 24.2947 23.9569 24.286 23.9667C24.2775 23.9762 24.269 23.9859 24.2603 23.9953C24.2519 24.0046 24.2432 24.0138 24.2347 24.0229C24.2261 24.0319 24.2176 24.0411 24.2089 24.0501C24.2005 24.0588 24.1919 24.0674 24.1833 24.0761C24.1748 24.0847 24.1662 24.0932 24.1576 24.1016C24.1491 24.11 24.1405 24.1183 24.1319 24.1265C24.1234 24.1346 24.1148 24.1427 24.1062 24.1506C24.0977 24.1586 24.0891 24.1666 24.0805 24.1744C24.0721 24.182 24.0634 24.1896 24.0548 24.1972C24.0463 24.2047 24.0378 24.2124 24.0292 24.2198C24.0207 24.227 24.012 24.2341 24.0034 24.2414C23.9949 24.2485 23.9864 24.2557 23.9778 24.2628C23.9693 24.2697 23.9607 24.2765 23.9521 24.2833C23.9436 24.2901 23.9351 24.297 23.9264 24.3037C23.9179 24.3103 23.9093 24.3167 23.9008 24.3232C23.8922 24.3297 23.8837 24.3362 23.875 24.3426C23.8666 24.3488 23.8579 24.355 23.8494 24.3612C23.8408 24.3674 23.8323 24.3736 23.8237 24.3797C23.8152 24.3856 23.8066 24.3914 23.798 24.3973C23.7894 24.4032 23.7809 24.4091 23.7723 24.4149C23.7638 24.4206 23.7552 24.4261 23.7466 24.4317C23.7381 24.4372 23.7296 24.443 23.721 24.4484C23.7124 24.4538 23.7038 24.459 23.6953 24.4644C23.6867 24.4697 23.6782 24.475 23.6696 24.4802C23.6611 24.4853 23.6525 24.4903 23.6439 24.4954C23.6354 24.5004 23.6268 24.5055 23.6182 24.5105C23.6097 24.5153 23.6011 24.5201 23.5925 24.5249L23.5669 24.5392L23.5411 24.553L23.5155 24.5664C23.5069 24.5708 23.4984 24.5753 23.4898 24.5796C23.4813 24.5839 23.4727 24.5881 23.4641 24.5923C23.4555 24.5965 23.447 24.6008 23.4385 24.6049C23.4299 24.609 23.4213 24.6128 23.4127 24.6168C23.4042 24.6208 23.3956 24.6248 23.3871 24.6287C23.3785 24.6326 23.3699 24.6363 23.3614 24.64L23.3357 24.6512L23.31 24.662L23.2843 24.6724C23.2757 24.6759 23.2672 24.6794 23.2586 24.6827C23.2501 24.686 23.2415 24.6891 23.233 24.6924C23.2244 24.6956 23.2159 24.6989 23.2072 24.7021C23.1987 24.7052 23.1901 24.7082 23.1816 24.7113L23.1559 24.7202L23.1302 24.729C23.1217 24.7318 23.1131 24.7345 23.1045 24.7372C23.0959 24.74 23.0874 24.7428 23.0788 24.7455C23.0703 24.7481 23.0617 24.7506 23.0532 24.7531L23.0275 24.7607L23.0018 24.768C22.9932 24.7703 22.9847 24.7726 22.9761 24.7748C22.9675 24.7771 22.959 24.7795 22.9504 24.7817C22.9419 24.7839 22.9333 24.7859 22.9247 24.7879C22.9162 24.7901 22.9076 24.7922 22.899 24.7942L22.8733 24.8001L22.8477 24.8056C22.8391 24.8074 22.8306 24.8094 22.822 24.8112C22.8135 24.8129 22.8049 24.8144 22.7963 24.8161L22.7706 24.8209L22.7449 24.8255C22.7364 24.827 22.7278 24.8284 22.7193 24.8297C22.7107 24.8312 22.7022 24.8326 22.6935 24.8339C22.685 24.8352 22.6764 24.8364 22.6679 24.8376L22.6422 24.8412C22.6336 24.8423 22.6251 24.8435 22.6165 24.8445C22.608 24.8456 22.5994 24.8465 22.5908 24.8475C22.5823 24.8484 22.5738 24.8495 22.5651 24.8504C22.5566 24.8513 22.548 24.852 22.5394 24.8528L22.5138 24.8551C22.5052 24.8558 22.4967 24.8567 22.4881 24.8573C22.4796 24.858 22.471 24.8584 22.4624 24.859L22.4367 24.8606L22.411 24.862C22.4025 24.8623 22.3939 24.8626 22.3854 24.8629C22.3768 24.8632 22.3682 24.8636 22.3596 24.8639C22.3511 24.8641 22.3425 24.8642 22.334 24.8644L22.3083 24.8647C22.3003 24.8647 22.2923 24.865 22.2843 24.865H22.2826H22.2569H22.2312H22.2056H22.1799H22.1542H22.1285H22.1028H22.0771H22.0515H22.0257H22.0001H21.9744H21.9487H21.9231H21.8973H21.8717H21.846H21.8203H21.7946H21.7689H21.7432H21.7176H21.6918H21.6662H21.6405H21.6148H21.5891H21.5634H21.5378H21.512H21.4864H21.4607H21.435H21.4093H21.3836H21.3579H21.3323H21.3066H21.2809H21.2552H21.2295H21.2039H21.1781H21.1525H21.1268H21.1011H21.0755H21.0497H21.0241H20.9984H20.9727H20.947H20.9213H20.8956H20.8699H20.8442H20.8186H20.7929H20.7672H20.7415H20.7158H20.6902H20.6645H20.6388H20.6131H20.5874H20.5617H20.5361H20.5103H20.4847H20.459H20.4333H20.4076H20.3819H20.3563H20.3306H20.3049H20.2792H20.2535H20.2278H20.2021H20.1764H20.1508H20.1251H20.0994H20.0737H20.048H20.0224H19.9966H19.971H19.9453H19.9196H19.8939H19.8682H19.8426H19.8169H19.7912H19.7655H19.7398H19.7141H19.6885H19.6627H19.6371H19.6114H19.5857H19.56H19.5343H19.5087H19.483H19.4573H19.4316H19.4059H19.3802H19.3546H19.3288H19.3032H19.2775H19.2518H19.2261H19.2004H19.1748H19.1491H19.1234H19.0977H19.072H19.0463H19.0207H18.995H18.9693H18.9436H18.9179H18.8923H18.8665H18.8409H18.8152H18.7895H18.7638H18.7381H18.7125H18.6868H18.6611H18.6354H18.6097H18.584H18.5584H18.5326H18.507H18.4813H18.4556H18.4299H18.3748V18.76C18.3928 18.7752 18.4112 18.7904 18.4299 18.8054C18.4384 18.8122 18.447 18.8189 18.4556 18.8257C18.4641 18.8323 18.4727 18.8389 18.4813 18.8455C18.4898 18.852 18.4983 18.8585 18.507 18.8649C18.5154 18.8712 18.5241 18.8774 18.5326 18.8836C18.5412 18.8897 18.5497 18.8958 18.5584 18.9019C18.5669 18.9079 18.5754 18.9139 18.584 18.9198L18.6097 18.9373C18.6182 18.943 18.6268 18.9486 18.6354 18.9542L18.6611 18.9709C18.6696 18.9764 18.6781 18.9818 18.6868 18.9872C18.6952 18.9925 18.7039 18.9977 18.7125 19.003L18.7381 19.0185C18.7467 19.0236 18.7552 19.0286 18.7638 19.0336C18.7723 19.0386 18.7809 19.0434 18.7895 19.0484L18.8152 19.0628L18.8409 19.0769L18.8665 19.0907C18.8751 19.0953 18.8836 19.0998 18.8923 19.1043C18.9007 19.1087 18.9094 19.1131 18.9179 19.1174L18.9436 19.1303L18.9693 19.143L18.995 19.1554C19.0035 19.1594 19.012 19.1635 19.0207 19.1675L19.0463 19.1793L19.072 19.191L19.0977 19.2022L19.1234 19.2134L19.1491 19.2242L19.1748 19.2348L19.2004 19.2453L19.2261 19.2554L19.2518 19.2655L19.2775 19.2752C19.286 19.2784 19.2945 19.2817 19.3032 19.2849L19.3288 19.2941C19.3374 19.2972 19.3459 19.3004 19.3546 19.3034C19.363 19.3064 19.3717 19.3093 19.3802 19.3123L19.4059 19.3212L19.4316 19.3297C19.4402 19.3325 19.4486 19.3354 19.4573 19.3382C19.4658 19.341 19.4744 19.3436 19.483 19.3464L19.5087 19.3546L19.5343 19.3624L19.56 19.3702L19.5857 19.3777L19.6114 19.3851L19.6371 19.3924L19.6627 19.3995L19.6885 19.4064L19.7141 19.4132L19.7398 19.4199L19.7655 19.4264L19.7912 19.4328L19.8169 19.4389L19.8426 19.4451L19.8682 19.451L19.8939 19.4569L19.9196 19.4625L19.9453 19.4681L19.971 19.4736L19.9966 19.4788L20.0224 19.4841L20.048 19.4891L20.0737 19.4941L20.0994 19.4989L20.1251 19.5036L20.1508 19.5082L20.1764 19.5126L20.2021 19.517L20.2278 19.5213L20.2535 19.5254L20.2792 19.5295L20.3049 19.5334L20.3306 19.5373L20.3563 19.541L20.3819 19.5446L20.4076 19.5482L20.4333 19.5516L20.459 19.555L20.4847 19.5582L20.5103 19.5613L20.5361 19.5645L20.5617 19.5674L20.5874 19.5703L20.6131 19.5731L20.6388 19.5757L20.6645 19.5783L20.6902 19.5808L20.7158 19.5833L20.7415 19.5857L20.7672 19.5879L20.7929 19.59L20.8186 19.5922L20.8442 19.5942L20.8699 19.5961L20.8956 19.5981L20.9213 19.5997L20.947 19.6015L20.9727 19.6032L20.9984 19.6047L21.0241 19.6061L21.0497 19.6076L21.0755 19.6088L21.1011 19.6101L21.1268 19.6113L21.1525 19.6124L21.1781 19.6135L21.2039 19.6144L21.2295 19.6153L21.2552 19.6161L21.2809 19.617L21.3066 19.6176L21.3323 19.6183L21.3579 19.6189L21.3836 19.6193L21.4093 19.6197L21.435 19.6202L21.4607 19.6204L21.4864 19.6207L21.512 19.6209L21.5378 19.621L21.5634 19.621L21.5891 19.6211L21.6148 19.621L21.6405 19.6209L21.6662 19.6207L21.6918 19.6206L21.7176 19.6202L21.7432 19.6198L21.7689 19.6195L21.7946 19.619L21.8203 19.6185L21.846 19.6179L21.8717 19.6173L21.8973 19.6166L21.9231 19.6159L21.9487 19.6151L21.9744 19.6142L22.0001 19.6133L22.0257 19.6125L22.0515 19.6114L22.0771 19.6103L22.1028 19.6093L22.1154 19.6088L22.1285 19.6082L22.1542 19.6069L22.1799 19.6055L22.2056 19.6042L22.2312 19.6026L22.2569 19.6011L22.2826 19.5993L22.3083 19.5976L22.334 19.5957L22.3596 19.5938L22.3854 19.5918L22.411 19.5897L22.4367 19.5875L22.4624 19.5853L22.4881 19.583L22.5138 19.5806L22.5394 19.5781L22.5651 19.5756L22.5908 19.573L22.6165 19.5703L22.6422 19.5676L22.6679 19.5648L22.6935 19.5619L22.7193 19.5589L22.7449 19.5559L22.7706 19.5529L22.7963 19.5498L22.822 19.5465L22.8477 19.5433L22.8733 19.54L22.899 19.5366L22.9247 19.5332L22.9504 19.5297L22.9761 19.5262L23.0018 19.5226L23.0275 19.5189L23.0532 19.5152L23.0788 19.5114L23.1045 19.5075L23.1302 19.5037L23.1559 19.4997L23.1816 19.4957L23.2072 19.4917L23.233 19.4876L23.2586 19.4834L23.2843 19.4792L23.31 19.4749L23.3357 19.4706L23.3614 19.4663L23.3871 19.4618L23.4127 19.4574L23.4385 19.4529L23.4641 19.4483L23.4898 19.4437L23.5155 19.439L23.5411 19.4343L23.5669 19.4295L23.5925 19.4247L23.6182 19.4198L23.6439 19.4149L23.6696 19.4099L23.6953 19.405L23.721 19.3999L23.7466 19.3948L23.7723 19.3896L23.798 19.3844L23.8237 19.3791L23.8494 19.3738L23.875 19.3684L23.9008 19.363L23.9264 19.3575L23.9521 19.352L23.9778 19.3464L24.0034 19.3407L24.0292 19.3351L24.0548 19.3293L24.0805 19.3234L24.1062 19.3175L24.1319 19.3116L24.1576 19.3055L24.1833 19.2994L24.2088 19.2931V18.1746L24.1833 18.1872L24.1576 18.1998L24.1319 18.2123L24.1062 18.2246L24.0805 18.2369L24.0548 18.249L24.0292 18.2609L24.0034 18.2728L23.9778 18.2846L23.9521 18.2962L23.9264 18.3077L23.9008 18.3191L23.875 18.3303L23.8494 18.3414L23.8237 18.3524L23.798 18.3632L23.7723 18.3739L23.7466 18.3845L23.721 18.3949L23.6953 18.4051L23.6696 18.4153L23.6439 18.4253L23.6182 18.4352L23.5925 18.4449L23.5669 18.4545L23.5411 18.4639L23.5155 18.4732L23.4898 18.4824L23.4641 18.4914L23.4385 18.5002L23.4127 18.5089L23.3871 18.5175L23.3614 18.5259L23.3357 18.5342L23.31 18.5423L23.2843 18.5503L23.2586 18.5582L23.233 18.5658L23.2072 18.5734L23.1816 18.5809L23.1559 18.5881L23.1302 18.5952L23.1045 18.6022L23.0788 18.609L23.0532 18.6157L23.0275 18.6223L23.0018 18.6286L22.9761 18.6349L22.9504 18.641L22.9247 18.6469L22.899 18.6527L22.8733 18.6585L22.8477 18.664L22.822 18.6694L22.7963 18.6746L22.7706 18.6797L22.7449 18.6847L22.7193 18.6895L22.6935 18.6942L22.6679 18.6987L22.6422 18.7031L22.6165 18.7074L22.5908 18.7115L22.5651 18.7155L22.5394 18.7194L22.5138 18.7231L22.4881 18.7266L22.4624 18.7301L22.4367 18.7334L22.411 18.7365L22.3854 18.7396L22.3596 18.7425L22.334 18.7452L22.3083 18.7479L22.2826 18.7503L22.2569 18.7527L22.2312 18.7549L22.2056 18.757L22.19 18.7582L22.1799 18.7589L22.1542 18.7606L22.1285 18.7623L22.1028 18.7637L22.0771 18.765L22.0515 18.7661L22.0257 18.767L22.0001 18.7678L21.9744 18.7684L21.9487 18.7687L21.9231 18.7691C21.9144 18.7691 21.9059 18.769 21.8973 18.769L21.8717 18.7689L21.846 18.7685L21.8203 18.7679L21.7946 18.7673C21.786 18.767 21.7775 18.7666 21.7689 18.7662C21.7603 18.7659 21.7518 18.7656 21.7432 18.7652L21.7176 18.7638L21.6918 18.7623L21.6662 18.7605L21.6405 18.7585C21.6319 18.7578 21.6233 18.7572 21.6148 18.7564C21.6062 18.7556 21.5977 18.7547 21.5891 18.7539L21.5634 18.7513L21.5378 18.7483L21.512 18.7453L21.4864 18.7419L21.4607 18.7383C21.4521 18.737 21.4435 18.7358 21.435 18.7345C21.4264 18.7331 21.4179 18.7317 21.4093 18.7303C21.4008 18.7289 21.3921 18.7276 21.3836 18.726C21.375 18.7245 21.3665 18.7229 21.3579 18.7213C21.3494 18.7197 21.3407 18.7182 21.3323 18.7165C21.3236 18.7148 21.3152 18.713 21.3066 18.7112C21.298 18.7094 21.2894 18.7077 21.2809 18.7058C21.2723 18.704 21.2638 18.7019 21.2552 18.7L21.2295 18.694C21.2209 18.6919 21.2124 18.6897 21.2039 18.6875C21.1952 18.6854 21.1867 18.6832 21.1781 18.681C21.1696 18.6787 21.161 18.6763 21.1525 18.6739C21.1439 18.6715 21.1353 18.6691 21.1268 18.6666C21.1182 18.6641 21.1096 18.6615 21.1011 18.6589C21.0925 18.6563 21.084 18.6537 21.0755 18.6509C21.0668 18.6482 21.0582 18.6454 21.0497 18.6425C21.0411 18.6397 21.0326 18.6368 21.0241 18.6339C21.0154 18.6309 21.0069 18.6278 20.9984 18.6247C20.9898 18.6216 20.9812 18.6185 20.9727 18.6153C20.9641 18.6121 20.9556 18.6087 20.947 18.6053C20.9384 18.602 20.9298 18.5987 20.9213 18.5952C20.9127 18.5917 20.9042 18.588 20.8956 18.5843C20.887 18.5807 20.8784 18.577 20.8699 18.5733C20.8613 18.5694 20.8528 18.5655 20.8442 18.5615C20.8357 18.5576 20.8271 18.5536 20.8186 18.5496C20.8099 18.5454 20.8014 18.5412 20.7929 18.5369C20.7843 18.5326 20.7757 18.5283 20.7672 18.5238C20.7586 18.5193 20.75 18.5149 20.7415 18.5103C20.7329 18.5056 20.7243 18.5008 20.7158 18.496C20.7073 18.4912 20.6986 18.4864 20.6902 18.4814C20.6815 18.4764 20.673 18.4712 20.6645 18.466C20.6559 18.4608 20.6473 18.4554 20.6388 18.45C20.6302 18.4446 20.6216 18.4392 20.6131 18.4336C20.6044 18.4279 20.5959 18.422 20.5874 18.4161C20.5788 18.4102 20.5702 18.4042 20.5617 18.3981C20.5531 18.392 20.5445 18.3858 20.5361 18.3795C20.5274 18.3731 20.5189 18.3664 20.5103 18.3598C20.5017 18.3531 20.4931 18.3463 20.4847 18.3394C20.476 18.3324 20.4674 18.3255 20.459 18.3183C20.4503 18.311 20.4418 18.3034 20.4333 18.2959C20.4246 18.2882 20.4161 18.2804 20.4076 18.2726C20.399 18.2645 20.3904 18.2565 20.3819 18.2483C20.3733 18.2399 20.3647 18.2316 20.3563 18.223C20.3475 18.2141 20.3391 18.2051 20.3306 18.196C20.3219 18.1868 20.3133 18.1774 20.3049 18.1679C20.2962 18.1581 20.2876 18.1482 20.2792 18.1382C20.2705 18.1279 20.2619 18.1176 20.2535 18.107C20.2448 18.0961 20.2362 18.0852 20.2278 18.074C20.2191 18.0626 20.2105 18.0509 20.2021 18.0391C20.1934 18.0269 20.1848 18.0145 20.1764 18.002C20.1677 17.9889 20.1591 17.9757 20.1508 17.9622C20.142 17.9482 20.1335 17.934 20.1251 17.9196C20.1163 17.9045 20.1077 17.8891 20.0994 17.8736C20.0905 17.8572 20.082 17.8405 20.0737 17.8237C20.0649 17.8057 20.0563 17.7875 20.048 17.7692C20.0392 17.7494 20.0305 17.7294 20.0224 17.7091C20.0133 17.6867 20.0048 17.6638 19.9966 17.6407C19.9876 17.615 19.979 17.5892 19.971 17.5627C19.9617 17.5321 19.9531 17.501 19.9453 17.4694C19.9356 17.43 19.9271 17.3898 19.9196 17.3488C19.9085 17.2881 19.9 17.2257 19.8939 17.1616C19.887 17.0876 19.8835 17.0114 19.8835 16.9329C19.8835 16.8544 19.887 16.7781 19.8939 16.704C19.9 16.6399 19.9085 16.5775 19.9196 16.5167C19.9271 16.4758 19.9356 16.4355 19.9453 16.3961C19.9531 16.3645 19.9617 16.3334 19.971 16.3027C19.979 16.2763 19.9876 16.2504 19.9966 16.2247C20.0048 16.2016 20.0133 16.1787 20.0224 16.1563C20.0305 16.136 20.0392 16.116 20.048 16.0962C20.0563 16.0778 20.0649 16.0596 20.0737 16.0417C20.082 16.0248 20.0905 16.0082 20.0994 15.9917C20.1077 15.9762 20.1163 15.9609 20.1251 15.9457C20.1335 15.9313 20.142 15.9171 20.1508 15.903C20.1591 15.8896 20.1677 15.8764 20.1764 15.8633C20.1848 15.8507 20.1934 15.8383 20.2021 15.8261C20.2105 15.8143 20.2191 15.8027 20.2278 15.7912C20.2362 15.7801 20.2448 15.7691 20.2535 15.7582C20.2619 15.7477 20.2705 15.7373 20.2792 15.727C20.2876 15.717 20.2962 15.7071 20.3049 15.6973C20.3133 15.6879 20.3219 15.6784 20.3306 15.6691C20.3391 15.6601 20.3475 15.651 20.3563 15.6421C20.3647 15.6336 20.3733 15.6252 20.3819 15.6169C20.3904 15.6087 20.399 15.6006 20.4076 15.5926C20.4161 15.5847 20.4246 15.5769 20.4333 15.5692C20.4418 15.5617 20.4503 15.5542 20.459 15.5468C20.4674 15.5396 20.476 15.5327 20.4847 15.5256C20.4931 15.5188 20.5017 15.512 20.5103 15.5053C20.5189 15.4987 20.5274 15.492 20.5361 15.4856C20.5445 15.4792 20.5531 15.4731 20.5617 15.4669C20.5702 15.4608 20.5788 15.4549 20.5874 15.4489C20.5959 15.4431 20.6044 15.4372 20.6131 15.4315C20.6216 15.4259 20.6302 15.4204 20.6388 15.415C20.6473 15.4096 20.6559 15.4043 20.6645 15.399C20.673 15.3938 20.6815 15.3887 20.6902 15.3836C20.6986 15.3787 20.7073 15.3739 20.7158 15.369C20.7243 15.3642 20.7329 15.3594 20.7415 15.3547C20.75 15.3501 20.7586 15.3457 20.7672 15.3412C20.7757 15.3368 20.7843 15.3324 20.7929 15.3281C20.8014 15.3239 20.8099 15.3196 20.8186 15.3155C20.8271 15.3114 20.8357 15.3074 20.8442 15.3034C20.8528 15.2995 20.8613 15.2955 20.8699 15.2917C20.8784 15.2879 20.887 15.2843 20.8956 15.2807C20.9042 15.277 20.9127 15.2733 20.9213 15.2698C20.9298 15.2664 20.9384 15.263 20.947 15.2596C20.9556 15.2563 20.9641 15.2529 20.9727 15.2496C20.9812 15.2465 20.9898 15.2434 20.9984 15.2402C21.0069 15.2372 21.0154 15.2341 21.0241 15.2311C21.0326 15.2281 21.0411 15.2253 21.0497 15.2224C21.0582 15.2196 21.0668 15.2168 21.0755 15.214C21.084 15.2113 21.0925 15.2087 21.1011 15.2061C21.1096 15.2034 21.1182 15.2009 21.1268 15.1984L21.1525 15.1911C21.161 15.1887 21.1696 15.1863 21.1781 15.184C21.1867 15.1818 21.1952 15.1796 21.2039 15.1774C21.2124 15.1753 21.2209 15.1731 21.2295 15.171L21.2552 15.165C21.2638 15.163 21.2723 15.161 21.2809 15.1591C21.2894 15.1573 21.298 15.1555 21.3066 15.1538C21.3152 15.152 21.3236 15.1501 21.3323 15.1484C21.3407 15.1467 21.3494 15.1453 21.3579 15.1437C21.3665 15.1421 21.375 15.1404 21.3836 15.1389C21.3921 15.1374 21.4008 15.1361 21.4093 15.1347C21.4179 15.1332 21.4264 15.1318 21.435 15.1305L21.4607 15.1266L21.4864 15.123L21.512 15.1196L21.5378 15.1166L21.5634 15.1136L21.5891 15.1111C21.5977 15.1102 21.6062 15.1093 21.6148 15.1085C21.6233 15.1077 21.6319 15.1071 21.6405 15.1064L21.6662 15.1044L21.6918 15.1027L21.7176 15.1011L21.7432 15.0997C21.7518 15.0993 21.7603 15.099 21.7689 15.0987C21.7775 15.0983 21.786 15.0979 21.7946 15.0976L21.8203 15.097L21.846 15.0964L21.8717 15.0961L21.8973 15.0959C21.9059 15.0959 21.9144 15.0958 21.9231 15.0959L21.9487 15.0962L21.9744 15.0965L22.0001 15.0971L22.0257 15.098L22.0515 15.0988L22.0771 15.0999L22.1028 15.1012L22.1285 15.1026L22.1542 15.1043L22.1799 15.106L22.19 15.1067L22.2056 15.1079L22.2312 15.11L22.2569 15.1122L22.2826 15.1145L22.3083 15.1169L22.334 15.1195L22.3596 15.1223L22.3854 15.1251L22.411 15.1281L22.4367 15.1312L22.4624 15.1345L22.4881 15.1378L22.5138 15.1414L22.5394 15.145L22.5651 15.1488L22.5908 15.1527L22.6165 15.1568L22.6422 15.161L22.6679 15.1654L22.6935 15.1699L22.7193 15.1745L22.7449 15.1793L22.7706 15.1842L22.7963 15.1893L22.822 15.1945L22.8477 15.1998L22.8733 15.2053L22.899 15.211L22.9247 15.2167L22.9504 15.2227L22.9761 15.2287L23.0018 15.235L23.0275 15.2413L23.0532 15.2478L23.0788 15.2545L23.1045 15.2613L23.1302 15.2682L23.1559 15.2754L23.1816 15.2826L23.2072 15.29L23.233 15.2975L23.2586 15.3052L23.2843 15.3131L23.31 15.321L23.3357 15.3292L23.3614 15.3375L23.3871 15.3459L23.4127 15.3545L23.4385 15.3632L23.4641 15.372L23.4898 15.3811L23.5155 15.3903L23.5411 15.3996L23.5669 15.4091L23.5925 15.4187L23.6182 15.4285L23.6439 15.4384L23.6696 15.4485L23.6953 15.4586L23.721 15.469L23.7466 15.4795L23.7723 15.4901L23.798 15.5009L23.8237 15.5118L23.8494 15.5229L23.875 15.534L23.9008 15.5453L23.9264 15.5568L23.9521 15.5684L23.9778 15.5801L24.0034 15.592L24.0292 15.6039L24.0548 15.616L24.0805 15.6283L24.1062 15.6406L24.1319 15.6531L24.1576 15.6657L24.1833 15.6784L24.2088 15.6911V14.5718L24.1833 14.5655L24.1576 14.5594L24.1319 14.5533L24.1062 14.5474L24.0805 14.5415L24.0548 14.5356L24.0292 14.5299L24.0034 14.5242L23.9778 14.5185L23.9521 14.5129L23.9264 14.5074L23.9008 14.5019L23.875 14.4965L23.8494 14.4911L23.8237 14.4858L23.798 14.4806L23.7723 14.4753L23.7466 14.4702L23.721 14.4651L23.6953 14.46L23.6696 14.455L23.6439 14.4501L23.6182 14.4451L23.5925 14.4403L23.5669 14.4355L23.5411 14.4307L23.5155 14.426L23.4898 14.4213L23.4641 14.4167L23.4385 14.4121L23.4127 14.4077L23.3871 14.4032L23.3614 14.3988L23.3357 14.3944L23.31 14.3901L23.2843 14.3859L23.2586 14.3817L23.233 14.3775L23.2072 14.3734L23.1816 14.3694L23.1559 14.3654L23.1302 14.3614L23.1045 14.3575L23.0788 14.3537L23.0532 14.3499L23.0275 14.3462L23.0018 14.3426L22.9761 14.339L22.9504 14.3355L22.9247 14.332L22.899 14.3285L22.8733 14.3251L22.8477 14.3219L22.822 14.3186L22.7963 14.3154L22.7706 14.3123L22.7449 14.3092L22.7193 14.3062L22.6935 14.3033L22.6679 14.3004L22.6422 14.2977L22.6165 14.2949L22.5908 14.2923L22.5651 14.2897L22.5394 14.2872L22.5138 14.2847L22.4881 14.2823L22.4624 14.28L22.4367 14.2778L22.411 14.2756L22.3854 14.2736L22.3596 14.2716L22.334 14.2696L22.3083 14.2678L22.2826 14.2661L22.2569 14.2643L22.2312 14.2628L22.2056 14.2613L22.1799 14.2599L22.1542 14.2586L22.1285 14.2574L22.1154 14.2567L22.1028 14.2562L22.0771 14.2551L22.0515 14.2541L22.0257 14.253L22.0001 14.2521L21.9744 14.2512L21.9487 14.2504L21.9231 14.2496L21.8973 14.2489L21.8717 14.2482L21.846 14.2475L21.8203 14.247L21.7946 14.2465L21.7689 14.246L21.7432 14.2456L21.7176 14.2453L21.6918 14.245L21.6662 14.2447L21.6405 14.2446L21.6148 14.2445L21.5891 14.2444L21.5634 14.2445L21.5378 14.2445L21.512 14.2446L21.4864 14.2448L21.4607 14.2451L21.435 14.2453L21.4093 14.2458L21.3836 14.2462L21.3579 14.2466L21.3323 14.2472L21.3066 14.2479L21.2809 14.2486L21.2552 14.2494L21.2295 14.2502L21.2039 14.2511L21.1781 14.2521L21.1525 14.2531L21.1268 14.2542L21.1011 14.2554L21.0755 14.2567L21.0497 14.258L21.0241 14.2594L20.9984 14.2609L20.9727 14.2624L20.947 14.2641L20.9213 14.2658L20.8956 14.2675L20.8699 14.2694L20.8442 14.2713L20.8186 14.2734L20.7929 14.2755L20.7672 14.2776L20.7415 14.2799L20.7158 14.2823L20.6902 14.2847L20.6645 14.2872L20.6388 14.2898L20.6131 14.2925L20.5874 14.2954L20.5617 14.2982L20.5361 14.3011L20.5103 14.3043L20.4847 14.3074L20.459 14.3107L20.4333 14.314L20.4076 14.3174L20.3819 14.321L20.3563 14.3246L20.3306 14.3283L20.3049 14.3322L20.2792 14.3361L20.2535 14.3402L20.2278 14.3443L20.2021 14.3486L20.1764 14.353L20.1508 14.3574L20.1251 14.3621L20.0994 14.3668L20.0737 14.3716L20.048 14.3766L20.0224 14.3816L19.9966 14.3868L19.971 14.3921L19.9453 14.3976L19.9196 14.4031L19.8939 14.4088L19.8682 14.4147L19.8426 14.4205L19.8169 14.4267L19.7912 14.4329L19.7655 14.4393L19.7398 14.4458L19.7141 14.4525L19.6885 14.4593L19.6627 14.4662L19.6371 14.4733L19.6114 14.4806L19.5857 14.4881L19.56 14.4956L19.5343 14.5034L19.5087 14.5112L19.483 14.5194C19.4744 14.5221 19.4658 14.5248 19.4573 14.5276L19.4316 14.5361C19.4231 14.5389 19.4144 14.5417 19.4059 14.5446L19.3802 14.5534L19.3546 14.5624C19.3459 14.5654 19.3374 14.5685 19.3288 14.5716C19.3203 14.5748 19.3117 14.5778 19.3032 14.5809L19.2775 14.5906C19.2689 14.5938 19.2603 14.597 19.2518 14.6003L19.2261 14.6104L19.2004 14.6205L19.1748 14.631L19.1491 14.6416L19.1234 14.6525L19.0977 14.6636L19.072 14.6749L19.0463 14.6866L19.0207 14.6983C19.012 14.7023 19.0035 14.7064 18.995 14.7105L18.9693 14.7228L18.9436 14.7355L18.9179 14.7484C18.9094 14.7528 18.9007 14.7571 18.8923 14.7616C18.8836 14.766 18.8751 14.7706 18.8665 14.7752L18.8409 14.789L18.8152 14.8031C18.8066 14.8079 18.798 14.8127 18.7895 14.8176C18.7809 14.8225 18.7723 14.8273 18.7638 14.8323C18.7552 14.8373 18.7467 14.8424 18.7381 14.8475C18.7295 14.8526 18.721 14.8578 18.7125 14.863C18.7039 14.8682 18.6952 14.8735 18.6868 14.8788C18.6781 14.8841 18.6696 14.8896 18.6611 14.895L18.6354 14.9117C18.6268 14.9173 18.6182 14.923 18.6097 14.9286L18.584 14.9461C18.5754 14.9521 18.5669 14.9581 18.5584 14.964C18.5497 14.9701 18.5412 14.9762 18.5326 14.9824C18.5241 14.9886 18.5154 14.9948 18.507 15.0011C18.4983 15.0075 18.4898 15.014 18.4813 15.0205C18.4727 15.0271 18.4641 15.0337 18.4556 15.0403C18.447 15.0471 18.4384 15.0538 18.4299 15.0606Z" fill="#E10238"/>
<defs>
<filter id="filter0_d_1_403" x="0" y="0" width="44" height="34" filterUnits="userSpaceOnUse" color-interpolation-filters="sRGB">
<feFlood flood-opacity="0" result="BackgroundImageFix"/>
<feColorMatrix in="SourceAlpha" type="matrix" values="0 0 0 0 0 0 0 0 0 0 0 0 0 0 0 0 0 0 127 0" result="hardAlpha"/>
<feOffset/>
<feGaussianBlur stdDeviation="3"/>
<feComposite in2="hardAlpha" operator="out"/>
<feColorMatrix type="matrix" values="0 0 0 0 0.401815 0 0 0 0 0.569466 0 0 0 0 0.904769 0 0 0 0.12 0"/>
<feBlend mode="normal" in2="BackgroundImageFix" result="effect1_dropShadow_1_403"/>
<feBlend mode="normal" in="SourceGraphic" in2="effect1_dropShadow_1_403" result="shape"/>
</filter>
</defs>
</svg>
