<svg width="32" height="22" viewBox="0 0 32 22" fill="none" xmlns="http://www.w3.org/2000/svg">
    <rect width="32" height="22" rx="2" fill="white"/>
    <g transform="scale(0.9) translate(2.000000, 8.5000000)" stroke="none" stroke-width="1" fill="none" fill-rule="evenodd">
        <g fill="#0A0B09" fill-rule="nonzero">
            <path d="M31.089034,5.33744735 C30.9688146,5.33792488 30.8498289,5.36204039 30.7389612,5.40852046 C30.6280935,5.45500052 30.5274928,5.52289007 30.4428497,5.60828922 C30.3582465,5.69368838 30.291312,5.79492578 30.2458666,5.90623121 C30.200461,6.01753663 30.1774199,6.13672138 30.178082,6.25694079 C30.1774199,6.3771602 30.200461,6.49634496 30.2458666,6.60765038 C30.291312,6.71895581 30.3582465,6.8201932 30.4428497,6.90559236 C30.5274928,6.99099152 30.6280935,7.05888106 30.7389612,7.10536113 C30.8498289,7.15184119 30.9688146,7.1759965 31.089034,7.17643424 C31.5914803,7.17643424 31.9999861,6.76452059 31.9999861,6.25694079 C32.0006482,6.13672138 31.9776071,6.01753663 31.9321617,5.90623121 C31.8867163,5.79492578 31.8197818,5.69368838 31.7351786,5.60828922 C31.6505753,5.52289007 31.5499348,5.45500052 31.4390671,5.40852046 C31.3281994,5.36204039 31.2092535,5.33792488 31.089034,5.33744735 Z M28.0913087,4.62735295 C28.0913087,3.93173981 27.5025082,3.36859882 26.7761776,3.36859882 C26.0498072,3.36859882 25.4610067,3.93259539 25.4610067,4.62735295 C25.4610067,5.32208664 26.0506429,5.88521967 26.7770133,5.88521967 C27.5033837,5.88521967 28.0913087,5.32208664 28.0913087,4.62735295 Z M28.0964024,2.18078647 L29.547432,2.18078647 L29.547432,7.07304793 L28.0964024,7.07304793 L28.0964024,6.76026258 C27.6733861,7.05227517 27.1714173,7.20846887 26.6573908,7.20803205 C25.2448028,7.20803205 24.0997537,6.05271503 24.0997537,4.62735295 C24.0997537,3.20196302 25.2448028,2.04662304 26.6573908,2.04662304 C27.1914738,2.04662304 27.6862397,2.21155166 28.0964024,2.49440354 L28.0964024,2.18078647 Z M16.4815201,2.81827169 L16.4815201,2.18164206 L14.9954713,2.18164206 L14.9954713,7.07304793 L16.4849424,7.07304793 L16.4849424,4.78883934 C16.4849424,4.01805822 17.3121124,3.60444933 17.886388,3.60444933 L17.9034598,3.60444933 L17.9034598,2.18164206 C17.3138236,2.18164206 16.772896,2.4362955 16.4815201,2.81827169 Z M12.7796298,4.62735295 C12.7796298,3.93173981 12.190869,3.36859882 11.4644986,3.36859882 C10.7381681,3.36859882 10.1493675,3.93259539 10.1493675,4.62735295 C10.1493675,5.32208664 10.7390038,5.88521967 11.4653741,5.88521967 C12.1917047,5.88521967 12.7796298,5.32208664 12.7796298,4.62735295 Z M12.7847633,2.18078647 L14.2366285,2.18078647 L14.2366285,7.07304793 L12.7847633,7.07304793 L12.7847633,6.76026258 C12.3746006,7.04224693 11.8798346,7.20803113 11.3457118,7.20803113 C9.93316361,7.20803113 8.78807472,6.05271503 8.78807472,4.62735295 C8.78807472,3.20196302 9.93316361,2.04662304 11.3457118,2.04662304 C11.8798346,2.04662304 12.3746006,2.21155166 12.7847633,2.49440354 L12.7847633,2.18078647 Z M21.5207469,2.0500414 C20.9413777,2.0500414 20.3927299,2.2312062 20.0253066,2.73196521 L20.0253066,2.18164206 L18.5802462,2.18164206 L18.5802462,7.07304793 L20.0432539,7.07304793 L20.0432539,4.50255717 C20.0432539,3.75912288 20.5371444,3.39423448 21.1327896,3.39423448 C21.7702589,3.39423448 22.137722,3.77877742 22.137722,4.49232996 L22.137722,7.07304793 L23.5870006,7.07304793 L23.5870006,3.96250101 C23.5870006,2.82425679 22.6897523,2.0500414 21.5207469,2.0500414 Z M6.67394814,7.07304793 L8.1933448,7.07304793 L8.1933448,0.00170976993 L6.67394814,0.00170976993 L6.67394814,7.07304793 Z M0,7.07471931 L1.60909761,7.07471931 L1.60909761,0 L0.000854477069,0 L0,7.07471931 Z M5.62798754,0 C5.62798754,1.53133503 5.03664016,2.95670905 3.98216351,4.01547157 L6.20568538,7.07471931 L4.21886164,7.07471931 L1.80308025,3.75057501 L2.42689204,3.27887001 C2.93472653,2.89692964 3.34618652,2.4015031 3.6283977,1.83218202 C3.91061287,1.26286093 4.05574368,0.635419873 4.05224176,0 L5.62627637,0 L5.62798754,0 Z" id="形状"></path>
        </g>
    </g>
</svg>
