<svg width="32" height="22" viewBox="0 0 32 22" fill="none" xmlns="http://www.w3.org/2000/svg">
    <rect width="32" height="22" rx="2" fill="white"/>
    <g id="text" transform="scale(0.9) translate(2.000000, 7.5000000)" fill="#1A1A1A">
        <path d="M5.0548625,8.65293333 C4.17385361,8.65293333 3.38303139,8.11288889 3.06244472,7.29248889 L2.64721805,6.23106667 C2.60462694,6.13466667 2.5593825,6.07226667 2.51147139,6.04328889 C2.4632625,6.01426667 2.3851825,5.99977778 2.27723583,5.99977778 L2.09240028,5.99977778 L1.98297805,6.89706667 C1.86053361,7.89937778 1.00967583,8.65293333 0,8.65293333 L0.847902498,1.75554667 C0.970929164,0.753262222 1.82237805,0 2.83235139,0 L2.23701805,4.84964444 L2.35827583,4.84964444 C2.45853361,4.84964444 2.53927139,4.83426667 2.60107583,4.80351111 C2.66259583,4.77275556 2.72440472,4.71684444 2.78592472,4.63582222 L3.65452472,3.44572889 C4.01060916,2.95804889 4.57664028,2.66821333 5.18028472,2.66496 L6.19615139,2.65904889 L4.51988472,4.79195556 C4.44268472,4.89222222 4.35811139,4.98093333 4.26553361,5.05782222 C4.17296916,5.13502222 4.07655583,5.20244444 3.97659583,5.26013333 C4.05762694,5.32577778 4.12772028,5.40177778 4.1874625,5.48844444 C4.24720472,5.57511111 4.30013805,5.67448889 4.34628028,5.78626667 L5.5484625,8.6532 L5.0548625,8.6532 L5.0548625,8.65293333 Z" id="路径"></path>
        <path d="M6.18490694,8.65293333 L7.02335139,1.75584444 C7.14517361,0.75356 7.9960625,0 9.0056625,0 L8.1672625,6.89706667 C8.04512916,7.89937778 7.19455139,8.65293333 6.18490694,8.65293333 Z" id="路径"></path>
        <path d="M16.2763292,7.31768889 C16.3573958,7.37182222 16.4534403,7.42177778 16.5652625,7.46791111 C16.6770403,7.51408889 16.8234847,7.53742222 17.0044181,7.53742222 C17.2588181,7.53742222 17.4474403,7.48066667 17.5707736,7.3668 C17.6941069,7.25324444 17.7556625,7.11924444 17.7556625,6.96515556 C17.7556625,6.84568889 17.7237069,6.74751111 17.6600625,6.67031111 C17.5965514,6.59311111 17.5127736,6.52688889 17.4087292,6.47097778 C17.3046403,6.41506667 17.1872181,6.36511111 17.0561514,6.32075556 C16.9251736,6.27666667 16.7903292,6.22728889 16.6516181,6.17346667 C16.5129069,6.11964444 16.3780181,6.05693333 16.2470403,5.98564444 C16.1160181,5.9144 15.9986403,5.82475556 15.8945069,5.71684444 C15.7904181,5.60888889 15.7066847,5.47608889 15.6431292,5.31786667 C15.5795292,5.15991111 15.5475736,4.96915556 15.5475736,4.7456 C15.5475736,4.46817778 15.5987736,4.19846222 15.7007736,3.93643556 C15.8028625,3.67440444 15.9551736,3.44224444 16.1573958,3.23995111 C16.3597069,3.03766667 16.6110847,2.87500444 16.9115736,2.75168 C17.2120625,2.62835111 17.5627736,2.56684 17.9635292,2.56684 C18.3642403,2.56684 18.7215736,2.63604 19.0359736,2.77504444 C19.3499736,2.91375111 19.6090403,3.08350222 19.8134403,3.28372444 L19.4464181,3.75070667 C19.2316625,4.02397778 18.8528181,4.10589778 18.5446847,3.94560444 C18.4580625,3.90124 18.3598403,3.86190667 18.2498403,3.82700444 C18.1401514,3.79240889 18.0138403,3.77495556 17.8712625,3.77495556 C17.6053958,3.77495556 17.4154847,3.82612 17.3019736,3.92815556 C17.1881069,4.03048 17.1313069,4.16238222 17.1313069,4.32416 C17.1313069,4.42826222 17.1629958,4.51697778 17.2265514,4.59004444 C17.2901514,4.66337778 17.3738403,4.72875556 17.4778847,4.78671111 C17.5820625,4.84435556 17.7005958,4.8976 17.8333958,4.94551111 C17.9661958,4.99373333 18.1021958,5.04786667 18.2409958,5.10728889 C18.3797069,5.16702222 18.5154403,5.23533333 18.6485069,5.31253333 C18.7813069,5.38973333 18.8998403,5.48408889 19.0040181,5.59586667 C19.1080625,5.70764444 19.1917514,5.84075556 19.2553514,5.9948 C19.3189958,6.14888889 19.3505958,6.33195556 19.3505958,6.54404444 C19.3505958,6.84448889 19.2908625,7.12871111 19.1713514,7.39666667 C19.0519292,7.66462222 18.8803292,7.89764444 18.6570847,8.09608889 C18.4335292,8.29453333 18.1628625,8.45248889 17.8449514,8.57017778 C17.5270403,8.68764444 17.1697958,8.74648889 16.7728625,8.74648889 C16.5930403,8.74648889 16.4135292,8.72928889 16.2372625,8.69377778 C16.0429958,8.65475556 15.8601958,8.60124444 15.6889514,8.53262222 C15.5250847,8.46697778 15.3757958,8.3892 15.2409514,8.2984 C15.1060625,8.20791111 14.9963292,8.11057778 14.9114403,8.00648889 L15.2477069,7.51257778 C15.4784181,7.17426667 15.9388625,7.08728889 16.2763292,7.31768889 Z" id="路径"></path>
        <path d="M19.8715292,8.65293333 L20.7073514,1.77891111 C20.8306847,0.76332 21.6925069,0 22.7154403,0 L22.2934403,3.44514222 C22.5670403,3.14466667 22.8559736,2.92314667 23.1605514,2.78030222 C23.4648181,2.63775556 23.7789514,2.56648 24.1027736,2.56648 C24.3261069,2.56648 24.5333514,2.60699556 24.7241514,2.68773333 C24.9149069,2.76876444 25.0775736,2.88706667 25.2124625,3.04321778 C25.3473069,3.19937333 25.4531292,3.39101333 25.5303736,3.61844444 C25.6075292,3.84587111 25.6459736,4.10790667 25.6459736,4.40453778 C25.6459736,4.47404444 25.6430403,4.54528889 25.6373958,4.61835556 C25.6318403,4.69168889 25.6249958,4.76684444 25.6173514,4.84373333 L25.1666403,8.65293333 L23.3746403,8.65293333 L23.8253958,4.84373333 C23.8330847,4.78222222 23.8389958,4.72511111 23.8428181,4.67337778 C23.8466403,4.62133333 23.8487292,4.57222222 23.8487292,4.52608889 C23.8487292,4.31788 23.8121069,4.17355556 23.7390403,4.09252444 C23.6656625,4.01149333 23.5559736,3.97127556 23.4095292,3.97127556 C23.2901069,3.97127556 23.1646847,4.00705778 23.0339736,4.07832444 C22.9029069,4.14960444 22.7766403,4.25075111 22.6553958,4.38176 C22.5341514,4.5128 22.4202403,4.67071111 22.3144625,4.85582222 C22.2082403,5.04066667 22.1207292,5.24711111 22.0514847,5.47426667 L21.8808181,6.87462222 C21.7563736,7.8896 20.8942403,8.65293333 19.8715292,8.65293333 Z" id="路径"></path>
        <path d="M31.2117069,8.65271111 L30.2523736,8.65271111 C30.1405514,8.65271111 30.0470847,8.63822222 29.9720181,8.60924444 C29.8968625,8.58026667 29.8371292,8.54093333 29.7927736,8.49062222 C29.7484181,8.44066667 29.7176181,8.38093333 29.7001958,8.31142222 C29.6827292,8.24191111 29.6741514,8.1668 29.6741514,8.08604444 L29.6741514,7.6584 C29.4275736,7.99764444 29.1539736,8.26351111 28.8534847,8.45604444 C28.5529958,8.64888889 28.2214403,8.74497778 27.8591736,8.74497778 C27.6433069,8.74497778 27.4353514,8.70151111 27.2348625,8.61484444 C27.0343736,8.52817778 26.8572181,8.3972 26.7031292,8.22182222 C26.5489958,8.04644444 26.4256625,7.82284444 26.3331292,7.55137778 C26.2405514,7.27955556 26.1944625,6.95897778 26.1944625,6.58902222 C26.1944625,6.04573333 26.2934847,5.53022222 26.4922403,5.04284444 C26.6906403,4.55546667 26.9681514,4.12868889 27.3244181,3.76256 C27.6808181,3.39642667 28.1037514,3.10570667 28.5931736,2.88981333 C29.0823736,2.67392 29.6200625,2.56597333 30.2059292,2.56597333 C30.4910403,2.56597333 30.7799736,2.58519556 31.0729958,2.62364 C31.3658403,2.66208889 31.6548181,2.73159556 31.9401958,2.83184889 L31.2117069,8.65271111 Z M28.5761069,7.32893333 C28.7070847,7.32893333 28.8342403,7.27986667 28.9575736,7.18168889 C29.0809069,7.08346667 29.1974403,6.94951111 29.3071736,6.78004444 C29.4168625,6.61057778 29.5179736,6.41213333 29.6105958,6.18471111 C29.6114847,6.18235556 29.6123292,6.18026667 29.6132181,6.17791111 C29.7590403,5.81831111 29.8497958,5.43884444 29.8980625,5.05377778 L30.0557069,3.79775556 L29.9515292,3.79775556 C29.6587736,3.79775556 29.3917069,3.86340889 29.1510403,3.99442667 C28.9102403,4.12544 28.7029069,4.30376889 28.5296625,4.52915556 C28.3563292,4.75448889 28.2223292,5.01653333 28.1279736,5.31524444 C28.0336181,5.61391111 27.9863292,5.93275556 27.9863292,6.27195556 C27.9863292,6.4648 28.0017069,6.62835556 28.0325069,6.7632 C28.0632181,6.89804444 28.1046403,7.00688889 28.1566847,7.08968889 C28.2087736,7.17248889 28.2702403,7.23311111 28.3415736,7.27186667 C28.4134403,7.30973333 28.4912181,7.32893333 28.5761069,7.32893333 Z" id="形状"></path>
        <path d="M14.1266403,8.65271111 L13.1673069,8.65271111 C13.0554847,8.65271111 12.9620181,8.63822222 12.8868625,8.60924444 C12.8117958,8.58026667 12.7520625,8.54093333 12.7077069,8.49062222 C12.6632625,8.44066667 12.6325514,8.38093333 12.6151292,8.31142222 C12.5976625,8.24191111 12.5890847,8.1668 12.5890847,8.08604444 L12.5890847,7.6584 C12.3424181,7.99764444 12.0689069,8.26351111 11.7684181,8.45604444 C11.4679292,8.64888889 11.1363736,8.74497778 10.7741069,8.74497778 C10.5582403,8.74497778 10.3502847,8.70151111 10.1497958,8.61484444 C9.94930694,8.52817778 9.77215139,8.3972 9.61797361,8.22182222 C9.46392916,8.04644444 9.34059583,7.82284444 9.2480625,7.55137778 C9.15548472,7.27986667 9.10939583,6.95897778 9.10939583,6.58902222 C9.10939583,6.04573333 9.20841805,5.53022222 9.40717361,5.04284444 C9.60557361,4.55546667 9.88299583,4.12868889 10.2393514,3.76256 C10.5957514,3.39642667 11.0186847,3.10570667 11.5081069,2.88981333 C11.9973069,2.67392 12.5349958,2.56597333 13.1208625,2.56597333 C13.4058847,2.56597333 13.6949069,2.58519556 13.9879292,2.62364 C14.2807736,2.66208889 14.5697069,2.73159556 14.8551292,2.83184889 L14.1266403,8.65271111 Z M11.4906847,7.32893333 C11.6217514,7.32893333 11.7489069,7.27986667 11.8722403,7.18168889 C11.9955736,7.08346667 12.1120625,6.94951111 12.2217514,6.78004444 C12.3314403,6.61057778 12.4326847,6.41213333 12.5251736,6.18471111 C12.5260625,6.18235556 12.5269958,6.18026667 12.5278847,6.17791111 C12.6737069,5.81831111 12.7644625,5.43884444 12.8126403,5.05377778 L12.9702847,3.79775556 L12.8661958,3.79775556 C12.5734403,3.79775556 12.3063736,3.86340889 12.0656181,3.99442667 C11.8248181,4.12544 11.6175736,4.30376889 11.4442403,4.52915556 C11.2709069,4.75448889 11.1369958,5.01653333 11.0426403,5.31524444 C10.9482847,5.61391111 10.9009958,5.93275556 10.9009958,6.27195556 C10.9009958,6.4648 10.9163736,6.62835556 10.9470847,6.7632 C10.9778847,6.89804444 11.0193069,7.00688889 11.0713069,7.08968889 C11.1233514,7.17248889 11.1849069,7.23311111 11.2561514,7.27186667 C11.3280181,7.30973333 11.4057958,7.32893333 11.4906847,7.32893333 Z" id="形状"></path>
    </g>
</svg>
