<svg width="32" height="22" viewBox="6 6 32 22" fill="none" xmlns="http://www.w3.org/2000/svg">
    <rect x="6" y="6" width="32" height="22" rx="2" fill="white"/>
    <path d="M28.7867 21.972L25.3823 16.7305L20.6685 23.9952H27.7096C27.7308 23.9952 27.7519 23.9952 27.7772 23.9952C28.774 23.9487 29.3316 22.8125 28.7867 21.972Z"
          fill="#FFCC00"/>
    <path d="M22.2946 10H16.4657C15.6589 10 15 10.6589 15 11.4656V21.2307L22.2946 10Z" fill="#164194"/>
    <path d="M27.435 10C27.4139 10 27.3928 10 27.3675 10H22.2946L15 21.2307V22.5274C15 23.3341 15.6589 23.993 16.4657 23.993H20.6642L25.3822 16.7325L28.4445 12.0189C28.9894 11.1826 28.4319 10.0465 27.435 10Z"
          fill="#E40521"/>
</svg>
