<svg width="32" height="22" viewBox="0 0 32 22" fill="none" xmlns="http://www.w3.org/2000/svg">
<rect width="32" height="22" rx="2" fill="#E8ECF0"/>
<path d="M22 15.7906H10V16.3953C10 16.4747 10.0155 16.5534 10.0457 16.6267C10.0758 16.7001 10.12 16.7667 10.1757 16.8229C10.2315 16.879 10.2976 16.9236 10.3704 16.954C10.4432 16.9844 10.5212 17 10.6 17H21.4C21.4788 17 21.5568 16.9844 21.6296 16.954C21.7024 16.9236 21.7685 16.879 21.8243 16.8229C21.88 16.7667 21.9242 16.7001 21.9543 16.6267C21.9845 16.5534 22 16.4747 22 16.3953V15.7906ZM13 9.74375H11.5V14.2789H10.6V14.5813C10.6 14.6607 10.6155 14.7393 10.6457 14.8127C10.6758 14.886 10.72 14.9527 10.7757 15.0088C10.8315 15.065 10.8976 15.1095 10.9704 15.1399C11.0432 15.1703 11.1212 15.1859 11.2 15.1859H20.8C20.9591 15.1859 21.1117 15.1222 21.2243 15.0088C21.3368 14.8954 21.4 14.7416 21.4 14.5813V14.2789H20.5V9.74375H19V14.2789H18.1C18.1 12.5078 18.1 9.74375 18.1 9.74375H16.6V14.2789H15.4C15.4 12.5078 15.4 11.5148 15.4 9.74375H13.9V14.2789H13V9.74375ZM16.3 5.08101C16.2088 5.02794 16.1053 5 16 5C15.8947 5 15.7912 5.02794 15.7 5.08101L10.6048 8.04549C10.5124 8.09925 10.4359 8.17687 10.3831 8.27035C10.3304 8.36383 10.3034 8.46979 10.3048 8.57731L10.306 8.67588C10.3076 8.79671 10.3563 8.91205 10.4417 8.99694C10.527 9.08182 10.6421 9.1294 10.762 9.12939L11.3962 9.1303C11.4298 9.13635 11.4646 9.13937 11.5 9.13937H20.2L20.2366 9.13786L21.2452 9.13877C21.4966 9.13877 21.7 8.93378 21.7 8.68102V8.57187C21.7 8.46573 21.6723 8.36146 21.6196 8.26954C21.5669 8.17762 21.4912 8.10128 21.4 8.04821L16.3 5.08101Z" fill="#515B74"/>
</svg>
