<svg width="32" height="22" viewBox="6 6 32 22" fill="none" xmlns="http://www.w3.org/2000/svg">
<g filter="url(#filter0_d_1_346)">
<rect x="6" y="6" width="32" height="22" rx="2" fill="white"/>
</g>
<path fill-rule="evenodd" clip-rule="evenodd" d="M20.9638 12.1936C20.9781 12.0854 21.0157 11.9817 21.074 11.8895H21.0728L22.5452 9.46293C22.6646 9.26517 22.8518 9.11758 23.072 9.0477C23.1934 9.00819 23.3214 8.99299 23.4487 9.00297C23.576 9.01295 23.7001 9.04792 23.8139 9.10587C23.9277 9.16382 24.0289 9.24362 24.1118 9.34072C24.1948 9.43781 24.2578 9.55029 24.2972 9.67174C24.3478 9.83854 24.3541 10.0156 24.3156 10.1856C24.2771 10.3556 24.1951 10.5127 24.0776 10.6414L22.2356 12.7799C22.1496 12.8761 22.0396 12.9479 21.917 12.988C21.7943 13.0282 21.6632 13.0352 21.5369 13.0084C21.4107 12.9816 21.2937 12.9219 21.1979 12.8355C21.1021 12.749 21.0308 12.6388 20.9912 12.5159C20.9588 12.4117 20.9495 12.3017 20.9638 12.1936ZM20.4188 15.2667L17.4728 13.9862C17.3715 13.9414 17.2829 13.8721 17.2151 13.7845C17.1472 13.6969 17.1022 13.5939 17.084 13.4846C17.0666 13.3764 17.0764 13.2656 17.1125 13.1621C17.1487 13.0587 17.21 12.9659 17.2909 12.892C17.3719 12.8182 17.47 12.7657 17.5763 12.7393C17.6826 12.7128 17.7939 12.7133 17.9 12.7405L21.0512 13.4402C21.2719 13.4898 21.4684 13.615 21.6067 13.794C21.745 13.9731 21.8164 14.1949 21.8085 14.421C21.8007 14.6471 21.7142 14.8634 21.5638 15.0325C21.4135 15.2016 21.2088 15.3129 20.9852 15.3471C20.7926 15.3755 20.5959 15.3476 20.4188 15.2667ZM26.3636 15.4184C26.2577 15.3923 26.1473 15.3894 26.0402 15.4102C25.9331 15.4309 25.8317 15.4747 25.7432 15.5384C25.6387 15.6142 25.5561 15.7162 25.5037 15.8342C25.4513 15.9521 25.4309 16.0818 25.4447 16.2102C25.4584 16.3385 25.5058 16.4609 25.582 16.5651C25.6583 16.6692 25.7606 16.7514 25.8788 16.8033L28.4828 17.8906C28.6417 17.9624 28.8165 17.9917 28.99 17.9755C29.1636 17.9593 29.33 17.8982 29.4728 17.7982C29.6808 17.6463 29.82 17.418 29.8598 17.1635C29.8997 16.909 29.8369 16.6491 29.6852 16.4409C29.5504 16.2534 29.3521 16.1212 29.1272 16.0689L26.3672 15.4232L26.3636 15.4184ZM24.5594 21.2175C24.6114 21.3134 24.6419 21.4195 24.6488 21.5285L24.644 21.5273C24.644 21.5286 24.6568 21.6765 24.6764 21.904L24.6767 21.9069L24.6769 21.91L24.6776 21.9175L24.6782 21.9246L24.6784 21.9275C24.7448 22.6966 24.884 24.3092 24.884 24.3558C24.9038 24.5861 24.839 24.8156 24.7016 25.0015C24.5503 25.2097 24.3225 25.3494 24.0683 25.3899C23.8141 25.4304 23.5542 25.3684 23.3456 25.2175C23.2066 25.1124 23.0973 24.9729 23.0285 24.8128C22.9597 24.6527 22.9338 24.4774 22.9532 24.3042C22.9532 24.3006 23.011 23.6036 23.0691 22.9044L23.0696 22.8977C23.1278 22.1962 23.186 21.4949 23.186 21.4913C23.199 21.3628 23.2457 21.2401 23.3213 21.1356C23.3969 21.031 23.4988 20.9482 23.6167 20.8956C23.7345 20.843 23.8642 20.8224 23.9925 20.836C24.1209 20.8495 24.2434 20.8968 24.3476 20.9728C24.4351 21.038 24.5074 21.1215 24.5594 21.2175ZM18.296 21.7973C18.3975 21.7571 18.4891 21.6952 18.5643 21.6161C18.6395 21.5369 18.6966 21.4423 18.7316 21.3389C18.7715 21.2163 18.7784 21.0853 18.7516 20.9592C18.7249 20.8331 18.6654 20.7163 18.5792 20.6204C18.4929 20.5246 18.383 20.4531 18.2604 20.4132C18.1378 20.3734 18.0069 20.3664 17.8808 20.3932L15.1328 21.0412C14.9618 21.0759 14.8028 21.1546 14.6714 21.2695C14.5401 21.3844 14.441 21.5316 14.384 21.6965C14.3042 21.9416 14.3249 22.2083 14.4417 22.4381C14.5585 22.6679 14.7618 22.8418 15.0068 22.9218C15.2261 22.995 15.4645 22.9861 15.6776 22.8966L18.296 21.8009V21.7973ZM16.342 16.0318C16.2436 15.985 16.1566 15.9174 16.0868 15.8336L14.2328 13.6843C14.0819 13.5092 13.9992 13.2855 14 13.0543C14 12.7965 14.1024 12.5492 14.2847 12.3669C14.467 12.1846 14.7142 12.0822 14.972 12.0822C15.1462 12.0854 15.3166 12.1339 15.4664 12.2229C15.6162 12.3119 15.7403 12.4384 15.8264 12.5898C15.8312 12.5958 17.2916 14.996 17.2916 15.002C17.3567 15.1135 17.3912 15.2403 17.3916 15.3694C17.392 15.4985 17.3582 15.6255 17.2938 15.7374C17.2294 15.8493 17.1366 15.9422 17.0247 16.0068C16.9129 16.0713 16.7859 16.1051 16.6568 16.1048C16.5478 16.1035 16.4404 16.0786 16.342 16.0318ZM23.1058 14.2391L23.1056 14.2414C23.0288 15.0391 22.952 15.8368 22.952 15.8404C22.9295 16.034 22.9637 16.2299 23.0504 16.4045C23.1531 16.6049 23.3222 16.7635 23.5288 16.8531C23.7355 16.9427 23.9668 16.9578 24.1833 16.8957C24.3998 16.8337 24.5881 16.6983 24.7159 16.5128C24.8437 16.3274 24.9031 16.1033 24.884 15.8788C24.884 15.8716 24.578 12.6723 24.5768 12.6663C24.5712 12.5763 24.5471 12.4884 24.506 12.4082C24.4264 12.252 24.288 12.1337 24.1213 12.0795C23.9545 12.0252 23.7731 12.0395 23.6168 12.119C23.518 12.1696 23.4333 12.2441 23.3704 12.3357C23.3076 12.4272 23.2685 12.533 23.2568 12.6435L23.2592 12.6423C23.2592 12.6458 23.1826 13.441 23.106 14.2374L23.1058 14.2391ZM23.1932 18.4209L26.3288 17.7224H26.33C26.4384 17.6992 26.5508 17.7032 26.6572 17.7342C26.7637 17.7652 26.8607 17.8222 26.9396 17.9C27.0635 18.024 27.1331 18.1922 27.1331 18.3675C27.1331 18.5428 27.0635 18.7109 26.9396 18.8349C26.8761 18.8985 26.8001 18.9484 26.7164 18.9813L23.756 20.269C23.5484 20.3583 23.3161 20.3724 23.0992 20.3089C22.8823 20.2453 22.6944 20.108 22.5679 19.9208C22.4413 19.7335 22.3841 19.5079 22.406 19.283C22.4279 19.058 22.5277 18.8478 22.688 18.6885C22.827 18.5523 23.0025 18.4594 23.1932 18.4209ZM22.4432 22.2143L20.8124 19.447C20.7169 19.2774 20.5744 19.139 20.402 19.0485C20.201 18.9462 19.9707 18.917 19.7505 18.9658C19.5303 19.0147 19.334 19.1386 19.1951 19.3163C19.0563 19.4941 18.9835 19.7146 18.9894 19.94C18.9952 20.1655 19.0793 20.3819 19.2272 20.5522L21.3644 22.9716C21.4342 23.0559 21.5238 23.1217 21.6253 23.1628C21.7268 23.204 21.8369 23.2193 21.9457 23.2074C22.0546 23.1955 22.1588 23.1568 22.249 23.0947C22.3391 23.0326 22.4125 22.949 22.4624 22.8516C22.512 22.7524 22.5362 22.6425 22.5328 22.5317C22.5295 22.4209 22.4987 22.3127 22.4432 22.2167V22.2143ZM19.0988 17.5066L16.97 19.9067L16.9724 19.908C16.898 19.9907 16.8042 20.0535 16.6995 20.0908C16.5947 20.1281 16.4823 20.1387 16.3724 20.1216C16.2642 20.1044 16.162 20.0606 16.0749 19.9941C15.9879 19.9276 15.9187 19.8406 15.8736 19.7407C15.8285 19.6409 15.8089 19.5314 15.8166 19.4222C15.8243 19.3129 15.859 19.2072 15.9176 19.1147L17.5592 16.3401C17.6759 16.1478 17.8556 16.0019 18.0679 15.9273C18.2801 15.8527 18.5116 15.854 18.723 15.931C18.9343 16.008 19.1125 16.156 19.2269 16.3496C19.3414 16.5433 19.3852 16.7707 19.3508 16.993C19.3184 17.185 19.2309 17.3635 19.0988 17.5066Z" fill="#EB2E4A"/>
<defs>
<filter id="filter0_d_1_346" x="0" y="0" width="44" height="34" filterUnits="userSpaceOnUse" color-interpolation-filters="sRGB">
<feFlood flood-opacity="0" result="BackgroundImageFix"/>
<feColorMatrix in="SourceAlpha" type="matrix" values="0 0 0 0 0 0 0 0 0 0 0 0 0 0 0 0 0 0 127 0" result="hardAlpha"/>
<feOffset/>
<feGaussianBlur stdDeviation="3"/>
<feComposite in2="hardAlpha" operator="out"/>
<feColorMatrix type="matrix" values="0 0 0 0 0.401815 0 0 0 0 0.569466 0 0 0 0 0.904769 0 0 0 0.12 0"/>
<feBlend mode="normal" in2="BackgroundImageFix" result="effect1_dropShadow_1_346"/>
<feBlend mode="normal" in="SourceGraphic" in2="effect1_dropShadow_1_346" result="shape"/>
</filter>
</defs>
</svg>
