<svg width="33" height="22" viewBox="0 0 96 64" fill="none" xmlns="http://www.w3.org/2000/svg">
    <rect width="96" height="64" rx="5.81" fill="white"/>
    <path d="M63.2043 31.2875C63.2043 35.866 54.204 39.5774 43.1033 39.5774C32.0003 39.5774 23 35.866 23 31.2875C23 26.7089 32.0003 23 43.1033 23C54.204 23 63.2043 26.7089 63.2043 31.2875Z" fill="#00678F"/>
    <path d="M30.223 35.379L32.302 27.0891H35.6237V31.9171L37.8072 27.0891H41.2358L39.1592 35.379H36.9756L38.2206 30.0282L35.6237 35.379H33.8607V30.0282L32.5064 35.379H30.223Z" fill="white"/>
    <path d="M41.9082 35.4836L42.2195 34.3289H44.6097L44.2961 35.4836H41.9082Z" fill="#ED1D24"/>
    <path d="M47.2566 35.379L49.3332 27.0891H51.7235L52.7642 31.499L53.9046 27.0891H56.0858L54.0092 35.379H51.7235L50.5806 30.867L49.4378 35.379H47.2566Z" fill="white"/>
    <path d="M41.9082 27.0891L41.3878 29.1895H43.5714L42.3952 33.7443H44.7831L45.9616 29.1895H48.1428L48.6608 27.0891H41.9082Z" fill="#FFCB05"/>
    <path d="M20.4435 30.7225C20.4435 34.9873 16.9873 38.4449 12.7225 38.4449C8.45759 38.4449 5 34.9873 5 30.7225C5 26.4576 8.45759 23 12.7225 23C16.9873 23 20.4435 26.4576 20.4435 30.7225Z" fill="#EE3023"/>
    <path d="M12.7835 35.0284C10.6624 35.0356 8.45479 33.2251 8.44486 30.3166C8.43776 28.3941 9.47632 26.5426 10.8015 25.4445C12.0954 24.3747 13.8675 23.6866 15.4735 23.6809C15.6807 23.6809 15.8978 23.6979 16.0297 23.7433C14.6251 24.0342 13.5071 25.3423 13.5114 26.8249C13.5114 26.8745 13.5156 26.927 13.5212 26.9512C15.8722 27.5244 16.9391 28.9432 16.9462 30.9053C16.9519 32.869 15.4026 35.0199 12.7835 35.0284Z" fill="white"/>
    <path fill-rule="evenodd" clip-rule="evenodd" d="M84.9594 23.3981C85.9704 22.8971 87.1848 22.8797 88.2306 23.2853C88.8342 23.5253 89.4096 23.8973 89.784 24.4379C90.0536 24.8467 90.0394 25.3414 90.0258 25.8141L90.0258 25.8143L90.0258 25.8145L90.0258 25.8147L90.0258 25.8149L90.0258 25.8151C90.0239 25.8806 90.0221 25.9456 90.021 26.0099L89.9765 25.9626C89.678 25.6448 89.3763 25.3237 89.0076 25.0847C88.239 24.5543 87.2718 24.3521 86.3496 24.4571C85.2234 24.5411 84.1212 25.0859 83.4456 26.0033C83.448 25.8903 83.4445 25.7756 83.441 25.6605C83.4307 25.3177 83.4202 24.971 83.5644 24.6539C83.8206 24.0564 84.3966 23.6754 84.9594 23.3981ZM72.3372 24.3017C72.8742 24.1673 73.4778 24.5093 73.6194 25.0487C73.8258 25.6895 73.2798 26.4185 72.6096 26.4113C72.0276 26.4461 71.5128 25.9145 71.5218 25.3397C71.5128 24.8579 71.8704 24.4109 72.3372 24.3017ZM67.6672 25.2665C67.4566 25.2627 67.2414 25.2588 67.0506 25.3571C66.7152 25.5281 66.468 25.8269 66.2604 26.1329C66.048 26.4443 66.0066 26.8319 66.0006 27.1985C66.001 28.1589 66.0008 29.1193 66.0007 30.0797L66.0006 31.5203C65.994 31.9793 66.0426 32.4449 66.2022 32.8781C66.3948 33.4157 66.8088 33.8777 67.3362 34.1033C67.8768 34.3427 68.484 34.4027 69.069 34.3559C69.4944 34.3115 69.9612 34.1609 70.1958 33.7763C70.3752 33.4901 70.3667 33.1584 70.3584 32.8309V32.8309V32.8309V32.8309V32.8309C70.3553 32.7115 70.3523 32.5926 70.3584 32.4767C70.0656 32.6153 69.7536 32.7155 69.4284 32.7347L69.3759 32.7381C68.9993 32.7623 68.5887 32.7888 68.2614 32.5709C67.9224 32.3423 67.8192 31.9079 67.8198 31.5215C67.8198 31.2167 67.8196 30.9119 67.8193 30.6071V30.607C67.8188 29.9213 67.8183 29.2355 67.8204 28.5497C68.3346 28.5539 68.8488 28.5563 69.363 28.5491C69.7842 28.5425 70.236 28.2863 70.3356 27.8543C70.365 27.6628 70.3619 27.4691 70.3589 27.2754V27.2754V27.2754V27.2754V27.2754V27.2754V27.2753C70.3571 27.1608 70.3553 27.0463 70.3602 26.9321L69.9971 26.9319C69.2717 26.9313 68.5466 26.9307 67.821 26.9327C67.8174 26.3777 67.8186 25.8227 67.821 25.2677C67.7703 25.2683 67.7189 25.2674 67.6673 25.2665H67.6673H67.6673H67.6673H67.6672ZM86.4762 26.7767C87.2262 26.7317 88.0002 26.9003 88.629 27.3209C89.5074 27.9047 90.0396 28.9151 90.1578 29.9501C90.2538 30.8951 90.1248 31.8863 89.658 32.7245C89.2398 33.4913 88.5102 34.0865 87.6618 34.3079C86.6304 34.5839 85.4502 34.4867 84.5652 33.8519C83.7408 33.2801 83.2518 32.3177 83.1204 31.3379C83.0094 30.3977 83.1402 29.4119 83.5824 28.5677C83.8806 27.9953 84.3414 27.5027 84.9138 27.1991C85.3914 26.9369 85.935 26.8097 86.4762 26.7767ZM86.139 28.4519C85.7736 28.5413 85.4652 28.8023 85.284 29.1275C84.9924 29.6321 84.957 30.2327 84.9846 30.8015C85.0116 31.3385 85.1298 31.9049 85.4868 32.3249C85.8732 32.7731 86.5242 32.8913 87.084 32.7845C87.5208 32.6957 87.879 32.3663 88.0608 31.9673C88.2996 31.4555 88.3236 30.8729 88.2822 30.3185C88.2336 29.7749 88.0944 29.1929 87.6828 28.8053C87.2814 28.4154 86.6676 28.3397 86.139 28.4519ZM80.619 26.8896C79.8282 26.7444 79.0038 26.8392 78.2406 27.0792C77.331 27.3702 76.5072 27.9767 76.0272 28.8102C75.4794 29.7396 75.366 30.894 75.6354 31.9308C75.876 32.8668 76.5288 33.6732 77.3742 34.1352C78.3636 34.6986 79.5618 34.7976 80.6658 34.5834C81.2406 34.4676 81.8388 34.1712 82.0944 33.6132C82.3006 33.166 82.2901 32.6761 82.2796 32.1905C82.2756 32.0051 82.2717 31.8202 82.2798 31.6386C82.3104 31.1634 81.8802 30.777 81.4302 30.7344C81.2242 30.7214 81.0179 30.723 80.8114 30.7246C80.6661 30.7258 80.5207 30.727 80.3754 30.723C80.526 31.3698 80.5356 32.0382 80.5038 32.6982C80.4696 32.9994 80.1234 33.0678 79.8738 33.0834C79.2132 33.1116 78.483 32.979 78.0024 32.4882C77.553 32.0532 77.3994 31.404 77.3808 30.7992C77.3514 30.2538 77.4948 29.6826 77.8524 29.2602C78.3012 28.6932 79.0404 28.4106 79.7526 28.4232C80.5092 28.4316 81.3012 28.5864 81.9198 29.046L82.143 29.0442C82.1392 28.9409 82.1415 28.8357 82.1439 28.73V28.7299V28.7299C82.1509 28.4179 82.158 28.1018 82.0074 27.8208C81.7488 27.291 81.1758 26.9982 80.619 26.8896ZM71.685 27.0936C71.7762 27.0968 71.8691 27.0963 71.9625 27.0958C72.3054 27.0939 72.6555 27.0921 72.9564 27.2736C73.3314 27.4824 73.5024 27.927 73.503 28.3392C73.5068 28.9107 73.5064 29.4823 73.506 30.0539V30.0539C73.5056 30.4623 73.5053 30.8707 73.5066 31.2792C73.5075 31.3613 73.5066 31.4436 73.5056 31.526V31.526C73.5029 31.7628 73.5001 32.0001 73.542 32.2338C73.5744 32.4318 73.683 32.6304 73.8696 32.721C74.1494 32.8696 74.4699 32.8657 74.7813 32.8618C74.8445 32.8611 74.9073 32.8603 74.9694 32.8608C74.9686 32.9226 74.9691 32.9855 74.9697 33.0488V33.0488C74.9725 33.3778 74.9754 33.7195 74.7948 34.0038C74.6238 34.2702 74.2854 34.3458 73.9896 34.3572C73.3878 34.3794 72.735 34.2474 72.2922 33.8106C71.8284 33.3606 71.6838 32.6856 71.685 32.0604V32.0597V32.059C71.6844 30.404 71.6838 28.7485 71.685 27.0936ZM79.3728 37.5365C78.6168 37.0727 78.0042 36.4163 77.4606 35.7233C77.4585 35.7906 77.456 35.8582 77.4535 35.9259C77.4341 36.4447 77.4144 36.9742 77.589 37.4699C77.7054 37.8815 77.9502 38.2403 78.237 38.5523C79.2588 39.6761 80.7636 40.3169 82.2738 40.3721C83.4474 40.4225 84.6174 40.0499 85.5948 39.4091C86.301 38.9435 86.9748 38.3285 87.2304 37.4963C87.4056 37.0235 87.3924 36.5186 87.3793 36.0209C87.3768 35.9256 87.3743 35.8305 87.3732 35.7359C87.3383 35.7814 87.3035 35.8271 87.2686 35.8728C86.9966 36.2299 86.723 36.589 86.373 36.8741C85.3026 37.8239 83.8746 38.3267 82.4514 38.3471C81.3756 38.3855 80.2848 38.1137 79.3728 37.5365Z" fill="#396BB4"/>
</svg>
