<?xml version="1.0" encoding="UTF-8"?>
<svg width="33" height="22" viewBox="0 0 96 64" version="1.1" xmlns="http://www.w3.org/2000/svg">
    <title>MPESA</title>
    <g id="mpesa-1" stroke="none" stroke-width="1" fill="none" fill-rule="evenodd">
        <g id="MPESA">
            <rect fill="#FFFFFF" fill-rule="nonzero" x="0" y="0" width="96" height="64" rx="5.81"></rect>
            <g id="MPESA2" transform="translate(9.100000, 18.000000)">
                <g transform="translate(0.000000, 5.159632)" fill="#39B54A" fill-rule="nonzero" stroke="#39B54A" stroke-width="0.5">
                    <path d="M0,6.41330122 L0,12.8190504 L1.45,12.8190504 L2.9,12.8190504 L2.9,8.81822175 C2.9,6.61788062 2.9377,4.85609731 2.98383636,4.90329757 C3.02997273,4.95049783 3.76103636,6.46265921 4.60849545,8.2635513 L6.14905455,11.5379006 L7.20201818,11.5766048 L8.25511364,11.6154438 L9.02638182,9.95831025 C9.45070455,9.04694071 10.1884909,7.4820499 10.6659364,6.48073016 L11.5340909,4.66014882 L11.5690227,8.73959961 L11.6038227,12.8190504 L13.0519773,12.8190504 L14.5,12.8190504 L14.5,6.4095252 L14.5,-1.9164457e-15 L12.70055,0.03749049 L10.9012318,0.0749809799 L9.05933636,3.85100155 L7.21757273,7.62702212 L5.35643182,3.81728708 L3.49529091,0.00755204114 L1.74764545,0.00755204114 L0,0.00755204114 L0,6.41330122" id="路径"></path>
                </g>
                <g transform="translate(30.318182, 5.167184)" fill="#39B54A" fill-rule="nonzero" stroke="#39B54A" stroke-width="0.5">
                    <path d="M-4.68312258e-15,6.40574918 L-4.68312258e-15,12.8114984 L1.64772727,12.8114984 L3.29545455,12.8114984 L3.29545455,11.058346 L3.29545455,9.30519355 L4.79343636,9.30519355 C6.59341364,9.30519355 7.40989545,9.16183963 8.38165909,8.67500269 C9.59385909,8.06773766 10.2754909,7.06884537 10.5616682,5.48048928 C10.8550955,3.85113641 10.3961045,2.25563286 9.35803636,1.29625392 C8.18274545,0.209838857 7.16510909,0 3.07347273,0 L-4.68312258e-15,0 L-4.68312258e-15,6.40574918 M6.56480909,2.88568886 C7.37456818,3.31399748 7.73759545,4.22604131 7.49346818,5.21819071 C7.22205455,6.32078872 6.38276818,6.74087101 4.44886364,6.74208473 L3.29545455,6.74289388 L3.29545455,4.72002571 L3.29545455,2.69715755 L4.75204545,2.69715755 C5.74147273,2.69715755 6.32279091,2.75757388 6.56480909,2.88568886" id="形状"></path>
                </g>
                <g transform="translate(64.892641, 5.159093)" fill="#39B54A" fill-rule="nonzero" stroke="#39B54A" stroke-width="0.5">
                    <path d="M5.15013636,0.509762777 C5.03677273,0.790132304 4.49579091,2.08153134 3.94808636,3.37953841 C3.40038182,4.67754548 2.2881,7.31738843 1.47623182,9.24585608 L0,12.7521609 L1.64614545,12.7521609 L3.29215909,12.7521609 L3.71463636,11.6732979 L4.13711364,10.5944349 L6.81855909,10.5578884 C8.55816364,10.5341534 9.54838182,10.5708347 9.63801818,10.6625381 C9.71394545,10.7402162 9.93302727,11.2421572 10.1250864,11.7779476 L10.4741409,12.7521609 L12.2043864,12.7897862 C13.1559818,12.8104195 13.9346318,12.7982823 13.9346318,12.762545 C13.9346318,12.7269425 13.7330818,12.2245969 13.4865818,11.6460566 C13.2402136,11.0676512 12.6393864,9.62345814 12.1515273,8.43670882 C11.0899955,5.85458504 10.0222682,3.26436978 9.26101818,1.42409919 L8.70303182,0.0755204114 L7.02973182,0.0377602057 L5.3563,1.19777857e-15 L5.15013636,0.509762777 M7.75618182,5.50422427 C8.16429091,6.59792166 8.53957727,7.630933 8.59019545,7.80004478 L8.68207273,8.10725102 L6.90542727,8.06976053 L5.12878182,8.03213519 L5.99535455,5.77326574 C6.47187727,4.53095497 6.8962,3.514666 6.93798636,3.51507034 C6.97990455,3.51534029 7.34807273,4.41052688 7.75618182,5.50422427" id="形状"></path>
                </g>
                <g transform="translate(42.313636, 5.167184)" fill="#39B54A" fill-rule="nonzero" stroke="#39B54A" stroke-width="0.5">
                    <polyline id="路径" points="0 6.40574918 0 12.8114984 5.00909091 12.8114984 10.0181818 12.8114984 10.0181818 11.5303485 10.0181818 10.2491987 6.5859 10.2491987 3.15375 10.2491987 3.19158182 9.00176332 3.22954545 7.75432796 6.22840909 7.71805119 9.22727273 7.68177442 9.22727273 6.40318688 9.22727273 5.12459935 6.19545455 5.12459935 3.16363636 5.12459935 3.16363636 3.91087845 3.16363636 2.69715755 6.525 2.69715755 9.88636364 2.69715755 9.88636364 1.34857878 9.88636364 0 4.94318182 0 0 0 0 6.40574918"></polyline>
                </g>
                <g transform="translate(53.556409, 4.973742)" fill="#39B54A" fill-rule="nonzero" stroke="#39B54A" stroke-width="0.5">
                    <path d="M4.58081364,0.076385818 C2.23985455,0.432275757 0.805409091,1.9205673 0.828477273,3.96946303 C0.851018182,5.97102365 1.86259091,6.88090975 5.10096818,7.81237311 C6.54042273,8.22652165 6.98715455,8.44094567 7.26964091,8.85361078 C7.55964091,9.27719937 7.5255,9.6936405 7.16576818,10.1216794 C6.41796364,11.0109322 3.90537727,10.5162736 1.84835455,9.07491256 C1.43484091,8.78510298 1.2702,8.73048554 1.19229545,8.8573868 C1.13508636,8.95043874 0.843372727,9.52007841 0.544145455,10.1232977 L0,11.219962 L0.715113636,11.7016743 C3.75378636,13.7489517 8.21899545,13.7385677 9.99023636,11.6798273 C11.2489682,10.2168891 11.1589364,7.92133827 9.79488182,6.69615446 C9.23768636,6.19556201 8.47195455,5.83630063 6.95802273,5.36497235 C5.15830909,4.80477272 4.51477273,4.47072976 4.32310909,3.99737861 C3.79926364,2.70355213 5.27272727,2.28050297 7.54672273,3.071849 C8.05395909,3.24837796 8.72583636,3.52672462 9.03956364,3.69057694 C9.35329091,3.8542944 9.63063636,3.9673053 9.65568182,3.94168231 C9.73978182,3.85564298 10.7708636,1.5165331 10.7708636,1.41174852 C10.7708636,1.24034416 8.95928636,0.466934232 8.09034091,0.267344573 C6.92889091,0.000730548756 5.56602273,-0.0734412839 4.58081364,0.076385818" id="路径"></path>
                </g>
                <g transform="translate(16.200455, 0.000000)">
                    <path d="M10.7414407,0 C12.333544,0 11.9816054,1.56193716 11.9816054,3.0501348 L11.9816054,23.2279496 L11.9816054,23.2279496 C11.9816054,24.950773 12.1927686,27.1160336 11.445318,28.1215725 C10.7112745,29.1070007 8.95493319,29.0265575 7.3226083,28.9260037 C6.38410529,28.9494662 5.44560227,28.969577 4.50709926,28.9930396 C3.57865163,28.9963914 2.63344502,29.0399647 1.85918003,28.8589677 C-0.296025105,28.3528465 0.0156919681,26.103791 0.0156919681,23.5631293 C0.0257473576,18.6259331 0.0391545435,13.685385 0.0492099329,8.74818882 C0.0592653224,7.16278909 0.0726725083,5.57403755 0.0827278978,3.98863782 C0.303946466,3.37525906 0.846937496,2.7685839 1.45696446,2.54736533 C2.17089711,2.2859252 3.4177654,2.44681143 4.30599147,2.44681143 C6.20646007,2.43675604 8.10357688,2.42334886 10.0040455,2.41329347 C9.97387932,0.948558405 9.896788,0.707229058 10.7414407,0 Z M6.3145345,5.2546349 L5.87411985,5.25677552 C5.65318346,5.2585641 5.43154635,5.26102301 5.21097652,5.26232048 C4.81881633,5.27237587 4.43000794,5.28578305 4.03784775,5.29583844 C3.08593755,5.44331749 2.29156178,5.55392677 1.85918003,6.20082349 C1.14189559,7.27675017 1.38992853,9.37162297 1.38992853,11.0609284 C1.38992853,13.1490976 0.997768338,16.4238028 2.22787765,17.3287878 C3.11275192,17.9790363 5.05679388,17.7980393 6.55169511,17.7980393 C7.43321759,17.7980393 8.47562629,17.885186 9.16609637,17.6639675 C11.2341548,16.99696 10.6073689,12.6831979 10.6073689,9.98835352 C10.6073689,8.92583404 10.704571,7.70913191 10.439779,6.87118279 C9.97312246,5.39531111 8.21440939,5.25393576 6.3145345,5.2546349 Z" id="形状结合" fill="#D8E3D2"></path>
                    <path d="M1.19736407,13.0879182 C1.19736407,13.077862 1.19736407,13.0644537 1.19736407,13.0543974 C1.63052546,13.0342849 2.06680314,13.0476932 2.49061573,12.9840036 C3.05154417,12.9002015 3.58754244,12.7024285 4.09861057,12.4409659 C4.6003299,12.1828554 5.0740028,11.8744637 5.49469911,11.4755656 C5.71283796,11.2677364 5.94344187,11.0733155 6.15846443,10.8587821 C6.69757899,10.3190965 7.18060069,9.71907335 7.59818075,9.06876896 C7.92850526,8.54919587 8.21520202,7.99610193 8.51748012,7.45976841 C8.52682893,7.45976841 8.53929401,7.45976841 8.5486428,7.45976841 C8.59850311,7.49664134 8.64213088,7.53686636 8.69510746,7.56368303 C9.1750129,7.81173728 9.6580346,8.05308737 10.1348238,8.3044937 C10.3872416,8.43857708 10.624078,8.60282922 10.8796121,8.73356051 C11.3034247,8.951446 11.7365861,9.14921899 12.1635149,9.3637524 C12.534351,9.55146913 12.8989544,9.7492421 13.2697905,9.94031093 C13.3663947,9.99059219 13.4661155,10.0274651 13.565836,10.0710422 C13.565836,10.0810985 13.565836,10.0945068 13.565836,10.1045631 C13.5564872,10.1079151 13.5440221,10.1079151 13.5377896,10.1179714 C13.0890469,10.8185571 12.5748625,11.4487489 11.886167,11.887872 C11.4841683,12.1459825 11.1039834,12.444318 10.6832871,12.6554993 C10.253242,12.8733848 9.79203418,13.0342849 9.33394262,13.1750724 C8.40529443,13.4566475 7.45483237,13.5974351 6.48878895,13.6175476 C6.45762626,13.6175476 6.42957984,13.6410122 6.39841715,13.6544205 C5.99330218,13.6544205 5.58818719,13.6544205 5.18307222,13.6544205 C5.13632817,13.6410122 5.09270041,13.6175476 5.04595637,13.6175476 C4.91195681,13.6108434 4.77484096,13.6242518 4.6408414,13.6108434 C4.21391253,13.5706184 3.78386739,13.5270413 3.35693854,13.4801121 C3.09205566,13.4499434 2.83028906,13.4130704 2.56852246,13.3627892 C2.22884912,13.2990996 1.89229206,13.2186495 1.55261874,13.1482558 C1.43731678,13.1247912 1.31889856,13.1080308 1.19736407,13.0879182 Z" id="路径" fill="#ED1C24" fill-rule="nonzero"></path>
                    <path d="M0.0131818182,12.8540468 C0.399599183,12.9512573 0.786016548,12.8875677 1.1537363,12.7836531 C1.45913066,12.6964989 1.75517623,12.5355988 2.02629164,12.3512342 C2.51554588,12.0193778 2.93624221,11.5936631 3.32265958,11.1310754 C3.54703094,10.8629087 3.73712336,10.561221 3.94279712,10.2729418 C3.95214593,10.2729418 3.964611,10.2729418 3.97395981,10.2729418 C3.98019234,10.3031105 3.98330862,10.3366314 3.99888996,10.360096 C4.1360058,10.5645731 4.26065656,10.7791065 4.41335376,10.9668233 C4.66888781,11.275215 4.94311949,11.5601422 5.31395552,11.7143381 C5.31395552,11.7243944 5.31395552,11.7378027 5.31395552,11.747859 C5.2952579,11.747859 5.27032775,11.7445069 5.2547464,11.7545631 C5.03660756,11.9054069 4.82470126,12.0696591 4.60344616,12.2137987 C3.94902965,12.6328092 3.25410165,12.9311448 2.49684827,13.0518198 C2.38466258,13.0685802 2.27559317,13.1021011 2.16652375,13.1255657 C1.79257146,13.1255657 1.41861917,13.1255657 1.04466688,13.1255657 C0.954295079,13.1054532 0.863923275,13.0886927 0.773551472,13.0685802 C0.521133678,13.0115948 0.268715882,12.9512573 0.0162980873,12.8909198 C0.0131818182,12.8775114 0.0131818182,12.8641031 0.0131818182,12.8540468 Z" id="路径" fill="#9D4D44" fill-rule="nonzero"></path>
                </g>
            </g>
        </g>
    </g>
</svg>
