<svg width="32" height="22" viewBox="6 6 32 22" fill="none" xmlns="http://www.w3.org/2000/svg">
    <rect x="6" y="6" width="32" height="22" rx="2" fill="white"/>
    <path d="M27.0744 15.6602C26.1198 15.652 25.6735 16.2016 25.6735 16.2016C25.3843 16.5115 25.5702 16.9247 25.8553 16.9578C26.2644 17.0032 26.2603 16.6602 26.8884 16.5074C27.438 16.3751 27.4628 16.8834 27.4628 16.8834C25.1157 16.8255 25.2272 18.7966 26.0248 19.214C26.7892 19.6148 27.5082 19.1107 27.5082 19.1107C27.5082 19.1107 27.533 19.3834 27.9132 19.3834C28.3471 19.3834 28.3471 18.9495 28.3471 18.9495V17.0321C28.314 15.6272 27.0744 15.6602 27.0744 15.6602ZM26.8884 18.4371C26.8884 18.4371 26.2727 18.5611 26.281 18.1231C26.2851 17.685 27.4008 17.7098 27.5124 17.747C27.5124 17.7429 27.5496 18.2429 26.8884 18.4371Z"
          fill="#204866"/>
    <path d="M34.657 18.6076L33.6983 17.1654L34.4008 16.5001C34.4008 16.5001 34.7273 16.1985 34.4587 15.901C34.1653 15.5704 33.8099 15.8968 33.8099 15.8968L32.9256 16.7191V15.0704C32.9256 14.8348 32.7355 14.6406 32.4959 14.6406C32.2603 14.6406 32.0661 14.8307 32.0661 15.0704V18.9505C32.0661 19.1861 32.2562 19.3803 32.4959 19.3803C32.7314 19.3803 32.9256 19.1902 32.9256 18.9505V17.9175L33.0868 17.7563L33.9545 19.1158C33.9545 19.1158 34.2355 19.5869 34.6529 19.2853C34.9669 19.058 34.657 18.6076 34.657 18.6076Z"
          fill="#204866"/>
    <path d="M31.6033 17.032C31.6033 15.6312 30.4339 15.4328 29.6405 15.8791V15.8832C29.5827 15.7138 29.4215 15.5898 29.2314 15.5898C28.9917 15.5898 28.7934 15.7841 28.7934 16.0279V18.9493C28.7934 19.189 28.9876 19.3874 29.2314 19.3874C29.4711 19.3874 29.6694 19.1931 29.6694 18.9493L29.6653 16.9783C29.6653 16.9783 29.7727 16.8543 29.9422 16.7303C30.3512 16.4411 30.7397 16.5403 30.7397 17.0361L30.7521 18.9576C30.7521 19.1973 30.9463 19.3874 31.1818 19.3874C31.4174 19.3874 31.6116 19.1931 31.6116 18.9576L31.6033 17.032Z"
          fill="#204866"/>
    <path d="M19.0289 19.4358C19.1281 19.2705 19.1446 19.1507 19.1446 19.1507L18.157 16.5681C18.157 16.5681 17.9794 16.0681 18.3719 15.9193C18.7893 15.7623 18.9422 16.1631 18.9711 16.2457C19.0042 16.3284 19.5951 17.9069 19.5951 17.9069L20.1653 16.2499C20.1653 16.2499 20.3306 15.7333 20.7851 15.9193C21.1612 16.0722 20.967 16.5763 20.967 16.5763C20.967 16.5763 20.3843 18.3036 19.8926 19.5557C19.5992 20.3036 19.3513 20.378 19.0661 20.4482C18.686 20.5433 17.9628 20.4937 17.9628 20.0226C17.9628 19.6466 18.3471 19.6259 18.5207 19.63C18.5372 19.63 18.8926 19.6631 19.0289 19.4358Z"
          fill="#27BCED"/>
    <path d="M16.7355 15.103L15.8347 17.5947L14.8512 15.1154C14.8512 15.1154 14.7066 14.6484 14.2934 14.6484C13.8182 14.6484 13.8347 15.0245 13.8223 15.1154C13.8099 15.2063 13.8223 18.9873 13.8223 18.9873C13.8223 18.9873 13.8182 19.384 14.2521 19.384C14.6983 19.384 14.6777 18.9831 14.6818 18.9831C14.6859 18.9831 14.6818 16.9873 14.6818 16.9873L15.405 18.9831C15.405 18.9831 15.5124 19.3757 15.8471 19.3674C16.1818 19.3592 16.2769 18.9831 16.2769 18.9831L16.8843 16.9914V18.9831C16.8843 18.9831 16.8843 19.384 17.3223 19.384C17.7479 19.384 17.7479 18.9831 17.7479 18.9831V15.1195C17.7479 15.1195 17.7479 14.6484 17.2851 14.6484C16.905 14.6526 16.7603 15.0203 16.7355 15.103C16.7314 15.1112 16.7314 15.1195 16.7314 15.1195Z"
          fill="#27BCED"/>
    <path d="M34.7975 20.905H27.1777H21.5826L21.5868 20.9091C20.4793 22.2025 18.8388 23.0289 17 23.0289C13.6694 23.0289 10.9711 20.3306 10.9711 17C10.9711 13.6694 13.6694 10.9711 17 10.9711C18.843 10.9711 20.4959 11.8017 21.5992 13.1033H22.8099C21.5537 11.2314 19.4215 10 17 10C13.1322 10 10 13.1364 10 17C10 20.8636 13.1322 24 17 24C19.0289 24 20.8512 23.1322 22.1281 21.7562L34.219 21.7438L34.7975 20.905Z"
          fill="#27BCED"/>
    <path d="M24.6611 16.8406C24.6859 16.8076 24.9752 16.572 24.9504 15.9439C24.9049 14.6753 23.8016 14.6877 23.5578 14.6836C23.1653 14.6712 22.9297 14.6753 22.2066 14.6836C21.595 14.6877 21.6033 15.2415 21.6033 15.2415V19.3778H23.657C24.7562 19.3778 25.1653 18.7745 25.1653 17.9274C25.1653 17.0762 24.6611 16.8406 24.6611 16.8406ZM22.4876 15.5596H23.6239C23.8512 15.5638 24.0909 15.6877 24.0909 16.0266C24.0909 16.382 23.8843 16.4935 23.6239 16.4935H22.4876V15.5596ZM23.7025 18.5348H22.4876V17.3737H23.7025C23.9958 17.3902 24.281 17.539 24.281 17.9522C24.281 18.3778 24.0206 18.5348 23.7025 18.5348Z"
          fill="#204866"/>
</svg>
