<svg width="32" height="22" viewBox="0 0 32 22" fill="none" xmlns="http://www.w3.org/2000/svg">
<rect width="32" height="22" rx="2" fill="#F0A929"/>
<path fill-rule="evenodd" clip-rule="evenodd" d="M0 3H32V19H0V3Z" fill="white"/>
<path fill-rule="evenodd" clip-rule="evenodd" d="M27.119 8.11328C25.655 8.11328 24.4615 9.32179 24.4615 10.8041C24.4615 12.2858 25.655 13.4945 27.119 13.4945C28.5828 13.4945 29.7763 12.2858 29.7763 10.8041C29.7763 9.32179 28.5828 8.11328 27.119 8.11328Z" fill="#E21C2A"/>
<path fill-rule="evenodd" clip-rule="evenodd" d="M5.21478 8.11328C3.75059 8.11328 2.55695 9.32179 2.55695 10.8041C2.55695 12.2858 3.75059 13.4945 5.21478 13.4945C6.67831 13.4945 7.87199 12.2858 7.87199 10.8041C7.87199 9.32179 6.67831 8.11328 5.21478 8.11328Z" fill="#E21C2A"/>
<path fill-rule="evenodd" clip-rule="evenodd" d="M26.9105 5.75149C24.4504 5.69426 23.2938 7.29141 21.6152 9.26132L20.0317 11.1193L22.5392 14.1585C23.1366 15.0923 21.9964 16.0191 21.289 15.1646L18.9707 12.3647L16.7117 15.0161C15.9923 15.8601 14.865 14.9173 15.4752 13.9922L17.9276 11.1049L16.3209 9.16434L17.3545 7.8684L18.9885 9.85567L20.397 8.19684C21.0881 7.38351 21.7929 6.30571 22.7064 5.75149H0V16.2546H5.30884C7.76928 16.2546 8.8862 14.7652 10.5193 12.7568L12.0603 10.8618L9.48375 7.88232C8.86579 6.96259 9.98426 6.00972 10.711 6.84737L13.0922 9.5926L15.2909 6.88894C15.9907 6.02796 17.1389 6.94473 16.5501 7.88389L14.164 10.828L15.8146 12.7306L14.7746 13.9774L13.1317 12.1014L11.7615 13.7922C11.089 14.6215 10.4082 15.6792 9.50743 16.2546H32V5.75149H26.9105ZM9.41298 10.8103C9.41298 13.1518 7.52726 15.0612 5.21473 15.0612C2.90162 15.0612 1.01589 13.1518 1.01589 10.8103C1.01589 8.46848 2.90162 6.55923 5.21473 6.55923C7.52726 6.55923 9.41298 8.46848 9.41298 10.8103ZM27.1191 15.0612C24.8064 15.0612 22.9203 13.1518 22.9203 10.8103C22.9203 8.46848 24.8064 6.55923 27.1191 6.55923C29.4319 6.55923 31.3176 8.46848 31.3176 10.8103C31.3176 13.1518 29.4319 15.0612 27.1191 15.0612Z" fill="#E21C2A"/>
</svg>
