<svg width="32" height="22" viewBox="6 6 32 22" fill="none" xmlns="http://www.w3.org/2000/svg">
    <rect x="6" y="6" width="32" height="22" rx="2" fill="white"/>
    <path fill-rule="evenodd" clip-rule="evenodd"
          d="M18.8824 9.08325L21.7462 10.6983L24.6099 12.2966C24.9928 12.5297 24.9928 13.0625 24.6099 13.2789L21.7462 14.8939L18.8824 16.509C18.4995 16.7254 18 16.4424 18 16.0095V12.7961V9.58274C18 9.23309 18.283 9 18.5994 9C18.6993 9 18.7825 9.0333 18.8824 9.08325ZM25.7745 13.2734L22.9108 14.8884L20.0304 16.5034C19.6475 16.7199 19.6475 17.2526 20.0304 17.4857L22.9108 19.0841L25.7745 20.6991C26.1575 20.9155 26.6403 20.6492 26.6403 20.1996V17.0029V13.7729C26.6237 13.34 26.1575 13.0569 25.7745 13.2734ZM21.7462 19.1075L24.6099 20.7225C24.9928 20.939 24.9928 21.4884 24.6099 21.7049L21.7462 23.3199L18.8824 24.9349C18.7659 24.9848 18.6826 25.0015 18.5994 25.0015H18.5827C18.283 25.0015 18 24.7517 18 24.4354V21.2054V17.9754C18 17.5591 18.4995 17.2761 18.8824 17.5092L21.7462 19.1075Z"
          fill="#A6CE39"/>
</svg>
