<svg width="32" height="22" viewBox="6 6 32 22" fill="none" xmlns="http://www.w3.org/2000/svg">
<g filter="url(#filter0_d_1_292)">
<rect x="6" y="6" width="32" height="22" rx="2" fill="white"/>
</g>
<path fill-rule="evenodd" clip-rule="evenodd" d="M19.3578 23.54L19.5995 21.9992L19.0611 21.9867H16.4902L18.2769 10.6165C18.2824 10.5821 18.3004 10.5502 18.3267 10.5274C18.3531 10.5047 18.3867 10.4922 18.422 10.4922H22.757C24.1962 10.4922 25.1894 10.7927 25.7079 11.386C25.951 11.6643 26.1058 11.9552 26.1807 12.2752C26.2593 12.611 26.2606 13.0122 26.184 13.5017L26.1784 13.5372V13.8509L26.4215 13.9891C26.6262 14.0982 26.7889 14.2229 26.9137 14.3656C27.1216 14.6037 27.2561 14.9062 27.313 15.2646C27.3717 15.6333 27.3523 16.0722 27.2561 16.569C27.1452 17.1404 26.9659 17.6382 26.7237 18.0454C26.501 18.4206 26.2173 18.7319 25.8803 18.973C25.5586 19.2023 25.1764 19.3762 24.7444 19.4875C24.3255 19.5969 23.8482 19.6521 23.3245 19.6521H22.9871C22.746 19.6521 22.5117 19.7394 22.3277 19.8956C22.1433 20.0552 22.0213 20.2732 21.9839 20.5116L21.9584 20.6504L21.5313 23.3662L21.512 23.4658C21.5068 23.4974 21.498 23.5131 21.4851 23.5237C21.4736 23.5335 21.4571 23.54 21.4408 23.54H19.3578Z" fill="#28356A"/>
<path fill-rule="evenodd" clip-rule="evenodd" d="M26.6505 13.5586C26.6377 13.6416 26.6228 13.7264 26.6062 13.8137C26.0346 16.7596 24.0787 17.7773 21.5807 17.7773H20.3089C20.0033 17.7773 19.7458 17.9998 19.6984 18.3022L18.8628 23.622C18.8318 23.8207 18.9843 23.9996 19.1839 23.9996H21.4398C21.7068 23.9996 21.9338 23.8048 21.9759 23.5404L21.998 23.4255L22.4227 20.7203L22.45 20.5719C22.4916 20.3066 22.719 20.1117 22.9861 20.1117H23.3235C25.509 20.1117 27.2199 19.2213 27.7201 16.6441C27.9288 15.5674 27.8207 14.6685 27.268 14.0363C27.1008 13.8458 26.8932 13.6875 26.6505 13.5586Z" fill="#298FC2"/>
<path fill-rule="evenodd" clip-rule="evenodd" d="M26.0531 13.3309C25.9657 13.3053 25.8757 13.2822 25.7832 13.2613C25.6903 13.2409 25.5951 13.2228 25.4971 13.207C25.1543 13.1514 24.7785 13.125 24.376 13.125H20.9782C20.8945 13.125 20.815 13.144 20.7439 13.1783C20.5871 13.2539 20.4707 13.4028 20.4426 13.5851L19.7197 18.18L19.6989 18.3139C19.7465 18.0115 20.004 17.7889 20.3094 17.7889H21.5813C24.0793 17.7889 26.0351 16.7707 26.6069 13.8253C26.6239 13.7381 26.6383 13.6533 26.6511 13.5703C26.5065 13.4932 26.3499 13.4273 26.1812 13.3712C26.1395 13.3573 26.0965 13.3439 26.0531 13.3309Z" fill="#22284F"/>
<path fill-rule="evenodd" clip-rule="evenodd" d="M20.4432 13.5711C20.4715 13.3888 20.5878 13.2399 20.7445 13.1648C20.8161 13.1304 20.8951 13.1114 20.9789 13.1114H24.3766C24.7791 13.1114 25.1549 13.1379 25.4979 13.1936C25.5958 13.2093 25.6909 13.2275 25.7839 13.2479C25.8763 13.2686 25.9664 13.2919 26.0538 13.3174C26.0971 13.3304 26.1401 13.3439 26.1822 13.3573C26.3509 13.4134 26.5077 13.4798 26.6523 13.5563C26.8224 12.4677 26.6509 11.7264 26.0644 11.0552C25.4178 10.3162 24.251 10 22.7577 10H18.4225C18.1176 10 17.8574 10.2226 17.8102 10.5255L16.0046 22.0126C15.969 22.2398 16.1437 22.4449 16.3721 22.4449H19.0483L20.4432 13.5711Z" fill="#28356A"/>
<defs>
<filter id="filter0_d_1_292" x="0" y="0" width="44" height="34" filterUnits="userSpaceOnUse" color-interpolation-filters="sRGB">
<feFlood flood-opacity="0" result="BackgroundImageFix"/>
<feColorMatrix in="SourceAlpha" type="matrix" values="0 0 0 0 0 0 0 0 0 0 0 0 0 0 0 0 0 0 127 0" result="hardAlpha"/>
<feOffset/>
<feGaussianBlur stdDeviation="3"/>
<feComposite in2="hardAlpha" operator="out"/>
<feColorMatrix type="matrix" values="0 0 0 0 0.401815 0 0 0 0 0.569466 0 0 0 0 0.904769 0 0 0 0.12 0"/>
<feBlend mode="normal" in2="BackgroundImageFix" result="effect1_dropShadow_1_292"/>
<feBlend mode="normal" in="SourceGraphic" in2="effect1_dropShadow_1_292" result="shape"/>
</filter>
</defs>
</svg>
