<svg width="32" height="22" viewBox="6 6 32 22" fill="none" xmlns="http://www.w3.org/2000/svg">
    <rect x="6" y="6" width="32" height="22" rx="2" fill="white"/>
    <path d="M17.9595 14.5758C18.135 14.4985 18.3106 14.4381 18.4861 14.4003C18.8087 12.8598 20.1731 11.7045 21.8084 11.7045C23.4449 11.7045 24.8098 12.8615 25.1318 14.4014C25.6337 14.4968 26.049 14.6998 26.3727 15.0021C26.3859 14.7064 26.3738 14.4217 26.3387 14.1534C26.1319 11.8263 24.1805 10 21.8013 10C19.3518 10 17.3577 11.9415 17.254 14.3684C17.2397 14.578 17.2353 14.7963 17.243 15.0246C17.4487 14.8512 17.6835 14.6954 17.9595 14.5758Z"
          fill="#E3001B"/>
    <path d="M24.4674 14.9258H19.0089C18.7462 14.9258 18.4741 14.9867 18.1937 15.1123C17.9233 15.2302 17.7017 15.3729 17.5239 15.5435C17.1854 15.9506 17.0121 16.5458 17 17.3292V21.5961C17.0121 22.3812 17.1854 22.9758 17.5239 23.3807C17.7017 23.554 17.9233 23.6967 18.1937 23.8157C18.4741 23.9386 18.7462 24.0006 19.0089 24.0006H24.4674C25.8773 23.988 26.5943 23.2145 26.6168 21.6855V17.2397C26.5943 15.7086 25.8773 14.9379 24.4674 14.9258Z"
          fill="#E3001B"/>
</svg>
