<svg width="70" height="35" viewBox="0 0 70 35" fill="none" xmlns="http://www.w3.org/2000/svg">
    <path d="M64.3097 7.2552L60.1754 7.25376C59.7245 7.25376 59.359 7.61928 59.3587 8.07024L59.3585 8.64697H59.6453C61.512 8.64697 62.2063 8.95488 62.2063 10.6553V13.0726L64.3075 13.0733C64.7585 13.0735 65.124 12.7082 65.1242 12.2573L65.1257 8.07193C65.1257 7.62097 64.7604 7.25544 64.3097 7.2552ZM41.7463 13.7532C41.5555 13.5137 41.1948 13.4806 40.8331 13.4806H40.5619C39.6607 13.4806 39.3072 13.7585 39.1078 14.6232L36.6036 25.032C36.2911 26.3112 35.8519 26.545 35.1005 26.545C34.1803 26.545 33.8119 26.3254 33.4452 25.027L30.6089 14.6182C30.3742 13.7465 30.0278 13.4806 29.1264 13.4806H28.885C28.5211 13.4806 28.1587 13.5142 27.9727 13.7568C27.7865 13.9997 27.8494 14.3623 27.9454 14.7187L30.8117 25.2178C31.3493 27.227 31.9884 28.8902 34.3764 28.8902C34.8221 28.8902 35.2344 28.8283 35.5774 28.7126C34.853 30.9905 34.1162 31.9951 31.9435 32.2183C31.5026 32.255 31.2161 32.3182 31.0565 32.5322C30.8906 32.7542 30.9283 33.0723 30.9876 33.3562L31.0474 33.6254C31.177 34.248 31.398 34.6339 32.0969 34.6339C32.1703 34.6339 32.2493 34.6301 32.334 34.6229C35.5783 34.4105 37.3166 32.6638 38.3338 28.5941L41.8046 14.7113C41.887 14.3551 41.9366 13.9925 41.7463 13.7532ZM24.2882 21.7502V23.8514C24.2882 25.5643 23.6532 26.556 20.4069 26.556C18.2623 26.556 17.2198 25.7798 17.2198 24.1834C17.2198 22.4326 18.2657 21.7502 20.9501 21.7502H24.2882ZM20.4069 13.0387C18.6372 13.0387 17.5282 13.2607 17.1074 13.345C16.3627 13.5067 16.0512 13.7112 16.0512 14.5582V14.7996C16.0512 15.1315 16.1004 15.3614 16.2058 15.5232C16.3284 15.7116 16.5262 15.8071 16.7935 15.8071C16.9238 15.8071 17.075 15.7853 17.2553 15.7402C17.6808 15.6338 19.0404 15.414 20.5277 15.414C23.1989 15.414 24.2882 16.1539 24.2882 17.9676V19.5862H20.9198C16.5898 19.5862 14.5728 21.0468 14.5728 24.1834C14.5728 27.2256 16.6555 28.901 20.4372 28.901C24.9312 28.901 26.9352 27.3718 26.9352 23.9419V17.9676C26.9352 14.651 24.7999 13.0387 20.4069 13.0387ZM11.9182 15.0509C11.9182 17.5486 11.2805 18.9022 7.91615 18.9022H2.73744V12.456C2.73744 11.5622 3.06984 11.2298 3.9636 11.2298H7.91615C10.4508 11.2298 11.9182 11.8553 11.9182 15.0509ZM7.91615 8.64336H3.45048C1.06416 8.64336 0 9.70752 0 12.0941V27.4217C0 28.3435 0.295916 28.6394 1.218 28.6394H1.51968C2.44152 28.6394 2.73744 28.3435 2.73744 27.4217V21.4584H7.91615C12.5141 21.4584 14.6556 19.4222 14.6556 15.0509C14.6556 10.6793 12.5141 8.64336 7.91615 8.64336ZM64.7122 2.93569L62.6268 2.93496C62.3993 2.93472 62.215 2.75041 62.215 2.52289L62.2157 0.411606C62.2159 0.184086 62.4005 0 62.6278 0L64.7131 0.000725098C64.9406 0.000725098 65.125 0.185286 65.125 0.412566L65.1242 2.52385C65.124 2.75137 64.9397 2.93569 64.7122 2.93569ZM68.8037 7.25785L65.7331 7.25665C65.3983 7.25665 65.1269 6.98496 65.1271 6.65016L65.1281 3.54168C65.1283 3.20664 65.4 2.9352 65.7348 2.9352L68.8051 2.9364C69.1402 2.9364 69.4116 3.20809 69.4116 3.54289L69.4104 6.65161C69.4104 6.98641 69.1387 7.25785 68.8037 7.25785ZM60.1733 13.0721C59.7223 13.0721 59.357 12.7066 59.3573 12.2556L59.3585 8.64697H59.0575C57.1908 8.64697 56.4965 8.95512 56.4965 10.6555V14.6345C56.4962 14.6429 56.4953 14.6513 56.4953 14.6597V15.5318C56.4948 15.5621 56.4929 15.5902 56.4929 15.6214V21.181C56.4929 21.8599 56.3621 22.4006 56.0921 22.8206C55.583 23.605 54.5753 23.9614 52.963 23.9635C51.3514 23.9614 50.3438 23.6052 49.8348 22.8216C49.5641 22.4014 49.433 21.8604 49.433 21.181V15.6214C49.433 15.5902 49.4314 15.5621 49.4309 15.5318V14.6597C49.4309 14.6513 49.4299 14.6429 49.4297 14.6345V10.6555C49.4297 8.95512 48.7354 8.64697 46.8686 8.64697H46.2809C44.4139 8.64697 43.7198 8.95512 43.7198 10.6555V21.181C43.7198 22.8742 44.1017 24.3077 44.8394 25.4633C46.2643 27.7025 49.0246 28.895 52.9486 28.895C52.9534 28.895 52.9582 28.8948 52.963 28.8948C52.968 28.8948 52.9726 28.895 52.9776 28.895C56.9016 28.895 59.6618 27.7025 61.0867 25.4633C61.8245 24.3077 62.2063 22.8742 62.2063 21.181V13.0726L60.1733 13.0721Z" fill="#A6C307"/>
</svg>
