<?xml version="1.0" encoding="UTF-8"?>
<svg width="32" height="14.8" viewBox="0 0 1031 383" version="1.1" xmlns="http://www.w3.org/2000/svg">
    <g id="paba" stroke="none" stroke-width="1" fill="none" fill-rule="evenodd">
        <g id="logo" transform="translate(100.449232, 0.684646)">
            <path d="M129.382128,4.16818323 C130.875066,4.15745027 130.875066,4.15745027 132.398165,4.14650049 C133.489119,4.14381159 134.580074,4.14112268 135.704088,4.1383523 C136.853957,4.1317811 138.003826,4.1252099 139.188539,4.11843958 C143.001991,4.09869417 146.815404,4.0870414 150.628893,4.077073 C152.580973,4.07095971 152.580973,4.07095971 154.572489,4.06472292 C160.749597,4.04600928 166.926686,4.03144453 173.103817,4.02311095 C180.225661,4.01334333 187.347194,3.98703458 194.468929,3.94661006 C199.979034,3.91641083 205.489051,3.90163845 210.999238,3.89832994 C214.287664,3.89598353 217.575683,3.88509324 220.864038,3.86186876 C224.536235,3.83754472 228.207618,3.83843061 231.879869,3.84538355 C232.962727,3.83257349 234.045585,3.81976343 235.161257,3.80656519 C241.497124,3.85027307 245.526704,4.3099551 250.550768,8.31535425 C254.248149,13.6578623 255.133196,17.4379921 255.058702,23.8546609 C255.064942,24.6887476 255.071182,25.5228343 255.077611,26.3821963 C255.093505,29.1635927 255.080952,31.9441083 255.068346,34.7255105 C255.073769,36.7250172 255.080892,38.72452 255.089586,40.7240151 C255.107804,46.1454852 255.101188,51.5666504 255.08807,56.9881257 C255.077934,62.6649999 255.087337,68.3418482 255.093615,74.0187234 C255.101188,83.5515672 255.091308,93.0842871 255.072252,102.617112 C255.050484,113.634302 255.057535,124.651196 255.079558,135.668379 C255.097717,145.131846 255.101188,154.595225 255.089803,164.058704 C255.083571,169.70893 255.082725,175.359016 255.095949,181.009232 C255.107514,186.321549 255.101188,191.633484 255.076372,196.94576 C255.071088,198.894013 255.072593,200.842299 255.081423,202.79054 C255.092375,205.452807 255.078619,208.113857 255.058702,210.776048 C255.067625,211.544636 255.076548,212.313225 255.085741,213.105104 C255.006324,218.588685 253.666741,221.784231 250.550768,226.315354 C244.145979,231.817371 236.35607,230.880014 228.347399,230.832932 C226.799464,230.838358 225.251535,230.845482 223.703615,230.854173 C219.513548,230.872361 215.323877,230.865358 211.133803,230.852656 C206.743041,230.842507 202.352313,230.851927 197.96155,230.858201 C190.590104,230.865471 183.21882,230.855906 175.847399,230.836839 C167.330659,230.815063 158.814302,230.822129 150.297572,230.844144 C142.977619,230.862307 135.657781,230.864853 128.337813,230.85439 C123.969194,230.848161 119.600755,230.847303 115.232147,230.860536 C111.125512,230.872107 107.01937,230.864046 102.912788,230.840958 C101.40757,230.835678 99.9023098,230.837173 98.397108,230.846009 C96.3386764,230.856977 94.2818143,230.84319 92.2234821,230.823289 C91.0729582,230.821781 89.9224344,230.820273 88.7370462,230.818719 C83.6543547,230.015761 80.5659392,227.437386 77.1757679,223.690354 C75.0002234,219.171916 74.6018562,215.241322 75.5507679,210.315354 C78.0480404,204.125315 81.8184656,198.605344 85.4882679,193.065354 C86.6537462,191.289387 87.8191075,189.513343 88.9843616,187.737229 C89.5771692,186.836819 90.1699768,185.936409 90.7807483,185.008714 C93.5541973,180.788481 96.3017661,176.551535 99.0507679,172.315354 C100.133964,170.648598 101.217297,168.981932 102.300768,167.315354 C102.837018,166.490354 103.373268,165.665354 103.925768,164.815354 C108.800768,157.315354 108.800768,157.315354 110.426744,154.813889 C111.506868,153.152135 112.586947,151.490352 113.666979,149.828538 C116.424038,145.586461 119.181958,141.344949 121.941393,137.104417 C122.504069,136.239456 123.066744,135.374495 123.646471,134.483323 C124.696947,132.868541 125.747697,131.253937 126.798815,129.639573 C131.410702,122.549024 135.976542,115.430817 140.550768,108.315354 C85.6057679,108.810354 85.6057679,108.810354 29.5507679,109.315354 C29.699418,137.017531 29.699418,137.017531 29.8574085,164.719651 C29.9238747,176.009595 29.9892883,187.299538 30.0480823,198.589524 C30.0908983,206.810415 30.1371697,215.031277 30.1876464,223.252125 C30.2142682,227.607761 30.2391217,231.963392 30.2598419,236.31906 C30.2793759,240.413948 30.3035098,244.508782 30.3312587,248.603621 C30.3406463,250.110933 30.3483154,251.618256 30.354187,253.125585 C30.3624191,255.174659 30.3772847,257.223703 30.3925495,259.272736 C30.399002,260.422212 30.4054546,261.571688 30.4121027,262.755997 C30.2614539,265.248646 30.2614539,265.248646 31.5507679,266.315354 C34.0761779,266.410397 36.5741391,266.440926 39.0998401,266.42888 C39.8900254,266.429026 40.6802106,266.429172 41.4943408,266.429322 C44.1186461,266.428623 46.7428812,266.42083 49.3671741,266.41301 C51.1817845,266.411146 52.9963954,266.409722 54.8110065,266.408723 C59.5966701,266.404897 64.3823036,266.395066 69.1679554,266.384019 C74.0475085,266.373806 78.9270665,266.369225 83.8066272,266.364182 C93.3880207,266.353444 102.969392,266.336367 112.550768,266.315354 C112.498561,264.99471 112.498561,264.99471 112.445299,263.647385 C112.418229,262.48594 112.391158,261.324495 112.363268,260.127854 C112.311061,258.405022 112.311061,258.405022 112.257799,256.647385 C112.5778,253.007911 113.322584,251.180935 115.550768,248.315354 C118.046862,247.668382 118.046862,247.668382 120.988268,247.651292 C122.577682,247.641624 122.577682,247.641624 124.199205,247.63176 C125.305221,247.651096 126.411237,247.670432 127.550768,247.690354 C128.656783,247.671018 129.762799,247.651682 130.90233,247.63176 C131.96194,247.638206 133.021549,247.644651 134.113268,247.651292 C135.083932,247.656931 136.054596,247.662571 137.054674,247.668382 C139.550768,248.315354 139.550768,248.315354 141.367907,250.32219 C142.901089,254.201822 142.962327,257.763215 142.914049,261.870042 C142.914797,263.099702 142.914797,263.099702 142.91556,264.354203 C142.913225,266.083954 142.903535,267.813709 142.886949,269.543382 C142.863408,272.174717 142.866387,274.805034 142.873033,277.436448 C142.867454,279.122652 142.860343,280.808852 142.851549,282.495042 C142.852461,283.274431 142.853372,284.05382 142.854311,284.856828 C142.784497,290.306926 142.553308,295.944423 138.894518,300.276292 C138.28608,300.742932 137.677643,301.209573 137.050768,301.690354 C136.44233,302.172464 135.833893,302.654573 135.207018,303.151292 C132.24267,305.234725 130.387955,305.44499 126.801699,305.462525 C125.799367,305.469681 124.797035,305.476836 123.76433,305.484208 C122.660429,305.486897 121.556528,305.489586 120.419176,305.492356 C118.679961,305.502213 118.679961,305.502213 116.905611,305.512269 C113.054256,305.532039 109.202941,305.543673 105.351549,305.553635 C104.038213,305.557711 102.724877,305.561787 101.371742,305.565986 C95.1369681,305.585042 88.9022059,305.59927 82.6674082,305.607598 C75.4765047,305.617361 68.2859098,305.643656 61.095115,305.684098 C55.5340745,305.714298 49.9731222,305.72907 44.4120013,305.732379 C41.0922621,305.734725 37.772927,305.74562 34.4532585,305.76884 C30.745033,305.793163 27.0376129,305.792278 23.3293323,305.785325 C21.6886629,305.80454 21.6886629,305.80454 20.0148487,305.824143 C13.6544966,305.780692 9.59106843,305.34267 4.55076785,301.315354 C0.853844305,295.972465 -0.0316625251,292.192876 0.0428332849,285.776048 C0.0334733349,284.524918 0.0334733349,284.524918 0.0239243049,283.248512 C0.00803103491,280.467116 0.0205840149,277.6866 0.0331897249,274.905198 C0.0277669749,272.905691 0.0206434649,270.906189 0.0119494949,268.906693 C-0.00626850509,263.485223 0.000347825439,258.064058 0.0134658349,252.642583 C0.0236013149,246.965709 0.0141986249,241.28886 0.00792117491,235.611985 C0.000347825439,226.079141 0.0102281049,216.546421 0.0292834749,207.013596 C0.0510518149,195.996406 0.0440003349,184.979513 0.0219778549,173.96233 C0.00381911491,164.498862 0.000347825439,155.035484 0.0117325349,145.572004 C0.0179648149,139.921779 0.0188102649,134.271693 0.00558657491,128.621476 C-0.00597809509,123.309159 0.000347825439,117.997224 0.0251636049,112.684949 C0.0304473549,110.736695 0.0289426549,108.78841 0.0201129449,106.840169 C0.00916066491,104.177901 0.0229169249,101.516851 0.0428332849,98.8546609 C0.0339103949,98.0860722 0.0249875049,97.3174834 0.0157942349,96.5256041 C0.0952125249,91.0419737 1.43520152,87.8467345 4.55076785,83.3153542 C10.9687011,77.7884472 18.8162363,78.7580967 26.8459339,78.8136453 C28.4037188,78.8098588 29.9615003,78.804356 31.5192737,78.7972726 C35.7362137,78.7833446 39.9527445,78.7944684 44.1696617,78.8109838 C48.5884431,78.8248634 53.0072014,78.818371 57.4259967,78.8148507 C64.8445257,78.8121512 72.2628927,78.8256031 79.6813831,78.8488015 C88.2526047,78.8754195 96.8235557,78.8771543 105.394804,78.8654131 C113.64895,78.854627 121.902997,78.8608284 130.157135,78.8749684 C133.666178,78.88072 137.175149,78.8806521 140.684193,78.875903 C144.817028,78.871124 148.949567,78.881273 153.082346,78.9028577 C154.597238,78.9084128 156.112158,78.9089026 157.627052,78.9039048 C159.698391,78.8979292 161.768832,78.910499 163.84009,78.9276742 C164.997988,78.9301041 166.155886,78.932534 167.348872,78.9350375 C172.268251,79.5193545 175.513155,81.1936107 178.863268,84.8153542 C181.046362,88.0495675 181.73442,90.6713208 181.863268,94.5028542 C181.900651,95.2182839 181.938033,95.9337136 181.976549,96.670823 C180.714222,104.511149 174.90892,111.586801 170.613268,118.065354 C169.262822,120.118617 167.912564,122.172005 166.562487,124.22551 C165.887501,125.249187 165.212516,126.272864 164.517076,127.327561 C161.634716,131.707288 158.77936,136.104352 155.925768,140.502854 C154.860755,142.142236 153.795651,143.781559 152.730455,145.420823 C151.944933,146.630044 151.944933,146.630044 151.143541,147.863694 C148.989153,151.179813 146.833965,154.495412 144.678698,157.81096 C143.598528,159.472684 142.518449,161.134467 141.438463,162.796311 C138.657219,167.07586 135.874614,171.354514 133.08983,175.63176 C132.518131,176.510257 131.946432,177.388753 131.357408,178.29387 C130.281036,179.947809 129.204252,181.60148 128.12694,183.254807 C124.226407,189.249789 120.391209,195.280376 116.550768,201.315354 C170.010768,200.820354 170.010768,200.820354 224.550768,200.315354 C224.880768,145.535354 225.210768,90.7553542 225.550768,34.3153542 C198.490768,34.3153542 171.430768,34.3153542 143.550768,34.3153542 C143.220768,41.9053542 142.890768,49.4953542 142.550768,57.3153542 C139.550768,61.3153542 139.550768,61.3153542 137.054674,61.8488015 C133.885204,61.884316 130.720408,61.9092551 127.550768,61.8778542 C126.444752,61.9017019 125.338737,61.9255496 124.199205,61.9501199 C122.609791,61.9472195 122.609791,61.9472195 120.988268,61.9442605 C120.017604,61.9449856 119.04694,61.9457107 118.046862,61.9464578 C115.550768,61.3153542 115.550768,61.3153542 113.735826,59.3085183 C112.205324,55.4428493 112.120465,51.8903133 112.15233,47.795823 C112.14946,46.9784214 112.14659,46.1610198 112.143633,45.3188485 C112.141597,43.5933115 112.147096,41.8677511 112.159655,40.1422585 C112.175653,37.5216875 112.159824,34.9026732 112.140612,32.2821511 C112.142595,30.599205 112.146442,28.9162599 112.15233,27.233323 C112.146258,26.4590949 112.140185,25.6848669 112.133928,24.8871774 C112.20689,19.1465029 112.952458,13.1889578 116.96718,8.74887171 C121.006994,5.25133518 124.159518,4.19396466 129.382128,4.16818323 Z M66.1132679,280.877854 C64.0924897,284.030268 63.8611597,285.637444 64.5507679,289.315354 C66.6192566,291.886848 66.6192566,291.886848 69.5507679,293.315354 C72.4962372,293.245224 73.9530844,292.763617 76.3007679,291.002854 C77.7998869,288.979043 78.4019768,287.844801 78.5507679,285.315354 C77.6856972,282.511759 77.6856972,282.511759 75.5507679,280.315354 C71.6120923,279.097945 69.6494753,278.611055 66.1132679,280.877854 Z" id="pbba" fill="#1C1C1C" fill-rule="nonzero"></path>
            <g id="mastercard" transform="translate(284.267832, 281.315354)">
                <path d="M49.1579356,2.6875 C50.3431077,2.69487183 50.3431077,2.69487183 51.5522227,2.70239258 C60.6795745,2.88533364 67.5285858,5.11535882 75.1774669,10.109375 C77.9876632,11.2981037 79.3956735,10.9017142 82.2829356,10 C84.7459948,8.84682221 87.1039432,7.55785069 89.4899669,6.25390625 C100.05942,1.50873925 113.689617,1.20278654 124.720436,4.5625 C137.642977,9.68510966 148.491456,18.380046 154.282936,31.25 C159.477113,45.5339891 159.683929,60.0570515 153.282936,74 C146.574774,85.6019572 137.285069,94.5339019 124.407936,98.8125 C109.466895,102.728405 96.5679022,100.950416 83.3766856,93.265625 C80.4143443,91.6980597 80.4143443,91.6980597 77.7087169,92.640625 C76.9082091,93.0892187 76.1077013,93.5378125 75.2829356,94 C61.0597303,100.795773 47.5316567,102.802966 32.2634044,98.0625 C18.805034,93.0868766 9.99607633,84.1325318 4.00559188,71.2539062 C-1.16486023,58.8705814 -1.24790891,45.6622461 3.28293563,33 C8.89315506,19.5391765 18.933468,10.6074136 32.2829356,5 C37.8974422,3.14147054 43.2682028,2.64396582 49.1579356,2.6875 Z" id="路径" fill="#F69D1A" fill-rule="nonzero"></path>
                <path d="M49.1579356,2.6875 C49.9495006,2.69313965 50.7410655,2.6987793 51.5566173,2.70458984 C62.3160594,2.92766357 70.0723631,6.58922641 79.2829356,12 C77.843882,15.2892654 76.0322884,17.4425227 73.5329356,20 C62.7419652,31.8523773 61.4179313,44.1458731 62.0651622,59.4360352 C62.9322361,69.6445666 68.6674239,78.4506884 75.2829356,86 C77.4079689,87.755816 77.4079689,87.755816 79.2829356,89 C78.2829356,92 78.2829356,92 75.8063731,93.5351562 C61.1838952,100.628691 48.0244344,102.9192 32.2477794,98.0664062 C18.8017498,93.0523384 10.0006897,84.1424499 4.00559188,71.2539062 C-1.16486023,58.8705814 -1.24790891,45.6622461 3.28293563,33 C8.89315506,19.5391765 18.933468,10.6074136 32.2829356,5 C37.8972127,3.14154653 43.2683604,2.64334553 49.1579356,2.6875 Z" id="路径" fill="#EB001A" fill-rule="nonzero"></path>
                <path d="M78.2829356,14 C86.7566418,17.7188099 91.6425705,26.8965246 95.2829356,35 C97.122577,40.2881894 97.5926021,44.9133833 97.5329356,50.4375 C97.5445372,51.5058105 97.5445372,51.5058105 97.5563731,52.5957031 C97.5118632,64.8470718 92.54403,77.191856 83.8454356,85.875 C82.6754005,86.9362462 81.494632,87.9865812 80.2829356,89 C73.892487,86.9364176 70.8750553,82.4643759 67.2829356,77 C60.9600997,64.1834406 58.1334407,48.7672541 62.8454356,34.8125 C66.4672337,26.74984 71.8368156,19.9744527 78.2829356,14 Z" id="路径" fill="#FE5E00" fill-rule="nonzero"></path>
                <path d="M151.282936,79 C152.932936,79 154.582936,79 156.282936,79 C156.282936,79.99 156.282936,80.98 156.282936,82 C154.632936,81.67 152.982936,81.34 151.282936,81 C151.282936,80.34 151.282936,79.68 151.282936,79 Z" id="路径" fill="#F69D19" fill-rule="nonzero"></path>
                <text font-family="STYuanti-SC-Bold, Yuanti SC" font-size="64" font-weight="bold" letter-spacing="2.95384615" fill="#1C1C1C">
                    <tspan x="186.282936" y="68">mastercard</tspan>
                </text>
            </g>
            <g id="paybybankapp" transform="translate(292.290819, 0.000000)" fill="#1C1C1C" fill-rule="nonzero">
                <path d="M2.25994873,133.315354 C9.32158959,133.213281 16.3830377,133.143608 23.4452515,133.095628 C25.8437613,133.075609 28.2422229,133.048386 30.640564,133.013596 C34.1036576,132.964648 37.5661015,132.942287 41.02948,132.924729 C42.0882686,132.904084 43.1470572,132.883439 44.2379303,132.862164 C52.1657356,132.859821 60.2323358,133.888264 66.4697418,139.195664 C72.1633058,145.142016 74.3641624,151.045669 74.6974487,159.190354 C74.5086011,166.640391 72.598224,173.038263 67.2599487,178.315354 C67.2599487,178.975354 67.2599487,179.635354 67.2599487,180.315354 C68.7277375,181.646964 68.7277375,181.646964 70.5724487,183.002854 C76.0846156,187.646437 77.2878093,192.24321 78.0724487,199.190354 C78.5613917,207.339404 77.5604394,213.868812 72.2599487,220.315354 C66.1901069,226.475791 59.5509028,229.994016 50.773941,230.442338 C49.9028319,230.443133 49.0317227,230.443929 48.1342163,230.444749 C46.6429095,230.449477 46.6429095,230.449477 45.1214752,230.454301 C43.5290626,230.451264 43.5290626,230.451264 41.90448,230.448167 C40.2575037,230.449602 40.2575037,230.449602 38.5772553,230.451066 C36.2616063,230.451745 33.9459554,230.449908 31.6303101,230.445725 C28.0751726,230.440358 24.5201605,230.445686 20.9650269,230.452073 C18.7156776,230.451412 16.4663285,230.450132 14.21698,230.448167 C13.1492989,230.450191 12.0816177,230.452215 10.9815826,230.454301 C9.99683456,230.451149 9.01208649,230.447996 7.99749756,230.444749 C7.12877518,230.443953 6.26005279,230.443158 5.36500549,230.442338 C3.25994873,230.315354 3.25994873,230.315354 1.25994873,229.315354 C-0.01861235,225.479671 0.11246293,221.865269 0.11468506,217.868333 C0.11132645,217.006252 0.10796783,216.144171 0.10450745,215.255967 C0.09499708,212.40205 0.09305435,209.548192 0.09197998,206.69426 C0.08876767,204.712728 0.08540361,202.731197 0.08189392,200.749665 C0.07590259,196.594391 0.07405405,192.439138 0.074646,188.28386 C0.07474767,182.956159 0.06109046,177.62859 0.04387379,172.30092 C0.03276274,168.208023 0.03072651,164.115157 0.03125572,160.022246 C0.03007444,158.057831 0.02564442,156.093416 0.01792335,154.129016 C0.00814078,151.383172 0.01099457,148.637619 0.01702881,145.89177 C0.0114093,145.078649 0.00578979,144.265527 1.13686838e-13,143.427766 C0.02147633,139.58755 0.07299924,136.56635 2.25994873,133.315354 Z M23.2599487,153.315354 C23.2599487,159.255354 23.2599487,165.195354 23.2599487,171.315354 C26.489341,171.369428 29.7178227,171.409064 32.9474487,171.440354 C33.8594605,171.457112 34.7714722,171.47387 35.7111206,171.491135 C42.2453559,171.616281 42.2453559,171.616281 48.2599487,169.315354 C50.7078962,165.643433 50.9743076,162.584294 50.2599487,158.315354 C48.0525419,155.346773 46.773975,154.486696 43.2599487,153.315354 C41.7057314,153.234287 40.1482785,153.207785 38.59198,153.217698 C37.6993042,153.220921 36.8066284,153.224143 35.8869019,153.227464 C34.9581323,153.235843 34.0293628,153.244221 33.0724487,153.252854 C31.6618921,153.259622 31.6618921,153.259622 30.2228394,153.266526 C27.9018487,153.278308 25.5808907,153.296243 23.2599487,153.315354 Z M23.2599487,191.315354 C23.2599487,197.255354 23.2599487,203.195354 23.2599487,209.315354 C27.5106233,209.423118 31.7585763,209.50257 36.0099487,209.565354 C37.2165112,209.59887 38.4230737,209.632385 39.6661987,209.666917 C40.826355,209.679807 41.9865112,209.692698 43.1818237,209.705979 C44.7842896,209.7374 44.7842896,209.7374 46.4191284,209.769456 C49.9460813,209.205677 51.086027,208.08878 53.2599487,205.315354 C53.9213261,203.144118 53.9213261,203.144118 53.8224487,200.877854 C53.8443628,200.136643 53.8662769,199.395432 53.888855,198.63176 C52.8488139,194.80105 51.5597727,193.573129 48.2599487,191.315354 C43.9733216,190.700916 39.7664025,190.845581 35.4474487,191.002854 C34.2776245,191.025413 33.1078003,191.047971 31.9025269,191.071214 C29.0211183,191.130018 26.1403693,191.219695 23.2599487,191.315354 Z" id="形状"></path>
                <path d="M7.64276123,4.04069605 C8.55130859,4.03116404 9.45985596,4.02163202 10.3959351,4.01181116 C11.3823096,4.01272257 12.3686841,4.01363398 13.3849487,4.014573 C14.4016162,4.01028788 15.4182837,4.00600275 16.4657593,4.00158777 C18.6245245,3.99583385 20.7833091,3.99535199 22.9420776,3.99968043 C26.2189537,4.00281504 29.4949048,3.97948295 32.7716675,3.95402613 C34.8719268,3.95175047 36.9721885,3.95105087 39.0724487,3.952073 C40.0426294,3.94286326 41.0128101,3.93365351 42.0123901,3.92416468 C51.9433789,3.99041054 60.7036127,6.04641492 68.0724487,13.0341042 C75.7332299,21.0779244 76.7588813,28.8877886 76.6798706,39.6464089 C76.3819707,48.8163785 73.7298722,55.8127635 67.3810425,62.5575417 C57.9630849,70.3624789 46.9547115,70.471721 35.3224487,70.3778542 C33.7243335,70.3710867 33.7243335,70.3710867 32.0939331,70.3641824 C29.4825458,70.3524721 26.8712775,70.3360715 24.2599487,70.3153542 C24.267804,71.5186538 24.267804,71.5186538 24.2758179,72.7462625 C24.2965777,76.3734518 24.3096058,80.0006286 24.3224487,83.6278542 C24.3308276,84.890491 24.3392065,86.1531277 24.3478394,87.4540261 C24.3526733,89.2667703 24.3526733,89.2667703 24.357605,91.1161355 C24.3654602,92.7892983 24.3654602,92.7892983 24.3734741,94.4962625 C24.2599487,97.3153542 24.2599487,97.3153542 23.2599487,100.315354 C19.9918307,101.949413 16.4099547,101.499892 12.8224487,101.502854 C12.0457886,101.5151 11.2691284,101.527346 10.4689331,101.539964 C6.54762564,101.550096 4.59376128,101.537896 1.25994873,99.3153542 C0.96324838,96.3360835 0.86111169,93.5645221 0.88763428,90.5829324 C0.88398361,89.6787708 0.88033295,88.7746093 0.87657165,87.843049 C0.86844285,84.844045 0.8820956,81.8455775 0.89666748,78.8466042 C0.89718581,76.769171 0.89666917,74.6917372 0.89515686,72.6143044 C0.89524669,68.2562793 0.90569769,63.8984388 0.92376709,59.5404519 C0.94645457,53.9445809 0.94699948,48.3489798 0.94024944,42.7530755 C0.93691344,38.4620786 0.94353259,34.1711435 0.95337868,29.8801583 C0.95723734,27.8164104 0.95837615,25.7526556 0.95679283,23.6889047 C0.95642339,20.8083941 0.96900823,17.9282342 0.98529053,15.0477761 C0.98281311,14.1884901 0.98033569,13.329204 0.9777832,12.443879 C1.03159826,6.50108212 1.40549095,4.07660242 7.64276123,4.04069605 Z M24.2599487,25.3153542 C24.2599487,33.2353542 24.2599487,41.1553542 24.2599487,49.3153542 C28.2508862,49.3772292 28.2508862,49.3772292 32.3224487,49.4403542 C33.558136,49.4676663 33.558136,49.4676663 34.8187866,49.49553 C40.724927,49.5393788 46.1579017,49.3067672 50.6349487,45.0653542 C52.5008424,41.907688 53.1864849,39.9885472 53.2599487,36.3153542 C51.9213097,32.3663692 50.668818,28.8720062 47.2599487,26.3153542 C44.3772972,25.3544704 42.583326,25.1986448 39.59198,25.217698 C38.3850549,25.2214443 38.3850549,25.2214443 37.1537476,25.2252664 C36.1369189,25.2343704 35.1200903,25.2434744 34.0724487,25.2528542 C30.8343237,25.2734792 27.5961987,25.2941042 24.2599487,25.3153542 Z" id="形状"></path>
                <path d="M339.736511,29.9930886 C340.569246,29.9963113 341.40198,29.9995339 342.259949,30.0028542 C343.092683,29.986741 343.925417,29.9706277 344.783386,29.9540261 C345.978347,29.9530593 345.978347,29.9530593 347.197449,29.952073 C347.928347,29.949092 348.659246,29.9461111 349.412292,29.9430398 C351.259949,30.3153542 351.259949,30.3153542 353.259949,33.3153542 C353.524963,35.212449 353.524963,35.212449 353.547058,37.3719949 C353.560472,38.182936 353.573887,38.9938772 353.587708,39.8293923 C353.592985,40.7013223 353.598262,41.5732522 353.603699,42.4716042 C353.618322,43.3702822 353.632944,44.2689602 353.64801,45.1948709 C353.710306,49.0420177 353.749888,52.8893258 353.791687,56.736741 C353.825399,59.544367 353.870517,62.3516516 353.916199,65.1591042 C353.921476,66.0310342 353.926753,66.9029641 353.93219,67.8013162 C353.945604,68.6122573 353.959019,69.4231985 353.972839,70.2587136 C353.980131,70.9713638 353.987422,71.6840139 353.994934,72.4182595 C354.165998,74.6448662 354.165998,74.6448662 356.259949,77.3153542 C359.682278,78.4561308 362.346681,78.4135054 365.947449,78.3778542 C367.126941,78.3688308 368.306433,78.3598074 369.521667,78.3505105 C370.4253,78.3389089 371.328933,78.3273074 372.259949,78.3153542 C372.270256,77.7287553 372.280564,77.1421563 372.291183,76.5377816 C372.399021,70.4549756 372.513636,64.3723245 372.632263,58.2897195 C372.675685,56.0169659 372.717355,53.7441781 372.757263,51.4713601 C372.81479,48.2122219 372.878534,44.9532569 372.943542,41.6942605 C372.960255,40.6713542 372.976967,39.6484478 372.994186,38.5945443 C373.014132,37.6536445 373.034077,36.7127447 373.054626,35.7433328 C373.070171,34.9106034 373.085715,34.0778741 373.10173,33.2199105 C373.259949,31.3153542 373.259949,31.3153542 374.259949,30.3153542 C375.663436,30.2167529 377.071754,30.1845649 378.478699,30.1825417 C379.752937,30.1806082 379.752937,30.1806082 381.052917,30.1786355 C382.392898,30.1844363 382.392898,30.1844363 383.759949,30.1903542 C384.653269,30.1864871 385.546589,30.1826199 386.46698,30.1786355 C387.316472,30.1799246 388.165964,30.1812136 389.041199,30.1825417 C389.825593,30.1836697 390.609988,30.1847976 391.418152,30.1859597 C393.259949,30.3153542 393.259949,30.3153542 394.259949,31.3153542 C394.370906,33.7320084 394.417333,36.1203541 394.421082,38.5380105 C394.428529,39.6723427 394.428529,39.6723427 394.436127,40.8295907 C394.450796,43.3456877 394.457561,45.8617214 394.463074,48.3778542 C394.468825,50.1260639 394.474583,51.8742735 394.480347,53.6224832 C394.490873,57.2979419 394.496704,60.9733787 394.500183,64.6488503 C394.505645,69.3417023 394.529616,74.0342607 394.558155,78.7270211 C394.576859,82.3440288 394.581991,85.9609671 394.583519,89.578019 C394.586533,91.3066526 394.594519,93.0352852 394.607704,94.7638711 C394.762215,116.594265 394.762215,116.594265 386.287292,125.588792 C377.870997,132.756427 366.791956,132.959441 356.259949,132.315354 C346.564937,130.932027 339.984035,127.766091 333.697449,120.252854 C332.259949,117.315354 332.259949,117.315354 332.009949,114.752854 C334.002101,110.868158 337.488793,109.309379 341.259949,107.315354 C341.94573,106.93637 342.631511,106.557385 343.338074,106.166917 C346.32914,104.841607 348.174784,105.370916 351.259949,106.315354 C354.009949,108.815354 354.009949,108.815354 356.259949,111.315354 C358.572727,112.471743 360.060861,112.514044 362.634949,112.565354 C363.405808,112.591135 364.176667,112.616917 364.970886,112.643479 C367.92818,112.219567 369.177765,111.45664 371.259949,109.315354 C372.169823,106.601218 372.169823,106.601218 372.509949,103.627854 C372.65948,102.633987 372.809011,101.64012 372.963074,100.616136 C373.061042,99.8568777 373.159011,99.0976199 373.259949,98.3153542 C372.737878,98.4764871 372.215808,98.6376199 371.677917,98.8036355 C361.670832,100.921452 350.391401,99.9779718 341.509949,94.8153542 C336.092005,90.9602791 333.417914,85.6272016 331.715759,79.2889871 C331.050762,74.9506562 331.097223,70.6553967 331.09198,66.2723855 C331.088652,65.3075776 331.085323,64.3427697 331.081894,63.3487252 C331.076843,61.3155524 331.074485,59.2823713 331.074646,57.2491921 C331.072449,54.1285314 331.054246,51.0082186 331.035339,47.8876199 C331.032407,45.9117096 331.030421,43.9357977 331.02948,41.9598855 C331.022294,41.0234471 331.015109,40.0870086 331.007706,39.1221932 C331.010782,38.2575697 331.013859,37.3929461 331.017029,36.5021218 C331.015604,35.7399888 331.014179,34.9778558 331.012711,34.1926278 C331.665916,29.2328558 335.82549,30.0278954 339.736511,29.9930886 Z" id="路径"></path>
                <path d="M159.107605,29.9430398 C159.838503,29.9460208 160.569402,29.9490017 161.322449,29.952073 C162.119089,29.9527175 162.91573,29.9533621 163.736511,29.9540261 C164.985613,29.978196 164.985613,29.978196 166.259949,30.0028542 C167.50905,29.9980203 167.50905,29.9980203 168.783386,29.9930886 C174.992946,30.0483517 174.992946,30.0483517 177.259949,32.3153542 C177.531693,34.1301583 177.531693,34.1301583 177.562927,36.3502664 C177.579569,37.1813038 177.596211,38.0123412 177.613358,38.8685616 C177.621772,39.7675266 177.630186,40.6664916 177.638855,41.592698 C177.655849,42.514987 177.672844,43.4372759 177.690353,44.3875131 C177.7436,47.3425567 177.783819,50.2975862 177.822449,53.2528542 C177.866381,56.2044782 177.913121,59.1559931 177.965256,62.1074838 C177.997192,63.9459731 178.024089,65.7845581 178.045486,67.6232003 C178.058976,68.4573899 178.072466,69.2915795 178.086365,70.1510476 C178.095877,70.8844789 178.105388,71.6179101 178.115189,72.3735665 C178.196506,74.5330664 178.196506,74.5330664 179.259949,77.3153542 C182.682592,78.7414556 186.358744,78.4143663 190.009949,78.3778542 C191.180417,78.3688308 192.350886,78.3598074 193.556824,78.3505105 C194.894871,78.3331082 194.894871,78.3331082 196.259949,78.3153542 C196.270256,77.743504 196.280564,77.1716537 196.291183,76.5824746 C196.399132,70.6454964 196.513739,64.7086735 196.632263,58.7718972 C196.67565,56.5544823 196.717322,54.3370331 196.757263,52.1195535 C196.814876,48.9373195 196.878596,45.7552584 196.943542,42.5731667 C196.960255,41.5772955 196.976967,40.5814242 196.994186,39.555375 C197.014132,38.6345715 197.034077,37.7137679 197.054626,36.7650613 C197.070171,35.9523174 197.085715,35.1395736 197.10173,34.3022012 C197.259949,32.3153542 197.259949,32.3153542 198.259949,30.3153542 C201.405763,30.2864691 204.551543,30.268595 207.697449,30.2528542 C208.595281,30.2444753 209.493113,30.2360964 210.418152,30.2274636 C211.272156,30.224241 212.12616,30.2210183 213.006042,30.217698 C213.796802,30.2124612 214.587561,30.2072244 215.402283,30.2018289 C217.259949,30.3153542 217.259949,30.3153542 218.259949,31.3153542 C218.376242,33.7571035 218.427937,36.1709608 218.436951,38.6139382 C218.446807,39.7604913 218.446807,39.7604913 218.456863,40.9302072 C218.476659,43.473955 218.488278,46.0176434 218.49823,48.561448 C218.502306,49.4306544 218.506381,50.2998608 218.51058,51.1954068 C218.531476,55.8039904 218.545758,60.412544 218.555115,65.0211648 C218.566132,69.76557 218.600467,74.5095001 218.640286,79.2537383 C218.666548,82.9128205 218.674815,86.5717917 218.678396,90.2309598 C218.683245,91.9783205 218.694809,93.7256769 218.713434,95.4729451 C218.912642,115.415547 218.912642,115.415547 212.365417,123.717698 C202.744936,131.418002 193.490309,133.115887 181.259949,132.315354 C172.497377,131.024489 164.476724,128.209134 158.556824,121.338792 C156.474696,118.090171 156.535962,116.06692 157.259949,112.315354 C159.662038,110.098934 162.32703,108.721623 165.259949,107.315354 C166.590261,106.634729 166.590261,106.634729 167.947449,105.940354 C170.97362,105.12247 172.305897,105.190001 175.259949,106.315354 C176.362497,107.315404 177.443979,108.338902 178.509949,109.377854 C181.283381,111.884843 183.129396,112.8157 186.884949,113.002854 C190.202794,112.742409 191.354616,112.254215 194.259949,110.377854 C196.865625,106.387913 197.147617,103.00267 197.259949,98.3153542 C196.7353,98.475198 196.210652,98.6350417 195.670105,98.7997292 C185.405279,100.99577 173.443689,99.7465416 164.384949,94.2528542 C158.187568,89.3217653 156.126643,81.8573269 155.259949,74.3153542 C155.115195,71.1325931 155.096144,67.954215 155.09198,64.7684792 C155.088652,63.8754611 155.085323,62.9824429 155.081894,62.0623635 C155.076857,60.1865753 155.074485,58.3107782 155.074646,56.4349832 C155.072445,53.560324 155.054216,50.6860401 155.035339,47.811448 C155.032408,45.9846264 155.030421,44.157803 155.02948,42.3309792 C155.022294,41.4715975 155.015109,40.6122158 155.007706,39.7267922 C155.010782,38.9287618 155.013859,38.1307314 155.017029,37.3085183 C155.015604,36.607933 155.014179,35.9073477 155.012711,35.1855325 C155.383244,32.3827131 156.210184,30.5268886 159.107605,29.9430398 Z" id="路径"></path>
                <path d="M259.259949,0.315354249 C261.139343,-0.0252219206 261.139343,-0.0252219206 263.392761,0.0223854994 C264.198425,0.0320534694 265.004089,0.0417214394 265.834167,0.0516823694 C266.675925,0.0768190894 267.517683,0.101955809 268.384949,0.127854249 C269.234441,0.141389409 270.083933,0.154924559 270.959167,0.168869869 C273.059697,0.204272059 275.159902,0.258080239 277.259949,0.315354249 C279.198921,3.59459832 279.553204,6.17068644 279.674011,9.95597925 C279.712683,11.0259011 279.751355,12.095823 279.791199,13.1981667 C279.822136,14.3093386 279.853074,15.4205105 279.884949,16.5653542 C279.923621,17.6919949 279.962292,18.8186355 280.002136,19.9794167 C280.096322,22.7578997 280.181945,25.5363776 280.259949,28.3153542 C280.818677,28.2996438 281.377405,28.2839333 281.953064,28.2677468 C284.534419,28.204605 287.11561,28.1661172 289.697449,28.1278542 C290.575945,28.1027175 291.454441,28.0775808 292.359558,28.0516824 C299.981879,27.9673024 306.166125,29.2722628 312.572449,33.5028542 C318.49024,39.6958916 320.411689,46.492857 320.49823,54.9130105 C320.506302,55.6619105 320.514373,56.4108105 320.52269,57.1824044 C320.536517,58.770236 320.547245,60.3580972 320.555115,61.9459695 C320.566582,63.5547833 320.58695,65.1635606 320.616638,66.7721414 C320.977428,86.3333961 320.977428,86.3333961 314.365417,94.717698 C302.986786,103.825238 291.222592,104.225657 276.96698,103.041917 C270.113674,102.102136 264.083671,100.124581 258.259949,96.3153542 C256.61831,93.0320772 257.112736,89.3911252 257.114685,85.7823953 C257.111326,84.8993472 257.107968,84.0162991 257.104507,83.1064919 C257.094982,80.1774006 257.093054,77.2483664 257.09198,74.3192605 C257.088769,72.2890631 257.085405,70.258866 257.081894,68.2286691 C257.075899,63.9690658 257.074054,59.7094829 257.074646,55.4498757 C257.074748,49.984165 257.061092,44.518584 257.043874,39.052904 C257.032771,34.8588204 257.030726,30.6647684 257.031256,26.4706716 C257.030073,24.4551908 257.025636,22.4397092 257.017923,20.4242429 C257.008158,17.6086379 257.010988,14.793317 257.017029,11.9777078 C257.011409,11.1407185 257.00579,10.3037292 257,9.44137659 C257.021311,5.54490793 257.048434,3.63262566 259.259949,0.315354249 Z M279.259949,48.3153542 C279.259949,59.8653542 279.259949,71.4153542 279.259949,83.3153542 C288.694381,84.6888474 288.694381,84.6888474 296.259949,81.3153542 C300.432652,76.5549464 299.738493,70.7928963 299.697449,64.8153542 C299.717429,63.7828152 299.73741,62.7502761 299.757996,61.686448 C299.764949,55.6213811 299.764949,55.6213811 297.357605,50.1591042 C294.058397,47.2592419 292.141387,47.178883 287.822449,47.1903542 C286.854363,47.1877761 285.886277,47.185198 284.888855,47.1825417 C282.14977,47.2032145 282.14977,47.2032145 279.259949,48.3153542 Z" id="形状"></path>
                <path d="M456.357605,163.182542 C464.688024,172.248501 464.441101,181.839804 464.447449,193.627854 C464.459695,194.813147 464.471941,195.99844 464.485031,197.219651 C464.50095,207.071129 464.129205,216.655972 457.259949,224.315354 C446.587648,233.003455 435.340036,232.644734 422.259949,231.315354 C422.270422,232.092498 422.280896,232.869641 422.291687,233.670335 C422.333152,237.176975 422.359245,240.683564 422.384949,244.190354 C422.401707,245.413675 422.418464,246.636995 422.43573,247.897385 C422.442175,249.063987 422.448621,250.230589 422.455261,251.432542 C422.465735,252.511326 422.476209,253.59011 422.487,254.701585 C422.259949,257.315354 422.259949,257.315354 420.259949,259.315354 C418.396423,259.558274 418.396423,259.558274 416.162292,259.545823 C415.36114,259.543889 414.559988,259.541956 413.734558,259.539964 C412.897312,259.527718 412.060066,259.515471 411.197449,259.502854 C410.356335,259.50221 409.515222,259.501565 408.648621,259.500901 C402.400181,259.455586 402.400181,259.455586 401.259949,258.315354 C401.138055,255.414988 401.0813,252.53803 401.067078,249.636399 C401.0589,248.725843 401.050723,247.815286 401.042297,246.877137 C401.017391,243.850039 401.000914,240.822988 400.986511,237.795823 C400.981188,236.764672 400.975864,235.733521 400.970379,234.671122 C400.943625,229.213592 400.924257,223.756085 400.909851,218.298509 C400.893196,212.652172 400.848417,207.006418 400.79748,201.360302 C400.763873,197.027205 400.752281,192.694248 400.746624,188.361033 C400.739893,186.279352 400.724625,184.197681 400.700733,182.116126 C400.66922,179.204428 400.669024,176.294316 400.676453,173.382493 C400.660047,172.519476 400.643642,171.656458 400.62674,170.767289 C400.687923,164.920038 400.687923,164.920038 403.628204,161.81189 C417.14169,154.127473 444.176754,152.339996 456.357605,163.182542 Z M422.259949,177.315354 C422.171433,179.908947 422.144689,182.475751 422.162292,185.06926 C422.163707,185.844707 422.165122,186.620154 422.16658,187.419099 C422.172195,189.905389 422.18475,192.391591 422.197449,194.877854 C422.202462,196.559494 422.207025,198.241134 422.211121,199.922776 C422.22217,204.05367 422.239444,208.184497 422.259949,212.315354 C424.48803,212.423894 426.717648,212.501187 428.947449,212.565354 C430.188816,212.61176 431.430183,212.658167 432.709167,212.705979 C436.829617,212.252684 438.367828,211.212841 441.259949,208.315354 C443.367511,204.10023 442.577996,198.634184 442.634949,194.002854 C442.672332,192.861389 442.709714,191.719925 442.74823,190.54387 C442.854519,183.93929 442.854519,183.93929 440.189636,178.045823 C436.530721,175.884623 434.23571,175.772385 430.009949,175.940354 C428.767292,175.97387 427.524636,176.007385 426.244324,176.041917 C423.378415,175.983675 423.378415,175.983675 422.259949,177.315354 Z" id="形状"></path>
                <path d="M530.072449,163.065354 C537.820611,171.034893 537.473147,180.775839 537.500183,191.221848 C537.509842,193.478008 537.540866,195.733238 537.572449,197.989182 C537.648076,208.143759 537.273369,217.076754 529.982605,224.815354 C522.363392,231.449771 512.02883,232.795791 502.259949,232.315354 C499.924703,231.995692 497.590996,231.664313 495.259949,231.315354 C495.267804,232.534364 495.267804,232.534364 495.275818,233.778001 C495.296519,237.436277 495.309587,241.094542 495.322449,244.752854 C495.330828,246.032249 495.339207,247.311643 495.347839,248.629807 C495.352673,250.452219 495.352673,250.452219 495.357605,252.311448 C495.36546,254.000321 495.36546,254.000321 495.373474,255.723313 C495.259949,258.315354 495.259949,258.315354 494.259949,259.315354 C491.269767,259.442032 488.313008,259.500563 485.322449,259.502854 C484.06658,259.521223 484.06658,259.521223 482.785339,259.539964 C481.984187,259.541897 481.183035,259.543831 480.357605,259.545823 C479.620342,259.549932 478.883079,259.554041 478.123474,259.558274 C476.259949,259.315354 476.259949,259.315354 474.259949,257.315354 C474.050659,254.414798 473.966315,251.608962 473.969421,248.706468 C473.962704,247.815272 473.955987,246.924077 473.949066,246.005875 C473.930012,243.049083 473.926158,240.092517 473.924011,237.135667 C473.917588,235.085444 473.91086,233.035222 473.903839,230.985001 C473.891848,226.6825 473.88816,222.380078 473.889343,218.077561 C473.889546,212.560224 473.862249,207.043402 473.827799,201.526187 C473.805577,197.290011 473.801504,193.053959 473.802563,188.817731 C473.8002,186.783525 473.791336,184.749317 473.775898,182.715169 C473.756334,179.870755 473.762038,177.027462 473.774109,174.18303 C473.75725,172.918913 473.75725,172.918913 473.740051,171.629258 C473.779849,167.944503 473.89271,165.793334 476.17424,162.823808 C481.54859,158.936901 487.83587,157.762524 494.322449,157.065354 C495.41783,156.94523 495.41783,156.94523 496.535339,156.822678 C508.848457,155.633404 519.426535,156.44123 530.072449,163.065354 Z M495.259949,177.315354 C495.259949,188.865354 495.259949,200.415354 495.259949,212.315354 C500.209949,212.315354 505.159949,212.315354 510.259949,212.315354 C516.801144,205.774159 516.463372,202.55699 516.509949,193.940354 C516.530574,192.994182 516.551199,192.04801 516.572449,191.073167 C516.637806,184.183429 516.637806,184.183429 513.259949,178.315354 C509.663839,175.917948 507.959025,176.075477 503.697449,176.127854 C501.963015,176.137522 501.963015,176.137522 500.193542,176.147385 C497.325911,176.117642 497.325911,176.117642 495.259949,177.315354 Z" id="形状"></path>
                <path d="M244.197449,129.127854 C245.034695,129.115608 245.871941,129.103362 246.734558,129.090745 C247.936287,129.087844 247.936287,129.087844 249.162292,129.084885 C249.899556,129.080777 250.636819,129.076668 251.396423,129.072434 C253.259949,129.315354 253.259949,129.315354 255.259949,131.315354 C255.500458,133.567948 255.500458,133.567948 255.487,136.407639 C255.486848,137.468588 255.486697,138.529537 255.486542,139.622636 C255.476219,140.771623 255.465897,141.920611 255.455261,143.104417 C255.452431,144.277977 255.449601,145.451538 255.446686,146.660661 C255.435462,150.420661 255.410354,154.180426 255.384949,157.940354 C255.374922,160.484622 255.365795,163.028893 255.357605,165.573167 C255.335516,171.820643 255.302017,178.067982 255.259949,184.315354 C258.803554,183.134152 259.225235,182.284075 261.220886,179.237229 C261.775183,178.405784 262.32948,177.574339 262.900574,176.717698 C263.472917,175.842425 264.045261,174.967151 264.634949,174.065354 C273.783034,160.134366 273.783034,160.134366 278.693542,158.510667 C281.580832,158.290934 284.426155,158.183031 287.322449,158.190354 C288.855789,158.186487 288.855789,158.186487 290.420105,158.182542 C292.876448,158.297419 294.917632,158.607604 297.259949,159.315354 C296.954653,165.836816 294.55337,169.261155 290.509949,174.252854 C286.409302,179.43394 282.645533,184.634571 279.259949,190.315354 C280.108152,191.189339 280.956355,192.063323 281.830261,192.963792 C285.976342,197.80698 288.562197,203.369091 291.266785,209.104417 C292.139853,210.950725 293.034541,212.785401 293.931824,214.620042 C298.637224,224.464519 298.637224,224.464519 298.259949,229.315354 C294.802636,230.467792 292.027357,230.483603 288.384949,230.502854 C287.170652,230.517034 285.956355,230.531214 284.705261,230.545823 C281.251443,230.314785 279.19973,230.125614 276.259949,228.315354 C274.848062,226.078644 273.76301,224.078853 272.697449,221.690354 C272.399353,221.060969 272.101257,220.431585 271.794128,219.783128 C270.93522,217.967177 270.097075,216.141449 269.259949,214.315354 C266.749694,208.550066 266.749694,208.550066 262.259949,204.315354 C259.936069,203.921476 257.602011,203.580493 255.259949,203.315354 C255.267804,204.390191 255.267804,204.390191 255.275818,205.486741 C255.296555,208.72127 255.309599,211.955785 255.322449,215.190354 C255.330828,216.318284 255.339207,217.446214 255.347839,218.608323 C255.352673,220.222874 255.352673,220.222874 255.357605,221.870042 C255.36546,223.362534 255.36546,223.362534 255.373474,224.885178 C255.259949,227.315354 255.259949,227.315354 254.259949,229.315354 C250.769483,230.478843 247.937179,230.483702 244.259949,230.502854 C243.022449,230.517034 241.784949,230.531214 240.509949,230.545823 C237.259949,230.315354 237.259949,230.315354 234.259949,228.315354 C233.968638,225.180842 233.871661,222.244365 233.903503,219.108079 C233.901459,218.153543 233.899415,217.199008 233.896984,216.215547 C233.894292,213.049404 233.912803,209.883779 233.931824,206.717698 C233.93488,204.525769 233.936757,202.333838 233.9375,200.141908 C233.942109,195.544293 233.956557,190.946853 233.978699,186.34929 C234.006998,180.441735 234.017911,174.534318 234.022381,168.626701 C234.026528,164.09985 234.036339,159.573028 234.048256,155.046191 C234.053972,152.867181 234.058726,150.688168 234.062523,148.509154 C234.069361,145.470466 234.082982,142.431888 234.098816,139.393235 C234.099934,138.4836 234.101052,137.573965 234.102203,136.636765 C234.162124,127.999722 236.326351,129.133886 244.197449,129.127854 Z" id="路径"></path>
                <path d="M112.947449,28.0653542 C114.238123,28.0344167 114.238123,28.0344167 115.554871,28.0028542 C123.991408,27.9519934 131.456369,29.6241588 137.756042,35.514573 C144.280283,43.3267157 144.415186,53.1236453 144.427917,62.827073 C144.43291,64.1630428 144.43291,64.1630428 144.438004,65.5260018 C144.443041,67.3975939 144.445413,69.2691949 144.445251,71.1407937 C144.44745,74.0044676 144.465672,76.8677633 144.484558,79.7313699 C144.48749,81.5549363 144.489476,83.3785045 144.490417,85.202073 C144.497603,86.0562934 144.504789,86.9105139 144.512192,87.7906197 C144.509115,88.5885746 144.506039,89.3865295 144.502869,90.2086648 C144.504294,90.9070295 144.505719,91.6053942 144.507187,92.3249215 C144.21177,94.7032236 143.519134,96.2827776 142.259949,98.3153542 C129.574619,105.145916 110.100186,105.402646 96.3029175,102.00676 C90.73984,100.124036 86.3903461,97.4167426 83.2599487,92.3153542 C80.554979,84.200445 80.1844397,76.4130032 83.2286987,68.3231667 C85.6795442,63.5514449 89.6644155,61.3631669 94.5099487,59.5653542 C103.043965,57.0309232 113.598493,55.8683958 122.259949,58.3153542 C122.004408,56.8542636 121.729945,55.3964733 121.447449,53.9403542 C121.296628,53.1282449 121.145808,52.3161355 120.990417,51.4794167 C120.384499,48.9571478 120.384499,48.9571478 117.259949,47.3153542 C113.052798,46.7087051 109.341807,46.8345286 105.447449,48.5653542 C103.164269,50.2449884 103.164269,50.2449884 101.509949,52.6278542 C99.2599487,54.3153542 99.2599487,54.3153542 97.2560425,54.264573 C91.9579815,53.2336474 87.7849482,51.2036518 83.2599487,48.3153542 C82.6339285,44.1418861 83.3294171,41.6658182 85.6349487,38.2528542 C92.6183314,29.5735073 102.521641,28.1264579 112.947449,28.0653542 Z M103.259949,77.3153542 C102.593282,80.3153542 102.593282,80.3153542 103.259949,83.3153542 C105.703217,85.8973762 107.102728,86.3002611 110.677917,86.6434792 C111.921863,86.617698 113.165808,86.5919167 114.447449,86.5653542 C115.699128,86.5498855 116.950808,86.5344167 118.240417,86.5184792 C121.13846,86.6561937 121.13846,86.6561937 122.259949,85.3153542 C122.332021,83.4624792 122.343761,81.6070155 122.322449,79.7528542 C122.313425,78.7409402 122.304402,77.7290261 122.295105,76.686448 C122.283503,75.9039871 122.271902,75.1215261 122.259949,74.3153542 C119.842603,74.2341747 117.427999,74.174785 115.009949,74.1278542 C114.328035,74.1027175 113.646121,74.0775808 112.943542,74.0516824 C108.773856,73.9909588 106.157831,74.1759817 103.259949,77.3153542 Z" id="形状"></path>
                <path d="M140.072449,163.065354 C145.181074,168.31994 147.330847,174.890769 147.468689,182.112229 C147.48798,183.060012 147.50727,184.007796 147.527145,184.9843 C147.585013,189.291224 147.634096,193.597989 147.664978,197.905198 C147.686627,200.178789 147.720809,202.452296 147.767517,204.72551 C147.834273,208.005836 147.86193,211.284447 147.881042,214.565354 C147.908873,215.582102 147.936704,216.59885 147.965378,217.646409 C147.957512,220.333496 147.890731,222.703213 147.259949,225.315354 C139.02346,232.944521 125.052396,232.581357 114.420105,232.471604 C105.141979,232.012859 96.1876746,231.421613 89.5099487,224.440354 C84.454489,217.418882 84.637529,210.747196 85.2599487,202.315354 C86.3832528,197.163952 89.169821,193.587456 93.2599487,190.315354 C101.098248,186.278462 109.632097,186.15566 118.259949,186.252854 C119.034675,186.257366 119.809402,186.261878 120.607605,186.266526 C122.491754,186.278157 124.375862,186.296085 126.259949,186.315354 C125.810858,184.833355 125.350383,183.354802 124.884949,181.877854 C124.629714,181.054143 124.37448,180.230432 124.111511,179.38176 C123.451126,177.137374 123.451126,177.137374 121.259949,176.315354 C115.605749,175.794968 110.823019,175.557531 106.259949,179.315354 C104.890107,180.611151 103.544844,181.935282 102.259949,183.315354 C90.13041,179.994451 90.13041,179.994451 87.2599487,177.315354 C86.5099487,174.127854 86.5099487,174.127854 87.2599487,170.315354 C91.5452908,163.39685 97.2132482,159.659672 104.943542,157.60051 C117.692891,155.010005 129.045281,156.204006 140.072449,163.065354 Z M107.744324,205.135667 C105.966784,207.306324 105.966784,207.306324 106.259949,210.440354 C106.955302,213.348732 106.955302,213.348732 108.943542,214.483323 C111.845404,215.525644 114.243751,215.544819 117.322449,215.502854 C118.3653,215.496409 119.408152,215.489964 120.482605,215.483323 C123.346095,215.430184 123.346095,215.430184 126.259949,214.315354 C126.259949,210.685354 126.259949,207.055354 126.259949,203.315354 C123.675491,203.207168 121.095575,203.127982 118.509949,203.065354 C117.415535,203.015081 117.415535,203.015081 116.299011,202.963792 C112.725099,202.898812 110.678818,203.012259 107.744324,205.135667 Z" id="形状"></path>
                <path d="M382.072449,163.065354 C386.807943,167.936149 389.342864,174.340192 389.468689,181.090501 C389.48798,182.05838 389.50727,183.02626 389.527145,184.023469 C389.584878,188.434609 389.63412,192.845588 389.664978,197.257005 C389.68661,199.585931 389.720773,201.914775 389.767517,204.243333 C389.834279,207.599741 389.861934,210.954471 389.881042,214.311448 C389.908873,215.353207 389.936704,216.394966 389.965378,217.468293 C389.957537,220.212297 389.891617,222.644945 389.259949,225.315354 C381.065221,232.95221 367.021596,232.590699 356.416199,232.467698 C346.638783,231.995768 338.026167,231.210389 330.947449,223.940354 C326.596581,217.172338 326.636698,210.115728 327.259949,202.315354 C328.416009,197.176306 331.172068,193.585659 335.259949,190.315354 C343.098248,186.278462 351.632097,186.15566 360.259949,186.252854 C361.034675,186.257366 361.809402,186.261878 362.607605,186.266526 C364.491754,186.278157 366.375862,186.296085 368.259949,186.315354 C367.810858,184.833355 367.350383,183.354802 366.884949,181.877854 C366.629714,181.054143 366.37448,180.230432 366.111511,179.38176 C365.451126,177.137374 365.451126,177.137374 363.259949,176.315354 C357.605749,175.794968 352.823019,175.557531 348.259949,179.315354 C346.890107,180.611151 345.544844,181.935282 344.259949,183.315354 C332.13041,179.994451 332.13041,179.994451 329.259949,177.315354 C328.509949,174.127854 328.509949,174.127854 329.259949,170.315354 C333.545291,163.39685 339.213248,159.659672 346.943542,157.60051 C359.692891,155.010005 371.045281,156.204006 382.072449,163.065354 Z M349.744324,205.170823 C348.016882,207.231832 348.016882,207.231832 348.259949,209.877854 C349.493368,212.884313 350.457604,213.690739 353.259949,215.315354 C356.467867,215.714959 356.467867,215.714959 359.884949,215.565354 C361.032214,215.549885 362.17948,215.534417 363.361511,215.518479 C366.198582,215.505867 366.198582,215.505867 368.259949,214.315354 C368.259949,210.685354 368.259949,207.055354 368.259949,203.315354 C365.675491,203.207168 363.095575,203.127982 360.509949,203.065354 C359.415535,203.015081 359.415535,203.015081 358.299011,202.963792 C354.700942,202.898372 352.680683,203.00503 349.744324,205.170823 Z" id="形状"></path>
                <path d="M215.131042,163.991135 C221.583298,170.969474 221.568126,178.319802 221.56073,187.424729 C221.565015,188.587887 221.5693,189.751044 221.573715,190.949448 C221.579445,193.400349 221.579969,195.851267 221.575623,198.302171 C221.572448,202.06597 221.595989,205.828995 221.621277,209.592698 C221.623548,211.974207 221.624254,214.355719 221.62323,216.737229 C221.63244,217.867395 221.641649,218.99756 221.651138,220.161973 C221.64491,221.203556 221.638681,222.245138 221.632263,223.318284 C221.632893,224.237285 221.633522,225.156286 221.634171,226.103135 C221.510677,226.833167 221.387184,227.5632 221.259949,228.315354 C217.569066,230.775943 215.648873,230.553144 211.259949,230.502854 C210.022449,230.496409 208.784949,230.489964 207.509949,230.483323 C204.259949,230.315354 204.259949,230.315354 201.259949,229.315354 C200.097293,226.990042 200.12372,225.610624 200.102234,223.020921 C200.091972,222.133049 200.08171,221.245177 200.071136,220.330399 C200.063835,219.36895 200.056534,218.407501 200.049011,217.416917 C200.020944,215.390867 199.99228,213.364825 199.963074,211.338792 C199.921785,208.136971 199.884907,204.935304 199.858582,201.733323 C199.831003,198.648364 199.785132,195.564106 199.736511,192.479417 C199.733258,191.522016 199.730005,190.564615 199.726654,189.578202 C199.710088,188.684026 199.693521,187.789849 199.676453,186.868577 C199.664322,185.691819 199.664322,185.691819 199.651947,184.491288 C199.154599,181.730569 198.16403,180.352896 196.259949,178.315354 C192.837619,177.174578 190.173217,177.217203 186.572449,177.252854 C185.392957,177.261878 184.213464,177.270901 182.99823,177.280198 C182.094597,177.2918 181.190964,177.303401 180.259949,177.315354 C180.262169,177.937317 180.26439,178.559279 180.266678,179.200089 C180.28875,185.655986 180.303863,192.111871 180.31488,198.567796 C180.319918,200.979258 180.326749,203.390718 180.335388,205.802171 C180.347477,209.262302 180.353182,212.722393 180.357605,216.182542 C180.362766,217.265908 180.367928,218.349275 180.373245,219.46547 C180.373359,220.9668 180.373359,220.9668 180.373474,222.49846 C180.375695,223.382263 180.377915,224.266067 180.380203,225.176652 C180.259949,227.315354 180.259949,227.315354 179.259949,229.315354 C175.806603,230.466469 172.96101,230.555312 169.322449,230.627854 C168.09655,230.665237 166.870652,230.70262 165.607605,230.741135 C161.587063,230.229771 160.716031,229.457144 158.259949,226.315354 C157.765472,223.666078 157.765472,223.666078 157.774109,220.61638 C157.767956,219.471617 157.761802,218.326854 157.755463,217.147401 C157.769834,215.915052 157.784205,214.682703 157.799011,213.41301 C157.799928,212.143158 157.800844,210.873306 157.801788,209.564973 C157.807832,206.878764 157.821445,204.193929 157.848328,201.507981 C157.882273,198.073689 157.889957,194.639985 157.888437,191.205545 C157.889114,187.920476 157.906804,184.635529 157.924011,181.35051 C157.926237,180.120186 157.928463,178.889861 157.930756,177.622254 C157.949895,175.900381 157.949895,175.900381 157.969421,174.143723 C157.977045,173.136527 157.984669,172.129332 157.992523,171.091615 C158.277352,168.134681 158.944973,165.971545 160.259949,163.315354 C165.414487,159.708267 172.134023,158.317209 178.259949,157.315354 C179.006316,157.191604 179.752683,157.067854 180.521667,156.940354 C192.643261,155.337499 205.615768,155.469104 215.131042,163.991135 Z" id="路径"></path>
            </g>
        </g>
    </g>
</svg>
