<svg width="32" height="22" viewBox="6 6 32 22" fill="none" xmlns="http://www.w3.org/2000/svg">
<g filter="url(#filter0_d_1_113)">
<rect x="6" y="6" width="32" height="22" rx="2" fill="white"/>
</g>
<path fill-rule="evenodd" clip-rule="evenodd" d="M24.8157 20.5518C25.2597 20.9952 25.85 21.2397 26.4776 21.2397L26.7668 21.2395L23.7188 24.288C22.7694 25.2372 21.2305 25.2372 20.2813 24.288L17.2418 21.2485H17.7148C18.0236 21.2493 18.3294 21.1889 18.6147 21.0708C18.9 20.9527 19.159 20.7792 19.3768 20.5604L21.7854 18.1518C21.9537 17.9834 22.2473 17.9828 22.4158 18.1518L24.8157 20.5518ZM19.3768 13.4393C18.9328 12.9957 18.3424 12.7514 17.7148 12.7514H17.242L20.2811 9.71188C21.2305 8.76271 22.7694 8.76271 23.7188 9.71188L26.7668 12.7601H26.4776C26.1689 12.7593 25.8631 12.8196 25.5778 12.9377C25.2925 13.0558 25.0335 13.2292 24.8157 13.4481L22.4158 15.8483C22.3322 15.9318 22.2188 15.9787 22.1006 15.9787C21.9824 15.9787 21.869 15.9318 21.7854 15.8483L19.3768 13.4393ZM27.446 13.437L29.2879 15.2791L29.2881 15.2789C30.2373 16.2285 30.2373 17.7674 29.2881 18.7166L27.446 20.5587C27.4055 20.5424 27.3616 20.5322 27.3152 20.5322H26.4777C26.0418 20.5309 25.624 20.3578 25.315 20.0503L22.9153 17.6506C22.4803 17.2154 21.7214 17.2156 21.2862 17.6506L18.8776 20.0592C18.5685 20.3667 18.1507 20.5398 17.7148 20.541H16.685C16.6412 20.541 16.6 20.5511 16.5613 20.5658L14.712 18.7168C13.7627 17.7672 13.7627 16.2283 14.712 15.2791L16.5613 13.4297C16.6 13.4444 16.6412 13.4545 16.685 13.4545H17.7148C18.1508 13.4558 18.5686 13.629 18.8776 13.9365L21.2864 16.3451C21.3933 16.4521 21.5202 16.5369 21.66 16.5947C21.7998 16.6525 21.9496 16.6821 22.1008 16.6819C22.2521 16.6821 22.4019 16.6525 22.5417 16.5946C22.6815 16.5368 22.8084 16.4519 22.9153 16.3449L25.315 13.9454C25.624 13.638 26.0418 13.4648 26.4777 13.4635H27.3152C27.3616 13.4635 27.4055 13.4533 27.446 13.437Z" fill="#32BCAD"/>
<defs>
<filter id="filter0_d_1_113" x="0" y="0" width="44" height="34" filterUnits="userSpaceOnUse" color-interpolation-filters="sRGB">
<feFlood flood-opacity="0" result="BackgroundImageFix"/>
<feColorMatrix in="SourceAlpha" type="matrix" values="0 0 0 0 0 0 0 0 0 0 0 0 0 0 0 0 0 0 127 0" result="hardAlpha"/>
<feOffset/>
<feGaussianBlur stdDeviation="3"/>
<feComposite in2="hardAlpha" operator="out"/>
<feColorMatrix type="matrix" values="0 0 0 0 0.401815 0 0 0 0 0.569466 0 0 0 0 0.904769 0 0 0 0.12 0"/>
<feBlend mode="normal" in2="BackgroundImageFix" result="effect1_dropShadow_1_113"/>
<feBlend mode="normal" in="SourceGraphic" in2="effect1_dropShadow_1_113" result="shape"/>
</filter>
</defs>
</svg>
