<svg width="32" height="22" viewBox="6 6 32 22" fill="none" xmlns="http://www.w3.org/2000/svg">
    <rect x="6" y="6" width="32" height="22" rx="2" fill="white"/>
    <path d="M13.2034 17.7598L15.6533 17.7549L15.5644 18.3131L13.5146 20.2644H15.2335L15.1347 20.8622H12.6057L12.7094 20.2447L14.6704 18.3625H13.1046L13.2034 17.7598Z"
          fill="#D13239"/>
    <path d="M10.5317 16.8033C10.4774 16.7489 10.4033 16.7045 10.3193 16.6699C10.2304 16.6353 10.1316 16.6106 10.0328 16.5908C9.90932 16.5711 9.79078 16.5612 9.70681 16.5563C9.62778 16.5513 9.57838 16.5513 9.57838 16.5513H8.50653H7.71128L7 20.859H7.66682L7.92861 19.2634L9.22274 19.2683C9.22274 19.2683 9.72657 19.2881 10.0822 19.1004C10.4378 18.9126 10.5366 18.4829 10.5366 18.4829C10.5366 18.4829 10.5761 18.3248 10.6107 18.1272C10.6453 17.9148 10.6848 17.6579 10.6996 17.5196C10.7095 17.4603 10.7145 17.4208 10.7145 17.4208C10.7145 17.4208 10.7243 17.3763 10.7243 17.3071C10.7243 17.2133 10.7095 17.07 10.6354 16.9317C10.6008 16.8872 10.5712 16.8428 10.5317 16.8033ZM10.018 17.564C10.018 17.5739 9.95872 17.9197 9.87969 18.3297C9.85005 18.4878 9.7315 18.5718 9.5932 18.6014C9.36599 18.6508 9.11902 18.6409 9.11902 18.6409L8.03728 18.636L8.27437 17.2034L9.25238 17.2083C9.25238 17.2083 9.31659 17.2083 9.41044 17.2083C9.51417 17.2083 9.65247 17.2133 9.77102 17.2281C9.86981 17.2429 9.94884 17.2627 9.97354 17.2923C10.0081 17.3318 10.018 17.3862 10.0229 17.4356C10.0279 17.4998 10.018 17.5591 10.018 17.564Z"
          fill="#D13239"/>
    <path d="M18.9671 16.5516H19.6093L18.893 20.8593H18.2509L18.9671 16.5516Z" fill="#D13239"/>
    <path d="M22.3896 17.7598L23.0071 17.7549L23.2244 19.9433L24.1678 17.7549H24.9285L25.1508 19.9532L26.0942 17.7549H26.7363L25.378 20.8622H24.6223L24.4049 18.6886L23.4467 20.8622H22.7058L22.3896 17.7598Z"
          fill="#D13239"/>
    <path d="M17.7869 17.786C17.6091 17.7267 17.2979 17.7168 17.0312 17.7168C16.7744 17.7217 16.6608 17.7316 16.562 17.7514C16.562 17.7514 16.1075 17.8156 15.8507 18.1367C15.5938 18.4578 15.5148 19.1543 15.5148 19.1543C15.5148 19.1543 15.3617 19.925 15.4061 20.1819C15.4506 20.4388 15.5296 20.6759 15.821 20.7895C16.1125 20.9031 16.3594 20.8982 16.3594 20.8982C16.3594 20.8982 16.8781 20.9377 17.2683 20.8488C17.6585 20.7599 17.866 20.4832 17.866 20.4832C17.866 20.4832 17.9598 20.3647 18.024 20.2214C18.0882 20.0781 18.108 19.9843 18.1129 19.9694L18.1525 19.8015H17.4856C17.4856 19.8015 17.4511 20.2412 17.0905 20.2807C16.7299 20.3202 16.5422 20.3054 16.4681 20.3004C16.399 20.2955 16.0137 20.3153 16.0433 19.9941C16.0433 19.9892 16.0433 19.9843 16.0433 19.9744C16.0581 19.6088 16.1026 19.515 16.1026 19.515L18.192 19.51L18.2809 18.9913C18.3945 18.4035 18.3204 17.9589 17.7869 17.786ZM17.6437 18.9172H16.2113L16.2656 18.69C16.2656 18.69 16.315 18.5121 16.4138 18.438C16.5126 18.3639 16.641 18.3491 16.7595 18.3392C16.8781 18.3294 17.1942 18.3047 17.456 18.359C17.54 18.3738 17.6239 18.4232 17.6437 18.4973C17.698 18.6603 17.6437 18.9172 17.6437 18.9172Z"
          fill="#D13239"/>
    <path d="M16.0579 19.9828C16.0579 19.9878 16.0579 19.9927 16.0579 19.9976C16.053 20.0223 16.0579 19.9828 16.0579 19.9828Z"
          fill="#D13239"/>
    <path d="M21.7233 17.786C21.5454 17.7267 21.2342 17.7168 20.9675 17.7168C20.7107 17.7217 20.5971 17.7316 20.4983 17.7514C20.4983 17.7514 20.0438 17.8156 19.787 18.1367C19.5301 18.4578 19.4511 19.1543 19.4511 19.1543C19.4511 19.1543 19.298 19.925 19.3424 20.1819C19.3869 20.4388 19.4659 20.6759 19.7574 20.7895C20.0488 20.9031 20.2958 20.8982 20.2958 20.8982C20.2958 20.8982 20.8144 20.9377 21.2046 20.8488C21.5948 20.7549 21.8023 20.4832 21.8023 20.4832C21.8023 20.4832 21.8961 20.3647 21.9603 20.2214C22.0246 20.0781 22.0443 19.9843 22.0493 19.9694L22.0888 19.8015H21.4219C21.4219 19.8015 21.3874 20.2412 21.0268 20.2807C20.6662 20.3202 20.4785 20.3054 20.4044 20.3054C20.3353 20.3004 19.95 20.3202 19.9796 19.9991C19.9796 19.9941 19.9796 19.9892 19.9796 19.9793C19.9945 19.6138 20.0389 19.5199 20.0389 19.5199L22.1283 19.515L22.2172 18.9963C22.3308 18.4084 22.2616 17.9589 21.7233 17.786ZM21.58 18.9172H20.1476L20.2019 18.69C20.2019 18.69 20.2513 18.5121 20.3501 18.438C20.4489 18.3639 20.5773 18.3491 20.6958 18.3392C20.8144 18.3294 21.1305 18.3047 21.3923 18.359C21.4763 18.3738 21.5603 18.4232 21.58 18.4973C21.6343 18.6603 21.58 18.9172 21.58 18.9172Z"
          fill="#D13239"/>
    <path d="M27.472 17.7648L27.882 20.0372L29.0428 17.7648L29.6948 17.7697L28.0203 21.0153C28.0203 21.0153 27.719 21.6032 27.5313 21.7514C27.3436 21.8996 27.23 21.9687 27.0769 21.9836C26.9237 21.9984 26.8595 22.0083 26.7163 21.9836L26.5582 21.9539L26.657 21.3759C26.657 21.3759 26.9188 21.4253 27.0719 21.3611C27.2251 21.3018 27.3485 21.0351 27.3485 21.0351L27.4276 20.9017L26.82 17.7549L27.472 17.7648Z"
          fill="#D13239"/>
    <path d="M29.936 18.0718H30.6077L30.6473 17.81C30.6473 17.81 30.7214 17.3358 30.8794 17.2468C30.9288 17.2172 31.0128 17.1925 31.1116 17.1727C31.2894 17.1431 31.5117 17.1382 31.6944 17.1431C31.976 17.153 32.0797 17.1579 32.3662 17.1876C32.6527 17.2221 32.5786 17.4938 32.5786 17.4938L32.5242 17.9039C32.5242 17.9039 32.4995 18.0866 32.4353 18.2003C32.3761 18.304 32.218 18.3732 32.1241 18.4028C31.9019 18.4769 31.1412 18.6696 31.1412 18.6696L30.5435 18.8425C30.5435 18.8425 30.178 18.9511 29.9706 19.1734C29.7631 19.4007 29.6841 19.6576 29.6544 19.7959C29.6248 19.9293 29.4667 20.8629 29.4667 20.8629H32.6922L32.8009 20.2207L30.2521 20.2257L30.2966 19.9639C30.2966 19.9639 30.3262 19.6921 30.4349 19.6032C30.4694 19.5736 30.4843 19.539 30.6917 19.4649C30.8152 19.4204 31.2301 19.3118 31.2301 19.3118L32.1933 19.0499C32.1933 19.0499 32.7169 18.9166 32.9243 18.6251C33.1318 18.3386 33.2108 17.7902 33.2108 17.7902C33.2108 17.7902 33.2652 17.2567 33.2256 17.0888C33.1812 16.9208 33.0231 16.7232 32.8354 16.6343C32.6428 16.5503 32.4452 16.496 31.8624 16.5058C31.2844 16.5157 30.993 16.5404 30.7016 16.6491C30.4052 16.7578 30.2373 16.9554 30.1286 17.232C30.0051 17.5037 29.936 18.0718 29.936 18.0718Z"
          fill="#B3B2B1"/>
    <path d="M36.0065 19.2704L36.4609 16.5633H35.6607L33.1663 19.2408L33.0527 19.9176H35.231L35.0729 20.871H35.7447L35.9027 19.9176H36.5202L36.6288 19.2704H36.0065ZM35.3446 19.2704H33.9368L35.6508 17.4426L35.3446 19.2704Z"
          fill="#B3B2B1"/>
    <path d="M11.9438 16.9068H13.9986C13.9986 16.9068 14.4579 16.5363 14.7839 16.2943C15.1099 16.0571 15.7076 15.6768 15.7076 15.6768L14.5468 15.1333C14.5468 15.1333 13.5639 15.741 13.149 16.0275C12.7439 16.2943 11.9438 16.9068 11.9438 16.9068Z"
          fill="#B3B2B1"/>
    <path d="M16.3544 15.2966L15.4011 14.6544C15.4011 14.6544 16.2606 14.1653 17.4114 13.7059C18.5574 13.2514 19.1699 13.0588 19.1699 13.0588L19.3625 13.9677C19.3625 13.9677 18.261 14.3382 17.6288 14.6346C16.9768 14.9162 16.3544 15.2966 16.3544 15.2966Z"
          fill="#B3B2B1"/>
    <path d="M20.0684 13.7783L19.9004 12.8494C19.9004 12.8494 21.0762 12.5381 22.1532 12.3355C23.2303 12.1329 24.6581 12.0391 24.6581 12.0391L24.1838 13.4769C24.1838 13.4769 22.9289 13.304 21.7481 13.467C20.8341 13.5757 20.0684 13.7783 20.0684 13.7783Z"
          fill="#B3B2B1"/>
    <path d="M24.9332 13.5971L25.7282 12.0018C25.7282 12.0018 27.4665 11.9672 28.9677 12.1994C30.469 12.4315 31.8418 12.7871 31.8122 12.8019L28.0048 14.7923C28.0048 14.7923 27.1159 14.2293 26.0097 13.8835C25.3875 13.7008 24.9332 13.5971 24.9332 13.5971Z"
          fill="#B3B2B1"/>
    <path d="M28.6916 15.2355L29.5264 15.8728H36.4026C36.4026 15.8728 36.3878 15.6505 36.205 15.3343C36.0914 15.1367 35.8839 14.9292 35.6666 14.7118C35.5875 14.6327 35.2714 14.3857 35.0343 14.2326C34.4267 13.8373 34.0858 13.6842 33.4585 13.4026L28.6916 15.2355Z"
          fill="#B3B2B1"/>
    <path d="M12.389 17.7549C12.1321 17.7549 11.8852 17.8586 11.6777 17.9723L11.7123 17.7549H11.0306L10.4824 20.8473H11.1689L11.4702 19.1332C11.5345 18.7874 11.7913 18.3576 12.3001 18.3576H12.6557L12.7644 17.7549H12.389Z"
          fill="#D13239"/>
</svg>
