<?xml version="1.0" encoding="UTF-8" standalone="no"?>
<!-- Created with Inkscape (http://www.inkscape.org/) -->

<svg
        width="262.4751mm"
        height="76.453445mm"
        viewBox="0 0 262.4751 76.453445"
        version="1.1"
        id="svg1"
        xml:space="preserve"
        inkscape:version="1.3.2 (091e20e, 2023-11-25, custom)"
        sodipodi:docname="NCpasslogo.svg"
        xmlns:inkscape="http://www.inkscape.org/namespaces/inkscape"
        xmlns:sodipodi="http://sodipodi.sourceforge.net/DTD/sodipodi-0.dtd"
        xmlns="http://www.w3.org/2000/svg"
><sodipodi:namedview
     id="namedview1"
     pagecolor="#ffffff"
     bordercolor="#111111"
     borderopacity="1"
     inkscape:showpageshadow="0"
     inkscape:pageopacity="0"
     inkscape:pagecheckerboard="1"
     inkscape:deskcolor="#d1d1d1"
     inkscape:document-units="mm"
     inkscape:zoom="0.8004314"
     inkscape:cx="797.07018"
     inkscape:cy="286.72039"
     inkscape:window-width="3304"
     inkscape:window-height="1850"
     inkscape:window-x="44"
     inkscape:window-y="-12"
     inkscape:window-maximized="1"
     inkscape:current-layer="layer1" /><defs
     id="defs1" /><g
     inkscape:label="Layer 1"
     inkscape:groupmode="layer"
     id="layer1"
     transform="translate(19.909729,-49.493341)"><path
       style="font-stretch:expanded;font-size:21.9918px;line-height:1.25;font-family:'Swis721 Blk BT';-inkscape-font-specification:'Swis721 Blk BT Expanded';fill:#236da8;stroke-width:1.83265"
       d="m 77.364606,77.10083 v -9.299267 l 6.668412,9.299267 H 90.93767 V 61.219056 h -5.959692 v 9.148933 L 78.846475,61.219056 H 71.565987 V 77.10083 Z m 37.325924,-9.213362 c -0.10738,-2.287233 -1.06308,-4.037557 -2.86709,-5.26171 -1.80402,-1.213414 -4.34897,-1.825491 -7.64559,-1.825491 -7.054986,0 -10.684492,2.834881 -10.684492,8.365045 0,5.508689 3.629506,8.354307 10.684492,8.354307 6.28184,0 9.91134,-2.276495 10.55564,-6.668412 h -7.09794 c -0.37584,1.707371 -1.55704,2.577164 -3.4577,2.577164 -2.63085,0 -4.06977,-1.503345 -4.06977,-4.263059 0,-2.781189 1.43892,-4.295273 4.06977,-4.295273 2.06173,0 3.27515,1.052342 3.47917,3.017429 z"
       id="text1"
       transform="matrix(1.1516459,0,-0.26690253,0.86832245,0,0)"
       aria-label="NC" /><path
       style="font-stretch:expanded;font-size:37.1781px;line-height:1.25;font-family:'Swis721 Blk BT';-inkscape-font-specification:'Swis721 Blk BT Expanded';fill:#1e935d;stroke-width:3.09818"
       d="m 78.400565,104.10409 c -4.338655,0 -6.771207,-2.57778 -6.771207,-7.206892 0,-4.701723 2.432552,-7.261348 6.880127,-7.261348 4.447576,0 6.880127,2.559625 6.880127,7.261348 0,1.470423 -0.181534,2.523318 -0.599061,3.449142 l -2.741159,-2.831927 -4.883256,4.810647 1.760877,1.77903 z m 11.781537,11.49108 4.919563,-4.79249 -3.249453,-3.28576 c 3.176839,-2.34179 4.719876,-5.82723 4.719876,-10.619722 0,-9.348985 -6.135839,-14.141475 -18.062603,-14.141475 -11.926764,0 -18.062603,4.79249 -18.062603,14.141475 0,9.385292 6.135839,14.123322 18.353057,14.123322 2.487012,0 4.592802,-0.18153 6.335526,-0.59906 z M 100.89259,83.463705 v 14.105168 c 0,4.629107 1.28889,8.041947 3.84851,10.220347 2.55963,2.1784 6.55337,3.26761 12.01753,3.26761 5.50048,0 9.51237,-1.08921 12.05384,-3.24946 2.52332,-2.16025 3.79406,-5.57308 3.79406,-10.238497 V 83.463705 h -10.42004 v 13.124886 c 0,2.704852 -0.39937,4.592799 -1.19812,5.627549 -0.8169,1.03474 -2.21471,1.56119 -4.22974,1.56119 -2.01502,0 -3.41283,-0.52645 -4.22973,-1.57935 -0.8169,-1.03474 -1.23443,-2.904537 -1.23443,-5.609389 V 83.463705 Z M 148.8901,110.31254 V 83.463705 h -10.40188 v 26.848835 z m 40.11894,-15.575593 c -0.18153,-3.866668 -1.79718,-6.825667 -4.84695,-8.895151 -3.04976,-2.051331 -7.35211,-3.086073 -12.9252,-3.086073 -11.92676,0 -18.0626,4.79249 -18.0626,14.141475 0,9.312682 6.13584,14.123322 18.0626,14.123322 10.61973,0 16.75556,-3.84851 17.84477,-11.273243 h -11.99938 c -0.63537,2.886383 -2.63224,4.356813 -5.84539,4.356813 -4.44757,0 -6.88012,-2.54148 -6.88012,-7.206892 0,-4.701723 2.43255,-7.261348 6.88012,-7.261348 3.48545,0 5.53678,1.779031 5.8817,5.101097 z m 14.34116,15.575593 v -7.20689 l 4.53834,-3.685134 7.2432,10.892024 h 12.94335 L 215.7671,93.175757 226.96773,83.463705 h -14.0507 l -9.56683,9.294525 v -9.294525 h -10.40188 v 26.848835 z"
       id="text2"
       transform="matrix(1.1516459,0,-0.26690253,0.86832245,0,0)"
       aria-label="QUICK" /><path
       style="font-stretch:expanded;font-size:37.1781px;line-height:1.25;font-family:'Swis721 Blk BT';-inkscape-font-specification:'Swis721 Blk BT Expanded';fill:#236da8;stroke-width:3.09818"
       d="m 124.45525,123.15314 c 1.68827,0 2.86824,0.21784 3.52176,0.63537 0.63536,0.43568 0.96213,1.19812 0.96213,2.26917 0,1.07105 -0.32677,1.81534 -0.96213,2.23286 -0.65352,0.43568 -1.83349,0.65353 -3.52176,0.65353 h -5.70015 v -5.79093 z m -5.70015,21.07606 v -9.43975 h 9.67574 c 3.79406,0 6.7349,-0.76244 8.80439,-2.28732 2.05133,-1.50673 3.08607,-3.64883 3.08607,-6.40814 0,-2.77747 -1.03474,-4.91957 -3.08607,-6.44445 -2.06949,-1.50673 -5.01033,-2.26917 -8.80439,-2.26917 h -20.07763 v 26.84883 z m 39.0842,-18.69797 3.2313,9.43975 h -6.66229 z m -6.84382,18.69797 0.96213,-2.63224 h 11.41847 l 0.88951,2.63224 h 11.27325 l -10.85572,-26.84883 h -13.1975 l -11.63631,26.84883 z m 24.76119,-8.16901 c 0.0363,2.88638 1.39781,5.11925 4.08451,6.66228 2.66855,1.54304 6.51706,2.32363 11.52739,2.32363 6.29922,0 10.92833,-0.76244 13.85102,-2.30547 2.9227,-1.54304 4.39312,-3.95744 4.39312,-7.2432 0,-4.41127 -2.90454,-6.98905 -8.84069,-7.84225 l -9.47606,-1.34335 c -1.61565,-0.236 -2.6867,-0.47199 -3.19499,-0.74429 -0.52645,-0.2723 -0.7806,-0.65352 -0.7806,-1.16182 0,-1.0892 1.41596,-1.77903 3.7396,-1.77903 3.19499,0 4.97402,0.87136 5.24632,2.55963 h 12.09014 c -0.21784,-2.92269 -1.68826,-5.06479 -4.41127,-6.44445 -2.723,-1.37965 -6.88012,-2.06948 -12.47136,-2.06948 -5.39155,0 -9.31268,0.68983 -11.76338,2.06948 -2.46886,1.37966 -3.70329,3.57622 -3.70329,6.57152 0,4.50204 3.26761,7.20689 9.71205,7.98748 l 7.76964,0.96213 c 2.52332,0.30861 3.70329,0.98028 3.70329,2.12395 0,1.28889 -1.37966,1.92425 -4.19343,1.92425 -2.81377,0 -4.48388,-0.8169 -4.68357,-2.26917 z m 36.39751,0 c 0.0363,2.88638 1.39781,5.11925 4.08451,6.66228 2.66855,1.54304 6.51706,2.32363 11.52739,2.32363 6.29922,0 10.92833,-0.76244 13.85102,-2.30547 2.92269,-1.54304 4.39312,-3.95744 4.39312,-7.2432 0,-4.41127 -2.90454,-6.98905 -8.8407,-7.84225 l -9.47605,-1.34335 c -1.61565,-0.236 -2.6867,-0.47199 -3.195,-0.74429 -0.52644,-0.2723 -0.78059,-0.65352 -0.78059,-1.16182 0,-1.0892 1.41596,-1.77903 3.73959,-1.77903 3.195,0 4.97403,0.87136 5.24633,2.55963 h 12.09014 c -0.21784,-2.92269 -1.68826,-5.06479 -4.41127,-6.44445 -2.723,-1.37965 -6.88013,-2.06948 -12.47136,-2.06948 -5.39155,0 -9.31268,0.68983 -11.76339,2.06948 -2.46886,1.37966 -3.70328,3.57622 -3.70328,6.57152 0,4.50204 3.2676,7.20689 9.71205,7.98748 l 7.76964,0.96213 c 2.52332,0.30861 3.70329,0.98028 3.70329,2.12395 0,1.28889 -1.37966,1.92425 -4.19343,1.92425 -2.81377,0 -4.48388,-0.8169 -4.68357,-2.26917 z"
       id="text3"
       transform="matrix(1.1516459,0,-0.34927975,0.86832245,0,0)"
       aria-label="PASS" /><path
       style="font-variation-settings:normal;opacity:1;vector-effect:none;fill:#236da8;fill-opacity:1;stroke:none;stroke-width:0.499999;stroke-linecap:round;stroke-linejoin:miter;stroke-miterlimit:4;stroke-dasharray:none;stroke-dashoffset:0;stroke-opacity:1;-inkscape-stroke:none;stop-color:#000000;stop-opacity:1"
       d="m 75.087303,125.1942 -40.319252,0.0877 C 18.638935,109.60062 -13.127616,73.988755 57.49876,49.493341 53.637709,51.577157 -23.507532,86.861276 85.02103,124.81438 Z"
       id="path3"
       sodipodi:nodetypes="ccccc" /><path
       style="font-variation-settings:normal;opacity:1;vector-effect:none;fill:#236da8;fill-opacity:1;stroke:none;stroke-width:0.499999;stroke-linecap:round;stroke-linejoin:miter;stroke-miterlimit:4;stroke-dasharray:none;stroke-dashoffset:0;stroke-opacity:1;-inkscape-stroke:none;stop-color:#000000;stop-opacity:1"
       d="M 22.672275,125.22342 C -13.678528,88.079949 17.026262,61.193257 55.921049,49.668643 25.972047,53.695181 -23.05859,72.460036 -19.75059,124.58065 Z"
       id="path4"
       sodipodi:nodetypes="cccc" /><path
       style="font-variation-settings:normal;opacity:1;vector-effect:none;fill:#236da8;fill-opacity:1;stroke:none;stroke-width:0.499999;stroke-linecap:round;stroke-linejoin:miter;stroke-miterlimit:4;stroke-dasharray:none;stroke-dashoffset:0;stroke-opacity:1;-inkscape-stroke:none;stop-color:#000000;stop-opacity:1"
       d="m 189.32518,66.906584 20.33493,-0.584335 c -6.29057,-2.759107 -51.65755,-14.397356 -72.36076,-15.113067 11.58676,2.239946 37.62838,2.880591 52.02583,15.697402 z"
       id="path5"
       sodipodi:nodetypes="cccc" /><path
       style="font-variation-settings:normal;opacity:1;vector-effect:none;fill:#236da8;fill-opacity:1;stroke:none;stroke-width:0.499999;stroke-linecap:round;stroke-linejoin:miter;stroke-miterlimit:4;stroke-dasharray:none;stroke-dashoffset:0;stroke-opacity:1;-inkscape-stroke:none;stop-color:#000000;stop-opacity:1"
       d="m 214.56854,66.439115 18.52348,0.116867 c -33.8301,-7.84772 -63.56029,-13.059205 -95.83126,-16.478303 40.32704,5.083286 73.03807,14.463291 77.30778,16.361436 z"
       id="path6"
       sodipodi:nodetypes="cccc" /><path
       style="color:#000000;fill:#236da8;fill-rule:evenodd;-inkscape-stroke:none"
       d="m 256.57031,103.91602 c -1.06514,0 -1.92968,0.87584 -1.92969,1.95117 10e-6,1.07532 0.86455,1.95117 1.92969,1.95117 1.06515,0 1.92969,-0.87584 1.92969,-1.95117 0,-1.07533 -0.86454,-1.95118 -1.92969,-1.95117 z m 0,0.26562 c 0.91958,0 1.66406,0.75236 1.66406,1.68555 0,0.93318 -0.74448,1.68555 -1.66406,1.68554 -0.91957,0 -1.66406,-0.75236 -1.66406,-1.68554 0,-0.93319 0.74449,-1.68555 1.66406,-1.68555 z"
       id="path7"
       transform="matrix(1,0,-0.15344455,0.98815726,0,0)" /><path
       style="font-stretch:expanded;font-size:2.49156px;line-height:1.25;font-family:'Swis721 Blk BT';-inkscape-font-specification:'Swis721 Blk BT Expanded';fill:#236da8;stroke-width:0.20763"
       d="m 244.20305,119.6413 v 1.79933 h 0.70684 v -0.54868 h 0.41607 c 0.0864,0 0.14842,0.0134 0.18613,0.0402 0.0365,0.0268 0.0584,0.073 0.0657,0.13869 0.004,0.0353 0.007,0.0839 0.009,0.14842 0.002,0.10949 0.0158,0.1837 0.0389,0.22142 h 0.77496 v -0.028 c -0.0523,-0.0255 -0.0839,-0.15694 -0.0949,-0.39174 -0.001,-0.0243 -0.001,-0.0438 -0.002,-0.0572 -0.006,-0.12409 -0.0243,-0.21047 -0.056,-0.26035 -0.0329,-0.0487 -0.0888,-0.09 -0.16789,-0.12288 0.0925,-0.0353 0.16546,-0.0937 0.21777,-0.17518 0.0523,-0.0803 0.0791,-0.17397 0.0791,-0.27982 0,-0.17518 -0.0718,-0.31266 -0.20682,-0.39174 -0.10584,-0.0633 -0.28346,-0.0925 -0.59613,-0.0925 z m 0.70684,0.45622 h 0.3893 c 0.12288,0 0.20439,0.0109 0.24575,0.0341 0.0402,0.0231 0.0608,0.0645 0.0608,0.12287 0,0.11801 -0.0766,0.16424 -0.28954,0.16424 h -0.40634 z"
       id="text7"
       transform="matrix(1.1516459,0,-0.34927975,0.86832245,0,0)"
       aria-label="R" /></g></svg>
