<svg width="32" height="22" viewBox="0 0 32 22" fill="none" xmlns="http://www.w3.org/2000/svg">
<rect width="32" height="22" rx="2" fill="#F94C43"/>
<path fill-rule="evenodd" clip-rule="evenodd" d="M20.34 4C20.4 4 20.46 4.02 20.5 4.06C20.58 4.14 20.58 4.3 20.5 4.38L18.94 5.94L17 4H20.34ZM13.44 6.66L15.84 9.06L13.84 11.04L13.68 11.2L13.82 11.36L15.82 13.36L13.44 15.74L11.3 13.6L9.06 11.36C8.98 11.28 8.98 11.12 9.06 11.04L11.3 8.82L13.44 6.66ZM17 18.4L18.94 16.46L20.48 18.02C20.52 18.06 20.54 18.12 20.54 18.18C20.54 18.3 20.44 18.4 20.32 18.4H17ZM21.1 8.82L23.32 11.04C23.4 11.14 23.4 11.28 23.32 11.38L21.1 13.6L18.58 16.12L16.36 18.34C16.32 18.38 16.26 18.4 16.2 18.4H12.04C11.98 18.4 11.92 18.38 11.88 18.34C11.8 18.26 11.8 18.1 11.88 18.02L13.8 16.1L16.2 13.72L18.56 11.38L18.72 11.22L18.56 11.06L16.2 8.7L13.8 6.3L11.88 4.38C11.84 4.34 11.82 4.28 11.82 4.22C11.82 4.1 11.92 4 12.04 4H16.2C16.26 4 16.3 4.02 16.34 4.06L18.58 6.3L21.1 8.82Z" fill="white"/>
</svg>
