<svg width="32" height="22" viewBox="0 0 32 22" fill="none" xmlns="http://www.w3.org/2000/svg">
<rect width="32" height="22" rx="2" fill="black"/>
<path fill-rule="evenodd" clip-rule="evenodd" d="M8.06066 9.52144H6.1911C6.1911 9.19272 6.15686 8.96673 6.08153 8.85716C5.97196 8.6928 5.66379 8.60378 5.16387 8.60378C4.67765 8.60378 4.35578 8.65172 4.19827 8.74759C4.04076 8.84346 3.95859 9.05576 3.95859 9.37762C3.95859 9.6721 4.02707 9.86385 4.17088 9.95287C4.2736 10.0214 4.40372 10.0556 4.56808 10.0693L4.94473 10.0967C5.75282 10.1515 6.25958 10.1926 6.45818 10.22C7.09506 10.2884 7.56074 10.4733 7.84837 10.7678C8.07436 11.0006 8.21132 11.302 8.25241 11.6718C8.2798 11.8978 8.2935 12.1511 8.2935 12.4319C8.2935 13.0825 8.23871 13.555 8.12229 13.8564C7.91685 14.4111 7.44432 14.7535 6.71841 14.9041C6.41024 14.9658 5.94457 15 5.32138 15C4.2736 15 3.54769 14.9315 3.1368 14.7946C2.63003 14.6302 2.30132 14.2946 2.13696 13.7879C2.04794 13.5071 2 13.0414 2 12.384H3.86956V12.5483C3.86956 12.8976 3.96543 13.1236 4.15034 13.2195C4.28045 13.2879 4.43796 13.3222 4.61601 13.329H5.30083C5.65009 13.329 5.87608 13.3085 5.97196 13.2674C6.14316 13.1921 6.25958 13.0757 6.30752 12.9181C6.33491 12.8154 6.34861 12.6922 6.34861 12.5346C6.34861 12.1785 6.22534 11.9662 5.9925 11.8909C5.90348 11.8635 5.48574 11.8156 4.74613 11.7608C4.15034 11.7129 3.7326 11.6718 3.49976 11.6307C2.89027 11.5074 2.47937 11.254 2.28078 10.8705C2.10272 10.5418 2.0137 10.0487 2.0137 9.38447C2.0137 8.87771 2.06163 8.47366 2.15751 8.17234C2.25338 7.87102 2.41089 7.63818 2.62319 7.48067C2.9382 7.24098 3.34225 7.09717 3.82847 7.05608C4.28045 7.01499 4.73243 6.99445 5.18441 7.0013C5.96511 7.0013 6.52666 7.04923 6.86223 7.14511C7.67716 7.37795 8.0812 8.04222 8.0812 9.12424C8.07436 9.21327 8.06751 9.34338 8.06066 9.52144ZM18.7165 10.9938H19.9971C20.4011 10.9801 20.6545 10.9459 20.7435 10.8979C20.8668 10.8294 20.949 10.6925 20.9901 10.487C21.0175 10.3501 21.0312 10.1446 21.0312 9.87754C21.0312 9.54883 21.0038 9.30229 20.9558 9.13794C20.8805 8.91195 20.7024 8.77498 20.4217 8.72705C20.3669 8.7202 20.2299 8.71335 20.0245 8.71335H18.7233L18.7165 10.9938ZM16.6552 14.8288V7.0013H20.4902C21.0175 7.0013 21.4147 7.04239 21.6954 7.13141C22.3255 7.33686 22.7501 7.74775 22.9692 8.37094C23.0788 8.69965 23.1336 9.19272 23.1336 9.857C23.1336 10.6514 23.0719 11.2198 22.9487 11.5691C22.7021 12.2539 22.1954 12.6511 21.4284 12.7538C21.3393 12.7675 20.9558 12.7812 20.2779 12.7949L19.9354 12.8086H18.7096V14.8288H16.6552ZM27.1124 11.9525L26.1468 8.55584L25.2086 11.9525H27.1124ZM27.5233 13.4797H24.7703L24.4005 14.8356H22.2707L24.5717 7.00815H27.6739L30.0023 14.8356H27.9205L27.5233 13.4797ZM13.683 8.04222C14.5528 8.04222 15.3266 8.44627 15.8402 9.08315L16.2922 8.09701C15.5526 7.39165 14.5733 6.99445 13.5461 7.0013C11.8888 7.0013 10.4644 8.01483 9.88228 9.45295H8.99886L8.4784 10.5898H9.6152C9.60836 10.6925 9.60151 10.8021 9.60151 10.9048C9.60151 11.0349 9.60835 11.165 9.62205 11.2883H9.0468L8.52634 12.4251H9.91652C10.5192 13.8221 11.9162 14.8083 13.5529 14.8083C14.3747 14.8083 15.1417 14.5617 15.7717 14.1303V12.7401C15.265 13.329 14.5185 13.6988 13.683 13.6988C12.7106 13.6988 11.8546 13.1921 11.3615 12.4251H14.2651L14.7856 11.2883H10.9301C10.8958 11.0554 10.889 10.8157 10.9164 10.5829H15.1075L15.6279 9.44611H11.2725C11.7587 8.61063 12.6558 8.04222 13.683 8.04222Z" fill="white"/>
</svg>
