<svg width="120" height="80" viewBox="0 0 240 160" fill="none" xmlns="http://www.w3.org/2000/svg">
    <rect width="240" height="160" fill="#EE4D2D" rx="14.54" />
    <g transform="translate(40 0)">">
        <path d="M95.6545 98.0014C95.1213 102.588 92.3411 106.301 88.035 108.137C85.6222 109.154 82.4 109.711 79.8154 109.546C75.839 109.38 72.1114 108.395 68.6323 106.646C67.4287 105.983 65.574 104.741 64.1591 103.581C63.8102 103.25 63.7517 103.084 64.0048 102.741C64.116 102.54 64.3644 102.172 64.8737 101.427C65.6503 100.329 65.7333 100.184 65.816 100.044C66.0644 99.6872 66.4429 99.6547 66.8385 99.9363C66.8927 99.9915 66.8927 99.9915 66.9226 100.018C66.9754 100.076 66.9754 100.076 67.1172 100.184C67.2637 100.296 67.3699 100.35 67.3959 100.413C71.1242 103.332 75.4641 104.989 79.8453 105.154C85.9266 105.072 90.2968 102.338 91.1019 98.1126C91.9309 93.514 88.3066 89.4995 81.2192 87.2609C78.9864 86.5984 73.3674 84.3541 72.3299 83.7297C67.4725 80.8846 65.1927 77.1502 65.5241 72.5192C66.0213 66.1189 71.9671 61.3553 79.4818 61.3136C82.8173 61.3136 86.1796 62.0089 89.3694 63.3508C90.5199 63.8401 92.5731 64.9524 93.2559 65.4842C93.6658 65.7878 93.7531 66.1189 93.5004 66.4899C93.4163 66.7163 93.169 67.0534 92.742 67.7762C92.1194 68.7256 92.0962 68.7652 91.9832 68.9741C91.7616 69.3226 91.4447 69.3504 91.0227 69.1009C87.6134 66.7822 83.7679 65.6218 79.5663 65.5391C74.3475 65.6218 70.4235 68.7324 70.1708 72.9946C70.1188 76.8234 72.9782 79.6126 79.1707 81.7129C91.7655 85.7705 96.5698 90.5109 95.6545 98.0014ZM80.124 31.9302C88.307 31.9302 94.992 39.6944 95.3231 49.4277H64.9446C65.2368 39.6944 71.9414 31.9302 80.124 31.9302ZM122.536 51.2717C122.536 50.2559 121.75 49.4277 120.747 49.4277H120.681H101.043C100.546 36.5859 91.3603 26.3215 80.124 26.3215C68.881 26.3215 59.7191 36.5859 59.229 49.4277H39.5087C38.5197 49.4501 37.7349 50.2602 37.7349 51.2717C37.7349 51.3301 37.7349 51.3558 37.7349 51.4142H37.7124L40.5134 113.356C40.5134 113.523 40.5462 113.692 40.5462 113.894C40.5462 113.933 40.5515 113.945 40.5515 114.019V114.114L40.5722 114.146C40.9938 118.465 44.1137 121.908 48.3777 122.076V122.109H110.929C110.962 122.109 110.981 122.109 111.014 122.109C111.062 122.109 111.062 122.109 111.098 122.109H111.227V122.076C115.552 121.971 119.093 118.465 119.43 114.099L119.449 114.019C119.449 113.978 119.449 113.933 119.449 113.894C119.449 113.767 119.482 113.687 119.482 113.556L122.536 51.3558C122.536 51.333 122.536 51.2977 122.536 51.2717Z" fill="white"/>
    </g>
</svg>

