<?xml version="1.0" encoding="UTF-8"?>
<svg width="32px" height="22px" viewBox="0 0 32 22" version="1.1" xmlns="http://www.w3.org/2000/svg">
    <title>Skrill</title>
    <defs>
        <linearGradient x1="2.61950392%" y1="29.2838991%" x2="96.230496%" y2="71.2191148%" id="linearGradient-1">
            <stop stop-color="#B22A93" offset="0%"></stop>
            <stop stop-color="#561C60" offset="100%"></stop>
        </linearGradient>
        <mask id="circle-mask" x="0" y="0" width="22" height="22">
            <circle cx="16" cy="11" r="16" fill="white" />
        </mask>
    </defs>
    <g stroke="none" stroke-width="1" fill="none" fill-rule="evenodd" mask="url(#circle-mask)">
        <g id="Skrill" transform="translate(0.000000, -0.000000)" fill-rule="nonzero">
            <rect transform="translate(0, -5)" width="32" height="32" rx="2" fill="url(#linearGradient-1)"></rect>
            <path d="M21.1435953,8.60180861 L22.5957799,8.34211137 L22.5957799,13.9203021 L21.1435953,13.9203021 L21.1435953,8.60180861 Z M23.2662228,8.60180861 L23.2662228,13.9176521 L24.7210573,13.9176521 L24.7210573,8.34211137 L23.2662228,8.60180861 Z M19.0792673,13.9176521 L20.5314519,13.9176521 L20.5314519,9.83934546 L19.0766173,9.83934546 L19.0792673,13.9176521 Z M9.47046938,10.4170393 C9.28497135,10.4037895 8.86097585,10.3772897 8.86097585,9.9956938 C8.86097585,9.53459869 9.47311935,9.53459869 9.70101693,9.53459869 C10.1038126,9.53459869 10.6285071,9.65384743 10.9995031,9.76514625 C10.9995031,9.76514625 11.2088509,9.83934546 11.383749,9.91354467 L11.3996489,9.91619464 L11.3996489,8.65215807 L11.3784491,8.64685813 C10.9385538,8.49315976 10.4271092,8.34476134 9.47576932,8.34476134 C7.83808672,8.34476134 7.25774289,9.2987512 7.25774289,10.1149425 C7.25774289,10.5866375 7.46179072,11.6943257 9.33532081,11.8241744 C9.49431912,11.8321243 9.91831462,11.858624 9.91831462,12.2561198 C9.91831462,12.5820663 9.57381828,12.7755143 8.99082447,12.7755143 C8.43168041,12.7702143 7.88048627,12.6615655 7.36109179,12.4575176 L7.36109179,13.7613038 C7.92023585,13.9097022 8.55622909,13.9839014 9.29822121,13.9839014 C10.8988042,13.9839014 11.6169531,13.080261 11.6169531,12.1845705 C11.6195965,11.1669814 10.819305,10.5097883 9.47046938,10.4170393 L9.47046938,10.4170393 Z M18.257776,9.78104608 C16.9142403,9.82344563 16.2331975,10.4276392 16.2331975,11.6254265 L16.2331975,13.9203021 L17.698632,13.9203021 L17.698632,12.049422 C17.698632,11.3312796 17.791381,11.0238829 18.6446719,10.9973832 L18.6446719,9.80224585 C18.4989234,9.77309616 18.257776,9.78104608 18.257776,9.78104608 Z M14.3146179,9.83669549 C14.11852,10.35344 13.837623,10.8330849 13.4851767,11.2570804 L13.4851767,8.34476134 L11.9879426,8.63890821 L11.9879426,13.9176521 L13.4878267,13.9176521 L13.4878267,12.2852695 C13.9224221,12.9371625 14.1370698,13.9176521 14.1370698,13.9176521 L15.9337507,13.9176521 C15.7562026,13.17831 14.9797608,11.8162245 14.9797608,11.8162245 C15.6740535,10.9337838 15.9841002,9.99039385 16.0317997,9.83404551 L14.3146179,9.83669549 L14.3146179,9.83669549 Z M19.8000596,9.44714962 C20.1949054,9.44714962 20.515552,9.12650303 20.515552,8.73165723 C20.515552,8.33681142 20.1949054,8.01616483 19.8000596,8.01616483 C19.4052138,8.01616483 19.0845672,8.33681142 19.0845672,8.73165723 L19.0845672,8.73165723 C19.0872172,9.12650303 19.4052138,9.44714962 19.8000596,9.44714962 L19.8000596,9.44714962 Z" id="形状" fill="#FFFFFF"></path>
        </g>
    </g>
</svg>
