<svg width="32" height="22" viewBox="6 6 32 22" fill="none" xmlns="http://www.w3.org/2000/svg">
<g filter="url(#filter0_d_1_255)">
<rect x="6" y="6" width="32" height="22" rx="2" fill="white"/>
</g>
<path fill-rule="evenodd" clip-rule="evenodd" d="M30.5476 12.8762C30.6186 11.3859 29.9089 10.4989 28.3476 10.1087C26.9284 9.86028 25.048 10.0377 22.7062 10.641C21.287 10.8892 20.1869 10.8537 19.4066 10.4989C18.3774 10.2151 17.384 10.1087 16.4615 10.2151C14.794 10.2862 14.0132 11.1022 14.0842 12.5924C14.1196 13.9052 14.6874 14.7567 15.7163 15.1471C16.7099 15.36 17.8098 15.3244 19.0517 15.0051C19.5485 14.8988 19.6193 15.2536 19.3355 16.1052L18.8032 19.1565C18.2 22.5274 19.371 23.9819 22.2804 23.5917C24.9771 23.5917 25.9705 22.1725 25.19 19.2983L24.0545 15.1825C23.9482 14.7214 24.1966 14.5793 24.8351 14.7922C25.6157 15.1825 26.4672 15.4309 27.4607 15.5729C29.4476 15.5729 30.4766 14.6502 30.5476 12.8762Z" fill="#AD4C38"/>
<path fill-rule="evenodd" clip-rule="evenodd" d="M18.1291 10.8536C17.7743 11.1021 17.7743 11.3151 18.1291 11.4924C19.0161 11.9892 19.9032 11.9536 20.7902 11.4569L20.8257 11.3506C19.4065 10.8184 18.5193 10.6763 18.1291 10.8536ZM28.525 11.1021C27.9572 10.9958 27.709 11.0311 27.7447 11.3151C28.0638 11.4569 28.3832 11.7408 28.667 12.2021C28.88 12.6988 29.1639 12.8406 29.554 12.6632C29.8025 12.5923 29.8379 12.3084 29.6961 11.8472C29.6606 11.528 29.2702 11.2796 28.525 11.1021ZM24.4446 19.2273C24.3028 17.7372 23.948 16.2469 23.3803 14.7213C22.9545 13.5503 22.6706 13.3729 22.6351 14.1536C23.2738 17.808 23.5576 20.0789 23.4866 21.0368C23.4512 21.5337 23.6642 21.7465 24.0897 21.6046C24.5513 21.7465 24.6931 20.9659 24.4446 19.2273Z" fill="#E5A88F"/>
<path fill-rule="evenodd" clip-rule="evenodd" d="M16.6388 10.1432L15.6453 10.2854C14.0132 10.8175 13.5874 12.0239 14.4035 13.9043C14.6518 14.3302 14.9712 14.6494 15.2906 14.8623C15.5388 15.2881 16.6388 15.3591 18.5548 15.0753L19.0161 14.9688C19.4065 14.8269 19.5484 15.1106 19.4065 15.785L18.6969 19.546C18.484 21.0717 18.6258 22.1361 19.1581 22.8458C19.7967 23.52 20.8965 23.7685 22.4933 23.591C23.6644 23.662 24.5159 23.2007 24.9771 22.1718L25.261 21.4621C24.4447 22.5266 23.4513 22.9522 22.2449 22.7748C20.0096 22.5973 19.2999 21.2136 20.0805 18.5526C21.5706 15.4302 21.4643 13.9044 19.7613 13.9044C17.7032 14.4722 16.3195 14.1883 15.6098 13.0529C14.9002 12.0594 15.2551 11.1013 16.6388 10.1432ZM30.3349 11.7398C30.1218 12.5915 29.9089 13.1592 29.6961 13.4786C29.0929 14.6493 28.2058 14.8623 27.0351 14.0817C25.0127 12.7334 23.9481 12.769 23.8772 14.1172C23.8062 14.3657 23.9837 14.5431 24.4448 14.6493C25.7933 15.2526 26.6091 15.5365 26.964 15.43C27.7447 15.7493 28.5607 15.6074 29.3768 15.0042C30.6185 14.1527 30.9025 13.0528 30.3349 11.7398ZM22.3159 10.6755C21.6773 10.995 21.8192 11.1013 22.7061 11.0658C23.9125 10.7821 24.8704 10.6755 25.6156 10.7111C27.496 10.6755 28.4188 10.4627 28.4188 10.1079C27.9929 10.0015 27.1414 9.96589 25.8996 10.037C25.3674 10.0724 24.161 10.2853 22.3159 10.6755Z" fill="#74564A"/>
<defs>
<filter id="filter0_d_1_255" x="0" y="0" width="44" height="34" filterUnits="userSpaceOnUse" color-interpolation-filters="sRGB">
<feFlood flood-opacity="0" result="BackgroundImageFix"/>
<feColorMatrix in="SourceAlpha" type="matrix" values="0 0 0 0 0 0 0 0 0 0 0 0 0 0 0 0 0 0 127 0" result="hardAlpha"/>
<feOffset/>
<feGaussianBlur stdDeviation="3"/>
<feComposite in2="hardAlpha" operator="out"/>
<feColorMatrix type="matrix" values="0 0 0 0 0.401815 0 0 0 0 0.569466 0 0 0 0 0.904769 0 0 0 0.12 0"/>
<feBlend mode="normal" in2="BackgroundImageFix" result="effect1_dropShadow_1_255"/>
<feBlend mode="normal" in="SourceGraphic" in2="effect1_dropShadow_1_255" result="shape"/>
</filter>
</defs>
</svg>
