<svg width="32" height="22" xmlns="http://www.w3.org/2000/svg" viewBox="0 0 1200 800">
    <defs>
        <style>
            .cls-1{fill:#d0dbf4;}.cls-2{fill:#cbd7f3;}.cls-3{fill:#dae2f6;}.cls-4{fill:#c2d0f1;}.cls-5{fill:#cdd9f3;}.cls-6{fill:#3162cf;}.cls-7{fill:#e3eaf8;}.cls-8{fill:#e7edf9;}.cls-9{fill:#f6f8fc;}.cls-10{fill:#d8e1f6;}.cls-11{fill:#d5dff5;}.cls-12{fill:#ced9f3;}.cls-13{fill:#dfe7f7;}.cls-14{fill:#e7ecf9;}.cls-15{fill:#c6d3f2;}.cls-16{fill:#e4eaf8;}.cls-17{fill:#fefefe;}.cls-18{fill:#f1f4fb;}.cls-19{fill:#f4f6fc;}.cls-20{fill:#c8d4f2;}.cls-21{fill:#ecf1fa;}.cls-22{fill:#f8fafd;}.cls-23{fill:#edf1fa;}.cls-24{fill:#f9fafd;}.cls-25{fill:#c4d2f1;}.cls-26{fill:#e2e9f8;}.cls-27{fill:#e3e9f8;}
        </style>
    </defs>
    <rect class="cls-6" id="" width="1200" height="800" rx="72.72" fill="white"/>
    <g transform="translate(0, -170)">">
        <path class="cls-17"
              d="M521.2,821.9c-3.3-8.8-1.2-17.8-.6-26.6,1.8-26.2,6.2-52.1,10.3-78.1-1.6-1.5-1.7-3.3-1.5-5.4.6-4.9,1.6-9.7,2.4-14.6,1.1-5,1.8-10.1,3.1-15.1,0-.5,0-1.1,0-1.6.6-3.6,1.8-7.2,1.6-10.9,1-3.3,1.8-6.6,2.4-10,.9-5.3,1.7-10.6,3.1-15.8,1.7-5.1,1.1-10.7,3-15.7.1-1.9.5-3.7.9-5.5,1.4-3.2.8-5-2.9-6.3-4.8-1.7-9.7-2.5-14.6-3-12.7-1.4-25.4-3.5-38.2-3.8-1.7,0-3.3-.2-5-.5-13.5-2.7-27.2-4.2-40.7-6.6-9.8-1.8-19.3-4.4-28.8-7.7-8.6-3-17.4-5.6-26.4-7.2-5.1-.9-10-2.4-14.9-4.1-10.4-3.5-19.9-.6-26.4,11.5-4.7,8.9-8.9,18-10.6,27.8-2.3,13.2.3,26.1,6,38.3,1.5,3.2,2.4,6.5,4,9.7.8,1.7,1.9,4.4-1.9,4.5-27.6-23.8-40.4-54.2-39-90.5,1.4-36.7,16.6-68.2,37.6-97.3,25.6-35.4,58.1-63.6,94.2-87.7,49.2-32.8,102.2-57.2,160.1-70,6.5-1.4,13.1-2.2,19.7-3.2,3-.4,6-.5,8.5,1.7,1.4,1.5,1.2,3.1.9,5-.7,4.5-2.1,8.9-2.4,13.4-.6,3.4-1.5,6.7-2,10.1,0,.5-.2,1.1-.3,1.6-6.4,31.3-12.9,62.6-19.7,93.8-4,18.5-8.4,36.8-12.4,55.3-5.7,26.1-11.3,52.2-16.8,78.4-1.9,8.8-4.2,17.5-5.7,26.3-4.9,23-10.3,46-15,69.1-4.5,17.8-7.7,35.8-11.7,53.7-1.9,8.4-3.5,16.9-5.3,25.4-3.9,15.5-6.7,31.2-9.9,46.9-.7,3.5-1.1,7.2-2,10.7-.5,1.8-.6,4.1-3.3,4.1Z"/>
        <path class="cls-15"
              d="M657,785c-21.7,11.4-44.4,20.4-67.7,27.8-17.9,5.7-36,10.6-54.8,12.6-3.7.4-7.3.5-10.7-1.3-.9-4,.8-7.8,1.6-11.5,4.2-20.7,7.7-41.5,13.1-61.9,4.9-17.7,8.5-35.6,12.6-53.5,1.4-6,4.3-11.5,5.3-17.5,1.5-8.5,2.4-17.3,5.1-25.5,4.2-13,6.4-26.4,9.4-39.6,3.6-15.3,6.8-30.8,9.8-46.3,1.2-6.4,3.5-12.8,4.6-19.3,1.8-10.9,4.4-21.7,6.7-32.5,2.9-13.6,5.7-27.2,8.7-40.7,2.8-12.8,5.6-25.6,7.8-38.6.3-2,.7-4,2.2-5.4,3.5-.6,4.2,1.6,4.1,4.4,0,1.1-.6,2.2-.8,3.4-1.2,5.6-1,10.7,5.1,13.6.9,3.2.7,6.4,0,9.6-.6,1.8-.7,3.7-.8,5.6-1.3,5.1-2.1,10.4-3.7,15.4,0,2.3-.3,4.6-.6,7-.2,1.2-1,2.3-1,3.6-.5,3-1.1,5.9-1.5,8.8-.1.5-.3,1-.4,1.4,0,3.3-2.4,5.9-2.2,9.3.1,1.7-.9,3.2-1.2,4.9-.1.7-.3,1.4-.5,2.1-.2.9-.3,1.9-.4,2.8,0,4.2,3.2,5.7,6.3,6.6,13,3.9,24.5,10.9,36.3,17.3,9.7,5.3,18.9,11.4,27.2,18.2,7.3,6,14.3,12.6,20.1,20.5,4.9,6.7,8.1,14.5,13.2,21,.7,1,1.2,2,1.4,3.2,1.4,7.8,4.4,15.1,6.7,22.6,1.8,5.8,3.4,11.4,2.8,17.4-.6,5.6.5,11.2-.1,16.8-.4,3.8-.8,7.6,1.7,11.1,1.5,2.1.7,4.6-.4,6.7-3.1,6.3-4.3,13.2-7.5,19.5-1.8,3.7-2.4,7.6,0,11.5,1.2,1.9.8,3.9-.6,5.6-2.9,3.4-3.2,7.4-3.3,11.6-.2,4.8-1.1,9.3-4.8,13.1-6.4,6.5-13.2,12.7-19.7,19.1-6.4,6.3-14.3,11.2-22.8,14.8-2.4,1-5.2,1.9-6.2,4.8Z"/>
        <path class="cls-2"
              d="M657,785c-1-2.9,1.3-4.2,3.1-4.8,3.9-1.3,7-3.8,10.7-5.4,2.3-1,4.4-2.4,5.7-4.6,1.3-2,3-3.5,5.2-4.4,1.2-.5,2.5-1.3,3.2-2.3,4.7-7.5,12.5-11.8,18.3-18.2,3.7-4.1,4.8-8.2,3.9-13.9-.5-3.5,1.4-7.9,4-11.1.8-1,2.5-1.5,1.2-3.1-4-4.9-2.2-10,.2-14.5,3.2-6.2,3.5-13.4,7.4-19.3.8-1.3,1.6-4-.3-4.4-4.9-.9-2-3.5-1.9-5.8.1-4.8,1.2-9.4,0-14.3-.9-3.9,0-8.3.3-12.4.1-1.3.9-2.7.3-3.9-2.8-5.7-2.3-12.5-6.3-17.9-2.4-3.3-.9-7.7-2.4-11.6-1.6-4.3-4.3-7.7-6.3-11.7-3.6-6.9-7.9-13.6-13.3-19.3-10.7-11.3-22.4-21.4-36.2-29-7.7-4.2-15.1-9.1-22.9-13.1-6-3-12-5.7-18.5-7.4-6.7-1.7-8.6-4.4-7.5-9.8,1.3-1.4,2.9-1.6,4.6-1,8.4,3,17.4,3.9,25.9,6.6,16.3,5.2,33,9.2,48.7,16.3,6.6,3,13.5,5.6,20,8.8,8.5,4.3,17.6,7.8,23.4,16.2,2.5,3.6,7.1,5.1,10.3,8.3,7,7.2,12.8,15.5,19.6,22.8,2,2.2,3.6,4.8,6.6,5.9.8.3,1.7.8,1.9,1.5,2.6,7.9,10.1,13.1,11.2,21.8.4,3,1.4,5.4,4.8,6.2,1.5.4,3.1,1.7,2.9,3.1-.7,6.8,5.5,11.4,5.4,18,0,2.6,1.5,2.9,4.4,2.7,12.2-1,15.7-11.4,20.7-19.3,10.2-15.9,16.4-33.8,20.5-52.2,1.4-6.3,1.5-12.9,1.9-19.3.9-15.5-1.7-30.6-7.1-45.1-2.4-6.4-6.2-12.2-10.3-17.8-.3-.4-.6-.8-.8-1.2-1.9-3.8-3.1-8.3-7.6-10.2-2-2-4-4.1-5.5-6.6-1.7-3.4-4.6-5.8-7.1-8.5-1.1-1.3-3.3-2.7-.8-4.7,4.8,1.6,7.7,5.7,11,9,18.1,17.5,29.2,38.8,33.2,63.6,2.2,13.6,1.5,27.4-.8,41h0c-1,2.9-1.3,6-2,9-4.5,19.9-13.6,37.9-24.6,54.8-25.3,39-59.1,69.6-96.9,96.1-19.5,13.7-40.5,24.9-61.6,35.9Z"/>
        <path class="cls-22"
              d="M345.7,675.1c1.5-4.3-1.9-7.2-3.3-10.4-3-6.9-6.4-14-7.2-21.2-1-9.3-2.4-19.1,1.7-28.4,3.3-7.6,5.7-15.5,9.7-22.9,5-9.4,13.6-15,24-12.2,13.1,3.5,26.4,6.1,39.4,10.3,17,5.4,34.2,10.2,52.1,12.1,11.8,1.2,23.4,4.6,35.3,4.9,13.1.4,26,3.5,39.1,4.1,3.5.2,7.1,1.6,10.3,3.3,3.5,1.9,2.5,5.3,1.3,8.4-14.9-1.8-29.8-.7-44.7,0-21,1.1-42,3.3-63.2.4-7.5-1-15.3-.9-22.8-1.6-9.2-.9-18.6-.4-27.4-3.7-2.3-.8-4.6-.5-6.9-.1-3.4.6-6.8,1.4-10.4.8-2.4-.4-4.7.5-6.2,2.4-8.9,11.4-16.8,23.1-16.1,38.6.3,6.5,3.4,11.7,6,17.3,1,2.2,2.5,4.8-2,4.6-3.2-1.8-6-4.1-8.4-6.8Z"/>
        <path class="cls-9"
              d="M354.2,681.9c1.9-1,.9-2.1.2-3.2-9-14.1-9.1-28.1-.7-42.7,3.1-5.4,6.2-10.8,9.9-15.9,2.3-3.2,5-4,8.4-4,.3,0,.7.2,1,.1,11.1-2.3,21.9,1.2,32.8,1.7,4.8.2,9.4,1.6,14.2,1.8,16.2.6,32.5,2.7,48.7,2.7,15.4,0,30.8-1.5,46.2-2.9,9.4-.9,18.8.2,28.3-.3,2.3-.1,4,1.5,4.9,3.7-.3,1.7-.7,3.3-1,5-1.3,1.7-3.1,2.5-5.1,2.8-12,2-23.7,5.2-35.6,7.7-12.9,2.7-26,3.5-39,5.3-16.8,2.2-33.8,1.9-50.6,2.8-10.9.6-21.7,2.5-32.7,2.1-5.6-.2-9.8,2.8-12.6,7.6-2.1,3.6-4.3,7.1-6.7,10.5-3.4,4.9-2.2,10.1,0,15.2,1,2.2,2.9,5.2-1.7,6-3.3-1.6-6.2-3.6-8.8-6.1Z"/>
        <path class="cls-18"
              d="M362.9,688c.9-1.2.9-2.5.2-3.7-4.6-8.1-4.6-15.6,2.3-22.7,2.1-2.2,3.5-5.3,4.8-8.2,2.5-5.6,7.5-7.3,12.6-7.2,6.7.2,13.2-1.2,19.8-1.8,4.9-.4,9.9.3,14.6-.3,14-1.7,28.2-.4,42.2-2.2,11.5-1.5,23.1-2.3,34.6-3.9,16.1-2.3,31.5-8.1,47.7-9.8,1.8-.2,3.6-.3,5.5-.4-.9,5.4-.8,10.9-3,16-8.7,1.1-16.6,4.6-24.9,7.1-13,4-26.6,5.6-40,8.3-11.9,2.4-24,4.3-36,5.3-14.1,1.2-27.9,4.3-41.9,5.4-7.5.6-15.2,1.8-20.8,8.3-2.8,3.2-5.2,6.4-5.3,10.9,0,2.4-.5,4.9-4.1,3.6-3.1-1.1-5.7-2.7-8.1-5Z"/>
        <path class="cls-23"
              d="M371,693c1.4-.6,1.8-1.7,1.8-3.2.3-8.9,9.3-19.1,17.9-20.4,16.9-2.5,33.8-4.7,50.7-6.8,15.9-2,31.8-4.8,47.7-7.5,17.1-2.9,33.4-8.4,50.1-12.7,1.9-.5,4-1.4,4.8,1.6-.3,5.5-1.7,10.7-3,16-4,0-8,.9-11.7,2.3-8.7,3.3-17.8,5.2-26.6,8.1-12.8,4.3-26.1,6-39.2,9-11.5,2.6-23.7,3-35.5,5-10.6,1.9-21.3,3.5-31.6,6.9-3.5,1.1-6.7,3-8.9,6.1-1.2,1.7-2.6,2.5-4.7,1.5-4.3-1.4-8.1-3.6-11.8-6.1Z"/>
        <path class="cls-10"
              d="M609,504c0-.3,0-.7,0-1,3.8-2.6,8.4-2.5,12.5-2,10.6,1.3,21.3-.1,31.9,1,10.9,1.2,21.9.6,32.9,1.1,8.2.4,16.6.9,24.9.7,13.1-.2,26.3,1.1,39.4.8,7-.2,13.8-2,20.7-2.7,5.8-.6,9.6-7,9.3-13.6-.3-4.8-2.1-9.2-5.3-12.7-9.9-10.9-20.8-20.7-34.3-27.1-2.1-1-4.6-.8-6.5-2.4-1-.9-2.4-1.5-1.5-3.2,6.6,1.2,12.9,3.3,19,6,2.5,1.7,5.7,2,8,3.9,13.4,7.4,24.5,17.6,33.6,29.6,11.7,15.6,6.7,32-8.3,41.6-5.7,3.7-12.8,2.5-19.1,2-17.4-1.5-34.8-2.6-52.2-4.5-15-1.6-30.1-3.5-45.2-4.6-17.2-1.2-34.4-3.6-51.6-4.5-1.2,0-2.3-.2-3.5-.5-5.5-1.3-5.9-1.9-4.9-8Z"/>
        <path class="cls-13"
              d="M733,442.8c3.8,3.5,8.9,4.3,13.4,6.5,12.3,6.3,22.8,14.9,31.7,25.5,6.7,8,6.9,18.5,1.1,25.7-1.8,2.2-3.9,3.6-6.7,4.1-16.6,2.5-33.3,3.3-50.2,1.9-9.4-.8-18.9-.5-28.3-.7-11.9-.3-23.9-1-35.8-.9-8.9,0-17.9-.4-26.9-.7-7.4-.2-14.9.5-22.2-1.1.6-3,.6-6.2,1.9-9,2.7,1.4,5.7,1.8,8.7,1.5,13.9-1.8,27.8-1.4,41.8-2,11.3-.5,22.6-1,33.8-1.1,12.5,0,24.8-1.5,37.2-2.4,8.2-.7,16.6-1.6,24.5-4.3,6.3-2.2,7.8-5.9,5-12-2.6-5.7-6.7-10.3-11.4-14.3-4.3-3.7-8.9-6.9-13.6-9.9-5.6-3.6-12.2-4.6-18.6-5.6-2.3-1-4.3-2.7-6.9-3.3-1.1-.3-2-1.1-1.6-2.5,7.9.7,15.5,2.4,23,4.9Z"/>
        <path class="cls-14"
              d="M710,437.9c2.8,1.6,6,2.1,9,3.1,7.9,3,16,5.6,22.6,11.5,3.9,3.4,6.8,7.5,8.3,12.2,2.4,7.7-2.4,14.9-12,17-15.9,3.3-31.8,7-48.2,8.1-11.7.8-23.6.6-35.3,2.9-7.4,1.4-15.2,1-22.9,1.5-4.2.3-8.3.4-12.4,1-4.1.6-7.3-.3-8-5.1.6-2,1.3-4,1.9-6.1,4-3.2,9-3.2,13.6-4,15.8-2.9,31.7-5.3,47.4-8.8,12-2.7,24.1-5.9,35.8-10,3.7-1.3,8.2-2.8,8.3-7.6.1-4.6-3.9-6.7-7.4-8.5-6.7-3.6-14-5.7-21.3-7.4-1.5-.4-3.6.2-3.3-2.5,8.1,0,16.1,1.1,24,2.9Z"/>
        <path class="cls-14"
              d="M382.8,699.1c6.4-9.8,16.6-11.2,27-13.5,15-3.4,30.1-6,45.2-7.5,13.8-1.4,26.8-5.9,40.3-8,13.6-2.1,26.6-7.9,39.9-12,2.1-.7,5.1-2.3,5.8,2,0,3.4-.5,6.8-2,10-2,2.9-4.8,4.1-8.1,5.2-11.5,3.6-22.8,8.2-34.7,10.5-10.2,2-20.1,4.9-30.3,6.7-11.7,2-23.5,3.8-35.3,5.9-10.3,1.9-20.8,2.3-30.7,6.2-1.7.7-3.6.2-5.3-.3-4.2-1.1-8.1-2.8-11.7-5.1Z"/>
        <path class="cls-21"
              d="M686,435.1c8.6,2,17.3,3.2,25.3,7.1,3.6,1.8,6.2,4.5,8.8,7.2,2.1,2.1,2.2,5.4-.2,8.2-2.5,2.9-5.7,4.8-9.1,5.9-8.1,2.6-16.2,5.1-24.5,6.6-4.9.9-9.1,3.6-14.2,4.4-17.7,2.7-35.3,5.7-52.7,9.6-2,.5-4.3.8-6.4-.1.5-5.4,1.4-10.8,3-16,3.4,1.4,6.6,1,10.1.2,19.8-4.7,39.6-9.7,58.4-17.7,2.9-1.2,7.3-1.6,7.3-5.7,0-4.5-4.6-4.6-7.7-5.7-4.3-1.6-8.7-3-13.4-1.3-5.7,0-11.3-.6-17-.2-3.1-.4-6.7,1-8.9-2.5,13.8-1.5,27.5-1.4,41.3.2Z"/>
        <path class="cls-3"
              d="M534,697c-1,6.7-2.1,13.4-3.1,20.2-24.3,3-48.7,4.1-73.2,1.8-11.7-1.1-23.4-2.5-34.8-6,1.1-2.6,3.5-2.5,5.6-2.4,12.2.6,24.3-1.1,36.3-2.2,7.6-.7,14.9-3.3,22.4-5,12.2-2.6,24.2-6.1,36-9.9,2.2-.7,4.5-1.1,6.9-1.3,3.4-.3,5.2,1,3.9,4.7Z"/>
        <path class="cls-13"
              d="M534,697c-.3-3-2.3-2.6-4.4-2.2-6.8,1-13.1,3.8-19.7,5.6-9.2,2.5-18.3,5.5-27.8,6.8-.5,0-1,.1-1.5.3-18.8,5.8-38.3,5.7-57.7,5.6-6-.9-11.7-2.5-17.3-4.9,2.1-2.6,5.5-2.8,8.2-3,11.1-.8,22.1-2.7,33.1-4.5,15.4-2.5,30.8-5.2,45.9-9.4,12-3.3,24.1-6.1,35.7-10.4,2.8-1,6-1.9,8.4,1.2-.6,5.1-1.3,10.1-3,15Z"/>
        <path class="cls-25"
              d="M618,453c-1.2.1-2.2.6-2.9,1.7-.7,1-.9,3-2.7,2.3-1.7-.7-.4-2.3-.6-3.4-1.2-7.2.3-14.3.2-21.5,0-.2-.1-.5-.2-.7-.9-3.3.7-6.5.6-9.8,0-4,.8-7.8,1.9-11.6.5-1.8.9-3.6,1.1-5.4.3-5.4,1.8-10.6,2.5-15.9.7-1.7,1.3-3.5,1.4-5.4,1.4-12.8,4.5-25.3,6.2-38.1,1.6-5.3.9-11.2,4.5-15.9,3.3,3,2.3,7.1,2.3,10.8,0,19.3-2.1,38.5-4.8,57.5-1.6,11.2-3.5,22.3-5.2,33.5-.3,1.9-.9,3.9,0,5.9,0,.5,0,.9,0,1.4,0,.7-.3,1.3-.7,1.8-2.9,3.6-4.2,7.5-2.5,12.1-.3.4-.6.7-1.1.9Z"/>
        <path class="cls-7"
              d="M394.6,704.1c4.3-.2,7.5-3.4,11.6-4.2,15.9-3.3,32.2-4.6,48.1-8,9-1.9,18.2-3.2,27.2-5.4,10.1-2.3,20-5.4,30.3-7.4,5.4-1,10.3-4.3,15.9-5.7,3.8-1,7.6-2.3,11.4-3.5-1.5,3.5-.2,7.6-2,11-2.9-1.8-6-1.2-8.8-.1-18.6,6.9-37.8,11.3-57.1,15.4-11.9,2.5-23.9,4.3-35.9,6.1-9.2,1.4-18.7,1.6-27.7,4.4-1.5.5-3.2,1.2-4.8.4-3-.2-5.6-1.3-8.1-3Z"/>
        <path class="cls-26"
              d="M402.7,707.1c17.2-6.9,35.9-5.9,53.6-10.1,11.7-2.8,23.8-4.1,35.4-7.5,12.7-3.8,25.7-6.6,38.2-11.2,2.6-1,6.5-2.7,7.1,2.8,0,.3,0,.6,0,1-5.1,0-9.7,1.5-14.5,3.1-10.2,3.3-20.7,6.2-31.1,8.7-13.7,3.3-27.4,6.5-41.3,8.8-14.7,2.4-29.6,3.8-44.4,5.6-1.1,0-2.2-.2-3-1Z"/>
        <path class="cls-24"
              d="M621.5,437.1c.3,0,.5,0,.7-.2,7.5-.7,14.9-2.4,22.6-2,3.1,0,6.2.2,9.3.2,3.9,3,4.1,5.1.3,8.1-5.8,4.5-12.5,7.5-19.3,10.1-2.9,1.1-6,1.8-8.8,3.4-4.6,2.6-8.7,1.5-7.7-5.2-1.7-5.4.5-9.9,3-14.4Z"/>
        <path class="cls-3"
              d="M540,751c-5.7,21.8-9.3,44.1-13.9,66.1-.5,2.4-.8,4.9-2.3,7-1.3-.2-2.3-.8-2.6-2.2,3.1-6.4,3.2-13.5,4.7-20.2,3.1-13.9,5.3-27.9,9.1-41.7,4.8-21.1,9.2-42.2,14.3-63.2.4-1.5,0-4,2.8-3.9,1.2,2.3.2,4.5-.3,6.8-4.1,17.1-7.7,34.2-11.8,51.3Z"/>
        <path class="cls-20"
              d="M842,589.1c.1-7.1,1-14.2,1-21.4.1-33.7-12.7-61.6-36.7-84.8-2.6-2.5-4.6-5.8-8.4-6.9-1.7,0-3.3-.4-4.8-1.1-2-2.7-4.3-4.9-7.3-6.4-2-1-4.9-2-3.8-5.4,2.5,0,4.2,1.9,6.1,3.1,27.5,17.9,47.4,41.5,54.3,74.4,3.4,16.1,3.6,32.3-.4,48.4Z"/>
        <path class="cls-16"
              d="M624,347c0-6.4,2.6-12.5,3-18.9,1-.4,1.7-.2,2.1.8,1.4,3.7-.6,7.1-1.1,10.6-.2,1.5-.3,2.9-.5,4.4-2.6,9.6-3.8,19.4-5.5,29.1-2.5,14-5.2,27.9-7.9,41.9-4.5,23.8-9.8,47.5-15,71.1-.4,1.8.1,4.6-2.9,5-1.7-1.7-.9-3.6-.5-5.6,5.4-25.1,11-50.2,16.2-75.4,3.4-16.2,6.3-32.4,9.6-48.6.3-1.4-.4-3,.6-4.4h0c1-3.3,1.2-6.7,2-10Z"/>
        <path class="cls-12"
              d="M782,463.1c1.6,2.4,4,3.7,6.4,5,2.5,1.4,4.4,3.2,5.5,5.8.3.4.3.8,0,1.2-4.9.2-7.3-4.1-10.7-6.4-4.3-2.8-8.3-6-12.8-8.5-3.5-2.9-7.6-4.9-11.5-7.3-2.2-1.6-5.1-1.9-7-4.1,10.7,3.2,20.6,8.2,30,14.3Z"/>
        <path class="cls-15"
              d="M627,344c.7-5,1.4-10.1,2.1-15.1.3,0,.6.1.9.3,0,5.4-1.2,10.7-3,15.8-.3-.2-.4-.4-.3-.7,0-.2.2-.4.3-.4Z"/>
        <path class="cls-20" d="M840,598.1c0-3.2.3-6.3,2-9.1,0,3.2-.7,6.2-2,9.1Z"/>
        <path class="cls-8"
              d="M622,357c-1.3,14.9-4.7,29.5-7.6,44.2-5.7,28.5-12,56.9-17.9,85.4-.3,1.4-.3,3-.4,4.5,0,.2.1.4.2.7.4,3,.6,5.9-.2,8.9-.2.4-.4.9-.5,1.3-1.2,2.6-.9,5.6-2,8.3,0,.5,0,1,0,1.5-2.6,6.3-3.5,13.1-4.9,19.7-2.2,10.3-4.7,20.6-6.9,30.9-2.1,9.7-5.3,19.1-7.1,28.9.4,3.5-1.4,6.6-2.1,9.8-.8,2.4-1.7,4.8-2,7.4,0,.5-.2.9-.4,1.4-.8,1.1-1,3-3.1,2.2,1.1-11,4.3-21.5,6.6-32.2,12.2-56.4,24.6-112.8,36.9-169.2,3.4-15.8,6.5-31.6,9.7-47.4.4-2.1,1.2-4.1,1.7-6.2Z"/>
        <path class="cls-26"
              d="M571,601c-.2-3.2,1.3-6,2-9,.6-.3,1.1-.3,1.6.2,1.5,3.2.2,6.4-.5,9.4-3.3,14.9-6.2,29.9-10,44.6-3.5,13.8-5.5,27.9-9.6,41.6-.6,1.9-1.1,3.7-2.5,5.2-5.1,14.1-7.3,28.9-11,43.4-2,7.9-3.2,15.9-6,23.6,1.2-12,4.6-23.5,7.1-35.2,3.1-14.6,5.8-29.4,9.9-43.8,4.2-17.6,7.6-35.4,11.9-52.9,1.5-6.4,3-12.8,5.1-19,.8-2.6.9-5.4,2-8Z"/>
        <path class="cls-16"
              d="M569,609c-.5,8.5-3.6,16.5-5.6,24.7-3.5,14.2-6.2,28.5-9.6,42.7-.4,1.6-1.2,3.1-1.8,4.6,2.4-16.1,6.6-31.8,10-47.7,1.5-7.1,3.3-14.2,5-21.3.7-1,1.3-2,2-3Z"/>
        <path class="cls-8" d="M624,347c0,3.5-.2,6.9-2,10,0-3.5.5-6.8,2-10Z"/>
        <path class="cls-5"
              d="M821,505c5.3,5.5,8.8,12.3,11.3,19.3,5.9,17.1,8.6,34.5,7.2,52.9-1.3,16.6-5.9,32.1-12.3,46.9-4.2,9.7-8.5,19.9-16.4,27.8-2.7,2.7-4.4,6.2-6.7,9.3-.6.8-1.7,2.2-1.8,2.1-4.5-2.9-8.5,2.6-12.9.6-1.2-.5-3.2-.9-2.5-2.3,1.6-3-.7-5.5-.5-8.2.2-2.9-.5-4.5-4-4.9-3.8-.5-1.4-3.2-.9-4.9.4-1.3,2.3-2.4,1.1-4-1.4-1.9-2.6,0-3.8.5-2.2.7-2.5-1.1-2.8-2.5-.9-4.2-1.9-8.4-3.5-12.5-1.1-2.9-2.2-5.5-4.9-7.1-.5-.3-1.2-.9-1.3-1.4-1.6-8.2-9.3-12-14-17.6-6.2-7.5-11.3-16.8-19.5-21.8-6.5-3.9-9.5-11.4-16-14.2-7.3-3.1-13.7-7.6-21.1-10.5-8.9-3.5-17.4-8.2-26.5-10.9-15-4.4-29.2-11.2-44.7-13.8-6.5-1.1-12.9-3.1-19.4-4.7,0-1,0-2,0-3,6.4-.5,12.4,1.7,18.4,3.1,11,2.5,22,5.6,33,8,15.6,3.4,30.4,9,45.6,13.4,10.3,3,19.7,7.9,29.6,11.7,8.3,3.2,16.1,7.7,24.7,10.5,1,.3,2,.7,2.5,1.6,4.1,6.1,11.1,8.8,16.1,13.6,4.8,4.6,10,8.8,14.6,13.5,2.7,2.7,5.5,4.7,8.8,6.3,4.2,2.1,8.8,2.8,13.3,4.1,5.6,1.7,14.4-6.2,16.6-12.1,3.6-9.8,4.3-19.9,4.6-30.3.3-9.7-.8-19.2-2.5-28.6-1.4-7.4-4.8-14-7.6-20.9-1.1-2.8-4.7-5.2-1.7-8.9Z"/>
        <path class="cls-1"
              d="M771,459c8.8,3.7,15.4,10.6,23,16,5,1.9,7.3,6.9,11.2,10.1.5.4.9.9,1.3,1.4,1.9,4.1,4.7,7.4,8.5,9.9,1.4,2.3,2.6,4.7,4.1,6.9,2.2,8.4,6.6,16,9.2,24.3,3.5,11.4,4.4,22.7,1.4,34.4-1.5,5.9-4.4,10.6-8,15.1-2.1,2.6-4.3,4-7.7,3.1-3.5-.9-6.9-1.2-10.1.9-1,.7-2.4.8-3.4.2-6.3-4-13.8-4.8-20.4-7.8-6.3-2.8-12.7-5.7-19-8.7-4.4-2.1-9.4-3-14-5-24.9-10.6-51-17.7-76.9-25.3-19.7-5.8-39.9-9-59.8-14-1.6-.4-3.3-.5-4.5-1.7.3-1.7.7-3.3,1-5,1.4-1.8,3.2-2.4,5.3-2,6.2,1.2,12.5,1.3,18.7,2.4,22.7,3.9,45.6,7.4,68.3,11,18,2.9,35.9,6.2,53.9,9.4,9.4,1.7,18.6,4.2,28.3,5,9.5.8,23.5-7.9,27.1-16.7,3.1-7.3,1.8-13.6-1.4-20.1-8.2-16.3-19.3-30.2-34.4-40.5-1.2-.8-2.7-1.7-1.9-3.6Z"/>
        <path class="cls-4"
              d="M655.9,613.2c0,1.9,0,3.9-1.3,5.3-3.7,4.3-4.3,10.8-9.9,13.8-1.3.7-.8,2.1-.9,3.2-.6,3.7-.6,3.6-4.3,2.4-2.2-.7-2.9,1.2-3.4,2.7-.9,2.7-2.2,3.4-4.2,1.1-1.5-1.7-3.1-2.3-5.3-2.1-.9,0-2.1-.5-2.6-1.2-3.4-4.7-9-7.2-12-12.3-.7-1.3-1.4-2.7-1.6-4.1-.9-6.1-3-11.6-5.6-17.3-2.8-6.1-2.6-13.6-3.4-20.5-.8-7.4-1.5-14.8-2-22.3-.4-5.6.5-10.9,1.2-16.3.5-4.3,2.9-5.2,6.2-3.3,5.2,3,10.5,5.9,14.9,9.8,4.9,4.3,10.4,8.1,14.8,13.1,3,3.5,5.9,6.7,8.1,11,2.5,4.9,6.5,9.1,8.5,14.5.6,1.5,1.7,3.2,1.4,4.7-.9,6,.8,11.8,1.1,17.7Z"/>
        <path class="cls-11"
              d="M771,459c5.6,4.6,11.4,9.1,16.9,14,11.3,10.2,19.7,22.3,24.8,36.8,2.3,6.4,0,12.2-2.9,17.1-3.5,5.6-7.6,11.6-15.3,12.5-1.1.1-2.1,1-3,1.7-2.6,1.9-5.2,2.1-8.4,1.7-6.9-.7-13.8-1.6-20.5-3-7.2-1.5-14.3-2.9-21.5-4.2-10.7-1.9-21.4-4.2-32.2-5.7-11.3-1.6-22.6-3.9-33.9-5.9-15.2-2.6-30.5-4.6-45.7-7.3-7.3-1.3-14.8-1.3-22.1-2.7,0-3.5.5-6.8,2-10-.4,3.6,1.5,5.2,4.8,5.5,8.8.7,17.5,1.4,26.3,2.2,16.3,1.6,32.6,3.2,48.9,4.8,10.4,1,20.8,2.2,31.2,3.1,15,1.4,30,3.1,45.1,3.8,7.8.4,16.6,2.5,23.1-4.4,11.3-11.9,12.4-21.3,3.2-35.8-7.1-11.1-17.1-19.2-27.9-26.5-1.6-1.1-3.5-2-4.6-3.7,4.5.9,7.9,4.2,12,6Z"/>
        <path class="cls-12"
              d="M606,519c7,1.3,14.1,2.2,21,3.9,7.3,1.8,14.7,2.9,22,4.3,8.9,1.7,17.6,4.6,26.5,6.8,17.6,4.3,34.8,10.2,52.2,15.2,7.6,2.2,14.8,5.9,22,9.1,5.9,2.6,12.1,3.9,18,6.7,7.4,3.7,14.9,7.8,23.3,9.7,3.5.8,7.6.8,10.4,4.3,1.1,1.3,2.9-.2,3.8-1.2,1.8-2,3.5-2.6,6.1-1.1,4.3,2.5,6.7,1.1,10.2-2.9,5.6-6.6,7.4-14.5,7.8-21.9.5-9.4,0-19.3-3.8-28.7-2.7-6.5-6.3-12.9-7.3-20.1,1.8-.6,2.1,1.1,3,2,.9,5.9,4.5,10.7,6.7,16,4.1,10.3,7.5,20.8,7.9,31.8.4,11,.5,22.3-1.9,33.1-1.9,8.2-5.2,16.1-12.9,21-2.8,1.8-6.4,2.6-9.1,1.8-8.7-2.6-17.5-4.4-24.5-11.7-5.1-5.3-11.1-10.1-16.8-15-4.1-3.5-10.8-4.3-12.6-11-.7-2.7-4.9-3.1-7.7-3.9-5.5-1.5-10.7-3.4-15.3-6.9-5-3.8-11.6-3.8-17.1-6.7-10.3-5.4-21.6-8.1-32.5-12.1-6.5-2.4-13.5-3.5-19.7-6.9-4.6-2.5-10-2-15-3.2-13.8-3.5-27.8-6.5-41.7-9.7-1.3-.3-2.4-1-3.7-1.6.3-.3.7-.7,1-1Z"/>
        <path class="cls-27"
              d="M611.1,490c1.8,2.7,4.4,3.3,7.4,2.8,11.3-1.8,22.9-.9,34.1-2.6,22-3.3,44.6-1.5,66.2-7.3,7.9-2.1,16.6-1.5,23.9-6.2,5.5-3.5,6.6-8.2,3.6-14-4.9-9.5-12.6-15.6-22.6-19.1-1.7-.6-3.2-1.8-4.7-2.7,5.8.2,11.1,2.9,15.9,5.3,9.4,4.8,18.7,10.1,25.1,19.1,2.6,3.6,4.6,7.4,6.3,11.3,1.6,3.5-2.6,9.8-7.1,11.1-9.4,2.6-19.1,4-28.9,4.9-16.5,1.7-33.1,2.1-49.7,2.7-12.7.5-25.5.4-38.3.8-6.9.2-13.9,1.3-20.8,1.4-3.8,0-9,3-10.6-3.7,0-1.3,0-2.6,0-3.9Z"/>
        <path class="cls-5"
              d="M552,693c7.1-31.7,14.2-63.4,21.3-95.1.4-1.9.5-3.9.8-5.9.3-6.9,2.6-13.3,4.1-19.9,4.6-20.7,9.2-41.4,13.9-62.1h0c.9-2.9,1.1-6.1,2-9h0c1-3.3,1.2-6.7,2-10,0,0,0,0,0,0,4.3-12.1,6-24.9,8.8-37.4,7.5-34.7,14.6-69.4,20.7-104.4.3-1.8,1-3.5,1.5-5.2,0,.3,0,.7,0,1-1,11.8-4.1,23.3-5.6,35.1-.2,1.3-.3,2.6-.5,3.9-1.2,1.5.2,3.5-1,5-1,5.3-2,10.7-3,16-1.2,1.5.2,3.5-1,5-.9,4-2,7.9-2,12-1.3,3.2-1.2,6.7-2,10,0,0,0,0,0,0-2.8,6.5-3.2,13.6-4.7,20.4-4.7,21.4-9,42.9-13.7,64.3-3.2,14.4-6.1,28.9-9.2,43.3-5.1,23.8-10.1,47.7-15.6,71.5-4,17.4-7.6,35-12.1,52.3-5.4,20.6-9.5,41.5-15,62-.5,1.8-1.2,3.4-1.8,5.2,1.5-12.2,5.1-24,7.5-36.1,1.5-7.3,4-14.4,4.5-21.9Z"/>
        <path class="cls-18"
              d="M672,435.1c6.8-.5,13.3.9,19.3,3.9,2,1,4.5,2.2,4.3,5-.2,3-1.9,5.6-4.7,6.6-10.1,3.7-20.1,7.8-30.4,10.9-12.7,3.8-25.7,6.6-38.5,10.4-4,1.2-6.2.7-6.1-3.9,0-1.7,0-3.5,1-5,18.7-4.8,36.9-10.6,54.2-19.3,2.3-1.2,3.6-2.5,1.3-4.9-1-1-1.3-2.3-.5-3.6Z"/>
        <path class="cls-19"
              d="M672,435.1c.5.5.9,1,1.4,1.4,1.9,1.6,5.6,2,5,5.4-.5,2.9-3.8,2.8-5.9,3.9-15.7,8-32.4,13.4-49.4,18.1-2.1.6-4.5,2-6.1-1,.3-3.3.7-6.6,1-9.9,0-.3,0-.6,0-.9.1-.8.4-.8.9-.2.1,2.4.8,4.8,3.8,3.5,10-4.3,20.6-7.3,29.7-13.6,2.6-1.9,3.5-3.8,1.6-6.6,6,0,12,0,18,0Z"/>
        <path class="cls-5" d="M806,487c-4-4-8-8-12-12,0-.3,0-.7,0-1,1.6,0,3,.6,4,2,2.8,4.5,8,6.8,10,12-1.2.6-1.5-.4-2-1Z"/>
        <path class="cls-5" d="M821,505c-1-.7-2-1.3-3-2-2.2-1.4-2.8-3.9-4-6-.5-.9-1.6-1.7-1-3,4.9,2.1,6.1,6.8,8,11Z"/>
        <path class="cls-12" d="M813,494c.3,1,.7,2,1,3-3.6-2.6-6.2-6-8-10l2,1c1.7,2,3.3,4,5,6Z"/>
        <path class="cls-15" d="M618.9,451.9c-.3,0-.6.1-.9.2-2.9-5.9-1.1-10.8,3.4-15-1.2,4.9-2.4,9.7-2.5,14.8Z"/>
        <path class="cls-15" d="M612,432c0-3.5-.2-7,2-10,0,3.5-.5,6.8-2,10Z"/>
        <path class="cls-15" d="M620.3,434.8c-.2-.1-.5-.3-.7-.4,0,0,.1-.3.2-.4.2.1.5.3.7.4,0,0-.1.3-.2.4Z"/>
        <path class="cls-15" d="M616,410c0-1.7,0-3.5,1-5,0,1.7,0,3.5-1,5Z"/>
        <path class="cls-15" d="M620,389c0-1.7,0-3.5,1-5,0,1.7,0,3.5-1,5Z"/>
        <path class="cls-16"
              d="M592,510c-1,11.8-4.5,23.1-7.1,34.5-3.6,15.8-6.3,31.8-10.9,47.4-.3,0-.7,0-1,0-.4-5.8,2.3-11,3.5-16.5,4.3-20.3,9-40.6,13.7-60.9.4-1.6,1.2-3.1,1.8-4.6Z"/>
        <path class="cls-16" d="M596,491c0,3.5-.3,6.9-2,10,0-3.5.5-6.8,2-10Z"/>
        <path class="cls-16" d="M594,501c0,3.2-.4,6.2-2,9,0-3.2.4-6.2,2-9Z"/>
        <path class="cls-16" d="M571,601c-.1,2.8-.6,5.5-2,8,0-2.8.3-5.6,2-8Z"/>
    </g>
    </svg>
