<svg width="32" height="22" viewBox="0 0 32 22" fill="none" xmlns="http://www.w3.org/2000/svg">
    <mask id="mask0_1_306" style="mask-type:alpha" maskUnits="userSpaceOnUse" x="0" y="0" width="32" height="22">
        <rect width="32" height="22" rx="2" fill="black"/>
    </mask>
    <g>
        <g mask="url(#mask0_1_306)">
            <rect width="32" height="22" rx="2" fill="white"/>
            <path d="M0.994899 21.2779C0.771795 21.1821 0.648759 21.0953 0.453721 20.8959C0.286334 20.7249 0.255843 20.682 0.168769 20.4959C0.115141 20.3812 0.0552283 20.2244 0.0356312 20.1474C0.00132134 20.0126 0 19.6618 0 10.6874C0 1.72954 0.0013778 1.36198 0.035461 1.22742C0.0969475 0.98467 0.247071 0.698252 0.402771 0.526632C0.614916 0.292796 0.798151 0.169393 1.09181 0.0625807L1.24347 0.00741864L15.9514 0.00230106C30.5824 -0.00278975 30.6602 -0.00260812 30.8148 0.0370178C31.3591 0.176499 31.7834 0.593627 31.9545 1.15742L32 1.30742V10.6874V20.0674L31.9545 20.2166C31.8036 20.7111 31.4852 21.0724 31.0216 21.275L30.8787 21.3374L16.0028 21.336L1.1269 21.3346L0.994899 21.2779ZM8.848 16.1791C8.8666 16.167 8.95946 15.6664 9.1438 14.5844C9.29159 13.7171 9.41726 12.9872 9.42307 12.9624L9.43365 12.9174H10.5116H11.5896L11.5896 12.9624C11.5895 12.9872 11.5006 13.5204 11.3918 14.1474C11.2288 15.0869 11.194 15.3226 11.1938 15.4874C11.1935 15.7409 11.2364 15.8536 11.3874 15.9957C11.5537 16.1521 11.5825 16.1574 12.263 16.1574H12.8517L12.862 16.1124C12.9041 15.9277 13.5325 12.1835 13.5325 12.1175C13.5325 11.8137 13.3104 11.4116 13.0465 11.2372C12.8366 11.0986 12.8255 11.0974 11.7172 11.0974C10.7835 11.0974 10.7119 11.0999 10.5688 11.1376C10.2526 11.2209 9.9191 11.4359 9.73768 11.6735C9.68327 11.7448 9.636 11.7946 9.63264 11.7842C9.62928 11.7738 9.6563 11.6038 9.69268 11.4064C9.72907 11.209 9.75493 11.0407 9.75016 11.0324C9.74539 11.0242 9.29242 11.0174 8.74357 11.0174H7.74565L7.73457 11.0724C7.72847 11.1027 7.53072 12.2434 7.29513 13.6074C7.05953 14.9714 6.86235 16.1025 6.85694 16.1209C6.85127 16.1403 6.86184 16.1633 6.88197 16.1753C6.92541 16.2013 8.80832 16.205 8.848 16.1791ZM6.68367 12.1147C7.07905 11.5422 7.40538 11.061 7.40883 11.0455C7.41412 11.0219 7.32567 11.0174 6.85024 11.0174C6.53956 11.0174 6.28536 11.0197 6.28536 11.0224C6.28536 11.0252 6.20667 11.4864 6.1105 12.0474C5.93619 13.0643 5.92262 13.1581 5.95021 13.1566C5.95823 13.1562 6.28828 12.6873 6.68367 12.1147Z"
                  fill="#F8E806"/>
            <path d="M0.994899 22.2779C0.771795 22.1821 0.648759 22.0953 0.453721 21.8959C0.286334 21.7249 0.255843 21.682 0.168769 21.4959C0.115141 21.3812 0.0552283 21.2244 0.0356311 21.1474C0.00132139 21.0126 0 19.6618 0 10.6874C0 1.72954 0.00137753 1.36198 0.0354611 1.22742C0.0969476 0.98467 0.247071 0.698252 0.402771 0.526632C0.614916 0.292796 0.798151 0.169393 1.09181 0.0625807L1.24347 0.00741863L15.9514 0.00230105C30.5824 -0.00278975 30.6602 -0.00260812 30.8148 0.0370178C31.3591 0.176499 31.7834 0.593627 31.9545 1.15742L32 1.30742V10.6874V21.0674L31.9545 21.2166C31.8036 21.7111 31.4852 22.0724 31.0216 22.275L30.8788 22.3374L16.0028 22.336L1.1269 22.3346L0.994899 22.2779ZM19.1502 17.8636C19.4447 17.7775 19.7256 17.6012 19.9453 17.3646C20.1555 17.1385 20.2939 16.8915 20.3587 16.6274C20.4134 16.4043 20.8048 14.0618 20.7928 14.0295C20.782 14.0007 20.6834 13.9974 19.8208 13.9974C19.0765 13.9974 18.8564 14.003 18.8408 14.0224C18.8297 14.0362 18.7466 14.4827 18.6561 15.0148C18.5469 15.6567 18.4826 15.988 18.4649 15.9995C18.4503 16.009 17.7859 16.0169 16.9884 16.0171C15.8517 16.0174 15.5342 16.012 15.5186 15.9924C15.5048 15.9749 15.5764 15.5156 15.7569 14.4642C15.8989 13.6374 16.0209 12.9512 16.0281 12.9392C16.0374 12.9237 16.7348 12.9174 18.4497 12.9174H20.8582L20.876 12.8724C20.8922 12.8317 21.1876 11.0947 21.1876 11.0403C21.1876 11.0232 20.4781 11.0174 18.389 11.0174C15.3488 11.0174 15.4667 11.0134 15.1837 11.1275C14.8959 11.2436 14.5828 11.4986 14.3942 11.7706C14.3024 11.903 14.1904 12.1374 14.1565 12.268C14.145 12.3123 13.9724 13.2933 13.7728 14.448C13.3622 16.8241 13.3625 16.8221 13.4621 17.124C13.6 17.5417 13.9193 17.8229 14.3392 17.8963C14.3924 17.9057 15.4633 17.9119 16.7189 17.9101C18.9983 17.907 19.0021 17.9069 19.1502 17.8636ZM27.1878 17.8615C27.6575 17.7128 28.0619 17.3651 28.274 16.9274C28.306 16.8614 28.3464 16.7624 28.3637 16.7074C28.3811 16.6524 28.5588 15.6579 28.7587 14.4974C29.1633 12.1483 29.1674 12.1141 29.0807 11.8274C28.962 11.4353 28.6784 11.1599 28.2871 11.0569C28.1419 11.0187 28.0641 11.0174 25.8759 11.0174C23.3962 11.0174 23.4804 11.0137 23.1888 11.1374C23.1123 11.1699 22.9959 11.2301 22.9301 11.2713C22.7806 11.3648 22.531 11.6083 22.4185 11.7706C22.3267 11.9029 22.2146 12.1375 22.181 12.2674C22.1562 12.3634 21.4698 16.3595 21.439 16.587C21.4021 16.8601 21.4655 17.1617 21.6083 17.393C21.7709 17.6561 22.086 17.859 22.4019 17.9038C22.434 17.9083 23.4919 17.9108 24.7529 17.9093L27.0455 17.9066L27.1878 17.8615ZM23.5438 15.9924C23.5311 15.9756 23.6084 15.4814 23.7812 14.4752C23.9221 13.6545 24.043 12.9682 24.0497 12.9501C24.061 12.9199 24.1831 12.9176 25.5441 12.9223L27.0261 12.9274L27.0205 13.0014C27.0054 13.2026 26.5115 15.9849 26.4883 16.0001C26.4742 16.0093 25.8102 16.0169 25.0127 16.0171C23.8755 16.0174 23.5587 16.012 23.5438 15.9924ZM8.848 16.1791C8.8666 16.167 8.95946 15.6664 9.1438 14.5844C9.29159 13.7171 9.41726 12.9872 9.42307 12.9624L9.43365 12.9174H10.5116H11.5896L11.5896 12.9624C11.5895 12.9872 11.5006 13.5204 11.3918 14.1474C11.2288 15.0869 11.194 15.3226 11.1938 15.4874C11.1935 15.7409 11.2364 15.8536 11.3874 15.9957C11.5537 16.1521 11.5825 16.1574 12.263 16.1574H12.8517L12.862 16.1124C12.9041 15.9277 13.5325 12.1835 13.5325 12.1175C13.5325 11.8137 13.3105 11.4116 13.0465 11.2372C12.8366 11.0986 12.8255 11.0974 11.7172 11.0974C10.7835 11.0974 10.7119 11.0999 10.5688 11.1376C10.2526 11.2209 9.9191 11.4359 9.73768 11.6735C9.68327 11.7448 9.636 11.7946 9.63264 11.7842C9.62928 11.7738 9.6563 11.6038 9.69269 11.4064C9.72907 11.209 9.75493 11.0407 9.75016 11.0324C9.74539 11.0242 9.29242 11.0174 8.74357 11.0174H7.74565L7.73457 11.0724C7.72847 11.1027 7.53073 12.2434 7.29513 13.6074C7.05953 14.9714 6.86235 16.1025 6.85694 16.1209C6.85127 16.1403 6.86184 16.1633 6.88197 16.1753C6.92541 16.2013 8.80832 16.205 8.848 16.1791ZM6.68367 12.1147C7.07905 11.5422 7.40538 11.061 7.40883 11.0455C7.41412 11.0219 7.32567 11.0174 6.85024 11.0174C6.53956 11.0174 6.28537 11.0197 6.28536 11.0224C6.28536 11.0252 6.20667 11.4864 6.1105 12.0474C5.93619 13.0643 5.92262 13.1581 5.95021 13.1566C5.95823 13.1562 6.28828 12.6873 6.68367 12.1147ZM17.92 10.1671C17.9279 10.1597 18.7978 5.08439 18.7978 5.0458C18.7978 5.00241 17.0532 5.00334 17.037 5.04674C17.031 5.06287 16.8971 5.82877 16.7394 6.74874C16.5542 7.82884 16.4436 8.42713 16.4272 8.43757C16.3934 8.45907 14.2879 8.46114 14.2546 8.4397C14.2337 8.42625 14.2836 8.10223 14.5121 6.76825C14.6679 5.85813 14.7954 5.09187 14.7954 5.06545V5.01742H13.9224C13.1079 5.01742 13.0487 5.01977 13.0388 5.05242C13.033 5.07167 12.8697 6.01442 12.676 7.14742C12.3643 8.97055 12.3251 9.22388 12.3352 9.35057C12.3639 9.71313 12.5775 9.99311 12.9049 10.0972C13.0249 10.1354 13.0838 10.1374 14.0543 10.1371C15.1692 10.1367 15.2144 10.133 15.4725 10.0214C15.6747 9.93393 15.8699 9.79189 16.0906 9.5717L16.288 9.37467L16.3858 9.58105C16.5611 9.95116 16.6849 10.0754 16.9326 10.1296C17.1593 10.1792 17.878 10.2065 17.92 10.1671ZM5.08987 10.0924C5.09529 10.0677 5.30518 8.84592 5.55629 7.37742C5.8074 5.90892 6.01751 4.68717 6.02319 4.66242L6.03353 4.61742H7.19653C8.1033 4.61742 8.36396 4.61191 8.37958 4.59242C8.39784 4.56963 8.67517 3.01156 8.67517 2.93173C8.67517 2.89945 8.47608 2.89742 5.30534 2.89742C3.32519 2.89742 1.93104 2.90485 1.92468 2.91545C1.90283 2.95185 1.63766 4.55753 1.64864 4.58698C1.65862 4.61376 1.79901 4.61742 2.81663 4.61742H3.97329L3.97327 4.66242C3.97325 4.68717 3.76779 5.90769 3.51668 7.37469C3.26556 8.84169 3.06011 10.0634 3.06011 10.0897V10.1374H4.07006H5.08001L5.08987 10.0924ZM10.8102 10.1067C11.2178 10.0078 11.5918 9.64006 11.7146 9.21742C11.7321 9.15692 11.8648 8.41442 12.0092 7.56742C12.2513 6.14878 12.2714 6.01166 12.2652 5.82742C12.257 5.58411 12.206 5.45275 12.0571 5.29066C11.9438 5.16729 11.8186 5.09145 11.6569 5.04808C11.4855 5.00214 8.04924 5.00257 7.85914 5.04856C7.47731 5.14092 7.10266 5.47978 6.97167 5.85123C6.91317 6.01714 6.39897 8.98876 6.3871 9.22953C6.3771 9.43236 6.40891 9.58429 6.4919 9.73004C6.58793 9.89873 6.81438 10.0708 6.99931 10.1157C7.03943 10.1254 7.88537 10.1342 8.87918 10.1351C10.4244 10.1366 10.7041 10.1325 10.8102 10.1067ZM8.30761 8.43901C8.28443 8.42378 8.30292 8.28665 8.42418 7.57416L8.56831 6.72742L9.46088 6.72221C9.9518 6.71935 10.3596 6.72385 10.367 6.73221C10.3745 6.74058 10.316 7.12092 10.2371 7.57742C10.1305 8.19456 10.0856 8.41355 10.0622 8.43133C10.0238 8.46049 8.35145 8.46781 8.30761 8.43901ZM22.8206 10.1324C22.9918 9.15779 23.1017 8.48371 23.0914 8.47136C23.084 8.46252 22.528 8.45572 21.8559 8.45623C21.1791 8.45675 20.6219 8.44928 20.607 8.43948C20.5848 8.42482 20.6042 8.28184 20.7202 7.6046C20.7972 7.15515 20.8645 6.77167 20.8698 6.75242C20.8788 6.71953 20.9579 6.71742 22.1802 6.71742H23.4811L23.4998 6.67242C23.5245 6.61305 23.7894 5.05181 23.7782 5.03242C23.7733 5.02417 22.9852 5.01755 22.0268 5.01771C20.0758 5.01804 20.1596 5.01241 19.8784 5.16216C19.6005 5.31012 19.3365 5.6261 19.2474 5.91742C19.2066 6.05106 18.6812 9.17045 18.6812 9.27943C18.6812 9.67105 18.9246 10.0071 19.2815 10.1084C19.3505 10.128 19.7653 10.1343 21.0953 10.1356C22.0437 10.1366 22.8201 10.1352 22.8206 10.1324ZM25.7023 10.1024C25.7077 10.0832 25.831 9.36542 25.9763 8.50742C26.1216 7.64942 26.2487 6.92717 26.2589 6.90242L26.2773 6.85742H27.2565C28.0171 6.85742 28.2398 6.863 28.254 6.88242C28.266 6.89879 28.227 7.16986 28.1411 7.66742C27.8794 9.18235 27.8466 9.39811 27.8598 9.51657C27.8889 9.77801 27.9977 9.95032 28.1974 10.0513L28.3084 10.1074L28.8372 10.1136L29.366 10.1198L29.3761 10.0736C29.3816 10.0482 29.5401 9.12742 29.7282 8.02742C30.0462 6.16842 30.0697 6.01434 30.0615 5.84184C30.0538 5.67856 30.0442 5.63851 29.9817 5.50841C29.8659 5.26726 29.6603 5.10907 29.3978 5.05928C29.2117 5.02399 27.5076 5.03057 27.3395 5.06723C27.068 5.12644 26.7733 5.32256 26.6007 5.55882C26.551 5.62689 26.5025 5.69709 26.4928 5.71483C26.4832 5.73257 26.4704 5.74201 26.4643 5.73581C26.4583 5.72961 26.5538 5.13705 26.6766 4.41899C26.7993 3.70094 26.8949 3.10534 26.8889 3.09543C26.8756 3.07319 25.0602 3.07101 25.0468 3.09322C25.0337 3.11518 23.8494 10.0377 23.8494 10.0928V10.1374H24.771C25.632 10.1374 25.6932 10.1351 25.7023 10.1024Z"
                  fill="#292C69"/>
        </g>
    </g>
</svg>
