<svg width="240" height="160" viewBox="0 0 240 160" fill="none" xmlns="http://www.w3.org/2000/svg">
    <rect width="240" height="160" fill="#fff" rx="14.54"/>"/>
    <g transform="translate(40 0) scale(1.4) translate(-24 -23)">
        <path d="M128.208 57.214H102.13C101.299 57.2141 100.489 57.4726 99.8115 57.9537C99.1341 58.4347 98.6232 59.1145 98.3493 59.8989L94.2653 71.6258L94.1306 72.0112C94.0989 72.0983 94.0699 72.1881 94.0382 72.2752C89.5317 85.2112 84.6504 99.2032 82.7945 104.518C82.5806 105.178 82.3325 105.933 82.0341 106.706C81.8323 107.217 81.5661 107.699 81.2421 108.142C81.1629 108.253 81.0811 108.353 81.0019 108.446C80.835 108.651 80.6454 108.837 80.4369 109C80.4235 109.012 80.4094 109.022 80.3947 109.032C80.2983 109.107 80.1978 109.177 80.0937 109.241C79.903 109.358 79.7003 109.454 79.4892 109.528H79.4496H79.4258H79.4073C79.1185 109.623 78.8186 109.681 78.515 109.7H109.854C110.057 109.7 110.26 109.676 110.456 109.626C111.217 109.431 112.846 108.723 113.532 106.207L129.81 59.4818C129.899 59.2253 129.926 58.9514 129.888 58.6826C129.85 58.4138 129.748 58.158 129.591 57.9363C129.435 57.7147 129.228 57.5335 128.987 57.4079C128.746 57.2823 128.479 57.2158 128.208 57.214Z"
              fill="#FF7B00"/>
        <path d="M51.0511 100.858L51.0722 100.8C51.0907 100.742 51.1118 100.687 51.1303 100.629C51.1488 100.571 51.1963 100.447 51.228 100.365L51.36 99.9873L51.5263 99.5174L51.7216 98.955C51.7982 98.7412 51.8721 98.5247 51.9487 98.3109L52.2127 97.5875C52.3051 97.3235 52.3975 97.0595 52.4925 96.7955L52.7935 95.9349L53.1182 95.0135C53.2317 94.6862 53.3452 94.3614 53.4614 94.0341C53.5776 93.7067 53.7016 93.3503 53.8204 93.0071C53.9392 92.6639 54.0712 92.2917 54.198 91.9353L54.5861 90.8238C54.7207 90.4437 54.85 90.0635 54.9873 89.6834L55.3992 88.5112C55.5391 88.1152 55.679 87.7192 55.8163 87.3206C55.9536 86.9219 56.0988 86.5154 56.2413 86.1141L56.6637 84.8733L57.0914 83.6536L57.5191 82.4313L57.9468 81.2169C58.0867 80.8156 58.2266 80.4249 58.3692 80.0157C58.5117 79.6065 58.6464 79.2237 58.7836 78.8303C58.9209 78.437 59.0477 78.0594 59.1902 77.6714L59.5862 76.5414C59.7156 76.1745 59.8502 75.8102 59.9716 75.4458C60.0931 75.0815 60.2198 74.741 60.3412 74.3898C60.4627 74.0387 60.5788 73.7166 60.695 73.3814L61.0329 72.4257C61.1359 72.1247 61.2415 71.8264 61.3471 71.5254L61.6401 70.6912L61.9041 69.923C61.986 69.6933 62.0678 69.461 62.147 69.2313L62.3635 68.6188C62.4242 68.4446 62.4849 68.2677 62.5483 68.0908L62.6988 67.6552C62.7746 67.4167 62.8627 67.1823 62.9628 66.953C62.9839 66.9107 62.9944 66.8738 63.0182 66.8315C63.2432 66.3854 63.5974 66.0174 64.0346 65.7755L60.5313 53.8929C60.3085 53.1627 59.8592 52.5224 59.2484 52.0644C58.6376 51.6064 57.897 51.3546 57.1336 51.3453H32.2332C31.9602 51.3449 31.691 51.4084 31.447 51.5307C31.203 51.6529 30.991 51.8306 30.8278 52.0494C30.6647 52.2682 30.555 52.5221 30.5075 52.7908C30.4599 53.0596 30.4759 53.3357 30.5541 53.5972L44.5725 100.713C45.1507 102.384 46.4205 103.253 47.693 103.316C49.0315 103.369 50.3937 102.561 51.0511 100.858Z"
              fill="#FF000F"/>
        <path d="M73.7841 103.113L73.6099 102.527C73.5808 102.427 73.5518 102.326 73.5201 102.226L67.5141 82.0432L63.3112 67.9298C63.1579 67.4375 63.2004 66.9051 63.43 66.4434C63.4843 66.3402 63.5479 66.2421 63.6201 66.1504L63.6465 66.1161C63.7498 65.9927 63.8697 65.8843 64.0029 65.794L64.0504 65.765C63.6132 66.0069 63.259 66.3748 63.034 66.821C63.0103 66.8632 62.9865 66.9054 62.9654 66.9477V66.9688C62.8653 67.1982 62.7772 67.4326 62.7014 67.671L62.5509 68.1066C62.4875 68.2809 62.4268 68.4578 62.3661 68.6346L62.1496 69.2471C62.0704 69.4768 61.9886 69.7091 61.9067 69.9388L61.6427 70.707L61.3497 71.5413C61.2441 71.8422 61.1385 72.1406 61.0355 72.4415L60.6976 73.3972C60.5815 73.7325 60.4627 74.0704 60.3439 74.4057C60.2251 74.741 60.0983 75.1106 59.9742 75.4617C59.8502 75.8128 59.7103 76.1903 59.5888 76.5573L59.1928 77.6872C59.0582 78.0753 58.9288 78.4607 58.7862 78.8462C58.6437 79.2316 58.5223 79.6382 58.3718 80.0315C58.2213 80.4249 58.0893 80.8235 57.9494 81.2327L57.5217 82.4471L57.094 83.6694L56.6637 84.8733L56.236 86.093C56.0935 86.4942 55.9535 86.885 55.811 87.2994C55.6684 87.7139 55.5338 88.0914 55.3939 88.4901L54.982 89.6622C54.85 90.0424 54.718 90.4226 54.5807 90.8027L54.1926 91.9142C54.0659 92.2706 53.9287 92.6296 53.8151 92.986C53.7016 93.3424 53.5749 93.6698 53.4561 94.013C53.3373 94.3562 53.2264 94.665 53.1129 94.9924L52.7882 95.9138L52.4872 96.7744C52.3922 97.0384 52.2998 97.3024 52.2074 97.5664L51.9434 98.2898C51.8668 98.5036 51.7929 98.7201 51.7163 98.9339L51.521 99.4962L51.3546 99.9662L51.2226 100.344C51.191 100.436 51.1567 100.528 51.125 100.608C51.0933 100.687 51.0854 100.721 51.0669 100.779L51.0458 100.837C50.3884 102.532 49.0262 103.348 47.6877 103.29H47.6138H73.8395C73.8237 103.248 73.8052 103.179 73.7841 103.113Z"
              fill="#AA0017"/>
        <path d="M94.2653 71.6258C94.04 70.8179 93.8191 70.0075 93.6026 69.1943C93.4485 68.5253 93.1977 67.8823 92.8582 67.2856C92.513 66.6957 92.0197 66.2061 91.4273 65.8653C91.2582 65.7722 91.0816 65.6936 90.8993 65.6303C90.5572 65.523 90.2017 65.4643 89.8433 65.4561H65.1566C64.7681 65.4491 64.3858 65.5546 64.0558 65.7597L64.0082 65.7887C63.872 65.8843 63.7501 65.999 63.6466 66.1293L63.6202 66.1636C63.548 66.2553 63.4844 66.3534 63.4301 66.4567C63.2005 66.9183 63.1579 67.4507 63.3113 67.943L67.5142 82.0564L73.5202 102.239L73.8211 103.248L74.9642 107.224C75.0382 107.435 75.6427 109.072 77.3059 109.6C77.9251 109.786 78.5839 109.798 79.2093 109.634L79.4126 109.578H79.4311H79.4602H79.4998C79.7109 109.504 79.9136 109.408 80.1043 109.291C80.2084 109.227 80.3089 109.157 80.4053 109.082C80.5505 108.967 80.688 108.843 80.8171 108.71C80.8831 108.644 80.9465 108.573 81.0125 108.496C81.0785 108.419 81.1735 108.303 81.2527 108.192C81.5767 107.749 81.8428 107.267 82.0447 106.756C82.343 105.983 82.5912 105.228 82.805 104.568C82.9238 104.206 83.0321 103.871 83.135 103.578L83.9112 101.352C84.2386 100.419 84.5642 99.4875 84.888 98.5564L86.0126 95.3356L87.2349 91.8403C87.6573 90.6311 88.0789 89.4229 88.4995 88.2155L89.7588 84.6093L90.96 81.1773C91.3243 80.1371 91.6878 79.0961 92.0503 78.0542L92.9769 75.3983C93.2181 74.7137 93.4566 74.0317 93.6924 73.3523L94.0488 72.3307C94.0805 72.2435 94.1095 72.1538 94.1412 72.0667L94.2758 71.6812L94.2653 71.6258Z"
              fill="#FFCD00"/>
    </g>
</svg>
