<svg width="32" height="22" viewBox="6 6 32 22" fill="none" xmlns="http://www.w3.org/2000/svg">
<g filter="url(#filter0_d_1_26)">
<rect x="6" y="6" width="32" height="22" rx="2" fill="white"/>
</g>
<path d="M31.8317 10.0053L26.4353 10.0039H26.4338C26.4295 10.0039 26.4255 10.0046 26.4215 10.0046C25.6801 10.0273 24.7567 10.622 24.5886 11.3551L22.0365 22.6471C21.8683 23.3871 22.3258 23.9892 23.0618 24.0003H28.7311C29.4557 23.9644 30.1601 23.3766 30.3254 22.6518L32.8776 11.3598C33.0484 10.6123 32.58 10.0053 31.8317 10.0053Z" fill="#01798A"/>
<path d="M22.0379 22.6445L24.5899 11.3525C24.7581 10.6194 25.6815 10.0248 26.4228 10.0021L24.2771 10.0007L20.4113 10C19.6679 10.0152 18.7325 10.614 18.5644 11.3526L16.0116 22.6445C15.8428 23.3845 16.301 23.9866 17.0365 23.9977H23.0631C22.3271 23.9866 21.8697 23.3845 22.0379 22.6445Z" fill="#024381"/>
<path d="M16.0116 22.6458L18.5644 11.3539C18.7325 10.6152 19.6679 10.0165 20.4113 10.0013L15.459 10C14.7115 10 13.753 10.6057 13.5821 11.3539L11.0293 22.6458C11.0138 22.7147 11.0051 22.7823 11 22.8483V23.0577C11.05 23.5971 11.462 23.99 12.0542 23.999H17.0365C16.301 23.988 15.8428 23.3859 16.0116 22.6458Z" fill="#DD0228"/>
<path d="M16.2852 15.7731C16.2094 16.1445 16.0337 16.4297 15.7611 16.6323C15.491 16.8314 15.1427 16.9313 14.7162 16.9313C14.3148 16.9313 14.0206 16.8293 13.8329 16.6247C13.7026 16.4793 13.6379 16.2947 13.6379 16.0715C13.6379 15.9791 13.6489 15.8799 13.671 15.7732L14.1254 13.5823H14.8116L14.3635 15.7483C14.3507 15.8027 14.3445 15.8584 14.345 15.9143C14.3442 16.0253 14.3718 16.1162 14.4276 16.1871C14.5089 16.2926 14.6408 16.3449 14.8245 16.3449C15.0356 16.3449 15.2096 16.2933 15.3447 16.1892C15.4797 16.0858 15.5679 15.9391 15.6075 15.7482L16.0571 13.582H16.7399L16.2852 15.7731ZM19.1673 14.9111H19.7048L19.2838 16.8665H18.7473L19.1673 14.9111ZM19.3365 14.1988H19.8788L19.7775 14.6734H19.2352L19.3365 14.1988ZM20.1805 16.7177C20.0399 16.5833 19.969 16.4021 19.9683 16.172C19.9683 16.1327 19.9707 16.088 19.9759 16.0391C19.9811 15.9894 19.9876 15.9412 19.9969 15.8964C20.0606 15.5788 20.1964 15.3267 20.4055 15.1406C20.6143 14.9539 20.8661 14.8602 21.1611 14.8602C21.4025 14.8602 21.5941 14.9278 21.7343 15.0627C21.8745 15.1985 21.9448 15.3817 21.9448 15.6146C21.9448 15.6545 21.9417 15.7007 21.9365 15.7503C21.9305 15.7993 21.923 15.848 21.9141 15.8964C21.8518 16.2092 21.7165 16.4587 21.5073 16.6412C21.2982 16.8252 21.047 16.9167 20.7542 16.9167C20.5117 16.9168 20.3208 16.8507 20.1805 16.7177ZM21.2048 16.3305C21.2996 16.2279 21.3674 16.0721 21.4088 15.8648C21.415 15.8324 21.4205 15.7986 21.4239 15.7649C21.4273 15.7318 21.4287 15.7008 21.4287 15.6725C21.4287 15.552 21.398 15.4583 21.3364 15.3921C21.2751 15.3253 21.188 15.2923 21.0753 15.2923C20.9265 15.2923 20.8051 15.3445 20.7101 15.4493C20.6143 15.5541 20.5464 15.7125 20.5037 15.9234C20.4978 15.9558 20.493 15.9882 20.4885 16.0198C20.4851 16.0523 20.4841 16.0825 20.4848 16.1101C20.4848 16.23 20.5155 16.3223 20.5771 16.3878C20.6384 16.4532 20.7252 16.4856 20.8393 16.4856C20.9889 16.4855 21.11 16.4338 21.2048 16.3305Z" fill="white"/>
<path d="M26.4336 10.0007L24.2755 10L26.4213 10.0014C26.4253 10.0014 26.4293 10.0007 26.4336 10.0007Z" fill="#E02F41"/>
<path d="M24.2771 10.0021L20.441 10C20.4313 10 20.4213 10.0007 20.4113 10.0013L24.2771 10.0021Z" fill="#2E4F7D"/>
<path d="M16.9173 14.908H17.4021L17.3466 15.1905L17.4162 15.1099C17.5733 14.9417 17.7641 14.8584 17.9894 14.8584C18.1934 14.8584 18.3405 14.9176 18.4329 15.0368C18.5238 15.156 18.5486 15.3207 18.5055 15.5322L18.2385 16.8647H17.7403L17.9814 15.6569C18.0063 15.5322 17.9994 15.4392 17.9611 15.3792C17.9233 15.3193 17.8509 15.2897 17.7465 15.2897C17.6183 15.2897 17.5105 15.3296 17.4226 15.4089C17.3344 15.4888 17.2762 15.5998 17.2476 15.741L17.0254 16.8647H16.5262L16.9173 14.908ZM22.476 14.908H22.9612L22.9061 15.1905L22.9748 15.1099C23.1321 14.9417 23.3236 14.8584 23.5482 14.8584C23.7522 14.8584 23.8995 14.9176 23.9912 15.0368C24.0816 15.156 24.1077 15.3207 24.0636 15.5322L23.7976 16.8647H23.2988L23.54 15.6569C23.5648 15.5322 23.5578 15.4392 23.5199 15.3792C23.4806 15.3193 23.4096 15.2897 23.3057 15.2897C23.1774 15.2897 23.07 15.3296 22.9811 15.4089C22.8929 15.4888 22.8343 15.5998 22.8068 15.741L22.5835 16.8647H22.085L22.476 14.908ZM24.8739 13.6953H26.2823C26.553 13.6953 26.7625 13.7566 26.9065 13.8772C27.0497 13.9992 27.1215 14.1742 27.1215 14.4022V14.4091C27.1215 14.4525 27.1186 14.5014 27.1145 14.5545C27.1073 14.6083 27.0981 14.6619 27.087 14.715C27.0249 15.0168 26.8809 15.2594 26.6585 15.4433C26.4351 15.6265 26.1706 15.7189 25.8661 15.7189H25.1108L24.8773 16.8646H24.2234L24.8739 13.6953ZM25.2259 15.1678H25.8522C26.0155 15.1678 26.145 15.1298 26.2396 15.0548C26.3333 14.979 26.3953 14.8632 26.4296 14.7061C26.4351 14.6771 26.4386 14.6509 26.4427 14.6268C26.4448 14.6042 26.4475 14.5813 26.4475 14.5594C26.4475 14.447 26.4076 14.3657 26.3276 14.3147C26.2477 14.2629 26.1223 14.2382 25.9487 14.2382H25.4168L25.2259 15.1678ZM30.0484 17.243C29.8416 17.6826 29.6447 17.9388 29.529 18.058C29.4131 18.1759 29.1837 18.4501 28.6311 18.4294L28.6788 18.0939C29.1438 17.9506 29.3952 17.3049 29.5386 17.019L29.3677 14.9135L29.7274 14.9087H30.0291L30.0616 16.2295L30.6272 14.9087H31.1999L30.0484 17.243ZM28.4472 15.0678L28.2198 15.2242C27.9821 15.0382 27.7651 14.9231 27.3462 15.1174C26.7756 15.382 26.2988 17.4111 27.8698 16.7428L27.9594 16.8489L28.5774 16.8648L28.9833 15.021L28.4472 15.0678ZM28.0957 16.0758C27.9964 16.3687 27.7747 16.5622 27.601 16.5071C27.4274 16.4534 27.3653 16.1709 27.466 15.8773C27.5653 15.5838 27.7885 15.3909 27.9607 15.446C28.1343 15.4998 28.197 15.7823 28.0957 16.0758Z" fill="white"/>
<defs>
<filter id="filter0_d_1_26" x="0" y="0" width="44" height="34" filterUnits="userSpaceOnUse" color-interpolation-filters="sRGB">
<feFlood flood-opacity="0" result="BackgroundImageFix"/>
<feColorMatrix in="SourceAlpha" type="matrix" values="0 0 0 0 0 0 0 0 0 0 0 0 0 0 0 0 0 0 127 0" result="hardAlpha"/>
<feOffset/>
<feGaussianBlur stdDeviation="3"/>
<feComposite in2="hardAlpha" operator="out"/>
<feColorMatrix type="matrix" values="0 0 0 0 0.401815 0 0 0 0 0.569466 0 0 0 0 0.904769 0 0 0 0.12 0"/>
<feBlend mode="normal" in2="BackgroundImageFix" result="effect1_dropShadow_1_26"/>
<feBlend mode="normal" in="SourceGraphic" in2="effect1_dropShadow_1_26" result="shape"/>
</filter>
</defs>
</svg>
