<svg width="32" height="22" viewBox="6 6 32 22" fill="none" xmlns="http://www.w3.org/2000/svg">
    <rect x="6" y="6" width="32" height="22" rx="2" fill="white"/>
    <path fill-rule="evenodd" clip-rule="evenodd" d="M29.6246 19.8017L32.7379 16.9616L31.2632 14.0234L29.6246 19.8017Z"
          fill="#097939"/>
    <path fill-rule="evenodd" clip-rule="evenodd" d="M28.576 19.8017L31.6893 16.9616L30.2146 14.0234L28.576 19.8017Z"
          fill="#ED752E"/>
    <path fill-rule="evenodd" clip-rule="evenodd"
          d="M13.6975 14.0589L12.3867 18.7272L17.0402 18.7598L18.3184 14.0589H19.4981L17.9656 19.5239C17.9069 19.7326 17.6834 19.9022 17.4667 19.9022H11.5019C11.1402 19.9022 10.9258 19.6196 11.0237 19.2718L12.4853 14.0589H13.6975ZM28.0843 14.0263H29.264L27.6254 19.9022H26.4124L28.0843 14.0263ZM19.6294 16.4745L25.5283 16.4419L25.9217 15.2013H19.9242L20.2846 14.0587L26.6756 14C27.0734 13.9963 27.3104 14.3044 27.2056 14.6885L26.6035 16.8893C26.4985 17.2732 26.0904 17.5842 25.6926 17.5842H20.4159L19.7937 20H18.646L19.6294 16.4745Z"
          fill="#747474"/>
</svg>
