<svg width="32" height="22" viewBox="6 6 32 22" fill="none" xmlns="http://www.w3.org/2000/svg">
    <rect x="6" y="6" width="32" height="22" rx="2" fill="white"/>
    <path d="M19.9465 18.5907C19.8852 18.6216 19.8161 18.6396 19.7426 18.6396C19.5725 18.6396 19.4248 18.5461 19.3471 18.4076L19.3174 18.3426L18.0793 15.6258C18.0659 15.5963 18.0577 15.5629 18.0577 15.5303C18.0577 15.4051 18.1591 15.3036 18.2843 15.3036C18.3351 15.3036 18.3822 15.3205 18.42 15.3486L19.8809 16.3888C19.9877 16.4586 20.1152 16.4995 20.2523 16.4995C20.3341 16.4995 20.4121 16.4843 20.4849 16.458L27.3554 13.4C26.1238 11.9485 24.0957 11 21.8004 11C18.0445 11 15 13.5372 15 16.6672C15 18.3747 15.916 19.9118 17.3497 20.9508C17.4647 21.0329 17.54 21.1679 17.54 21.3201C17.54 21.3704 17.5293 21.4165 17.5161 21.4644C17.4016 21.8916 17.2183 22.5757 17.2097 22.6077C17.1954 22.6613 17.1732 22.7172 17.1732 22.7734C17.1732 22.8986 17.2746 23 17.4 23C17.4491 23 17.4893 22.9818 17.5308 22.9579L19.0196 22.0983C19.1317 22.0337 19.2501 21.9936 19.3809 21.9936C19.4503 21.9936 19.5174 22.0043 19.5806 22.0237C20.2751 22.2234 21.0245 22.3345 21.8004 22.3345C25.5562 22.3345 28.6011 19.797 28.6011 16.6672C28.6011 15.7191 28.3201 14.8264 27.8263 14.041L19.9961 18.562L19.9465 18.5907Z"
          fill="#40B93C" transform="scale(1.25) translate(-4, -3.5)"/>
</svg>
