<svg width="32" height="22" viewBox="0 0 96 64" fill="none" xmlns="http://www.w3.org/2000/svg">
    <rect width="96" height="64" rx="6" fill="#990D81"/>
    <path transform="translate(12.8, 13)" fill-rule="evenodd" clip-rule="evenodd" d="M38.8269 22.721L38.8269 22.7209L38.8397 22.6928L38.8489 22.673L48.3244 2.0794L48.3879 1.94237C48.4445 1.82032 48.5011 1.69833 48.5566 1.57561C48.5834 1.51775 48.6102 1.46694 48.6878 1.46765H49.236C49.2204 1.50555 49.2069 1.53992 49.1943 1.5719C49.1718 1.62922 49.1523 1.67885 49.1288 1.72731C45.7504 9.09283 42.3722 16.4581 38.9943 23.8232C38.9535 23.9119 38.9124 24.0006 38.8712 24.0893L38.871 24.0897L38.8708 24.0902C38.776 24.2946 38.6811 24.4992 38.5907 24.7052C38.4763 24.9662 38.4933 25.2203 38.6824 25.4418C38.7646 25.5452 38.8749 25.6228 39 25.6653C39.1251 25.7079 39.2598 25.7136 39.388 25.6817C39.6702 25.6246 39.8113 25.4291 39.9214 25.1878C43.2928 17.851 46.663 10.5156 50.032 3.18155C50.1327 2.96241 50.2326 2.74307 50.3325 2.52374L50.3326 2.52352L50.3327 2.5233L50.3328 2.523L50.333 2.5227L50.3331 2.5224L50.3333 2.52203L50.3335 2.52158C50.5523 2.04104 50.7712 1.56055 50.9986 1.08239C51.1807 0.695721 51.0332 0.151704 50.5252 0.0465699V0H47.9808C47.9832 0.00716953 47.9841 0.0147865 47.9834 0.0223342C47.9827 0.029882 47.9803 0.037184 47.9765 0.0437469C47.7 0.104428 47.5532 0.29988 47.4396 0.537667L46.3106 2.99527C43.635 8.83482 40.9565 14.673 38.2753 20.5097C38.2499 20.5655 38.2236 20.6207 38.1954 20.6801L38.1511 20.7736C38.0834 20.7285 38.0584 20.6644 38.0343 20.6024C38.0207 20.5674 38.0073 20.5331 37.9867 20.5033C37.7905 20.2211 37.8385 19.9607 37.9803 19.6524C40.7406 13.6487 43.4925 7.64141 46.2358 1.63064C46.2806 1.53238 46.3261 1.43432 46.3714 1.33654L46.3722 1.33483C46.4139 1.245 46.4554 1.15542 46.4962 1.06616C46.698 0.6174 46.4828 0.168638 46.0065 0.0395134C46.0042 0.0260472 45.9989 0.0132704 45.991 0.00211671H43.4967C43.5005 0.0166479 43.4985 0.0321119 43.491 0.0451584C43.2159 0.100901 43.0529 0.282946 42.9414 0.526378C42.5114 1.46483 42.0808 2.4028 41.6494 3.34031L35.9799 15.6883C35.9538 15.7441 35.927 15.7991 35.8917 15.8711C35.8217 15.7967 35.7845 15.7096 35.7483 15.6248L35.7483 15.6248L35.7483 15.6248C35.7255 15.5713 35.703 15.5188 35.673 15.471C35.5276 15.241 35.5509 15.0356 35.6659 14.7866C37.7423 10.29 39.8121 5.79062 41.8752 1.28843C41.9634 1.0965 42.0298 0.905285 41.9811 0.687255C41.9538 0.546463 41.8831 0.417742 41.779 0.31916C41.6748 0.220578 41.5424 0.157085 41.4004 0.137592C41.3161 0.127581 41.2312 0.123573 41.1463 0.125597C40.9565 0.125597 40.7666 0.126628 40.5767 0.127658C40.1189 0.130144 39.6612 0.132628 39.2038 0.120658C38.7847 0.109368 38.5257 0.28859 38.3571 0.661147C37.2206 3.14674 36.0797 5.63116 34.9342 8.1144L33.7192 10.7604C33.7015 10.7998 33.6816 10.8381 33.6577 10.884L33.6575 10.8842L33.6575 10.8843C33.6434 10.9115 33.6278 10.9413 33.6105 10.9756C33.5767 10.9017 33.5442 10.83 33.5124 10.7599L33.5122 10.7595C33.4378 10.5956 33.3673 10.4404 33.2937 10.2848C33.2631 10.2175 33.2939 10.1643 33.3232 10.1136L33.3232 10.1135L33.3233 10.1134C33.3311 10.0999 33.3388 10.0865 33.3452 10.0731C33.6797 9.3365 34.0158 8.60079 34.3535 7.86603C35.3734 5.63916 36.393 3.41205 37.4123 1.1847C37.5534 0.878471 37.5118 0.574358 37.3015 0.347155C37.2437 0.27944 37.172 0.224888 37.0913 0.187161C37.0106 0.149434 36.9228 0.129406 36.8337 0.12842C36.5792 0.12842 36.3247 0.127714 36.0703 0.127009C35.5613 0.125597 35.0523 0.124186 34.5433 0.12842C34.2152 0.12842 34.0028 0.322459 33.8702 0.61105L33.1081 2.26992C32.5592 3.46661 32.0095 4.66213 31.4592 5.85648C31.4533 5.86931 31.4482 5.88272 31.443 5.89629C31.4237 5.94691 31.4034 5.99995 31.3427 6.035L30.7719 4.79808C30.6165 4.45963 30.4607 4.12127 30.305 3.78289L30.3045 3.78186C29.8389 2.77033 29.3732 1.7586 28.9155 0.743702C28.7744 0.425476 28.6078 0.146059 28.2741 0.00211671H27.9502C27.9141 0.0490749 27.863 0.0719197 27.812 0.0947555C27.7801 0.108978 27.7483 0.123197 27.7202 0.143237C27.481 0.315403 27.361 0.54049 27.397 0.838253C27.4183 0.943975 27.4557 1.04582 27.5078 1.14025C28.4956 3.2975 29.4835 5.45405 30.4713 7.6099C30.5043 7.66924 30.5223 7.73578 30.5237 7.80368C30.525 7.87158 30.5097 7.93877 30.4791 7.99939C29.2791 10.6002 28.0829 13.2022 26.8904 15.8054C26.8723 15.8639 26.8401 15.917 26.7966 15.96C26.7381 15.8831 26.6923 15.7973 26.6611 15.7059C24.3622 10.7018 22.0636 5.69725 19.7653 0.692193C19.7296 0.607067 19.6871 0.524952 19.6382 0.446645C19.4266 0.130536 19.0427 0.0232845 18.7273 0.192629C18.3604 0.387374 18.2235 0.757109 18.3823 1.13108C18.3982 1.16823 18.4151 1.20468 18.4319 1.24111C18.4442 1.26762 18.4565 1.29413 18.4684 1.32088L26.0521 17.8743C26.0821 17.9465 26.1158 18.0172 26.153 18.0859C26.4402 18.5799 27.0844 18.5926 27.3914 18.1149C27.446 18.022 27.4943 17.9256 27.536 17.8263L31.2298 9.80784C31.2583 9.72464 31.3003 9.64669 31.354 9.57711C31.4158 9.66558 31.458 9.76261 31.4999 9.85919L31.4999 9.8592C31.5313 9.93131 31.5625 10.0032 31.6017 10.071C31.6765 10.1994 31.6588 10.3102 31.5982 10.4394C31.2778 11.1231 30.9631 11.8103 30.6512 12.4962L27.2644 19.8669C27.2154 19.9633 27.1897 20.0698 27.189 20.178C27.1884 20.2861 27.213 20.3929 27.2608 20.4899C27.3208 20.6155 27.378 20.7418 27.4351 20.8681L27.6405 21.3221L27.6406 21.3226L27.6408 21.323L27.641 21.3234L27.6412 21.3238L27.6414 21.3242L27.6416 21.3247L27.6418 21.3251C27.8745 21.8394 28.1072 22.3537 28.3369 22.8692C28.4371 23.0936 28.5881 23.2552 28.8308 23.3173C29.221 23.4167 29.5442 23.2629 29.7206 22.8847C29.9863 22.3128 30.2495 21.7402 30.5127 21.1674L30.5129 21.167L30.513 21.1667L30.5132 21.1664L30.5133 21.1661L30.5135 21.1657L30.5136 21.1654L30.5138 21.1651L30.8135 20.5132C31.7073 18.5676 32.6025 16.6225 33.499 14.6779C33.5054 14.6641 33.5108 14.6495 33.5163 14.6348L33.5164 14.6347C33.5359 14.5824 33.5563 14.5278 33.6218 14.4958C33.6457 14.5478 33.6681 14.5993 33.6901 14.6501C33.7379 14.7598 33.7841 14.8661 33.8406 14.9665C33.9231 15.1132 33.9069 15.2297 33.8406 15.3757C32.4223 18.4601 31.0059 21.5464 29.5914 24.6346L29.5774 24.6648L29.5668 24.6875C29.5389 24.7467 29.511 24.806 29.4898 24.8675C29.4552 24.9601 29.4408 25.0591 29.4477 25.1578C29.4545 25.2564 29.4825 25.3525 29.5296 25.4394C29.5768 25.5264 29.642 25.6022 29.721 25.6617C29.7999 25.7213 29.8907 25.7633 29.9873 25.7847C30.3295 25.8729 30.6491 25.7142 30.8128 25.3614C31.1891 24.5499 31.5622 23.738 31.9319 22.9256C32.82 20.9942 33.7086 19.063 34.5977 17.132C34.605 17.116 34.6112 17.0991 34.6174 17.0818L34.6175 17.0818L34.6175 17.0818L34.6175 17.0817C34.6389 17.0227 34.6614 16.961 34.7346 16.9288L34.7559 16.9743C34.8037 17.0766 34.8491 17.1738 34.894 17.271C34.9266 17.3415 34.9585 17.4124 34.9904 17.4834C35.0629 17.6445 35.1354 17.8057 35.2158 17.9625C35.2724 18.082 35.3615 18.1833 35.4729 18.2547C35.5843 18.326 35.7136 18.3646 35.8459 18.3661C36.1359 18.3766 36.3398 18.2249 36.488 17.9843C36.5294 17.9104 36.5669 17.8344 36.6002 17.7564L43.539 2.68128C43.7032 2.32425 43.8678 1.96745 44.0329 1.61089L44.0427 1.58895C44.0708 1.52535 44.0978 1.46407 44.1889 1.46976C44.2505 1.47261 44.3124 1.47137 44.3744 1.47013C44.4814 1.46798 44.5891 1.46583 44.6976 1.48458C44.703 1.57751 44.6634 1.65162 44.6252 1.72312C44.6132 1.74554 44.6014 1.7677 44.5911 1.79011C42.3962 6.57972 40.1999 11.3684 38.0022 16.1561C37.4495 17.3603 36.8965 18.5643 36.3433 19.7681C36.2976 19.8533 36.2714 19.9476 36.2668 20.0441C36.2621 20.1407 36.2791 20.2371 36.3165 20.3262C36.6928 21.1631 37.0706 21.9983 37.4497 22.8318C37.5788 23.114 37.8145 23.2375 38.1193 23.2396C38.2548 23.244 38.3886 23.2084 38.5041 23.1374C38.6197 23.0664 38.7118 22.9631 38.7692 22.8403C38.7903 22.8016 38.8085 22.7615 38.8267 22.7215L38.8267 22.7214L38.8267 22.7213L38.8268 22.7212L38.8268 22.7211L38.8269 22.721ZM32.2212 7.64306C32.5152 6.99955 32.8111 6.35628 33.1089 5.71324L33.4958 4.87469C33.9735 3.83996 34.4511 2.80528 34.9222 1.76753C34.9928 1.60806 35.0803 1.54456 35.2503 1.56432C35.3871 1.57157 35.5242 1.57157 35.661 1.56432L32.4759 8.50742C32.4359 8.4207 32.3988 8.33989 32.3635 8.26305L32.3633 8.26257L32.3632 8.26255C32.2967 8.11764 32.2366 7.98679 32.1753 7.85686C32.1448 7.79126 32.1738 7.73792 32.2023 7.68547C32.2099 7.67134 32.2176 7.65728 32.224 7.64306H32.2212ZM32.7342 12.8984C32.3108 13.8227 31.8875 14.7461 31.4641 15.6686C30.711 17.3121 29.9574 18.9571 29.2034 20.6035C29.1782 20.6587 29.1524 20.7133 29.1237 20.7744C29.1057 20.8124 29.0866 20.853 29.0658 20.8978C29.0504 20.8816 29.0363 20.8644 29.0234 20.8462C28.9937 20.7804 28.9587 20.7151 28.9237 20.6499C28.8431 20.4998 28.7626 20.3497 28.7468 20.1929C28.7318 20.043 28.8148 19.8999 28.8973 19.7575C28.9314 19.6987 28.9654 19.6401 28.9924 19.5811C30.1091 17.1355 31.2277 14.6918 32.3482 12.2499C32.377 12.1601 32.4252 12.0778 32.4893 12.0086C32.5228 12.0818 32.5563 12.154 32.5895 12.2255L32.59 12.2266L32.5902 12.227C32.6616 12.3809 32.7316 12.5317 32.797 12.6832C32.824 12.7485 32.7917 12.8035 32.76 12.8575C32.7519 12.8711 32.744 12.8847 32.737 12.8984H32.7342ZM34.7324 13.4233C34.6989 13.3507 34.6675 13.2824 34.6375 13.217L34.6372 13.2164L34.6367 13.2154L34.6365 13.2149L34.6364 13.2148C34.566 13.0613 34.5031 12.9245 34.4375 12.7883C34.396 12.7024 34.4307 12.6338 34.465 12.566C34.4716 12.5531 34.4781 12.5402 34.4841 12.5272C34.8467 11.7355 35.2108 10.9448 35.5763 10.155C36.8577 7.37023 38.1388 4.58522 39.4197 1.79999C39.4299 1.77805 39.4407 1.75626 39.4515 1.73435L39.4516 1.73411L39.4517 1.73389C39.4648 1.70733 39.478 1.68059 39.4903 1.65322C39.5003 1.6247 39.5198 1.60043 39.5454 1.58441C39.5711 1.56838 39.6014 1.56155 39.6314 1.56502H40.1712L34.7324 13.4233ZM11.0807 31.9102L9.14881 37.1768L8.53988 38.7926C8.53212 38.8145 7.31778 38.859 7.31778 38.859C7.31323 38.829 7.30615 38.7995 7.29661 38.7708C6.73401 37.3793 6.17047 35.9881 5.60599 34.5971C5.60325 34.5903 5.60077 34.5833 5.59828 34.5763C5.58607 34.5417 5.57376 34.5069 5.52979 34.4969C5.52123 34.5101 5.51346 34.5238 5.5065 34.5379L3.75591 38.859H2.55639C2.56844 38.7919 2.54235 38.7341 2.51657 38.6771C2.50763 38.6573 2.49874 38.6376 2.49147 38.6176C2.17207 37.7568 1.85244 36.8981 1.53256 36.0415C1.0965 34.8655 0.660207 33.6909 0.223676 32.5177L0.218031 32.5022L0.0317526 32.0062L0 31.9201C0.510855 31.9201 1.02312 31.9201 1.53398 31.9074C1.66874 31.9074 1.69979 31.9779 1.73719 32.0781C2.08717 32.9987 2.43879 33.9191 2.79206 34.8392C2.90285 35.1256 3.01315 35.412 3.13406 35.7259L3.20695 35.9152C3.22379 35.8771 3.23824 35.8451 3.251 35.8168C3.27087 35.7728 3.28662 35.7379 3.3008 35.7035C3.78672 34.5101 4.27288 33.3181 4.75927 32.1275C4.77184 32.0969 4.78207 32.0706 4.79085 32.048L4.79086 32.0479C4.8175 31.9794 4.83084 31.945 4.85592 31.9279C4.88109 31.9108 4.91809 31.9109 4.9922 31.9113C5.01944 31.9114 5.05168 31.9116 5.0902 31.9109H6.15354C6.35746 31.9109 6.35816 31.9109 6.43578 32.1028C6.90006 33.2925 7.36411 34.4826 7.82793 35.6732C7.84778 35.7254 7.87035 35.7777 7.89935 35.8448L7.93236 35.9215C7.94739 35.8862 7.96105 35.856 7.97329 35.8289L7.9733 35.8289C7.99379 35.7835 8.01031 35.747 8.02267 35.7099L9.44657 32.1261C9.53195 31.9102 9.53266 31.9102 9.75421 31.9102H11.0807ZM27.1812 32.0435V36.3187L27.1826 38.6021C27.1924 38.6863 27.1869 38.7716 27.1664 38.854H25.5929L25.5924 38.8352L25.5903 38.7693L25.5903 38.7692C25.5884 38.7128 25.5865 38.6563 25.5865 38.5999V34.8603V34.6726C25.515 34.7236 25.4596 34.7941 25.427 34.8758C24.8132 35.9064 24.2005 36.9392 23.589 37.9741L23.1296 38.7502L23.1295 38.7505C23.1006 38.7991 23.0731 38.8454 23.0061 38.8053C22.9939 38.7693 22.9793 38.7342 22.9624 38.7001C22.2408 37.4112 21.5187 36.1226 20.7962 34.8342L20.7915 34.8252L20.7868 34.8155C20.7707 34.782 20.7532 34.7456 20.6904 34.7325V38.8568H19.2086L19.2066 38.732L19.2065 38.7315C19.2048 38.6269 19.203 38.5222 19.203 38.4179V32.1084L19.2027 32.0539L19.2026 32.0362C19.2017 31.931 19.2012 31.8798 19.2266 31.8553C19.2506 31.832 19.2979 31.8327 19.3898 31.8339C19.4139 31.8343 19.4411 31.8346 19.4718 31.8346C19.6651 31.8326 19.8583 31.8334 20.0516 31.8341H20.0518C20.3206 31.8352 20.5895 31.8363 20.8583 31.8297C20.9218 31.8224 20.9859 31.8361 21.0408 31.8688C21.0957 31.9014 21.1384 31.9511 21.1624 32.0103C21.7883 33.1513 22.4191 34.2873 23.0541 35.4247C23.0794 35.4735 23.1065 35.5185 23.1358 35.5674L23.1359 35.5675C23.1491 35.5894 23.1627 35.6122 23.1769 35.6364C23.246 35.5977 23.2762 35.5388 23.3059 35.4808C23.3135 35.4659 23.3211 35.4511 23.3293 35.4367L23.6626 34.8681L23.6628 34.8678L23.663 34.8675L23.6631 34.8672L23.6633 34.8669L23.6635 34.8666L23.6636 34.8663C24.2103 33.9341 24.757 33.0017 25.2944 32.064C25.3974 31.884 25.5096 31.8234 25.7107 31.8311C26.0142 31.8428 26.3178 31.8406 26.6213 31.8385C26.7412 31.8376 26.861 31.8368 26.9808 31.8368C27.1812 31.8375 27.1812 31.8389 27.1812 32.0435ZM17.9131 37.4677H13.6365C13.4192 37.4677 13.4178 37.4677 13.4171 37.2609V36.151C13.4171 35.9506 13.4171 35.9499 13.6182 35.9478H13.7332H16.4384C16.6163 35.9478 16.6191 35.9478 16.6198 35.7735V34.7793C16.6198 34.6727 16.6198 34.6231 16.5951 34.6002C16.5737 34.5803 16.5338 34.5803 16.4592 34.5804L16.413 34.5804C16.054 34.578 15.6947 34.5788 15.3355 34.5796H15.3343H15.3342H15.3341H15.3341H15.334H15.3339C15.1543 34.58 14.9746 34.5804 14.7951 34.5804H13.5956C13.4234 34.5804 13.4206 34.5761 13.4192 34.399V33.474C13.4192 33.3145 13.4234 33.311 13.5885 33.311H15.1606H17.9124C18.0881 33.311 18.0903 33.311 18.0917 33.1325V32.1616C18.0917 32.1356 18.092 32.1123 18.0923 32.0915C18.0934 32.0083 18.0939 31.9641 18.0722 31.9406C18.0475 31.9141 17.9942 31.9143 17.8805 31.9145L17.8412 31.9146H12.1082C12.0717 31.9146 12.0396 31.9142 12.0113 31.9138C11.9051 31.9124 11.8535 31.9117 11.8289 31.9371C11.8057 31.9612 11.8066 32.0086 11.8084 32.1007C11.809 32.1302 11.8097 32.1644 11.8097 32.2039V38.8619H18.194C18.194 38.6771 18.1961 38.4922 18.1982 38.3073C18.2003 38.1225 18.2024 37.9376 18.2024 37.7527C18.202 37.7216 18.202 37.6938 18.2019 37.6691V37.669V37.669V37.6689C18.2017 37.5648 18.2016 37.5142 18.1762 37.4897C18.1522 37.4665 18.1053 37.4668 18.0139 37.4676H18.0137C17.9848 37.4678 17.9515 37.4681 17.9131 37.4677ZM69.3534 31.8737C68.2875 32.7712 67.2211 33.668 66.1542 34.5641C65.9772 34.7126 65.9773 34.7127 66.0681 34.8177C66.0829 34.8349 66.1003 34.8549 66.1196 34.8788C67.1174 36.1141 68.1144 37.3494 69.1107 38.5846C69.1671 38.6373 69.2118 38.7012 69.2419 38.7723C69.2167 38.8194 69.1761 38.8137 69.137 38.8082C69.1246 38.8065 69.1124 38.8048 69.1008 38.8048C68.8582 38.807 68.6155 38.8066 68.3727 38.8063C68.0759 38.8059 67.779 38.8054 67.4821 38.8097C67.4258 38.8127 67.3697 38.8013 67.3189 38.7766C67.2682 38.7519 67.2246 38.7147 67.1921 38.6686C66.4447 37.757 65.6967 36.8456 64.9483 35.9344L64.9296 35.9112L64.9095 35.8868C64.893 35.8668 64.8767 35.8471 64.8608 35.8264C64.8547 35.8145 64.8459 35.8041 64.835 35.7962C64.8242 35.7883 64.8116 35.783 64.7983 35.7809C64.785 35.7788 64.7715 35.7798 64.7587 35.7839C64.7459 35.788 64.7342 35.7951 64.7247 35.8046C64.4669 36.0002 64.2082 36.1943 63.9485 36.3867C63.8838 36.4347 63.8865 36.5018 63.889 36.5638L63.8896 36.5788L63.8898 36.5858L63.8899 36.5984V38.5176C63.887 38.5646 63.887 38.6117 63.8899 38.6587C63.9048 38.785 63.8427 38.8132 63.7276 38.8132C63.2958 38.8076 62.8647 38.8069 62.4329 38.8132C62.3101 38.8147 62.272 38.7702 62.2762 38.6524C62.2795 38.5296 62.2784 38.4062 62.2773 38.2828C62.2768 38.2211 62.2762 38.1594 62.2762 38.0978V32.1552V32.0141C62.2805 31.837 62.2805 31.837 62.4583 31.837H63.7065C63.8829 31.8377 63.8864 31.8405 63.8864 32.0162V34.2593V34.4463C63.9649 34.4647 64.0077 34.4216 64.0482 34.3808C64.0605 34.3684 64.0726 34.3563 64.0854 34.3461C65.0601 33.5666 66.0312 32.7825 66.9988 31.9936C67.126 31.8836 67.2901 31.8258 67.4582 31.832C67.8487 31.8364 68.2381 31.8337 68.6286 31.8311C68.8696 31.8294 69.1111 31.8278 69.3534 31.8278V31.8737ZM35.1149 37.9797C34.1906 36.0336 33.2683 34.0871 32.3482 32.1401C32.2622 31.9566 32.1641 31.8931 31.9672 31.9058C31.6904 31.9228 31.4128 31.9228 31.136 31.9058C30.9497 31.8953 30.8538 31.9552 30.7733 32.1309C30.2131 33.3553 29.6461 34.5765 29.0789 35.7982L29.0787 35.7985C28.8909 36.203 28.703 36.6076 28.5154 37.0123C28.2332 37.6261 27.9509 38.2428 27.6722 38.8581H29.1984C29.2607 38.7322 29.3231 38.6064 29.3855 38.4806C29.5797 38.0892 29.7736 37.6983 29.9626 37.3058C30.0169 37.1936 30.0924 37.1746 30.2018 37.1753H32.1909H32.8386C32.8764 37.1709 32.9146 37.179 32.9473 37.1984C32.9801 37.2178 33.0056 37.2473 33.02 37.2825C33.1741 37.5957 33.3302 37.9077 33.4863 38.2199C33.5817 38.4106 33.6771 38.6014 33.7721 38.7925C33.7783 38.8155 33.7805 38.8394 33.7785 38.8631H35.4903C35.5162 38.809 35.4925 38.7694 35.4688 38.7301L35.4603 38.7157C35.4561 38.7085 35.4521 38.7012 35.4487 38.6937C35.34 38.4552 35.2271 38.216 35.1149 37.9797ZM30.5701 35.9334L31.5163 34.0805C31.6997 34.4453 31.8748 34.7943 32.0485 35.1406C32.1815 35.4059 32.3138 35.6696 32.4484 35.9376L30.5701 35.9334ZM44.5231 35.2568C44.5495 35.2708 44.5758 35.2848 44.6003 35.3012C44.8268 35.4432 45.0143 35.6395 45.1458 35.8722C45.2774 36.1049 45.3489 36.3668 45.3539 36.6341C45.4118 37.8823 44.582 38.6365 43.4721 38.7643C43.1963 38.7951 42.919 38.8097 42.6416 38.808H38.7558H38.6634C38.5619 38.8069 38.5113 38.8064 38.486 38.7808C38.4609 38.7554 38.4609 38.7051 38.4609 38.6048V32.0364C38.4609 31.8367 38.4637 31.8367 38.6669 31.8367H42.83C43.1384 31.8312 43.4463 31.8627 43.7472 31.9305C44.7132 32.1676 45.2071 32.9099 45.1366 33.9111C45.1041 34.3952 44.8727 34.772 44.4804 35.0542C44.4612 35.0686 44.4423 35.0829 44.4236 35.0975L44.3886 35.1248C44.3869 35.1263 44.3856 35.1282 44.3844 35.1306C44.3833 35.1329 44.3823 35.1355 44.381 35.1387C44.3798 35.1418 44.3785 35.1454 44.3766 35.1495C44.4146 35.1993 44.4689 35.2281 44.5231 35.2568ZM40.2312 33.2465C40.0746 33.2465 40.0704 33.2521 40.0704 33.4208C40.0685 33.7138 40.0685 34.0062 40.0704 34.2978C40.0718 34.4756 40.0739 34.4799 40.2468 34.4799H41.5415C41.6573 34.4799 41.7729 34.4802 41.8886 34.4806C42.1198 34.4814 42.3509 34.4822 42.5823 34.4799C42.7751 34.487 42.968 34.4656 43.1545 34.4164C43.41 34.3373 43.5327 34.1659 43.537 33.8787C43.5412 33.5746 43.4255 33.3989 43.1609 33.3142C43.0131 33.2697 42.8594 33.248 42.7051 33.25C41.88 33.2476 41.0554 33.2465 40.2312 33.2465ZM42.5219 37.4055C42.8026 37.3962 43.0857 37.3868 43.3479 37.2656C43.6273 37.1371 43.7381 36.9001 43.724 36.6094C43.7098 36.3187 43.5772 36.1105 43.3006 36.0068C43.1267 35.9417 42.9429 35.9076 42.7573 35.9059C42.2493 35.8999 41.7412 35.8994 41.2332 35.8988C40.8945 35.8984 40.5558 35.898 40.2171 35.896C40.1071 35.8953 40.0711 35.932 40.0711 36.0421V37.2218C40.0718 37.4067 40.0746 37.4067 40.2686 37.4067H41.5387C41.6428 37.4067 41.7476 37.4076 41.8526 37.4086C42.0637 37.4104 42.276 37.4123 42.487 37.4067L42.5219 37.4055ZM60.3971 31.8354H60.3971C60.2763 31.8347 60.1554 31.834 60.0345 31.834C60.0148 31.834 59.9967 31.8338 59.98 31.8337C59.8851 31.8331 59.8369 31.8328 59.8125 31.8567C59.7873 31.8815 59.7876 31.9321 59.7881 32.0351C59.7882 32.0509 59.7882 32.0681 59.7882 32.0866V35.786C59.7882 35.8014 59.7893 35.8172 59.7904 35.8333C59.7946 35.8976 59.7992 35.9672 59.7388 36.0401C59.7193 36.0177 59.7008 35.9962 59.6828 35.9753L59.6828 35.9753C59.6407 35.9262 59.6019 35.881 59.5603 35.839C58.302 34.5566 57.0444 33.2743 55.7875 31.992C55.7409 31.9373 55.6822 31.8942 55.6161 31.8662C55.5499 31.8382 55.4782 31.8259 55.4065 31.8304C55.225 31.8373 55.0435 31.8358 54.862 31.8344C54.7429 31.8335 54.6238 31.8326 54.5047 31.834C54.4775 31.834 54.453 31.8337 54.431 31.8334C54.3374 31.8324 54.2889 31.8318 54.2638 31.8558C54.2367 31.8816 54.2369 31.9359 54.2372 32.0488C54.2372 32.0615 54.2373 32.0751 54.2373 32.0894V38.5407V38.6818C54.2323 38.7665 54.2648 38.8088 54.3558 38.8081H55.6047C55.6908 38.8081 55.7353 38.7792 55.7324 38.6896V38.504V34.7813C55.7218 34.6979 55.7278 34.6132 55.7501 34.5322C55.8095 34.538 55.841 34.575 55.8704 34.6095C55.8801 34.6208 55.8895 34.6319 55.8997 34.6416C56.076 34.8183 56.2515 34.9962 56.427 35.1742C56.5275 35.2761 56.628 35.3781 56.7288 35.4798C57.7787 36.5439 58.8286 37.6086 59.8786 38.6741C59.9182 38.7198 59.9679 38.7558 60.0237 38.7793C60.0794 38.8027 60.1399 38.8131 60.2003 38.8095C60.3884 38.8034 60.5794 38.8055 60.7702 38.8075H60.7704C60.8658 38.8085 60.9612 38.8095 61.0562 38.8095C61.1684 38.8095 61.2247 38.8095 61.2531 38.7814C61.2818 38.7531 61.2823 38.6963 61.2834 38.5823V32.1289C61.2834 32.1135 61.283 32.0981 61.2826 32.0826V32.0825C61.2818 32.0512 61.281 32.0198 61.2834 31.9878C61.2947 31.8693 61.2411 31.8319 61.1218 31.834C60.8801 31.8382 60.6387 31.8368 60.3971 31.8354ZM50.298 32.0117C50.8973 33.2775 51.4975 34.5434 52.0987 35.8092L53.4189 38.5865C53.4599 38.6546 53.4841 38.7315 53.4894 38.8108C53.3077 38.8108 53.128 38.8103 52.9495 38.8097C52.5966 38.8086 52.2489 38.8076 51.9011 38.8108C51.7982 38.8115 51.768 38.7488 51.7351 38.6804C51.7319 38.6738 51.7287 38.6672 51.7254 38.6605C51.6646 38.5396 51.6034 38.4188 51.5421 38.298C51.3736 37.9658 51.205 37.6335 51.0466 37.2966C50.9768 37.147 50.8921 37.1019 50.7312 37.1019C49.8916 37.1096 49.0519 37.1082 48.2122 37.1019C48.1527 37.0943 48.0924 37.1072 48.0412 37.1383C47.9899 37.1695 47.9507 37.2171 47.93 37.2733C47.7716 37.6062 47.6068 37.9326 47.4419 38.2593C47.3747 38.3924 47.3074 38.5255 47.2406 38.6591C47.2384 38.6639 47.2362 38.6687 47.234 38.6735C47.2022 38.7428 47.1712 38.8101 47.0649 38.8101H45.6883C45.6631 38.7339 45.6913 38.6831 45.7177 38.6354C45.7246 38.623 45.7313 38.6108 45.737 38.5985C46.7545 36.4064 47.7689 34.2129 48.7802 32.018C48.8452 31.8769 48.9207 31.8261 49.0752 31.8325C49.3871 31.8452 49.7067 31.8437 50.0221 31.8325C50.1689 31.8268 50.238 31.884 50.298 32.0117ZM49.5141 34.0452C49.3024 34.3465 48.6144 35.7245 48.5968 35.8798H50.4363L49.5141 34.0452Z" fill="white"/>
</svg>
