<svg width="32" height="22" viewBox="6 6 32 22" fill="none" xmlns="http://www.w3.org/2000/svg">
    <rect x="6" y="6" width="32" height="22" rx="2" fill="white"/>
    <path d="M17.3175 15.0469L18.1715 22.0001H26.5264L25.6725 15.0469H17.3175Z" fill="#AA8FFF"/>
    <path d="M19.701 12.3926C20.2343 12.894 20.3076 13.6826 19.8646 14.1538C19.4216 14.6251 18.6301 14.6007 18.0967 14.0993C17.5634 13.5979 17.4901 12.8094 17.9331 12.3381C18.3761 11.8668 19.1676 11.8912 19.701 12.3926Z"
          fill="#1A0826"/>
    <path fill-rule="evenodd" clip-rule="evenodd"
          d="M35.2905 17.5502C35.0979 15.9872 33.8701 15.0401 32.2015 15.0469H26.6445L27.4977 21.9998H29.9977L29.8266 20.6094H32.4722C34.5551 20.6094 35.5079 19.3116 35.2905 17.5502ZM32.2026 18.6603L29.5888 18.6632L29.384 16.9945L32.0125 16.9967C32.6309 17.0038 32.947 17.3519 32.9979 17.8285C33.0294 18.1347 32.8891 18.66 32.2026 18.66V18.6603Z"
          fill="#1A0826"/>
    <path d="M8.61516 20.0572L8.85365 22.0001H17.2021L16.9289 19.775H13.0364L13.0024 19.4993L16.5877 16.9938L16.3482 15.0469H8L8.27319 17.272H12.1721L12.2065 17.5502L8.61516 20.0572Z"
          fill="#1A0826"/>
</svg>
