<svg width="163" height="134" viewBox="0 0 163 134" fill="none" xmlns="http://www.w3.org/2000/svg">
  <path
    d="M158.71 33.5076L147.698 39.8601C143.462 42.3037 140.267 46.2141 138.718 50.8525L134.764 62.7037C132.71 68.8617 128.463 74.0493 122.832 77.2789L113.887 82.3609L78.6995 61.8957L87.8064 56.6206C93.3151 53.4239 97.4867 48.3484 99.556 42.3249L103.728 30.1586C105.293 25.6223 108.437 21.8001 112.586 19.3898L123.218 13.2L158.71 33.5076Z"
    fill="#00112C"/>
  <path fill-rule="evenodd" clip-rule="evenodd"
        d="M120.265 17.0115L151.906 35.2407L153.471 34.3361L121.83 16.1069L120.265 17.0115ZM120.768 20.9246L148.841 37.0447L150.411 36.1402L122.333 20.02L120.768 20.9246ZM145.772 38.8895L123.711 26.2811L125.281 25.3765L147.337 37.9849L145.772 38.8895ZM87.908 59.8425L105.217 69.6914L106.788 68.7817L89.4783 58.9379L87.908 59.8425ZM112.601 31.6273L138.352 46.2787L138.395 46.2023C138.639 45.7715 138.878 45.3501 139.175 44.9422L113.419 30.2552C113.12 30.7177 112.85 31.1649 112.601 31.6273ZM108.759 24.9801C109.1 24.5634 109.456 24.167 109.827 23.7808L111.316 24.6955C110.933 25.0784 110.572 25.4748 110.233 25.8847L108.759 24.9801ZM106.803 28.2681L108.226 29.1422C108.48 28.6848 108.734 28.2376 109.044 27.8056L107.601 26.9214C107.321 27.3584 107.052 27.8056 106.803 28.2681ZM134.937 54.72L109.466 40.1092L109.984 38.5948L135.445 53.2004L134.937 54.72ZM108.292 43.7784L133.763 58.3891L134.271 56.8696L108.81 42.269L108.292 43.7784ZM132.477 61.8448L107.006 47.2341L107.525 45.7197L132.98 60.3253L132.477 61.8448ZM103.982 36.9024L105.497 37.8426L106 36.323L104.501 35.388L103.982 36.9024ZM104.323 41.5118L102.808 40.5717L103.327 39.0623L104.826 39.9923L104.323 41.5118ZM101.523 44.0274L103.032 44.9676L103.54 43.4481L102.041 42.513L101.523 44.0274ZM114.563 28.3342C114.898 27.9226 115.259 27.5262 115.63 27.14L141.431 41.8524C141.05 42.2335 140.694 42.6299 140.349 43.0365L114.563 28.3342Z"
        fill="white"/>
  <path
    d="M7.28679 82.0136C7.8838 82.8421 8.66038 83.5248 9.55845 84.0108L73.8203 121.109C77.2964 123.117 82.5563 123.335 85.5699 121.592L113.709 105.33C114.979 104.598 115.64 103.632 115.742 102.606C115.908 101.398 115.85 100.169 115.569 98.9824L113.699 99.0891C113.438 98.891 113.164 98.7094 112.881 98.5454L48.6136 61.4468C45.1375 59.414 39.8777 59.2208 36.8691 60.9386L8.725 77.201L6.58548 77.0892C6.36021 77.8712 6.29675 78.6909 6.39899 79.4983C6.50122 80.3057 6.76699 81.0837 7.18007 81.7849C7.17911 81.7968 7.17911 81.8087 7.18007 81.8205L7.28171 81.973L7.28679 82.0136Z"
    fill="#00112C"/>
  <path
    d="M80.4574 123.076C78.0809 123.097 75.7379 122.515 73.6476 121.384L9.38567 84.2853C8.4463 83.7802 7.63593 83.0655 7.01746 82.1966L6.9768 82.1407L6.89549 82.0136C6.4486 81.2679 6.161 80.4376 6.05079 79.5752C5.94059 78.7128 6.01017 77.837 6.25516 77.0028L6.33647 76.769L8.62337 76.891L36.6811 60.6896C39.776 58.9058 45.1884 59.1243 48.7508 61.1978L113.018 98.2964C113.262 98.4386 113.501 98.5962 113.765 98.8046L115.798 98.6927L115.864 98.9519C116.156 100.185 116.214 101.463 116.037 102.718V102.743C115.92 103.902 115.168 104.913 113.861 105.665L85.7224 121.928C84.0936 122.752 82.2815 123.147 80.4574 123.076ZM7.55107 81.8205C8.11626 82.6076 8.85311 83.2558 9.70584 83.7161L73.9677 120.815C77.3523 122.761 82.475 122.98 85.3921 121.297L113.531 105.035C114.664 104.38 115.305 103.51 115.386 102.565L115.422 102.382C115.545 101.357 115.498 100.318 115.284 99.3077L113.917 99.3839L113.851 99.6075L113.475 99.3433C113.224 99.1565 112.961 98.9867 112.687 98.8351L48.4256 61.7568C45.0461 59.8053 39.9183 59.5868 37.0063 61.2486L8.78091 77.5567L6.80402 77.4551C6.4719 78.8802 6.69736 80.3784 7.43418 81.6426C7.46005 81.6885 7.48891 81.7327 7.52058 81.7748L7.28172 82.0086L7.55107 81.8205Z"
    fill="#00112C"/>
  <path
    d="M8.58268 74.4059L36.7217 58.1435C39.7353 56.4054 44.9952 56.6189 48.4713 58.6517L112.733 95.7503C116.214 97.7831 116.59 100.792 113.582 102.53L85.4378 118.792C82.4292 120.53 77.1694 120.317 73.6933 118.309L9.42629 81.2107C5.9502 79.1779 5.57413 76.1439 8.58268 74.4059Z"
    fill="white"/>
  <path
    d="M80.3356 120.256C77.9599 120.278 75.6177 119.694 73.5308 118.558L9.2638 81.4597C7.33264 80.3417 6.2146 78.8425 6.2146 77.3382C6.2146 76.0779 6.99215 74.9293 8.41002 74.1111L36.5491 57.8487C39.644 56.0599 45.0614 56.2784 48.6239 58.3569L112.891 95.4555C114.822 96.5736 115.94 98.0728 115.94 99.577C115.94 100.837 115.157 101.986 113.745 102.804L85.6005 119.067C83.9759 119.906 82.1633 120.315 80.3356 120.256ZM41.8242 57.2999C40.1082 57.2532 38.4085 57.6431 36.8845 58.4332L8.74544 74.6956C7.541 75.3918 6.87526 76.337 6.87526 77.3585C6.87526 78.624 7.89166 79.8995 9.58905 80.9159L73.856 118.015C77.2356 119.966 82.3633 120.185 85.2753 118.523L113.414 102.26C114.624 101.564 115.284 100.619 115.284 99.5974C115.284 98.332 114.299 97.0564 112.571 96.04L48.3088 58.9414C46.3222 57.8513 44.0902 57.2863 41.8242 57.2999Z"
    fill="#00112C"/>
  <path
    d="M37.0013 60.3491L34.9227 61.5535C34.2519 61.9448 34.2519 62.5699 34.9227 62.9714C35.5935 63.3576 35.5986 63.9878 34.9227 64.3842L19.2803 73.4454C18.9005 73.637 18.481 73.7369 18.0556 73.7369C17.6301 73.7369 17.2106 73.637 16.8308 73.4454C16.4501 73.2537 16.0297 73.1538 15.6035 73.1538C15.1772 73.1538 14.7569 73.2537 14.3762 73.4454L9.9955 75.9864C8.4709 76.8656 8.4709 78.2987 9.9955 79.1677L75.0451 116.566C77.8351 118.167 82.3886 118.157 85.1684 116.566L112.169 100.888C113.694 100.009 113.694 98.5759 112.169 97.7068L47.1195 60.3084C44.3447 58.7076 39.7913 58.7381 37.0013 60.3491Z"
    fill="#F4F5FB"/>
  <path fill-rule="evenodd" clip-rule="evenodd"
        d="M29.3417 64.7971C29.3921 64.8689 29.4635 64.9235 29.546 64.9533C29.7608 65.063 29.9985 65.1203 30.2397 65.1203C30.4809 65.1203 30.7186 65.063 30.9334 64.9533C31.0184 64.9259 31.0924 64.8723 31.145 64.8002C31.1975 64.728 31.2258 64.6411 31.2258 64.5518C31.2258 64.4626 31.1975 64.3756 31.145 64.3035C31.0924 64.2313 31.0184 64.1777 30.9334 64.1504C30.7186 64.0406 30.4809 63.9834 30.2397 63.9834C29.9985 63.9834 29.7608 64.0406 29.546 64.1504C29.4635 64.1802 29.3921 64.2347 29.3417 64.3066C29.2913 64.3784 29.2642 64.4641 29.2642 64.5518C29.2642 64.6396 29.2913 64.7252 29.3417 64.7971ZM27.4524 65.36L19.2958 70.071C18.9654 70.2641 19.0061 70.5995 19.4126 70.818C19.6094 70.9274 19.829 70.9895 20.054 70.9992C20.2789 71.0089 20.5031 70.966 20.7086 70.8739L28.8398 66.1629C29.1701 65.9698 29.1294 65.6344 28.7483 65.4159C28.552 65.3049 28.3323 65.242 28.107 65.2323C27.8818 65.2226 27.6574 65.2663 27.4524 65.36Z"
        fill="#00112C"/>
  <path d="M96.4048 97.2697L77.6218 108.028L71.0457 104.202L89.8338 93.443L96.4048 97.2697Z" fill="#00112C"/>
  <path fill-rule="evenodd" clip-rule="evenodd"
        d="M84.0808 98.9316L83.725 99.1348L86.7692 99.9124L86.9623 100.161C87.0015 100.197 87.0307 100.241 87.0471 100.291C87.0635 100.341 87.0664 100.395 87.0556 100.446C87.0448 100.498 87.0206 100.546 86.9855 100.585C86.9504 100.624 86.9056 100.653 86.8556 100.67C86.7688 100.718 86.6788 100.761 86.5862 100.797L86.8505 100.949C86.9658 100.906 87.0779 100.856 87.1859 100.797C87.2596 100.763 87.3251 100.714 87.3778 100.653C87.4305 100.591 87.4691 100.519 87.4908 100.441C87.4946 100.347 87.4789 100.254 87.4448 100.166C87.4107 100.079 87.3589 99.9992 87.2926 99.9327L85.7426 97.9558L85.3869 98.1591C85.9256 98.835 86.2508 99.2162 86.3626 99.3432C86.4371 99.4358 86.5169 99.524 86.6015 99.6075C86.449 99.5516 86.1797 99.4703 85.7883 99.3635L84.0808 98.9316ZM85.3311 100.731L84.9499 100.593C84.9668 100.652 84.9715 100.713 84.9636 100.774C84.9558 100.834 84.9355 100.892 84.9042 100.944C84.8146 101.06 84.6999 101.154 84.5688 101.219C84.3646 101.342 84.1316 101.411 83.8929 101.417C83.6615 101.422 83.433 101.364 83.2322 101.249C82.7952 100.995 82.912 100.66 83.5981 100.233L83.9589 100.009L83.8217 99.9328C83.6688 99.8379 83.4934 99.7853 83.3135 99.7803C83.1448 99.7768 82.9787 99.8227 82.8358 99.9125C82.647 100.02 82.4908 100.176 82.3835 100.365L82.0278 100.278C82.0844 100.172 82.1583 100.076 82.2463 99.9938C82.3474 99.8972 82.4601 99.8136 82.5817 99.7448C82.8089 99.6044 83.0673 99.5224 83.3339 99.5059C83.5978 99.5069 83.8563 99.5808 84.0809 99.7194L85.5699 100.583L85.3311 100.731ZM84.3503 101.031C84.5535 100.909 84.6603 100.787 84.6653 100.649C84.6704 100.512 84.5688 100.395 84.3655 100.278L84.1673 100.161L83.8522 100.36C83.669 100.45 83.5142 100.589 83.405 100.761C83.3643 100.868 83.405 100.97 83.5676 101.056C83.6827 101.124 83.8151 101.158 83.9488 101.152C84.0907 101.146 84.2287 101.104 84.3503 101.031ZM82.5409 102.413C82.3944 102.495 82.237 102.557 82.0733 102.596C81.8962 102.632 81.7147 102.642 81.5346 102.626C81.6769 102.692 81.8091 102.758 81.9209 102.824L82.8204 103.333L82.4901 103.526L79.324 101.696L79.5933 101.539L79.9389 101.686C79.9225 101.633 79.9177 101.577 79.9247 101.522C79.9317 101.466 79.9504 101.413 79.9796 101.366C80.06 101.253 80.1663 101.161 80.2896 101.097C80.5819 100.928 80.919 100.854 81.2551 100.883C81.6325 100.912 81.998 101.029 82.3224 101.224C82.6832 101.432 82.8814 101.64 82.922 101.849C82.9627 102.057 82.8255 102.225 82.5409 102.413ZM80.5081 101.295C80.2845 101.427 80.1879 101.554 80.2133 101.681C80.2387 101.808 80.381 101.955 80.6453 102.113L80.7215 102.154C80.9683 102.309 81.2456 102.41 81.5346 102.448C81.7772 102.462 82.0182 102.402 82.2258 102.276C82.4138 102.169 82.485 102.037 82.4392 101.889C82.3431 101.684 82.1749 101.521 81.9666 101.432C81.7273 101.285 81.4582 101.193 81.1789 101.163C80.9496 101.126 80.7148 101.164 80.5081 101.269V101.295Z"
        fill="white"/>
  <path fill-rule="evenodd" clip-rule="evenodd"
        d="M30.7351 86.9635C30.3465 86.9658 29.9636 86.8697 29.6221 86.684L21.0742 81.7494C20.921 81.6781 20.7892 81.5678 20.692 81.4295C20.5948 81.2913 20.5356 81.13 20.5203 80.9617C20.5261 80.8242 20.5688 80.6908 20.6439 80.5754C20.719 80.4601 20.8237 80.3671 20.9472 80.3061L47.3024 65.0957C47.6159 64.9471 47.9605 64.876 48.3071 64.8883C48.6538 64.9007 48.9925 64.9962 49.2945 65.1668L57.8374 70.1015C57.994 70.1729 58.1285 70.2852 58.2268 70.4264C58.3251 70.5677 58.3837 70.7328 58.3964 70.9044C58.3908 71.0413 58.3481 71.1741 58.2729 71.2887C58.1977 71.4032 58.0929 71.4953 57.9695 71.5549L31.6194 86.7552C31.3476 86.9 31.0429 86.9718 30.7351 86.9635ZM48.1816 65.3854C47.9628 65.3782 47.7459 65.4272 47.5514 65.5277L21.2013 80.7432C21.1352 80.7787 21.0234 80.8601 21.0234 80.9617C21.0234 81.0633 21.1047 81.1853 21.3232 81.3124L29.8864 86.247C30.112 86.3733 30.3637 86.4459 30.622 86.4591C30.8802 86.4723 31.1381 86.4258 31.3754 86.3232L57.7307 71.1077C57.7917 71.067 57.9035 70.9908 57.9035 70.8892C57.9035 70.7875 57.8272 70.6656 57.6036 70.5334L49.0455 65.5988C48.7804 65.4552 48.4831 65.3817 48.1816 65.3854ZM36.1983 90.1195C35.811 90.1241 35.4292 90.0277 35.0904 89.84L33.2405 88.7728C33.0873 88.7014 32.9556 88.5911 32.8584 88.4529C32.7612 88.3147 32.7019 88.1533 32.6866 87.9851C32.6919 87.8474 32.7344 87.7138 32.8095 87.5983C32.8847 87.4829 32.9897 87.39 33.1135 87.3295L59.4637 72.114C59.7787 71.9673 60.1242 71.8977 60.4715 71.911C60.8188 71.9242 61.1579 72.02 61.4609 72.1902L63.3107 73.2574C63.4642 73.3283 63.5963 73.4385 63.6935 73.5768C63.7908 73.7151 63.8498 73.8767 63.8647 74.0451C63.859 74.182 63.8163 74.3148 63.7412 74.4294C63.666 74.544 63.5611 74.636 63.4378 74.6956L37.0825 89.9111C36.8112 90.0571 36.5062 90.1289 36.1983 90.1195ZM60.3479 72.429C60.1291 72.4214 59.912 72.4704 59.7178 72.5713L33.3625 87.7665C33.2964 87.8021 33.1897 87.8834 33.1897 87.9851C33.1897 88.0867 33.2659 88.2087 33.4896 88.3357L35.3394 89.408C35.5667 89.5325 35.8194 89.6036 36.0782 89.6159C36.3371 89.6282 36.5954 89.5815 36.8335 89.4792L63.1837 74.2637C63.2497 74.2281 63.3615 74.1468 63.3615 74.0451C63.3615 73.9435 63.2802 73.8215 63.0617 73.6894L61.2068 72.6222C60.9414 72.4862 60.6459 72.4198 60.3479 72.429ZM47.0993 96.7718C47.4381 96.9596 47.8199 97.0559 48.2072 97.0513C48.5168 97.0534 48.8216 96.9745 49.0915 96.8226L60.5056 90.2618C60.629 90.2021 60.7338 90.1101 60.809 89.9955C60.8842 89.881 60.9269 89.7482 60.9325 89.6113C60.9177 89.4428 60.8587 89.2813 60.7614 89.143C60.6641 89.0047 60.5321 88.8945 60.3786 88.8236L52.2067 84.1075C51.9047 83.9369 51.566 83.8413 51.2193 83.829C50.8726 83.8166 50.5281 83.8877 50.2146 84.0363L38.8055 90.6175C38.6821 90.6772 38.5773 90.7692 38.5021 90.8837C38.4269 90.9983 38.3843 91.1311 38.3786 91.268C38.3924 91.4361 38.4505 91.5975 38.5469 91.7358C38.6433 91.8742 38.7746 91.9845 38.9275 92.0557L47.0993 96.7718ZM50.4534 84.4886C50.6479 84.3881 50.8648 84.3391 51.0836 84.3463V84.326C51.3779 84.3283 51.6673 84.4015 51.9272 84.5394L53.0644 85.1961L40.5513 92.4265L39.1612 91.6237C38.9376 91.4916 38.8563 91.3696 38.8563 91.268C38.8563 91.1664 38.9681 91.0901 39.0342 91.0495L50.4534 84.4886ZM60.094 89.2555L53.5674 85.4866L41.0542 92.7169L47.328 96.3398C47.5553 96.4643 47.808 96.5354 48.0669 96.5477C48.3257 96.56 48.584 96.5133 48.8221 96.411L60.2211 89.8298C60.2871 89.7891 60.3938 89.7129 60.3938 89.6113C60.3938 89.5096 60.3176 89.3826 60.094 89.2555ZM63.1582 88.4171C62.7709 88.4216 62.3891 88.3253 62.0503 88.1375L53.8835 83.4214C53.7304 83.3514 53.5986 83.2421 53.5013 83.1047C53.404 82.9672 53.3448 82.8065 53.3296 82.6388C53.3363 82.4996 53.3811 82.3648 53.459 82.2492C53.537 82.1336 53.6451 82.0416 53.7717 81.9832L65.1707 75.3766C65.4841 75.228 65.8287 75.1569 66.1754 75.1693C66.5221 75.1817 66.8607 75.2772 67.1628 75.4478L75.3346 80.1639C75.4875 80.2351 75.6188 80.3454 75.7152 80.4838C75.8116 80.6221 75.8697 80.7835 75.8835 80.9516C75.8784 81.0886 75.836 81.2217 75.7607 81.3363C75.6855 81.451 75.5803 81.5429 75.4566 81.6021L64.0577 88.2087C63.781 88.355 63.471 88.4268 63.1582 88.4171ZM66.0346 75.7121C65.8165 75.7059 65.6002 75.753 65.4044 75.8493L54.0055 82.4559C53.9394 82.4965 53.8327 82.5728 53.8327 82.6795C53.8327 82.7862 53.9089 82.9031 54.1325 83.0301L55.3951 83.7592L67.9038 76.5314L66.8985 75.9509C66.6373 75.7931 66.3397 75.7055 66.0346 75.6968V75.7121ZM68.4068 76.8219L75.0653 80.667C75.2889 80.7941 75.3702 80.916 75.3702 81.0177C75.3702 81.1193 75.2584 81.2006 75.1924 81.2362L63.7934 87.8174C63.5556 87.9208 63.2972 87.9682 63.0381 87.9558C62.779 87.9435 62.5263 87.8718 62.2993 87.7462L55.898 84.0497L68.4068 76.8219ZM34.6432 80.611L35.4309 80.1537L31.721 78.004L31.0756 78.38L30.8317 79.6251L31.6855 79.676L31.7668 79.2338C31.7747 79.1306 31.7747 79.027 31.7668 78.9238L32.1428 79.1576L32.4884 79.366L34.6432 80.611ZM36.7471 77.2468C37.3976 77.6229 37.7635 77.9583 37.8702 78.2632C37.977 78.5682 37.7991 78.8477 37.362 79.1018C36.9212 79.3517 36.4111 79.4515 35.9086 79.3864C35.2864 79.2957 34.6895 79.0777 34.1553 78.746C33.4946 78.37 33.1389 78.0295 33.0169 77.7296C32.895 77.4298 33.0932 77.1503 33.5251 76.8962C33.9693 76.6455 34.4834 76.5473 34.9888 76.6167C35.6122 76.7027 36.211 76.9173 36.7471 77.2468ZM34.9227 78.2988C35.2677 78.5134 35.6382 78.6841 36.0255 78.807C36.2567 78.8774 36.5062 78.8556 36.7217 78.746C36.9047 78.6393 36.9352 78.5072 36.8183 78.3446C36.58 78.0827 36.298 77.8643 35.9848 77.6991C35.6414 77.4782 35.2684 77.3071 34.8769 77.1909C34.6482 77.1181 34.3999 77.1382 34.1858 77.2468C33.9978 77.3536 33.9673 77.4857 34.0842 77.6483C34.3255 77.9103 34.6089 78.1301 34.9227 78.2988ZM40.8484 76.5454C40.7366 76.2404 40.3707 75.8999 39.7202 75.529C39.1858 75.1995 38.5887 74.9849 37.9669 74.8988C37.4615 74.8271 36.9467 74.9255 36.5033 75.1783C36.0662 75.4324 35.8782 75.7119 35.9951 76.0118C36.112 76.3116 36.4728 76.6521 37.1284 77.0282C37.6645 77.3587 38.2631 77.575 38.8867 77.6634C39.3888 77.7328 39.8997 77.6345 40.3402 77.3839C40.7722 77.1298 40.9602 76.8503 40.8484 76.5454ZM39.0036 77.0841C38.6157 76.9628 38.245 76.792 37.9008 76.5759C37.5772 76.4153 37.2847 76.1985 37.0369 75.9355C36.92 75.7729 36.9505 75.6408 37.1335 75.534C37.3495 75.4257 37.5992 75.4056 37.8297 75.4781C38.2208 75.5953 38.5937 75.7663 38.9376 75.9863C39.2569 76.1383 39.5461 76.3466 39.7913 76.6013C39.9133 76.7639 39.8777 76.896 39.6948 77.0027C39.4839 77.1193 39.2358 77.1485 39.0036 77.0841ZM42.6982 73.8062C43.3487 74.1822 43.7146 74.5227 43.8213 74.8226C43.928 75.1224 43.7502 75.4019 43.3131 75.6611C42.8707 75.9117 42.3582 76.01 41.8546 75.9406C41.2327 75.8515 40.6359 75.6353 40.1013 75.3054C39.4457 74.9242 39.0849 74.5837 38.968 74.289C38.8511 73.9942 39.0391 73.7096 39.4762 73.4504C39.9209 73.2012 40.4345 73.1031 40.9398 73.1709C41.563 73.261 42.1613 73.4772 42.6982 73.8062ZM40.8788 74.8581C41.2204 75.0759 41.5895 75.2468 41.9765 75.3663C42.0905 75.4034 42.2107 75.4175 42.3302 75.4079C42.4497 75.3983 42.5661 75.3652 42.6728 75.3104C42.8557 75.2037 42.8862 75.0716 42.7693 74.909C42.5258 74.647 42.2364 74.4317 41.9156 74.2737C41.5711 74.0546 41.1984 73.8836 40.8077 73.7655C40.6937 73.7282 40.5735 73.714 40.4539 73.7236C40.3344 73.7332 40.218 73.7664 40.1114 73.8214C39.9285 73.9281 39.8929 74.0603 40.0149 74.2229C40.2631 74.484 40.5556 74.6991 40.8788 74.8581ZM47.638 72.5103C47.6736 72.307 47.5516 72.1241 47.2823 71.9665C47.1249 71.881 46.9522 71.8274 46.7741 71.809C46.5682 71.7837 46.36 71.7837 46.1541 71.809C45.8106 71.8583 45.471 71.9313 45.1377 72.0275L44.3855 71.5905C44.7108 71.4362 45.0515 71.317 45.4019 71.2347L45.0462 70.7519C44.5968 70.8513 44.1627 71.0102 43.7554 71.2246L43.3742 71.006L43.0286 71.2093L43.4149 71.4329C43.169 71.5701 42.9866 71.7981 42.9067 72.0682C42.8711 72.2664 42.9778 72.4341 43.2218 72.5764C43.4626 72.7117 43.7333 72.785 44.0095 72.7898C44.3978 72.7866 44.784 72.7319 45.158 72.6272L45.3918 72.5662L46.1846 73.0236C45.9718 73.1254 45.7529 73.2137 45.529 73.2878C45.2912 73.3679 45.0484 73.4324 44.8023 73.481L45.4731 73.8723C45.9303 73.7656 46.3701 73.5945 46.7792 73.3641L47.2874 73.6588L47.638 73.4556L47.1298 73.1557C47.3778 73.0161 47.5605 72.7841 47.638 72.5103ZM44.2483 72.1952C44.1559 72.1977 44.0645 72.1748 43.9841 72.1292C43.8418 72.0478 43.8621 71.9208 44.0501 71.7887L44.6447 72.1342C44.5144 72.165 44.3819 72.1854 44.2483 72.1952ZM46.2862 72.3782C46.3794 72.3717 46.4726 72.391 46.5556 72.4341V72.429C46.7131 72.5255 46.6978 72.6475 46.5098 72.8051L45.8746 72.4392C46.01 72.4082 46.1476 72.3878 46.2862 72.3782Z"
        fill="#00112C"/>
  <path
    d="M44.8811 31.2937C44.8811 25.1953 49.15 17.7827 54.4404 14.7335C56.8828 13.3248 59.1056 13.0961 60.7949 13.8492L60.9504 13.9346L62.6763 14.9043L63.6581 16.5935C64.5546 17.7583 63.9996 18.1181 63.9996 20.2526C63.9996 26.351 59.7307 33.7636 54.4404 36.8128C52.5743 37.8891 53.0743 37.8281 51.6016 37.6086L49.3604 38.4258L47.7291 37.511L47.5797 37.4256C45.9057 36.395 44.8811 34.2789 44.8811 31.2937Z"
    fill="white"/>
  <path
    d="M49.3421 38.6393L51.6229 37.8068L51.9279 37.8556C52.803 37.9959 52.8426 37.9837 53.733 37.4501C53.9403 37.3251 54.1965 37.1696 54.5288 36.9805C59.8619 33.9039 64.2009 26.4028 64.2009 20.2526C64.2037 19.7183 64.2393 19.1847 64.3076 18.6548C64.4082 17.8224 64.4662 17.3193 63.8167 16.4777L62.8257 14.764L60.8864 13.6907C59.0569 12.8705 56.7456 13.1845 54.3428 14.5689C49.0189 17.6394 44.686 25.1313 44.686 31.2938C44.686 34.2454 45.68 36.4774 47.4791 37.5843L47.6315 37.6727L49.3421 38.6393ZM51.5833 37.4196L49.3757 38.2246L47.6773 37.261C46.0002 36.2335 45.0732 34.1143 45.0732 31.3029C45.0732 25.2746 49.3177 17.923 54.5258 14.9104C56.8279 13.5779 59.0172 13.2699 60.7156 14.0353L62.5452 15.0476L63.4904 16.6911C64.0576 17.429 64.0149 17.8132 63.9173 18.6091C63.846 19.154 63.8094 19.703 63.8075 20.2526C63.8075 26.2778 59.563 33.6325 54.355 36.6451C54.0227 36.8372 53.7635 36.9958 53.5531 37.1208C52.7694 37.5964 52.7725 37.5965 52.0102 37.4745L51.6443 37.4165L51.5833 37.4196Z"
    fill="#000977"/>
  <path
    d="M59.1758 32.547C57.8564 34.236 56.2391 35.6693 54.4038 36.7762C52.5346 37.8556 53.0377 37.7946 51.565 37.5751L49.3208 38.3923L47.6894 37.4775L47.5431 37.3891C45.8721 36.3676 44.8415 34.2515 44.8415 31.2633C44.8415 28.519 45.7105 25.5125 47.1436 22.756L55.2423 27.2231L59.1758 32.547Z"
    fill="#00112C"/>
  <path
    d="M49.1596 38.3205C45.4261 36.165 45.4261 29.1753 49.1596 22.7088C52.893 16.2422 58.9463 12.7474 62.6798 14.9029C66.4133 17.0585 66.4134 24.0481 62.6799 30.5147C58.9464 36.9813 52.8932 40.4761 49.1596 38.3205Z"
    fill="white"/>
  <path
    d="M51.6503 39.1576C52.992 39.1576 54.48 38.7094 56.0168 37.822C61.3407 34.7423 65.6736 27.2383 65.6736 21.0911C65.6736 18.0693 64.643 15.8129 62.7768 14.7335C60.9107 13.6541 58.4378 13.8919 55.8216 15.4043C50.4977 18.4779 46.1648 25.9789 46.1648 32.1444C46.1648 35.1662 47.1954 37.4226 49.0615 38.502C49.8516 38.9449 50.7447 39.1711 51.6503 39.1576ZM60.1881 14.4591C61.026 14.4458 61.8523 14.6564 62.5817 15.0689C64.3258 16.0751 65.2863 18.2126 65.2863 21.0911C65.2863 27.1163 61.0419 34.4679 55.8338 37.4805C53.3304 38.9198 50.9978 39.1576 49.2597 38.1514C47.5217 37.1451 46.5521 35.0046 46.5521 32.1444C46.5521 26.1192 50.7965 18.7645 56.0046 15.7519C57.4926 14.886 58.9135 14.4591 60.1881 14.4591Z"
    fill="#000977"/>
  <path
    d="M50.1695 36.5804C46.9917 34.7457 46.9923 28.7952 50.1709 23.2897C53.3495 17.7842 58.5024 14.8085 61.6803 16.6432C64.8581 18.478 64.8576 24.4284 61.679 29.9339C58.5004 35.4394 53.3474 38.4151 50.1695 36.5804Z"
    fill="white"/>
  <path
    d="M55.9498 22.2559L56.395 27.0066L55.4803 27.5402L55.9071 22.2834C55.901 22.2468 55.9468 22.2224 55.9498 22.2559Z"
    fill="white"/>
  <path
    d="M55.2483 27.8908L56.5991 27.1133L56.1265 22.0608L55.9344 22.0455C55.8757 22.0483 55.82 22.0725 55.7779 22.1135C55.7358 22.1545 55.7101 22.2095 55.7057 22.2681L55.2483 27.8908ZM56.1905 26.9029L55.6935 27.1895L55.9374 24.1952L56.1905 26.9029Z"
    fill="#150035"/>
  <path d="M55.8615 27.3479L55.8958 27.7336L51.8562 28.0927L51.822 27.707L55.8615 27.3479Z" fill="#150035"/>
  <path d="M56.0681 18.3986L56.0771 19.4353L55.7783 19.4379L55.7693 18.4012L56.0681 18.3986Z" fill="#150035"/>
  <path d="M55.3223 18.8598L55.4268 19.8361L55.1327 19.8675L55.0282 18.8913L55.3223 18.8598Z" fill="#150035"/>
  <path d="M54.5852 19.4056L54.782 20.3083L54.493 20.3714L54.2962 19.4687L54.5852 19.4056Z" fill="#150035"/>
  <path d="M53.8604 20.0252L54.1482 20.8452L53.8691 20.9432L53.5813 20.1232L53.8604 20.0252Z" fill="#150035"/>
  <path d="M53.1607 20.7175L53.5359 21.4469L53.2729 21.5822L52.8977 20.8528L53.1607 20.7175Z" fill="#150035"/>
  <path d="M52.4868 21.4705L52.9463 22.1016L52.7047 22.2775L52.2452 21.6464L52.4868 21.4705Z" fill="#150035"/>
  <path d="M51.8438 22.28L52.3826 22.8063L52.1738 23.02L51.635 22.4937L51.8438 22.28Z" fill="#150035"/>
  <path d="M51.2439 23.1405L51.855 23.5541L51.6875 23.8015L51.0764 23.388L51.2439 23.1405Z" fill="#150035"/>
  <path d="M50.696 24.0387L51.3743 24.3369L51.2552 24.6077L50.5769 24.3095L50.696 24.0387Z" fill="#150035"/>
  <path d="M50.2042 24.9652L50.939 25.1439L50.8683 25.4343L50.1336 25.2556L50.2042 24.9652Z" fill="#150035"/>
  <path d="M49.7731 25.917L50.5608 25.974L50.5394 26.269L49.7518 26.212L49.7731 25.917Z" fill="#150035"/>
  <path d="M50.1634 26.7931L50.1873 27.0919L49.3548 27.1585L49.3309 26.8597L50.1634 26.7931Z" fill="#150035"/>
  <path d="M49.9905 27.6497L50.0535 27.9418L49.1921 28.1275L49.1291 27.8354L49.9905 27.6497Z" fill="#150035"/>
  <path d="M49.8045 28.4753L49.9019 28.7578L49.0169 29.0629L48.9195 28.7804L49.8045 28.4753Z" fill="#150035"/>
  <path d="M49.6849 29.288L49.8103 29.5559L48.9128 29.9761L48.7874 29.7083L49.6849 29.288Z" fill="#150035"/>
  <path d="M50.5106 29.5594L50.6597 29.8148L48.8873 30.8492L48.7383 30.5938L50.5106 29.5594Z" fill="#150035"/>
  <path d="M49.6603 30.7959L49.8335 31.0394L48.9366 31.6775L48.7633 31.4341L49.6603 30.7959Z" fill="#150035"/>
  <path d="M49.7564 31.4872L49.946 31.7141L49.0664 32.4494L48.8767 32.2224L49.7564 31.4872Z" fill="#150035"/>
  <path d="M49.9127 32.1191L50.1204 32.334L49.2652 33.1604L49.0576 32.9455L49.9127 32.1191Z" fill="#150035"/>
  <path d="M50.1382 32.6968L50.3599 32.8972L49.54 33.8043L49.3183 33.6039L50.1382 32.6968Z" fill="#150035"/>
  <path d="M50.4282 33.2023L50.6599 33.3861L49.8829 34.3655L49.6512 34.1816L50.4282 33.2023Z" fill="#150035"/>
  <path d="M50.7727 33.6354L51.0178 33.8063L50.2926 34.847L50.0475 34.6761L50.7727 33.6354Z" fill="#150035"/>
  <path d="M51.1797 33.9896L51.4348 34.1453L50.7709 35.2333L50.5159 35.0776L51.1797 33.9896Z" fill="#150035"/>
  <path d="M51.6373 34.2674L51.8987 34.4059L51.3021 35.5322L51.0407 35.3938L51.6373 34.2674Z" fill="#150035"/>
  <path d="M52.1312 34.4513L52.4033 34.5748L51.8802 35.727L51.6081 35.6035L52.1312 34.4513Z" fill="#150035"/>
  <path d="M52.6734 34.5549L52.9526 34.6613L52.51 35.8239L52.2308 35.7176L52.6734 34.5549Z" fill="#150035"/>
  <path d="M53.253 34.5744L53.5356 34.6615L53.1775 35.8242L52.8948 35.7372L53.253 34.5744Z" fill="#150035"/>
  <path d="M53.8568 34.5006L54.1448 34.5681L53.8753 35.717L53.5874 35.6494L53.8568 34.5006Z" fill="#150035"/>
  <path d="M54.4785 34.3429L54.7737 34.3896L54.5956 35.513L54.3004 35.4662L54.4785 34.3429Z" fill="#150035"/>
  <path d="M55.1258 34.1059L55.4207 34.1289L55.336 35.2142L55.0411 35.1912L55.1258 34.1059Z" fill="#150035"/>
  <path d="M56.0705 32.7748L56.0784 34.8147L55.7795 34.8158L55.7717 32.7759L56.0705 32.7748Z" fill="#150035"/>
  <path d="M56.7168 33.3521L56.8203 34.3285L56.5262 34.3597L56.4227 33.3833L56.7168 33.3521Z" fill="#150035"/>
  <path d="M57.3527 32.8484L57.5496 33.7511L57.2606 33.8141L57.0638 32.9114L57.3527 32.8484Z" fill="#150035"/>
  <path d="M57.9793 32.2754L58.2671 33.0953L57.988 33.1933L57.7002 32.3733L57.9793 32.2754Z" fill="#150035"/>
  <path d="M58.5777 31.6418L58.9529 32.3712L58.6899 32.5065L58.3147 31.7771L58.5777 31.6418Z" fill="#150035"/>
  <path d="M59.1433 30.9465L59.6023 31.5779L59.3631 31.7518L58.904 31.1205L59.1433 30.9465Z" fill="#150035"/>
  <path d="M59.6735 30.2018L60.2119 30.7285L60.003 30.9421L59.4646 30.4155L59.6735 30.2018Z" fill="#150035"/>
  <path d="M60.159 29.4189L60.7698 29.8329L60.6038 30.0777L59.993 29.6637L60.159 29.4189Z" fill="#150035"/>
  <path d="M60.5944 28.6119L61.2727 28.9102L61.1536 29.1809L60.4754 28.8826L60.5944 28.6119Z" fill="#150035"/>
  <path d="M60.9818 27.7858L61.7166 27.9645L61.6459 28.2548L60.9112 28.0761L60.9818 27.7858Z" fill="#150035"/>
  <path d="M61.3073 26.9484L62.095 27.0054L62.0736 27.3004L61.2859 27.2434L61.3073 26.9484Z" fill="#150035"/>
  <path d="M62.4118 26.043L62.4351 26.3409L61.6051 26.4057L61.5819 26.1078L62.4118 26.043Z" fill="#150035"/>
  <path d="M62.6562 25.087L62.7192 25.3792L61.8578 25.5649L61.7948 25.2728L62.6562 25.087Z" fill="#150035"/>
  <path d="M62.8311 24.1533L62.9285 24.4358L62.0435 24.7409L61.9461 24.4584L62.8311 24.1533Z" fill="#150035"/>
  <path d="M62.9309 23.2436L63.0564 23.5115L62.159 23.9319L62.0335 23.664L62.9309 23.2436Z" fill="#150035"/>
  <path d="M62.9596 22.3714L63.1086 22.6268L61.3361 23.6609L61.1871 23.4055L62.9596 22.3714Z" fill="#150035"/>
  <path d="M62.9064 21.5405L63.0796 21.7841L62.1826 22.422L62.0094 22.1785L62.9064 21.5405Z" fill="#150035"/>
  <path d="M62.7837 20.7701L62.9734 20.9971L62.0937 21.7323L61.904 21.5054L62.7837 20.7701Z" fill="#150035"/>
  <path d="M62.5792 20.0533L62.7869 20.2682L61.9316 21.0944L61.724 20.8795L62.5792 20.0533Z" fill="#150035"/>
  <path d="M62.3098 19.4164L62.5315 19.6168L61.7116 20.5239L61.4899 20.3235L62.3098 19.4164Z" fill="#150035"/>
  <path d="M61.9651 18.8552L62.1968 19.0391L61.4197 20.0184L61.188 19.8346L61.9651 18.8552Z" fill="#150035"/>
  <path d="M61.5525 18.3736L61.7952 18.5427L61.07 19.5834L60.8273 19.4143L61.5525 18.3736Z" fill="#150035"/>
  <path d="M61.0771 17.9853L61.3296 18.1393L60.6661 19.2275L60.4136 19.0736L61.0771 17.9853Z" fill="#150035"/>
  <path d="M60.5487 17.6905L60.8101 17.829L60.2135 18.9553L59.9521 18.8168L60.5487 17.6905Z" fill="#150035"/>
  <path d="M59.965 17.4923L60.2344 17.6145L59.7114 18.7668L59.4421 18.6446L59.965 17.4923Z" fill="#150035"/>
  <path d="M59.3378 17.3928L59.6143 17.498L59.1717 18.6607L58.8952 18.5555L59.3378 17.3928Z" fill="#150035"/>
  <path d="M58.6736 17.3945L58.9563 17.4816L58.5982 18.6443L58.3155 18.5572L58.6736 17.3945Z" fill="#150035"/>
  <path d="M57.9723 17.5L58.2603 17.5675L57.9908 18.7164L57.7028 18.6488L57.9723 17.5Z" fill="#150035"/>
  <path d="M57.2488 17.7019L57.5439 17.7487L57.3658 18.872L57.0707 18.8252L57.2488 17.7019Z" fill="#150035"/>
  <path d="M56.5169 18.0046L56.8118 18.0276L56.7271 19.1129L56.4322 19.0899L56.5169 18.0046Z" fill="#150035"/>
  <path d="M56.0677 18.4008L56.0776 20.4407L55.7788 20.4421L55.7688 18.4022L56.0677 18.4008Z" fill="#150035"/>
  <path
    d="M55.2666 27.8939C55.2666 28.2812 55.538 28.4397 55.8765 28.2446C56.0535 28.1286 56.2009 27.9728 56.3068 27.7895C56.4127 27.6063 56.4742 27.4008 56.4863 27.1895C56.4863 26.7992 56.2119 26.6437 55.8765 26.8358C55.6985 26.9516 55.5505 27.1077 55.4445 27.2917C55.3385 27.4756 55.2776 27.6819 55.2666 27.8939Z"
    fill="white"/>
  <path
    d="M55.6021 28.5221C55.7316 28.518 55.8577 28.4801 55.968 28.4123C56.1738 28.2795 56.345 28.0996 56.4675 27.8876C56.59 27.6755 56.6602 27.4373 56.6724 27.1926C56.6904 27.0819 56.6748 26.9683 56.6276 26.8665C56.5804 26.7647 56.5037 26.6794 56.4075 26.6216C56.3113 26.5638 56.2 26.5362 56.088 26.5423C55.9759 26.5485 55.8683 26.5881 55.779 26.656C55.5732 26.7888 55.402 26.9687 55.2795 27.1808C55.157 27.3929 55.0868 27.6311 55.0746 27.8757C55.063 27.9891 55.0834 28.1035 55.1335 28.2059C55.1837 28.3083 55.2615 28.3946 55.3582 28.455C55.4327 28.4973 55.5165 28.5204 55.6021 28.5221ZM56.1479 26.9609C56.169 26.956 56.1909 26.956 56.212 26.9609C56.242 26.9903 56.2648 27.0262 56.2785 27.0659C56.2923 27.1056 56.2966 27.1479 56.2913 27.1896C56.2798 27.3669 56.2277 27.5392 56.1388 27.6931C56.05 27.847 55.9268 27.9784 55.779 28.0769C55.7461 28.1033 55.707 28.121 55.6655 28.1285C55.624 28.1359 55.5812 28.1329 55.5412 28.1196C55.51 28.0916 55.4863 28.0564 55.4719 28.017C55.4575 27.9777 55.4531 27.9354 55.4588 27.894C55.469 27.7163 55.5203 27.5433 55.6086 27.3888C55.697 27.2343 55.82 27.1025 55.968 27.0036C56.0235 26.9746 56.0854 26.9599 56.1479 26.9609Z"
    fill="#150035"/>
</svg>